<?xml version="1.0" encoding="UTF-8"?>
<svg version="1.1" xmlns="http://www.w3.org/2000/svg" width="1024" height="1024">
<path d="M0 0 C1.24007812 0.13148438 2.48015625 0.26296875 3.7578125 0.3984375 C17.52591178 2.18755755 30.59381838 7.62348267 41 17 C41.80824219 17.71671875 42.61648437 18.4334375 43.44921875 19.171875 C50.91463513 26.1797696 56.61041756 34.27124656 60 44 C60 44.99 60 45.98 60 47 C60.58265625 47.01417969 61.1653125 47.02835937 61.765625 47.04296875 C72.73520456 47.68113611 81.65267245 52.04389371 90 59 C90.845625 59.5775 91.69125 60.155 92.5625 60.75 C101.50335513 69.00309705 107.48334162 81.68264705 108.23828125 93.8359375 C108.6530245 110.70963581 105.21781945 124.56654658 93.375 137.1875 C81.95981578 148.10487919 68.62468013 153.26939104 53 153 C51.93885309 149.81655926 51.89163993 147.60521328 51.91821289 144.26269531 C51.9247438 143.08427063 51.93127472 141.90584595 51.93800354 140.69171143 C51.94943893 139.41672791 51.96087433 138.14174438 51.97265625 136.828125 C51.9820664 134.82498662 51.9914646 132.8218481 52.00016689 130.81870651 C52.02308965 125.87842346 52.05657707 120.93822408 52.09594727 115.99804688 C52.11762036 113.22776288 52.13385188 110.45754342 52.14439392 107.68719482 C52.15471108 105.0794404 52.1732391 102.47170238 52.20094299 99.86407471 C52.30325307 91.2176925 52.30325307 91.2176925 50 83 C49.01 82.67 48.02 82.34 47 82 C47 81.34 47 80.68 47 80 C42.25429782 79.53473508 39.06562052 79.28958632 35 82 C30.46445035 88.80332448 31.88394536 98.51778135 31.9375 106.3984375 C31.94128662 107.66974518 31.94507324 108.94105286 31.94897461 110.25088501 C31.96114724 114.2922928 31.97960115 118.33362786 32 122.375 C32.02680662 127.71614076 32.04651898 133.05725035 32.0625 138.3984375 C32.07494751 140.24832779 32.07494751 140.24832779 32.08764648 142.1355896 C32.09094971 143.27082062 32.09425293 144.40605164 32.09765625 145.57568359 C32.10289307 146.5774765 32.10812988 147.57926941 32.11352539 148.61141968 C32 151 32 151 31 153 C28.36 153 25.72 153 23 153 C22.67 153.66 22.34 154.32 22 155 C22 154.34 22 153.68 22 153 C20.35 152.67 18.7 152.34 17 152 C16.99191315 151.33236633 16.98382629 150.66473267 16.97549438 149.97686768 C16.8894985 143.03386241 16.78999678 136.09114429 16.68261719 129.1484375 C16.6443123 126.55668964 16.60946213 123.96488834 16.578125 121.37304688 C16.53250783 117.64954517 16.4745069 113.92641185 16.4140625 110.203125 C16.39673569 108.46231659 16.39673569 108.46231659 16.37905884 106.68634033 C16.3492543 105.06511261 16.3492543 105.06511261 16.31884766 103.41113281 C16.29886215 101.98550018 16.29886215 101.98550018 16.2784729 100.53106689 C15.98628293 97.87532424 15.42757912 96.24482583 14 94 C9.54265489 91.16350765 4.95420522 92.08152375 0 93 C-1.485 93.495 -1.485 93.495 -3 94 C-4.2240243 97.10475921 -4.1473282 100.2737946 -4.18945312 103.57885742 C-4.20617065 104.69648972 -4.22288818 105.81412201 -4.2401123 106.96562195 C-4.25368774 108.16677139 -4.26726318 109.36792084 -4.28125 110.60546875 C-4.29965942 111.8404158 -4.31806885 113.07536285 -4.33703613 114.34773254 C-4.40581468 118.96675627 -4.46639249 123.58586949 -4.52606201 128.20501709 C-4.58496392 132.73442257 -4.65107446 137.26368719 -4.71875 141.79296875 C-4.73232544 143.00019089 -4.74590088 144.20741302 -4.7598877 145.45121765 C-4.77660522 146.55939346 -4.79332275 147.66756927 -4.81054688 148.80932617 C-4.82933899 150.280149 -4.82933899 150.280149 -4.84851074 151.78068542 C-5 154 -5 154 -6 155 C-8.00089162 155.11520108 -10.0058793 155.15969222 -12.01000977 155.17700195 C-13.29968155 155.18983719 -14.58935333 155.20267242 -15.91810608 155.21589661 C-17.34253554 155.22407418 -18.76696938 155.23151595 -20.19140625 155.23828125 C-21.26884755 155.24439454 -21.26884755 155.24439454 -22.36805534 155.25063133 C-26.18604115 155.27154696 -30.00399068 155.28581236 -33.82202148 155.29516602 C-37.725134 155.30611007 -41.62765712 155.34035033 -45.53056431 155.38033772 C-48.56195447 155.40681794 -51.59321261 155.41488626 -54.62470818 155.41844749 C-56.06009744 155.42325053 -57.49548343 155.43467916 -58.93075752 155.45348549 C-77.45988064 155.68074134 -94.02697148 151.49897407 -107.77734375 138.40234375 C-117.09841289 128.32772597 -120.83909003 115.01977689 -120.3828125 101.453125 C-119.30108996 91.69554615 -115.95658182 83.73053652 -110 76 C-109.38125 75.113125 -108.7625 74.22625 -108.125 73.3125 C-100.16521664 64.65038281 -88.64461368 59.4289178 -77 58 C-75.00017394 57.9736234 -72.99975451 57.96866482 -71 58 C-70.91363281 57.27296875 -70.82726562 56.5459375 -70.73828125 55.796875 C-69.11449321 44.17710739 -65.07108491 34.35775416 -58 25 C-57.52304688 24.33484375 -57.04609375 23.6696875 -56.5546875 22.984375 C-44.34705736 7.40277673 -19.56755156 -2.13353366 0 0 Z " fill="#FD0D5C" transform="translate(177,417)"/>
<path d="M0 0 C0.98033203 -0.01224609 1.96066406 -0.02449219 2.97070312 -0.03710938 C3.90720703 -0.03904297 4.84371094 -0.04097656 5.80859375 -0.04296875 C6.67154053 -0.04707764 7.5344873 -0.05118652 8.42358398 -0.05541992 C10.5625 0.1875 10.5625 0.1875 12.5625 2.1875 C12.80153043 4.06270496 13.03382474 5.93905771 13.22897339 7.81933594 C13.85497422 12.26417666 15.23204752 16.51661918 16.50390625 20.8125 C16.79103989 21.80000244 17.07817352 22.78750488 17.37400818 23.80493164 C18.28529834 26.93415365 19.20500779 30.06082666 20.125 33.1875 C20.74730415 35.31884718 21.36905474 37.45035606 21.99023438 39.58203125 C23.50792315 44.78574229 25.0325174 49.98739112 26.5625 55.1875 C28.67046255 49.73344932 30.50045715 44.28018619 32.12109375 38.6640625 C32.59430487 37.04945098 33.06761525 35.43486854 33.54101562 33.8203125 C34.27102651 31.31755796 34.99946022 28.81436062 35.72583008 26.31054688 C40.94808771 8.34103228 40.94808771 8.34103228 44.5625 0.1875 C47.35423055 0.16059896 50.14570348 0.14070947 52.9375 0.125 C53.7315625 0.11662109 54.525625 0.10824219 55.34375 0.09960938 C61.3359375 0.07421875 61.3359375 0.07421875 63.5625 1.1875 C64.39697266 3.45874023 64.39697266 3.45874023 65.2265625 6.49609375 C65.69739258 8.18847168 65.69739258 8.18847168 66.17773438 9.91503906 C66.51095703 11.13932617 66.84417969 12.36361328 67.1875 13.625 C67.89614677 16.17124571 68.60658416 18.71690171 69.3203125 21.26171875 C69.50253357 21.91355133 69.68475464 22.56538391 69.87249756 23.23696899 C71.82069009 30.17281134 73.9284547 37.05657806 76.0625 43.9375 C76.5877124 45.63217407 76.5877124 45.63217407 77.12353516 47.36108398 C77.93416253 49.97063508 78.74692388 52.57949213 79.5625 55.1875 C81.9529112 49.08456922 83.86041717 42.94139905 85.62890625 36.6328125 C86.20229514 34.61713662 86.77586815 32.60151311 87.34960938 30.5859375 C88.24300849 27.4329965 89.13429239 24.27948736 90.0222168 21.125 C90.88540827 18.06345284 91.75662076 15.00427892 92.62890625 11.9453125 C93.02584435 10.52196091 93.02584435 10.52196091 93.43080139 9.06985474 C93.80645485 7.75741287 93.80645485 7.75741287 94.18969727 6.41845703 C94.40715103 5.64760773 94.6246048 4.87675842 94.84864807 4.08255005 C95.5625 2.1875 95.5625 2.1875 97.5625 0.1875 C99.62548828 -0.03955078 99.62548828 -0.03955078 102.1328125 -0.0078125 C103.02871094 -0.00136719 103.92460938 0.00507813 104.84765625 0.01171875 C106.25337891 0.03685547 106.25337891 0.03685547 107.6875 0.0625 C108.63238281 0.07152344 109.57726562 0.08054687 110.55078125 0.08984375 C112.88828547 0.1134549 115.22522466 0.14808024 117.5625 0.1875 C115.48335065 7.3100339 113.20127238 14.34446979 110.796875 21.36328125 C110.44038879 22.40912888 110.08390259 23.4549765 109.71661377 24.53251648 C108.58362739 27.85560019 107.44821624 31.17784838 106.3125 34.5 C103.38940335 43.06031585 100.47011166 51.62191064 97.5625 60.1875 C97.04320923 61.71718414 97.04320923 61.71718414 96.51342773 63.277771 C95.53119925 66.17740744 94.55375215 69.07860543 93.578125 71.98046875 C93.14049835 73.27142204 93.14049835 73.27142204 92.69403076 74.5884552 C92.426651 75.38708481 92.15927124 76.18571442 91.88378906 77.00854492 C91.535289 78.04370491 91.535289 78.04370491 91.17974854 79.09977722 C90.49268539 81.42363429 90.03774761 83.81126197 89.5625 86.1875 C83.2925 86.1875 77.0225 86.1875 70.5625 86.1875 C66.64673377 77.02294075 63.84881116 67.59686632 61 58.0625 C60.27508477 55.64353413 59.54879663 53.22500738 58.8193512 50.80740356 C58.36909433 49.31448439 57.92141866 47.82078313 57.47691345 46.32614136 C56.0326881 41.52905309 54.36251232 36.86313775 52.5625 32.1875 C50.30037923 39.23445413 48.04024458 46.28204299 45.78149414 53.33007812 C45.01274679 55.72801158 44.24354373 58.12579899 43.47387695 60.5234375 C42.36810581 63.96836732 41.26397086 67.41381785 40.16015625 70.859375 C39.81533707 71.93241882 39.47051788 73.00546265 39.11524963 74.11102295 C38.63486488 75.61212616 38.63486488 75.61212616 38.14477539 77.14355469 C37.72174889 78.46259796 37.72174889 78.46259796 37.29017639 79.80828857 C36.64585366 81.91496679 36.09680796 84.05026817 35.5625 86.1875 C29.2925 86.1875 23.0225 86.1875 16.5625 86.1875 C16.05203125 84.65609375 15.5415625 83.1246875 15.015625 81.546875 C14.67128418 80.51393311 14.32694336 79.48099121 13.97216797 78.41674805 C13.18453867 76.05369434 12.39711081 73.69057349 11.60986328 71.32739258 C9.5132482 65.03433589 7.41426663 58.74208967 5.30877686 52.45199585 C-0.39789718 35.40233992 -6.07015262 18.34789232 -11.4375 1.1875 C-9.07794489 -1.17205511 -3.16997174 0.00207595 0 0 Z " fill="#FC0C59" transform="translate(610.4375,463.8125)"/>
<path d="M0 0 C5.54136013 6.20886623 8.64683536 13.08020933 11 21 C11.19207031 21.61230469 11.38414062 22.22460938 11.58203125 22.85546875 C13.98074172 35.16287107 11.85767068 48.2706804 5.1875 58.875 C-2.74180172 69.72562341 -11.62815233 75.83342215 -25 78 C-36.66451152 79.00610342 -46.30721075 76.4618595 -56 70 C-55.83628906 71.0003125 -55.67257812 72.000625 -55.50390625 73.03125 C-54.65544918 79.81890654 -54.89500747 86.67233208 -54.9375 93.5 C-54.94252467 94.90885258 -54.94708587 96.31770689 -54.95117188 97.7265625 C-54.9628997 101.15108638 -54.97931309 104.57552047 -55 108 C-59.49167828 109.19600901 -63.73269793 108.9185704 -68.3125 108.5625 C-69.05306641 108.51029297 -69.79363281 108.45808594 -70.55664062 108.40429688 C-72.37152709 108.27549848 -74.18583325 108.13856738 -76 108 C-76.02332961 92.76236936 -76.04097948 77.52473954 -76.05181217 62.28709507 C-76.056975 55.21246813 -76.06401744 48.13785226 -76.07543945 41.06323242 C-76.08644681 34.24221122 -76.09227618 27.42120156 -76.09487724 20.60017204 C-76.09673205 17.99133052 -76.1003537 15.38248967 -76.10573006 12.77365303 C-76.11293643 9.13367448 -76.11399111 5.49374425 -76.11352539 1.85375977 C-76.11712067 0.76331863 -76.12071594 -0.3271225 -76.12442017 -1.4506073 C-76.1230455 -2.43643799 -76.12167084 -3.42226868 -76.12025452 -4.43797302 C-76.12117631 -5.29984946 -76.1220981 -6.1617259 -76.12304783 -7.04971981 C-76 -9 -76 -9 -75 -10 C-73.58429877 -10.08651611 -72.164405 -10.10704904 -70.74609375 -10.09765625 C-69.46508789 -10.09282227 -69.46508789 -10.09282227 -68.15820312 -10.08789062 C-67.26037109 -10.07951172 -66.36253906 -10.07113281 -65.4375 -10.0625 C-64.53580078 -10.05798828 -63.63410156 -10.05347656 -62.70507812 -10.04882812 C-60.46998686 -10.03700225 -58.23502563 -10.0205222 -56 -10 C-54.875 -4.25 -54.875 -4.25 -56 -2 C-55.26394531 -2.48210937 -54.52789063 -2.96421875 -53.76953125 -3.4609375 C-52.79371094 -4.09257812 -51.81789063 -4.72421875 -50.8125 -5.375 C-49.84957031 -6.00148438 -48.88664063 -6.62796875 -47.89453125 -7.2734375 C-32.25360401 -16.60311339 -13.04799134 -11.44714534 0 0 Z M-50.53125 13.2109375 C-56.17430265 20.08465588 -57.46500196 28.40566872 -56.74609375 37.0546875 C-55.65419678 44.94388901 -53.90831205 50.09168795 -48.1875 55.8125 C-42.22356469 59.90539678 -36.06466046 60.7467678 -29 60 C-22.48634148 58.69945409 -17.36660623 56.05845813 -13 51 C-8.12767407 43.44715433 -6.72754407 35.21257893 -8.53125 26.40625 C-10.57520404 19.03024194 -13.11046524 13.9999385 -19.625 9.6875 C-29.90103627 3.96184929 -41.85158468 4.89974854 -50.53125 13.2109375 Z " fill="#FD0C5B" transform="translate(588,474)"/>
<path d="M0 0 C10.54137989 -0.57603169 21.10276633 3.39480262 29.08203125 10.1953125 C34.68085134 15.4941958 38.60941763 20.87539693 41.08203125 28.1953125 C41.44039063 29.24976563 41.79875 30.30421875 42.16796875 31.390625 C43.2382472 35.84554471 43.38323866 39.88556691 43.33203125 44.4453125 C43.32816406 45.27780518 43.32429688 46.11029785 43.3203125 46.96801758 C43.23321651 53.19235662 42.60521291 59.14338538 41.08203125 65.1953125 C40.42203125 65.1953125 39.76203125 65.1953125 39.08203125 65.1953125 C38.71078125 66.525625 38.71078125 66.525625 38.33203125 67.8828125 C34.94806657 76.8503189 26.59689438 83.30976502 18.08203125 87.1953125 C7.12195833 91.43428188 -4.00849414 91.61434019 -14.91796875 87.1953125 C-18.30907902 85.63018469 -21.62954307 83.96546504 -24.91796875 82.1953125 C-24.67348999 83.6968689 -24.67348999 83.6968689 -24.42407227 85.22875977 C-23.93070537 89.09549011 -23.80414926 92.76481533 -23.8203125 96.66015625 C-23.82172745 97.33832901 -23.8231424 98.01650177 -23.82460022 98.71522522 C-23.8301413 100.85446828 -23.84268222 102.99360175 -23.85546875 105.1328125 C-23.86049139 106.59439952 -23.86505295 108.05598819 -23.86914062 109.51757812 C-23.87923512 113.07689781 -23.89882114 116.63598431 -23.91796875 120.1953125 C-30.84796875 120.1953125 -37.77796875 120.1953125 -44.91796875 120.1953125 C-44.58796875 81.2553125 -44.25796875 42.3153125 -43.91796875 2.1953125 C-37.64796875 2.1953125 -31.37796875 2.1953125 -24.91796875 2.1953125 C-24.25130208 4.86197917 -23.58463542 7.52864583 -22.91796875 10.1953125 C-22.42167969 9.79699219 -21.92539062 9.39867187 -21.4140625 8.98828125 C-14.57553521 3.65500854 -8.73096465 0.88910027 0 0 Z M-16.91796875 24.1953125 C-23.19213505 30.61538964 -25.07620058 36.37726356 -25.29296875 45.1328125 C-25.07899785 53.47767761 -23.68361495 60.44505661 -17.84765625 66.6875 C-11.86689881 71.36072343 -4.33280316 73.03247122 3.08203125 72.1953125 C10.57064165 70.43997212 15.55947256 67.73766799 19.83203125 61.1953125 C23.03178735 56.01089755 23.28756153 51.40290082 23.33203125 45.3828125 C23.35265625 44.69638672 23.37328125 44.00996094 23.39453125 43.30273438 C23.43319128 38.19477815 22.34548151 34.77326829 20.08203125 30.1953125 C19.69015625 29.3290625 19.29828125 28.4628125 18.89453125 27.5703125 C14.35624948 21.62359845 8.04934073 19.39840114 0.82421875 18.34765625 C-6.08090093 17.96403849 -11.5482048 19.80186927 -16.91796875 24.1953125 Z " fill="#FC0C5A" transform="translate(459.91796875,461.8046875)"/>
<path d="M0 0 C9.28098567 -0.33099093 19.31518768 0.90342203 26.55078125 7.15234375 C34.37396525 14.64390916 37.57791526 21.05696562 37.9831543 31.95727539 C38.02428325 34.5766487 38.05052413 37.19313276 38.0625 39.8125 C38.07937659 41.21212813 38.09753076 42.61174139 38.11689758 44.01133728 C38.16408107 47.66575467 38.19409369 51.32011171 38.22033691 54.97473145 C38.25030378 58.71569737 38.29677797 62.45645592 38.34179688 66.19726562 C38.42746917 73.51553901 38.49344413 80.83378346 38.55078125 88.15234375 C32.28078125 88.15234375 26.01078125 88.15234375 19.55078125 88.15234375 C19.22078125 86.50234375 18.89078125 84.85234375 18.55078125 83.15234375 C17.56078125 82.65734375 17.56078125 82.65734375 16.55078125 82.15234375 C16.55078125 82.81234375 16.55078125 83.47234375 16.55078125 84.15234375 C5.80093753 89.9111886 -4.79480464 92.21767927 -16.82421875 88.90234375 C-24.6511256 86.2016858 -30.78627921 81.33330096 -34.59765625 73.91796875 C-36.67952014 67.15668602 -36.8458945 57.10095561 -33.94921875 50.58984375 C-28.54626597 41.99077806 -20.78224473 38.39298503 -11.3046875 36.08984375 C-6.39951497 35.01795224 -1.70341446 34.8890226 3.30078125 34.96484375 C4.53634766 34.96581055 4.53634766 34.96581055 5.796875 34.96679688 C9.83878877 34.99608611 13.60831942 35.15070203 17.55078125 36.15234375 C17.15351515 28.60647523 17.15351515 28.60647523 13.55078125 22.15234375 C8.03567423 17.94344629 1.16165424 18.4206059 -5.44921875 19.15234375 C-9.09376322 20.66043112 -10.71185974 21.66628174 -12.46484375 25.19921875 C-13.22497844 27.14792769 -13.84816889 29.14884423 -14.44921875 31.15234375 C-15.58101563 30.79140625 -16.7128125 30.43046875 -17.87890625 30.05859375 C-19.36062968 29.58969393 -20.84240312 29.12095211 -22.32421875 28.65234375 C-23.44376953 28.29462891 -23.44376953 28.29462891 -24.5859375 27.9296875 C-28.44163942 26.6246396 -28.44163942 26.6246396 -32.44921875 26.15234375 C-31.53403233 18.83085237 -27.8872435 12.75458422 -22.5703125 7.7578125 C-15.7654114 2.6071415 -8.39084894 0.52191883 0 0 Z M-13.82421875 55.33984375 C-15.93165796 58.98733469 -16.37705078 62.09208734 -15.44921875 66.15234375 C-13.82863722 69.12447747 -11.91311513 71.63951381 -8.609375 72.796875 C-1.54844238 73.95880062 5.32128875 73.93889802 11.55078125 70.15234375 C15.95523934 66.55686776 17.84538254 63.40597552 18.42578125 57.71484375 C18.49373441 56.19495806 18.54465895 54.67373543 18.55078125 53.15234375 C12.84701574 50.70787282 7.81538884 49.98315297 1.61328125 49.90234375 C0.42863281 49.8765625 -0.75601563 49.85078125 -1.9765625 49.82421875 C-6.93617355 50.29284342 -10.18611839 51.98896184 -13.82421875 55.33984375 Z " fill="#FC0B59" transform="translate(362.44921875,461.84765625)"/>
<path d="M0 0 C9.0367421 6.98024062 12.62071314 17.30669071 14.78515625 28.12890625 C15.20942918 32.96561765 15.09765625 37.83612204 15.09765625 42.69140625 C-5.36234375 42.69140625 -25.82234375 42.69140625 -46.90234375 42.69140625 C-44.05025653 53.7013409 -44.05025653 53.7013409 -36.40234375 61.00390625 C-30.28935188 63.95124161 -24.0609616 64.97353603 -17.45703125 62.9375 C-11.76364814 60.54176948 -8.34973156 57.86248796 -4.90234375 52.69140625 C1.32753423 53.19653149 6.55239858 56.01744748 12.09765625 58.69140625 C8.5802597 68.31351508 2.27049544 74.36825545 -6.90234375 78.69140625 C-17.94838486 83.56791938 -30.57470236 83.02305176 -41.828125 79.078125 C-53.7506396 73.70011651 -60.01980466 65.49972316 -65.140625 53.83203125 C-69.00969139 42.95896263 -68.42828847 27.80990518 -64.15625 17.2265625 C-59.1218135 7.04790428 -51.93810756 -1.32866745 -41.15625 -5.56640625 C-26.39852742 -10.42596828 -12.80974682 -8.81163282 0 0 Z M-42.578125 17.70703125 C-44.68533948 20.86474499 -45.76182291 24.07975694 -46.90234375 27.69140625 C-45.68081713 29.14163569 -45.68081713 29.14163569 -42.02514648 28.80493164 C-40.29540208 28.80477246 -38.56565294 28.79907474 -36.8359375 28.7890625 C-35.92731461 28.78764755 -35.01869171 28.7862326 -34.08253479 28.78477478 C-31.16827154 28.77915818 -28.25408394 28.7666029 -25.33984375 28.75390625 C-23.36914173 28.74889339 -21.39843851 28.74433011 -19.42773438 28.74023438 C-14.58590816 28.72918336 -9.7441388 28.71190763 -4.90234375 28.69140625 C-5.34707031 26.81001953 -5.34707031 26.81001953 -5.80078125 24.890625 C-5.96755371 24.18510498 -6.13432617 23.47958496 -6.30615234 22.75268555 C-7.92492168 17.15593309 -11.50334783 13.46615059 -16.421875 10.60546875 C-26.53139168 6.88007205 -35.96650156 9.58566702 -42.578125 17.70703125 Z " fill="#FC0C59" transform="translate(947.90234375,470.30859375)"/>
<path d="M0 0 C0.83265381 0.00523682 1.66530762 0.01047363 2.52319336 0.01586914 C3.42231445 0.0190918 4.32143555 0.02231445 5.24780273 0.02563477 C6.66609375 0.03820312 6.66609375 0.03820312 8.11303711 0.05102539 C9.06243164 0.05553711 10.01182617 0.06004883 10.98999023 0.06469727 C13.34353242 0.07652411 15.69704243 0.09446018 18.05053711 0.11352539 C18.05053711 6.05352539 18.05053711 11.99352539 18.05053711 18.11352539 C25.97053711 18.11352539 33.89053711 18.11352539 42.05053711 18.11352539 C42.05053711 23.72352539 42.05053711 29.33352539 42.05053711 35.11352539 C38.48761455 35.8261099 35.91587547 36.2350583 32.40600586 36.21118164 C31.14433594 36.20634766 31.14433594 36.20634766 29.85717773 36.20141602 C28.99286133 36.19303711 28.12854492 36.1846582 27.23803711 36.17602539 C25.91255859 36.16925781 25.91255859 36.16925781 24.56030273 36.16235352 C22.39035152 36.15062405 20.22043539 36.13269034 18.05053711 36.11352539 C18.02563247 41.07567997 18.00758105 46.03779734 17.99560547 51 C17.99060768 52.68457677 17.98380722 54.36914927 17.97509766 56.05371094 C17.96283089 58.48902446 17.95726313 60.92428013 17.95288086 63.35961914 C17.94771957 64.10062363 17.94255829 64.84162811 17.9372406 65.60508728 C17.72641736 74.93048122 17.72641736 74.93048122 20.42553711 83.61352539 C23.69815536 86.63440377 27.48594666 86.37540487 31.68725586 86.34790039 C35.25412371 85.99416143 37.87262736 84.73628782 41.05053711 83.11352539 C42.60003979 84.66302807 42.26708904 86.21343133 42.36694336 88.36743164 C42.40883789 89.22143555 42.45073242 90.07543945 42.49389648 90.95532227 C42.53321289 91.8531543 42.5725293 92.75098633 42.61303711 93.67602539 C42.6562207 94.57772461 42.6994043 95.47942383 42.74389648 96.40844727 C42.85031853 98.64331024 42.95233698 100.87828847 43.05053711 103.11352539 C32.09604357 106.73627129 20.81679209 108.17040273 10.05053711 103.11352539 C2.83544325 98.73204106 0.12698224 93.10562436 -1.94946289 85.11352539 C-2.4220594 81.16395083 -2.42089801 77.29367488 -2.34008789 73.32055664 C-2.33159821 71.71249397 -2.33159821 71.71249397 -2.32293701 70.07194519 C-2.30076804 66.68949351 -2.25060851 63.30815014 -2.19946289 59.92602539 C-2.17937272 57.61549395 -2.1611264 55.3049457 -2.14477539 52.99438477 C-2.10096755 47.36706142 -2.03425423 41.74037262 -1.94946289 36.11352539 C-5.83751897 36.07278906 -9.19509959 36.14017194 -12.94946289 37.11352539 C-13.60946289 36.78352539 -14.26946289 36.45352539 -14.94946289 36.11352539 C-14.94946289 30.17352539 -14.94946289 24.23352539 -14.94946289 18.11352539 C-10.65946289 18.11352539 -6.36946289 18.11352539 -1.94946289 18.11352539 C-2.07514648 16.29014648 -2.07514648 16.29014648 -2.20336914 14.42993164 C-2.30650992 12.84531418 -2.4093595 11.26067774 -2.51196289 9.67602539 C-2.56803711 8.87358398 -2.62411133 8.07114258 -2.68188477 7.24438477 C-2.81109239 5.20290428 -2.88459019 3.1580617 -2.94946289 1.11352539 C-1.94946289 0.11352539 -1.94946289 0.11352539 0 0 Z " fill="#FD0C5A" transform="translate(835.949462890625,445.886474609375)"/>
<path d="M0 0 C0 6.93 0 13.86 0 21 C-1.98 20.34 -3.96 19.68 -6 19 C-12.02763412 18.4204198 -17.471733 19.6224586 -23 22 C-28.02844266 26.25483609 -29.62205483 33.45347202 -30.3008728 39.82330322 C-30.43831142 42.85613881 -30.49310305 45.87819267 -30.51171875 48.9140625 C-30.52966995 50.00971527 -30.54762115 51.10536804 -30.56611633 52.23422241 C-30.61984542 55.69777701 -30.65399487 59.16119679 -30.6875 62.625 C-30.72070606 64.98829986 -30.75519872 67.35158202 -30.79101562 69.71484375 C-30.87555035 75.47646462 -30.94253921 81.2380481 -31 87 C-37.6 87 -44.2 87 -51 87 C-51.02255049 75.93464779 -51.04091478 64.86931072 -51.05181217 53.80394077 C-51.05704113 48.66640434 -51.06413901 43.52888437 -51.07543945 38.39135742 C-51.08626787 33.4376859 -51.09227674 28.48403026 -51.09487724 23.53034782 C-51.09673157 21.63602384 -51.10035234 19.74170076 -51.10573006 17.8473835 C-51.11293989 15.20365614 -51.11399097 12.55999529 -51.11352539 9.91625977 C-51.11712067 9.12504227 -51.12071594 8.33382477 -51.12442017 7.51863098 C-51.11405216 2.11405216 -51.11405216 2.11405216 -50 1 C-48.59651265 0.90139869 -47.18819523 0.86921063 -45.78125 0.8671875 C-44.50701172 0.86525391 -44.50701172 0.86525391 -43.20703125 0.86328125 C-41.86705078 0.86908203 -41.86705078 0.86908203 -40.5 0.875 C-39.60667969 0.87113281 -38.71335937 0.86726563 -37.79296875 0.86328125 C-36.94347656 0.86457031 -36.09398437 0.86585938 -35.21875 0.8671875 C-34.43435547 0.86831543 -33.64996094 0.86944336 -32.84179688 0.87060547 C-31 1 -31 1 -30 2 C-30.28730055 4.33944736 -30.61936779 6.6739143 -31 9 C-30.21625 8.34 -29.4325 7.68 -28.625 7 C-26 5 -26 5 -24 5 C-24 4.34 -24 3.68 -24 3 C-15.54948237 -0.53816065 -8.97886038 -2.24471509 0 0 Z " fill="#FD0C5B" transform="translate(784,463)"/>
<path d="M0 0 C1.18613892 0.00785522 1.18613892 0.00785522 2.39624023 0.01586914 C3.67724609 0.02070313 3.67724609 0.02070313 4.98413086 0.02563477 C5.88196289 0.03401367 6.77979492 0.04239258 7.70483398 0.05102539 C8.6065332 0.05553711 9.50823242 0.06004883 10.43725586 0.06469727 C12.67234712 0.07652315 14.90730835 0.09300319 17.14233398 0.11352539 C18.19208275 4.40838225 18.29034343 8.58241136 18.28759766 12.97729492 C18.29095627 13.75349182 18.29431488 14.52968872 18.29777527 15.32940674 C18.30724453 17.88506689 18.30922596 20.44066131 18.31030273 22.99633789 C18.31351671 24.77562487 18.31688089 26.55491158 18.32038879 28.334198 C18.32636897 32.05800998 18.32822969 35.78179879 18.32763672 39.50561523 C18.32753484 44.2818304 18.34121877 49.05789777 18.35840893 53.83407784 C18.36951129 57.50573412 18.37155652 61.17735437 18.37102699 64.84902573 C18.37220855 66.61051826 18.37664015 68.37201168 18.38435936 70.1334877 C18.39412926 72.59194678 18.39129385 75.05008089 18.38525391 77.50854492 C18.39087341 78.23796295 18.39649292 78.96738098 18.40228271 79.71890259 C18.37917251 83.41054337 18.2479817 84.95505381 16.14233398 88.11352539 C16.14233398 87.45352539 16.14233398 86.79352539 16.14233398 86.11352539 C14.86616211 86.13672852 13.58999023 86.15993164 12.27514648 86.18383789 C10.60588149 86.20259368 8.93661018 86.22079408 7.26733398 86.23852539 C6.42557617 86.2552832 5.58381836 86.27204102 4.71655273 86.28930664 C3.91088867 86.29575195 3.10522461 86.30219727 2.27514648 86.30883789 C1.53151855 86.31931152 0.78789063 86.32978516 0.02172852 86.34057617 C-1.85766602 86.11352539 -1.85766602 86.11352539 -3.85766602 84.11352539 C-3.56932552 82.43848848 -3.22428177 80.77318854 -2.85766602 79.11352539 C-2.77527334 76.53290707 -2.74123433 73.98120251 -2.76000977 71.40161133 C-2.76147003 70.64170898 -2.7629303 69.88180664 -2.76443481 69.09887695 C-2.76822854 67.45596411 -2.7743321 65.8130553 -2.78250122 64.17015839 C-2.79528619 61.57349325 -2.80178526 58.97687929 -2.80664062 56.38018799 C-2.81805178 50.87461073 -2.83731588 45.3690759 -2.85766602 39.86352539 C-2.8812316 33.47032228 -2.90161589 27.07714275 -2.91360474 20.68390656 C-2.92011111 18.11954067 -2.93261524 15.55524741 -2.9453125 12.99090576 C-2.94894258 11.42989161 -2.95229461 9.86887677 -2.95532227 8.30786133 C-2.96048859 7.58995422 -2.96565491 6.87204712 -2.97097778 6.13238525 C-2.97115914 4.45900565 -2.91995357 2.78574535 -2.85766602 1.11352539 C-1.85766602 0.11352539 -1.85766602 0.11352539 0 0 Z " fill="#FD0C5B" transform="translate(795.857666015625,463.886474609375)"/>
<path d="M0 0 C-2.16611719 2.16611719 -3.12937029 2.45032458 -6 3.25 C-17.09230406 6.85855405 -25.8801358 13.66487186 -31.63671875 23.9140625 C-37.50804522 36.39693999 -37.83710955 50.10996798 -33.26171875 63.09765625 C-27.07379007 77.33180797 -16.52019433 84.41892749 -2.65234375 90.203125 C5.67834591 92.70601261 14.6013798 92.21427829 23.21875 92.31640625 C24.68705787 92.33701168 26.15536029 92.358009 27.62365723 92.37937927 C31.46386259 92.43422975 35.30411815 92.48380019 39.14440918 92.53222656 C43.07288002 92.58271424 47.00127915 92.63825709 50.9296875 92.69335938 C58.61973071 92.80048715 66.30983408 92.90203031 74 93 C73.97668358 91.94883499 73.97668358 91.94883499 73.95289612 90.87643433 C73.81234921 84.25628292 73.70591971 77.63655063 73.6373148 71.01524162 C73.60085626 67.61139919 73.551452 64.20879424 73.47192383 60.80566406 C73.38096878 56.88882524 73.34728454 52.97247872 73.31640625 49.0546875 C73.28027725 47.83884979 73.24414825 46.62301208 73.20692444 45.37033081 C73.20309346 37.10483024 73.20309346 37.10483024 75.52035522 33.8921814 C79.37936475 30.49279795 82.65428171 29.00611671 87.7890625 28.76953125 C91.78063639 29.18561404 93.81588034 30.51638666 97 33 C100.91845708 38.61898416 100.384961 44.38721632 100.29296875 50.9609375 C100.28872391 52.10664215 100.28447906 53.2523468 100.28010559 54.43276978 C100.2633564 58.08042215 100.22570991 61.72751551 100.1875 65.375 C100.17244836 67.85285659 100.15876079 70.33072186 100.14648438 72.80859375 C100.11346512 78.87258552 100.06330259 84.93625281 100 91 C100.66 91.33 101.32 91.66 102 92 C100.68 92 99.36 92 98 92 C97.99191315 91.33236633 97.98382629 90.66473267 97.97549438 89.97686768 C97.8894985 83.03386241 97.78999678 76.09114429 97.68261719 69.1484375 C97.6443123 66.55668964 97.60946213 63.96488834 97.578125 61.37304688 C97.53250783 57.64954517 97.4745069 53.92641185 97.4140625 50.203125 C97.39673569 48.46231659 97.39673569 48.46231659 97.37905884 46.68634033 C97.3492543 45.06511261 97.3492543 45.06511261 97.31884766 43.41113281 C97.29886215 41.98550018 97.29886215 41.98550018 97.2784729 40.53106689 C96.98628293 37.87532424 96.42757912 36.24482583 95 34 C90.54265489 31.16350765 85.95420522 32.08152375 81 33 C79.515 33.495 79.515 33.495 78 34 C76.7759757 37.10475921 76.8526718 40.2737946 76.81054688 43.57885742 C76.79382935 44.69648972 76.77711182 45.81412201 76.7598877 46.96562195 C76.74631226 48.16677139 76.73273682 49.36792084 76.71875 50.60546875 C76.70034058 51.8404158 76.68193115 53.07536285 76.66296387 54.34773254 C76.59418532 58.96675627 76.53360751 63.58586949 76.47393799 68.20501709 C76.41503608 72.73442257 76.34892554 77.26368719 76.28125 81.79296875 C76.26767456 83.00019089 76.25409912 84.20741302 76.2401123 85.45121765 C76.22339478 86.55939346 76.20667725 87.66756927 76.18945312 88.80932617 C76.17066101 90.280149 76.17066101 90.280149 76.15148926 91.78068542 C76 94 76 94 75 95 C72.99910838 95.11520108 70.9941207 95.15969222 68.98999023 95.17700195 C67.70031845 95.18983719 66.41064667 95.20267242 65.08189392 95.21589661 C63.65746446 95.22407418 62.23303062 95.23151595 60.80859375 95.23828125 C59.73115245 95.24439454 59.73115245 95.24439454 58.63194466 95.25063133 C54.81395885 95.27154696 50.99600932 95.28581236 47.17797852 95.29516602 C43.274866 95.30611007 39.37234288 95.34035033 35.46943569 95.38033772 C32.43804553 95.40681794 29.40678739 95.41488626 26.37529182 95.41844749 C24.93990256 95.42325053 23.50451657 95.43467916 22.06924248 95.45348549 C3.54011936 95.68074134 -13.02697148 91.49897407 -26.77734375 78.40234375 C-36.09841289 68.32772597 -39.83909003 55.01977689 -39.3828125 41.453125 C-38.30108996 31.69554615 -34.95658182 23.73053652 -29 16 C-28.38125 15.113125 -27.7625 14.22625 -27.125 13.3125 C-20.4268356 6.0233211 -10.21143975 -0.63471472 0 0 Z " fill="#ED0E36" transform="translate(96,477)"/>
<path d="M0 0 C3.32606815 2.54386398 4.83762364 4.23236563 6.16015625 8.2734375 C6.00913593 12.57751653 5.2114183 15.11523141 3.03515625 18.8359375 C-0.39828507 21.67225859 -3.4546666 23.72855233 -7.96484375 23.8359375 C-12.43165623 22.90497859 -15.29764786 21.53649318 -18.46484375 18.2109375 C-20.38070743 13.90024421 -20.91934823 10.47565928 -19.96484375 5.8359375 C-18.16152969 2.22163571 -15.710291 0.20866113 -12.08984375 -1.6015625 C-7.55251399 -2.41828186 -4.06224341 -2.40665713 0 0 Z " fill="#FD0C5B" transform="translate(810.96484375,436.1640625)"/>
<path d="M0 0 C0.77601563 0.01417969 1.55203125 0.02835937 2.3515625 0.04296875 C3.12242187 0.04941406 3.89328125 0.05585938 4.6875 0.0625 C6.9765625 0.23046875 6.9765625 0.23046875 10.9765625 1.23046875 C10.9765625 8.16046875 10.9765625 15.09046875 10.9765625 22.23046875 C8.9965625 21.57046875 7.0165625 20.91046875 4.9765625 20.23046875 C-1.05107162 19.65088855 -6.4951705 20.85292735 -12.0234375 23.23046875 C-17.05188016 27.48530484 -18.64549233 34.68394077 -19.3243103 41.05377197 C-19.46174892 44.08660756 -19.51654055 47.10866142 -19.53515625 50.14453125 C-19.55310745 51.24018402 -19.57105865 52.33583679 -19.58955383 53.46469116 C-19.64328292 56.92824576 -19.67743237 60.39166554 -19.7109375 63.85546875 C-19.74414356 66.21876861 -19.77863622 68.58205077 -19.81445312 70.9453125 C-19.89898785 76.70693337 -19.96597671 82.46851685 -20.0234375 88.23046875 C-26.6234375 88.23046875 -33.2234375 88.23046875 -40.0234375 88.23046875 C-40.04598799 77.16511654 -40.06435228 66.09977947 -40.07524967 55.03440952 C-40.08047863 49.89687309 -40.08757651 44.75935312 -40.09887695 39.62182617 C-40.10970537 34.66815465 -40.11571424 29.71449901 -40.11831474 24.76081657 C-40.12016907 22.86649259 -40.12378984 20.97216951 -40.12916756 19.07785225 C-40.13637739 16.43412489 -40.13742847 13.79046404 -40.13696289 11.14672852 C-40.14055817 10.35551102 -40.14415344 9.56429352 -40.14785767 8.74909973 C-40.13748966 3.34452091 -40.13748966 3.34452091 -39.0234375 2.23046875 C-37.61995015 2.13186744 -36.21163273 2.09967938 -34.8046875 2.09765625 C-33.53044922 2.09572266 -33.53044922 2.09572266 -32.23046875 2.09375 C-30.89048828 2.09955078 -30.89048828 2.09955078 -29.5234375 2.10546875 C-28.63011719 2.10160156 -27.73679687 2.09773438 -26.81640625 2.09375 C-25.96691406 2.09503906 -25.11742187 2.09632813 -24.2421875 2.09765625 C-23.45779297 2.09878418 -22.67339844 2.09991211 -21.86523438 2.10107422 C-20.0234375 2.23046875 -20.0234375 2.23046875 -19.0234375 3.23046875 C-19.11306812 4.92188531 -19.26921426 6.61006477 -19.4609375 8.29296875 C-19.56277344 9.21207031 -19.66460938 10.13117188 -19.76953125 11.078125 C-19.85332031 11.78839844 -19.93710937 12.49867188 -20.0234375 13.23046875 C-20.3534375 13.23046875 -20.6834375 13.23046875 -21.0234375 13.23046875 C-21.0234375 10.26046875 -21.0234375 7.29046875 -21.0234375 4.23046875 C-28.9434375 4.72546875 -28.9434375 4.72546875 -37.0234375 5.23046875 C-37.3534375 31.96046875 -37.6834375 58.69046875 -38.0234375 86.23046875 C-32.4134375 86.23046875 -26.8034375 86.23046875 -21.0234375 86.23046875 C-21.04438477 84.66683594 -21.06533203 83.10320312 -21.08691406 81.4921875 C-21.15951927 75.67017843 -21.20531248 69.8482091 -21.24316406 64.02587891 C-21.26323266 61.50985984 -21.2904938 58.99388714 -21.32519531 56.47802734 C-21.37392062 52.85372447 -21.39645472 49.23004034 -21.4140625 45.60546875 C-21.43470764 44.48744873 -21.45535278 43.36942871 -21.47662354 42.2175293 C-21.47898018 33.94540391 -19.91033942 28.72513949 -14.6484375 22.35546875 C-9.59551654 18.26500893 -4.45195629 17.94665917 1.8515625 18.10546875 C2.88410156 18.11900391 2.88410156 18.11900391 3.9375 18.1328125 C5.61734088 18.15614362 7.29699996 18.19200549 8.9765625 18.23046875 C8.9765625 13.61046875 8.9765625 8.99046875 8.9765625 4.23046875 C4.6865625 3.57046875 0.3965625 2.91046875 -4.0234375 2.23046875 C-2.0234375 0.23046875 -2.0234375 0.23046875 0 0 Z " fill="#EA0E37" transform="translate(773.0234375,461.76953125)"/>
<path d="M0 0 C6.85687352 -0.87908635 11.49866772 2.60172972 16.921875 6.31640625 C25.93786525 13.31776151 29.52263999 23.61319997 31.6875 34.4375 C32.11177293 39.2742114 32 44.14471579 32 49 C11.54 49 -8.92 49 -30 49 C-27.14791278 60.00993465 -27.14791278 60.00993465 -19.5 67.3125 C-13.38700813 70.25983536 -7.15861785 71.28212978 -0.5546875 69.24609375 C5.13869561 66.85036323 8.55261219 64.17108171 12 59 C18.22987798 59.50512524 23.45474233 62.32604123 29 65 C27.27687791 69.66209202 24.95555839 73.03332953 22 77 C21.67 76.01 21.34 75.02 21 74 C22.28511874 71.96868328 23.61876037 69.96722008 25 68 C25 67.34 25 66.68 25 66 C23.68 65.67 22.36 65.34 21 65 C21 64.34 21 63.68 21 63 C17.01206475 62.04099657 17.01206475 62.04099657 13 62 C10.67865211 64.44359039 10.67865211 64.44359039 9.39453125 66.3671875 C5.82867852 70.54233159 -0.18676973 72.06392718 -5.4375 72.9375 C-12.22237892 73.41113902 -18.51743018 71.50239435 -23.875 67.3125 C-29.54632419 61.89531533 -31.59498428 55.69529859 -32 48 C-31 47 -31 47 -28.56394958 46.87974548 C-26.94179283 46.8830764 -26.94179283 46.8830764 -25.28686523 46.88647461 C-24.0656749 46.88655014 -22.84448456 46.88662567 -21.58628845 46.88670349 C-20.24372314 46.89181089 -18.90115825 46.89702689 -17.55859375 46.90234375 C-16.19238842 46.90420801 -14.82618243 46.90563187 -13.4599762 46.90663147 C-9.85798305 46.91045606 -6.25603 46.92028583 -2.65405273 46.93133545 C1.01903745 46.94155084 4.69213409 46.94612936 8.36523438 46.95117188 C15.57684123 46.96190816 22.788415 46.97898386 30 47 C29.70793272 44.29088276 29.40873982 41.58286686 29.10546875 38.875 C29.02421753 38.11445313 28.94296631 37.35390625 28.85925293 36.5703125 C27.54015836 24.93972093 23.50273263 15.81536324 14.671875 7.91796875 C11.77407462 5.83782257 9.00000492 4.56044151 5.6875 3.25 C4.61886719 2.82203125 3.55023437 2.3940625 2.44921875 1.953125 C1.64097656 1.63859375 0.83273437 1.3240625 0 1 C0 0.67 0 0.34 0 0 Z " fill="#EF1142" transform="translate(931,464)"/>
<path d="M0 0 C1.18613892 0.00785522 1.18613892 0.00785522 2.39624023 0.01586914 C3.67724609 0.02070313 3.67724609 0.02070313 4.98413086 0.02563477 C5.88196289 0.03401367 6.77979492 0.04239258 7.70483398 0.05102539 C8.6065332 0.05553711 9.50823242 0.06004883 10.43725586 0.06469727 C12.67234712 0.07652315 14.90730835 0.09300319 17.14233398 0.11352539 C17.96736936 3.71803696 18.27084422 7.04770488 18.27514648 10.74243164 C18.27804687 12.40000488 18.27804687 12.40000488 18.28100586 14.09106445 C18.27649414 15.27410156 18.27198242 16.45713867 18.26733398 17.67602539 C18.26540039 18.89644531 18.2634668 20.11686523 18.26147461 21.37426758 C18.20048777 34.63212975 17.7142265 47.86873812 17.14233398 61.11352539 C16.81233398 61.11352539 16.48233398 61.11352539 16.14233398 61.11352539 C16.14233398 41.97352539 16.14233398 22.83352539 16.14233398 3.11352539 C10.86233398 3.11352539 5.58233398 3.11352539 0.14233398 3.11352539 C0.14233398 29.84352539 0.14233398 56.57352539 0.14233398 84.11352539 C5.42233398 84.11352539 10.70233398 84.11352539 16.14233398 84.11352539 C16.14233398 77.51352539 16.14233398 70.91352539 16.14233398 64.11352539 C16.47233398 64.11352539 16.80233398 64.11352539 17.14233398 64.11352539 C17.31221767 66.3007779 17.47808667 68.4883424 17.64233398 70.67602539 C17.73514648 71.89418945 17.82795898 73.11235352 17.92358398 74.36743164 C18.51817291 84.549767 18.51817291 84.549767 16.14233398 88.11352539 C16.14233398 87.45352539 16.14233398 86.79352539 16.14233398 86.11352539 C14.86616211 86.13672852 13.58999023 86.15993164 12.27514648 86.18383789 C10.60588149 86.20259368 8.93661018 86.22079408 7.26733398 86.23852539 C6.42557617 86.2552832 5.58381836 86.27204102 4.71655273 86.28930664 C3.91088867 86.29575195 3.10522461 86.30219727 2.27514648 86.30883789 C1.53151855 86.31931152 0.78789063 86.32978516 0.02172852 86.34057617 C-1.85766602 86.11352539 -1.85766602 86.11352539 -3.85766602 84.11352539 C-3.56932552 82.43848848 -3.22428177 80.77318854 -2.85766602 79.11352539 C-2.77527334 76.53290707 -2.74123433 73.98120251 -2.76000977 71.40161133 C-2.76147003 70.64170898 -2.7629303 69.88180664 -2.76443481 69.09887695 C-2.76822854 67.45596411 -2.7743321 65.8130553 -2.78250122 64.17015839 C-2.79528619 61.57349325 -2.80178526 58.97687929 -2.80664062 56.38018799 C-2.81805178 50.87461073 -2.83731588 45.3690759 -2.85766602 39.86352539 C-2.8812316 33.47032228 -2.90161589 27.07714275 -2.91360474 20.68390656 C-2.92011111 18.11954067 -2.93261524 15.55524741 -2.9453125 12.99090576 C-2.94894258 11.42989161 -2.95229461 9.86887677 -2.95532227 8.30786133 C-2.96048859 7.58995422 -2.96565491 6.87204712 -2.97097778 6.13238525 C-2.97115914 4.45900565 -2.91995357 2.78574535 -2.85766602 1.11352539 C-1.85766602 0.11352539 -1.85766602 0.11352539 0 0 Z " fill="#F20D41" transform="translate(795.857666015625,463.886474609375)"/>
<path d="M0 0 C11.84454088 0.54835837 19.48198242 5.92761861 28 14 C38.7920881 26.18918768 41.81426923 40.91254511 41.17919922 56.67871094 C40.12550117 70.32797671 33.48788911 81.38479703 23.77734375 90.671875 C12.6347449 100.01222509 0.37766748 104.24789082 -14 104 C-15.10181039 100.69456884 -15.08420432 98.35404043 -15.02172852 94.8762207 C-15.00163223 93.61513992 -14.98153595 92.35405914 -14.96083069 91.05476379 C-14.93363438 89.67843406 -14.90632354 88.30210659 -14.87890625 86.92578125 C-14.85459998 85.51760119 -14.83075667 84.10941308 -14.80735779 82.70121765 C-14.74456724 78.99725147 -14.67548645 75.29342824 -14.60510254 71.58959961 C-14.5343736 67.80914818 -14.46958394 64.0285955 -14.40429688 60.24804688 C-14.27534939 52.83191926 -14.1397576 45.41593261 -14 38 C-13.67 38 -13.34 38 -13 38 C-13 59.12 -13 80.24 -13 102 C5.0663244 99.22056548 18.69298883 94.75835399 30 80 C30.49371094 79.37480469 30.98742187 78.74960937 31.49609375 78.10546875 C39.52285648 66.7917824 39.57179806 50.22978569 37.53125 36.94921875 C34.016741 23.83256908 26.16782178 14.30203732 15 7 C14.01 6.67 13.02 6.34 12 6 C12 5.34 12 4.68 12 4 C11.13375 3.87625 10.2675 3.7525 9.375 3.625 C6.10486147 3.01941879 3.12743101 2.11693965 0 1 C0 0.67 0 0.34 0 0 Z " fill="#EE0C35" transform="translate(244,466)"/>
<path d="M0 0 C0.83265381 0.00523682 1.66530762 0.01047363 2.52319336 0.01586914 C3.42231445 0.0190918 4.32143555 0.02231445 5.24780273 0.02563477 C6.66609375 0.03820312 6.66609375 0.03820312 8.11303711 0.05102539 C9.06243164 0.05553711 10.01182617 0.06004883 10.98999023 0.06469727 C13.3435708 0.0765243 15.69701292 0.09384445 18.05053711 0.11352539 C15.97138776 7.23605929 13.68930949 14.27049518 11.28491211 21.28930664 C10.9284259 22.33515427 10.5719397 23.38100189 10.20465088 24.45854187 C9.0716645 27.78162558 7.93625335 31.10387378 6.80053711 34.42602539 C3.87744046 42.98634124 0.95814877 51.54793603 -1.94946289 60.11352539 C-2.29565674 61.13331482 -2.64185059 62.15310425 -2.99853516 63.20379639 C-3.98076364 66.10343283 -4.95821074 69.00463082 -5.93383789 71.90649414 C-6.22558899 72.76712967 -6.51734009 73.6277652 -6.81793213 74.51448059 C-7.08531189 75.3131102 -7.35269165 76.11173981 -7.62817383 76.93457031 C-7.8605072 77.62467697 -8.09284058 78.31478363 -8.33221436 79.02580261 C-9.0192775 81.34965968 -9.47421529 83.73728736 -9.94946289 86.11352539 C-16.21946289 86.11352539 -22.48946289 86.11352539 -28.94946289 86.11352539 C-35.48380704 70.21328796 -35.48380704 70.21328796 -33.94946289 65.11352539 C-33.1086627 67.52782308 -32.27664887 69.94456532 -31.44946289 72.36352539 C-31.21098633 73.04543945 -30.97250977 73.72735352 -30.72680664 74.42993164 C-29.55525002 77.87765542 -28.94946289 80.43055443 -28.94946289 84.11352539 C-21.02946289 83.61852539 -21.02946289 83.61852539 -12.94946289 83.11352539 C-9.85504002 75.65260743 -7.20477338 68.09283056 -4.68765259 60.42184448 C-3.50629261 56.82312779 -2.31398122 53.22804697 -1.12133789 49.63305664 C-0.87015701 48.87557632 -0.61897614 48.11809601 -0.36018372 47.33766174 C2.77994942 37.88863133 6.00852269 28.46980069 9.23803711 19.05102539 C9.52983856 18.19972046 9.82164001 17.34841553 10.12228394 16.47131348 C11.76324497 11.68476635 13.40657654 6.89904495 15.05053711 2.11352539 C9.44053711 2.11352539 3.83053711 2.11352539 -1.94946289 2.11352539 C-2.38258789 4.27915039 -2.38258789 4.27915039 -2.82446289 6.48852539 C-3.69946289 10.86352539 -3.69946289 10.86352539 -5.94946289 13.11352539 C-4.43709409 0.25839058 -4.43709409 0.25839058 0 0 Z " fill="#ED0D37" transform="translate(709.949462890625,463.886474609375)"/>
<path d="M0 0 C0.98033203 -0.01224609 1.96066406 -0.02449219 2.97070312 -0.03710938 C3.90720703 -0.03904297 4.84371094 -0.04097656 5.80859375 -0.04296875 C6.67154053 -0.04707764 7.5344873 -0.05118652 8.42358398 -0.05541992 C10.5625 0.1875 10.5625 0.1875 12.5625 2.1875 C12.80636242 4.07894642 13.04348095 5.97159839 13.24017334 7.86853027 C13.81912494 12.03378064 15.11009738 15.99710999 16.3203125 20.015625 C16.86868043 21.8853607 17.4168518 23.75515407 17.96484375 25.625 C18.82841332 28.54466411 19.69520497 31.46331743 20.56591797 34.38085938 C21.40923578 37.21501466 22.24040823 40.05251804 23.0703125 42.890625 C23.46707687 44.20006073 23.46707687 44.20006073 23.87185669 45.53594971 C24.22750198 46.75807159 24.22750198 46.75807159 24.59033203 48.00488281 C24.80271515 48.71799622 25.01509827 49.43110962 25.23391724 50.16583252 C25.60741603 52.46385434 25.27152409 53.98923593 24.5625 56.1875 C22.47550586 50.82266203 20.72936574 45.4970519 19.25 39.9375 C17.88346938 34.88602681 16.47823922 29.85423132 14.94140625 24.8515625 C14.67046143 23.96887695 14.3995166 23.08619141 14.12036133 22.17675781 C13.59574481 20.47908671 13.06592839 18.78301058 12.5300293 17.08886719 C10.99304325 12.10377091 10.06185715 7.38319226 9.5625 2.1875 C9.04171875 2.34089844 8.5209375 2.49429687 7.984375 2.65234375 C4.92971485 3.32732511 1.93234029 3.53161118 -1.1875 3.75 C-2.29125977 3.82726318 -3.39501953 3.90452637 -4.53222656 3.98413086 C-5.4909668 4.05124268 -6.44970703 4.11835449 -7.4375 4.1875 C-4.83590928 13.44529635 -2.02254714 22.5959714 1.1484375 31.67578125 C1.45710754 32.56151825 1.76577759 33.44725525 2.08380127 34.35983276 C3.35903847 38.00996105 4.63906295 41.65829019 5.93115234 45.30249023 C6.88799048 48.00706118 7.83164144 50.71594226 8.7734375 53.42578125 C9.06914642 54.24863113 9.36485535 55.07148102 9.66952515 55.91926575 C9.93375275 56.6849437 10.19798035 57.45062164 10.47021484 58.23950195 C10.70606293 58.90770462 10.94191101 59.57590729 11.18490601 60.26435852 C11.63035325 62.53308656 11.26879153 64.0084118 10.5625 66.1875 C8.41451306 61.33171194 6.55429899 56.44624049 4.890625 51.40234375 C4.64711304 50.67171219 4.40360107 49.94108063 4.15270996 49.18830872 C3.36947481 46.83491024 2.59080464 44.48003319 1.8125 42.125 C1.2751677 40.50615084 0.73773232 38.88733589 0.20019531 37.26855469 C-3.77672711 25.27227348 -7.66474325 13.24969413 -11.4375 1.1875 C-9.07794489 -1.17205511 -3.16997174 0.00207595 0 0 Z " fill="#EE0C37" transform="translate(610.4375,463.8125)"/>
<path d="M0 0 C0.33 0 0.66 0 1 0 C1 37.62 1 75.24 1 114 C6.28 114 11.56 114 17 114 C17 101.13 17 88.26 17 75 C17.66 75 18.32 75 19 75 C20.16281933 83.70213607 20.11579895 92.36788151 20.0625 101.125 C20.05747252 102.57291511 20.05291183 104.02083192 20.04882812 105.46875 C20.03878667 108.97924412 20.01919473 112.48949694 20 116 C13.07 116 6.14 116 -1 116 C-0.67 77.72 -0.34 39.44 0 0 Z " fill="#EB072D" transform="translate(416,466)"/>
<path d="M0 0 C0.33 0 0.66 0 1 0 C2.47171666 21.97062725 2.09464182 43.99359355 2 66 C7.28 66 12.56 66 18 66 C17.9278125 64.75347656 17.855625 63.50695312 17.78125 62.22265625 C17.1672922 51.13420623 16.87054361 40.10448152 17 29 C17.66 29 18.32 29 19 29 C20.15136362 37.18646731 20.11414983 45.31509354 20.0625 53.5625 C20.05747366 54.96679527 20.05291276 56.3710923 20.04882812 57.77539062 C20.03711593 61.18363903 20.02071372 64.5917964 20 68 C15.50832172 69.19600901 11.26730207 68.9185704 6.6875 68.5625 C5.94693359 68.51029297 5.20636719 68.45808594 4.44335938 68.40429688 C2.62847291 68.27549848 0.81416675 68.13856738 -1 68 C-1.02312611 59.28155997 -1.04091646 50.56313044 -1.05181217 41.84466648 C-1.05704041 37.79674258 -1.06413699 33.74883959 -1.07543945 29.70092773 C-1.08627043 25.79764029 -1.09227728 21.89437301 -1.09487724 17.9910717 C-1.09673111 16.49866353 -1.100351 15.00625652 -1.10573006 13.51385689 C-1.11294331 11.43051861 -1.11399083 9.34726469 -1.11352539 7.26391602 C-1.115746 6.07588882 -1.11796661 4.88786163 -1.12025452 3.66383362 C-1 1 -1 1 0 0 Z " fill="#EB0831" transform="translate(513,514)"/>
<path d="M0 0 C0.99 0.495 0.99 0.495 2 1 C2.00364563 1.61894638 2.00729126 2.23789276 2.01104736 2.87559509 C2.05303316 9.34915999 2.12249082 15.82202648 2.20751953 22.29516602 C2.23565108 24.70720415 2.25690426 27.11933313 2.27099609 29.53149414 C2.29253327 33.00974782 2.33924134 36.48691812 2.390625 39.96484375 C2.39185364 41.03395493 2.39308228 42.1030661 2.39434814 43.20457458 C2.54546692 51.02450806 3.72652998 57.80836674 9.5 63.4375 C15.69745782 67.31091114 21.04498587 68.14274822 28.375 68.125 C29.96441406 68.12886719 29.96441406 68.12886719 31.5859375 68.1328125 C35.44716476 67.98260457 39.17267475 67.52531915 43 67 C42.84402344 65.87980469 42.68804688 64.75960937 42.52734375 63.60546875 C42.33037066 62.13286041 42.13377577 60.66020144 41.9375 59.1875 C41.83373047 58.44951172 41.72996094 57.71152344 41.62304688 56.95117188 C41.17913434 53.56825221 40.90685008 51.27944975 42 48 C42.99 48.495 42.99 48.495 44 49 C44.495 58.405 44.495 58.405 45 68 C33.93661737 71.49369978 22.86513249 73.1033198 12 68 C4.78693264 63.61974629 2.06771568 57.99365968 0 50 C-0.47482215 45.97814839 -0.47116541 42.0334727 -0.390625 37.98828125 C-0.38496521 36.89404343 -0.37930542 35.7998056 -0.37347412 34.67240906 C-0.35129843 31.21863808 -0.30113722 27.76595101 -0.25 24.3125 C-0.22991072 21.95379115 -0.21166423 19.59506585 -0.1953125 17.23632812 C-0.15149566 11.49052311 -0.0847751 5.74533902 0 0 Z " fill="#EE0A39" transform="translate(834,481)"/>
<path d="M0 0 C0.83265381 0.00523682 1.66530762 0.01047363 2.52319336 0.01586914 C3.42231445 0.0190918 4.32143555 0.02231445 5.24780273 0.02563477 C6.66609375 0.03820312 6.66609375 0.03820312 8.11303711 0.05102539 C9.06243164 0.05553711 10.01182617 0.06004883 10.98999023 0.06469727 C13.34353242 0.07652411 15.69704243 0.09446018 18.05053711 0.11352539 C18.05053711 6.05352539 18.05053711 11.99352539 18.05053711 18.11352539 C25.97053711 18.11352539 33.89053711 18.11352539 42.05053711 18.11352539 C42.05053711 23.72352539 42.05053711 29.33352539 42.05053711 35.11352539 C38.73943581 36.21722582 36.80304762 36.0402618 33.36303711 35.67602539 C32.36916992 35.57418945 31.37530273 35.47235352 30.35131836 35.36743164 C29.59206055 35.28364258 28.83280273 35.19985352 28.05053711 35.11352539 C28.05053711 34.78352539 28.05053711 34.45352539 28.05053711 34.11352539 C32.01053711 34.11352539 35.97053711 34.11352539 40.05053711 34.11352539 C40.05053711 29.49352539 40.05053711 24.87352539 40.05053711 20.11352539 C32.13053711 20.11352539 24.21053711 20.11352539 16.05053711 20.11352539 C16.05053711 14.50352539 16.05053711 8.89352539 16.05053711 3.11352539 C10.44053711 3.11352539 4.83053711 3.11352539 -0.94946289 3.11352539 C-0.94946289 8.72352539 -0.94946289 14.33352539 -0.94946289 20.11352539 C-4.90946289 20.11352539 -8.86946289 20.11352539 -12.94946289 20.11352539 C-12.61946289 25.06352539 -12.28946289 30.01352539 -11.94946289 35.11352539 C-12.60946289 35.11352539 -13.26946289 35.11352539 -13.94946289 35.11352539 C-13.94946289 29.83352539 -13.94946289 24.55352539 -13.94946289 19.11352539 C-9.98946289 19.11352539 -6.02946289 19.11352539 -1.94946289 19.11352539 C-2.03325195 17.82575195 -2.11704102 16.53797852 -2.20336914 15.21118164 C-2.30650911 13.53281312 -2.40935873 11.85442675 -2.51196289 10.17602539 C-2.56803711 9.32588867 -2.62411133 8.47575195 -2.68188477 7.59985352 C-2.75439453 6.38652344 -2.75439453 6.38652344 -2.82836914 5.14868164 C-2.87550049 4.39981689 -2.92263184 3.65095215 -2.97119141 2.87939453 C-2.93986363 0.33339634 -2.518476 0.14666141 0 0 Z " fill="#ED0E3B" transform="translate(835.949462890625,445.886474609375)"/>
<path d="M0 0 C4.0884851 2.43569325 5.53797132 4.55225062 7 9 C7.24050903 11.57539368 7.24050903 11.57539368 7.22705078 14.34106445 C7.22689972 15.3817659 7.22674866 16.42246735 7.22659302 17.4947052 C7.21627045 18.6063353 7.20594788 19.71796539 7.1953125 20.86328125 C7.1924826 22.01040085 7.18965271 23.15752045 7.18673706 24.33940125 C7.17555697 27.99720768 7.15045595 31.65476778 7.125 35.3125 C7.11496741 37.79491833 7.10584205 40.27734051 7.09765625 42.75976562 C7.07562471 48.83992756 7.04216848 54.91994618 7 61 C7.66 61.33 8.32 61.66 9 62 C7.68 62 6.36 62 5 62 C4.99191315 61.33236633 4.98382629 60.66473267 4.97549438 59.97686768 C4.8894985 53.03386241 4.78999678 46.09114429 4.68261719 39.1484375 C4.6443123 36.55668964 4.60946213 33.96488834 4.578125 31.37304688 C4.53250783 27.64954517 4.4745069 23.92641185 4.4140625 20.203125 C4.40251129 19.04258606 4.39096008 17.88204712 4.37905884 16.68634033 C4.35918915 15.60552185 4.33931946 14.52470337 4.31884766 13.41113281 C4.30552399 12.46071106 4.29220032 11.51028931 4.2784729 10.53106689 C3.98628293 7.87532424 3.42757912 6.24482583 2 4 C-2.45734511 1.16350765 -7.04579478 2.08152375 -12 3 C-12.99 3.33 -13.98 3.66 -15 4 C-16.22373521 7.1067901 -16.15318268 10.2875871 -16.20532227 13.59472656 C-16.22526749 14.71558655 -16.24521271 15.83644653 -16.26576233 16.99127197 C-16.28247482 18.19555847 -16.29918732 19.39984497 -16.31640625 20.640625 C-16.33718735 21.87794373 -16.35796844 23.11526245 -16.37937927 24.39007568 C-16.43365872 27.67138691 -16.48391779 30.95272733 -16.53222656 34.23413086 C-16.58256092 37.58583104 -16.6382636 40.9374372 -16.69335938 44.2890625 C-16.80044509 50.85930464 -16.90223036 57.42961298 -17 64 C-17.33 64 -17.66 64 -18 64 C-18.29349469 56.54244479 -18.54812856 49.08461512 -18.75383663 41.62409019 C-18.85057677 38.15938048 -18.9604341 34.69614743 -19.10083008 31.23291016 C-19.26181802 27.24725765 -19.36475097 23.26110241 -19.46484375 19.2734375 C-19.55184792 17.41687027 -19.55184792 17.41687027 -19.64060974 15.52279663 C-19.7892702 7.12561163 -19.7892702 7.12561163 -17.51394653 3.88067627 C-12.00967289 -1.00736424 -7.03807743 -1.5956274 0 0 Z " fill="#F11043" transform="translate(189,507)"/>
<path d="M0 0 C1.0725 0.7425 2.145 1.485 3.25 2.25 C9.68061971 8.68061971 11.14420973 15.70531097 11.1875 24.5625 C11.19974609 25.23474609 11.21199219 25.90699219 11.22460938 26.59960938 C11.23562975 30.29878237 11.10685378 31.83971933 9 35 C9.03480469 34.03320312 9.06960938 33.06640625 9.10546875 32.0703125 C9.30899671 22.28158703 9.04389267 14.04159388 3 6 C3 5.34 3 4.68 3 4 C2.46375 3.731875 1.9275 3.46375 1.375 3.1875 C-1 2 -1 2 -3.625 0.4375 C-10.79739326 -2.61740824 -17.41512007 -2.5725127 -24.7421875 0 C-30.82859598 2.69571033 -33.8702547 6.53059351 -36.24609375 12.5546875 C-39.06119057 21.68551967 -38.69753872 32.43825983 -34.1875 41 C-30.3351684 46.28319762 -26.44145811 48.90333599 -20 50 C-16.00521573 50.43552159 -12.01038068 50.74976278 -8 51 C-8 51.33 -8 51.66 -8 52 C-10.20805524 52.0544452 -12.41650554 52.09299283 -14.625 52.125 C-15.85476563 52.14820313 -17.08453125 52.17140625 -18.3515625 52.1953125 C-26.17434489 51.776534 -30.76091004 48.54045355 -36 43 C-41.20803743 34.59993963 -41.08067731 23.85089926 -39.57421875 14.30078125 C-37.6203501 7.43227367 -32.93065709 2.93065709 -28 -2 C-18.87436964 -5.65025214 -8.18619595 -5.71347772 0 0 Z " fill="#EF0B38" transform="translate(570,483)"/>
<path d="M0 0 C1.18613892 0.00785522 1.18613892 0.00785522 2.39624023 0.01586914 C3.67724609 0.02070313 3.67724609 0.02070313 4.98413086 0.02563477 C5.88196289 0.03401367 6.77979492 0.04239258 7.70483398 0.05102539 C8.6065332 0.05553711 9.50823242 0.06004883 10.43725586 0.06469727 C12.67234712 0.07652315 14.90730835 0.09300319 17.14233398 0.11352539 C17.96736936 3.71803696 18.27084422 7.04770488 18.27514648 10.74243164 C18.27804687 12.40000488 18.27804687 12.40000488 18.28100586 14.09106445 C18.27649414 15.27410156 18.27198242 16.45713867 18.26733398 17.67602539 C18.26540039 18.89644531 18.2634668 20.11686523 18.26147461 21.37426758 C18.20048777 34.63212975 17.7142265 47.86873812 17.14233398 61.11352539 C16.81233398 61.11352539 16.48233398 61.11352539 16.14233398 61.11352539 C16.14233398 41.64352539 16.14233398 22.17352539 16.14233398 2.11352539 C10.53233398 2.11352539 4.92233398 2.11352539 -0.85766602 2.11352539 C-0.85766602 25.21352539 -0.85766602 48.31352539 -0.85766602 72.11352539 C-1.18766602 72.11352539 -1.51766602 72.11352539 -1.85766602 72.11352539 C-2.01125607 62.87363359 -2.15943777 53.63367579 -2.30062962 44.39358616 C-2.36635565 40.10348815 -2.43397587 35.81343711 -2.50585938 31.5234375 C-2.57510464 27.38679346 -2.63946005 23.25010012 -2.70036125 19.11332512 C-2.72451953 17.53157708 -2.75046847 15.94985539 -2.77820015 14.36816597 C-2.81660968 12.16036224 -2.84876906 9.95255234 -2.87939453 7.74462891 C-2.89938004 6.48554214 -2.91936554 5.22645538 -2.93995667 3.92921448 C-2.8301772 0.17295734 -2.8301772 0.17295734 0 0 Z " fill="#E8082B" transform="translate(795.857666015625,463.886474609375)"/>
<path d="M0 0 C8.59855688 3.23587284 17.15798576 7.83498507 24 14 C24.80824219 14.71671875 25.61648437 15.4334375 26.44921875 16.171875 C33.91463513 23.1797696 39.61041756 31.27124656 43 41 C43 41.99 43 42.98 43 44 C44.98 44.33 46.96 44.66 49 45 C49 45.33 49 45.66 49 46 C46.69 46 44.38 46 42 46 C41.61328125 45.05898438 41.2265625 44.11796875 40.828125 43.1484375 C40.30241421 41.89048667 39.7763538 40.63268191 39.25 39.375 C38.99734375 38.75753906 38.7446875 38.14007813 38.484375 37.50390625 C31.79409027 21.61448001 18.89421662 11.0764108 3.41015625 4.28515625 C-7.42275519 0.20265011 -18.55345622 -0.5688964 -30 -1 C-21.50679425 -5.70594844 -8.99056379 -2.58967327 0 0 Z " fill="#EE0F38" transform="translate(194,420)"/>
<path d="M0 0 C6.85687352 -0.87908635 11.49866772 2.60172972 16.921875 6.31640625 C24.80906336 12.4411919 29.01647495 21.41296224 31 31 C31 36.61 31 42.22 31 48 C10.54 48 -9.92 48 -31 48 C-31 47.67 -31 47.34 -31 47 C-10.87 47 9.26 47 30 47 C27.52524429 24.74942618 27.52524429 24.74942618 14.671875 7.91796875 C11.77407462 5.83782257 9.00000492 4.56044151 5.6875 3.25 C4.61886719 2.82203125 3.55023437 2.3940625 2.44921875 1.953125 C1.64097656 1.63859375 0.83273437 1.3240625 0 1 C0 0.67 0 0.34 0 0 Z " fill="#EF0931" transform="translate(931,464)"/>
<path d="M0 0 C5.54136013 6.20886623 8.64683536 13.08020933 11 21 C11.19464844 21.598125 11.38929688 22.19625 11.58984375 22.8125 C12.23120974 26.2331186 12.18439858 29.65761332 12.1875 33.125 C12.19974609 33.85332031 12.21199219 34.58164062 12.22460938 35.33203125 C12.22985188 37.22282978 12.12233385 39.11315581 12 41 C11.34 41.66 10.68 42.32 10 43 C9.98582031 41.70707031 9.97164062 40.41414062 9.95703125 39.08203125 C9.62840916 24.50609682 7.87642658 11.7892408 -3 1 C-14.64125446 -8.54373114 -26.38647551 -9.1824157 -41 -9 C-40.67 -9.66 -40.34 -10.32 -40 -11 C-25.22289621 -14.06694607 -11.26080165 -9.8792243 0 0 Z " fill="#EE0D3B" transform="translate(588,474)"/>
<path d="M0 0 C2.79173055 -0.02690104 5.58320348 -0.04679053 8.375 -0.0625 C9.56609375 -0.07506836 9.56609375 -0.07506836 10.78125 -0.08789062 C16.7734375 -0.11328125 16.7734375 -0.11328125 19 1 C19.8503418 3.31884766 19.8503418 3.31884766 20.69921875 6.4140625 C21.01826172 7.5572998 21.33730469 8.70053711 21.66601562 9.87841797 C22.00310547 11.11479004 22.34019531 12.35116211 22.6875 13.625 C23.39778014 16.18286188 24.10959088 18.74023116 24.82421875 21.296875 C25.00419403 21.94320892 25.18416931 22.58954285 25.36959839 23.25546265 C27.38660738 30.45858295 29.61784953 37.59567073 31.91674805 44.71337891 C33.35091928 49.28104411 34.38440796 53.14684955 34 58 C31.81871187 54.11874084 30.62068857 49.9182097 29.3125 45.6875 C29.05629883 44.86805908 28.80009766 44.04861816 28.53613281 43.2043457 C26.10318038 35.39655449 23.72524328 27.57163649 21.3605957 19.74291992 C21.08175537 18.82099854 20.80291504 17.89907715 20.515625 16.94921875 C20.25458984 16.08474121 19.99355469 15.22026367 19.72460938 14.32958984 C19.12442919 12.40003482 18.46782314 10.48813393 17.796875 8.58203125 C17 6 17 6 17 2 C9.08 2.495 9.08 2.495 1 3 C0.01 5.97 -0.98 8.94 -2 12 C-3.26978329 6.92086683 -1.92840576 4.62817382 0 0 Z " fill="#EE0E3A" transform="translate(655,464)"/>
<path d="M0 0 C1.18613892 0.00785522 1.18613892 0.00785522 2.39624023 0.01586914 C3.67724609 0.02070313 3.67724609 0.02070313 4.98413086 0.02563477 C5.88196289 0.03401367 6.77979492 0.04239258 7.70483398 0.05102539 C8.6065332 0.05553711 9.50823242 0.06004883 10.43725586 0.06469727 C12.67234712 0.07652315 14.90730835 0.09300319 17.14233398 0.11352539 C17.14233398 1.76352539 17.14233398 3.41352539 17.14233398 5.11352539 C16.81233398 4.45352539 16.48233398 3.79352539 16.14233398 3.11352539 C11.19233398 3.44352539 6.24233398 3.77352539 1.14233398 4.11352539 C0.48233398 18.63352539 -0.17766602 33.15352539 -0.85766602 48.11352539 C-1.18766602 48.11352539 -1.51766602 48.11352539 -1.85766602 48.11352539 C-2.47247992 35.80253111 -2.95915625 23.50396091 -2.98266602 11.17602539 C-2.98717773 10.18207764 -2.99168945 9.18812988 -2.99633789 8.1640625 C-2.9944043 7.25148682 -2.9924707 6.33891113 -2.99047852 5.39868164 C-2.98935059 4.59309814 -2.98822266 3.78751465 -2.98706055 2.95751953 C-2.81041378 0.44013641 -2.51988475 0.1539948 0 0 Z " fill="#F10737" transform="translate(514.857666015625,463.886474609375)"/>
<path d="M0 0 C0.33 0 0.66 0 1 0 C0.62537094 10.11498472 -4.70010365 17.46957813 -11.9453125 24.25 C-20.77500363 31.7703453 -30.81907497 34.60556577 -42.40625 34.22265625 C-49.29685918 33.63114311 -56.27871415 32.10122787 -62 28 C-62.33 27.01 -62.66 26.02 -63 25 C-62.484375 25.268125 -61.96875 25.53625 -61.4375 25.8125 C-49.54810093 31.60477134 -37.35190176 33.08402552 -24.52734375 29.03515625 C-14.61358906 24.97465394 -7.23937985 17.58852449 -2.77734375 7.8984375 C-1.71519289 5.30444092 -0.80526871 2.68422903 0 0 Z " fill="#EE0C38" transform="translate(597,518)"/>
<path d="M0 0 C0.33 0 0.66 0 1 0 C1 21.12 1 42.24 1 64 C13.68944213 62.04777813 22.55938231 59.97596017 33.00390625 53.07421875 C33.66261719 52.71972656 34.32132812 52.36523438 35 52 C35.99 52.495 35.99 52.495 37 53 C25.79747533 61.77488953 14.21844596 66.24514562 0 66 C-1.10181039 62.69456884 -1.08420432 60.35404043 -1.02172852 56.8762207 C-1.00163223 55.61513992 -0.98153595 54.35405914 -0.96083069 53.05476379 C-0.93363438 51.67843406 -0.90632354 50.30210659 -0.87890625 48.92578125 C-0.85459998 47.51760119 -0.83075667 46.10941308 -0.80735779 44.70121765 C-0.74456724 40.99725147 -0.67548645 37.29342824 -0.60510254 33.58959961 C-0.5343736 29.80914818 -0.46958394 26.0285955 -0.40429688 22.24804688 C-0.27534939 14.83191926 -0.1397576 7.41593261 0 0 Z " fill="#E8092C" transform="translate(230,504)"/>
<path d="M0 0 C0.66 0.66 1.32 1.32 2 2 C0.88882813 2.02578125 -0.22234375 2.0515625 -1.3671875 2.078125 C-9.92109994 2.36771308 -17.32211505 2.83927482 -25 7 C-26.0725 7.556875 -27.145 8.11375 -28.25 8.6875 C-33.15605234 12.81304401 -36.4470568 17.78822721 -38 24 C-30.575 24.99 -30.575 24.99 -23 26 C-23 27.65 -23 29.3 -23 31 C-24.13179688 30.6390625 -25.26359375 30.278125 -26.4296875 29.90625 C-27.91141093 29.43735018 -29.39318437 28.96860836 -30.875 28.5 C-31.99455078 28.14228516 -31.99455078 28.14228516 -33.13671875 27.77734375 C-36.99242067 26.47229585 -36.99242067 26.47229585 -41 26 C-40.08481358 18.67850862 -36.43802475 12.60224047 -31.12109375 7.60546875 C-22.07125497 0.75559078 -11.11578266 -1.08761389 0 0 Z " fill="#EF1240" transform="translate(371,462)"/>
<path d="M0 0 C-2.45543508 2.45543508 -3.80982261 2.47772579 -7.1875 3.125 C-15.22685449 5.00117342 -21.88309098 8.97107675 -29 13 C-30.32732418 13.67855194 -31.65740097 14.35219597 -33 15 C-33 15.66 -33 16.32 -33 17 C-34.3203125 18.19140625 -34.3203125 18.19140625 -36.125 19.5625 C-44.07128786 26.16032689 -49.06793477 36.22644922 -52 46 C-52.33 46 -52.66 46 -53 46 C-52.78313935 34.94010679 -46.09091547 25.1400519 -38.640625 17.34765625 C-28.26947672 8.12715312 -14.16371162 -0.32190254 0 0 Z " fill="#F10D35" transform="translate(162,419)"/>
<path d="M0 0 C1.49502235 3.89489541 0.45299529 6.51206899 -0.8359375 10.375 C-1.24070312 11.60734375 -1.64546875 12.8396875 -2.0625 14.109375 C-2.49963189 15.40637412 -2.93713568 16.70324796 -3.375 18 C-3.8056717 19.29654849 -4.23536989 20.59342079 -4.6640625 21.890625 C-5.45226315 24.2751814 -6.24524026 26.65816782 -7.04443359 29.0390625 C-7.78465107 31.33271542 -8.41545565 33.6618226 -9 36 C-15.27 36 -21.54 36 -28 36 C-28.845625 33.6075 -29.69125 31.215 -30.5625 28.75 C-30.96770874 27.62996582 -30.96770874 27.62996582 -31.38110352 26.48730469 C-33.46675031 20.40777917 -33.46675031 20.40777917 -32 17 C-29.74577667 22.63555833 -28.2084629 28.05064416 -27 34 C-21.72 34 -16.44 34 -11 34 C-10.57976563 32.59878906 -10.15953125 31.19757812 -9.7265625 29.75390625 C-9.45231445 28.84012207 -9.17806641 27.92633789 -8.89550781 26.98486328 C-8.30050956 25.00164392 -7.70610442 23.01824651 -7.11230469 21.03466797 C-6.20312819 18.00128875 -5.28938683 14.96931226 -4.375 11.9375 C-4.06304688 10.89400391 -3.75109375 9.85050781 -3.4296875 8.77539062 C-3.130625 7.78603516 -2.8315625 6.79667969 -2.5234375 5.77734375 C-2.25450684 4.88265381 -1.98557617 3.98796387 -1.70849609 3.06616211 C-1 1 -1 1 0 0 Z " fill="#EC0E39" transform="translate(655,514)"/>
<path d="M0 0 C0 0.33 0 0.66 0 1 C-0.63502441 0.98428955 -1.27004883 0.9685791 -1.92431641 0.95239258 C-4.8244523 0.8897141 -7.72444524 0.85090583 -10.625 0.8125 C-11.62402344 0.78736328 -12.62304688 0.76222656 -13.65234375 0.73632812 C-20.17943515 0.67148947 -24.82758491 1.14482642 -29.875 5.6875 C-31.53669487 9.10320612 -31.66381006 12.3235135 -31 16 C-28.85700803 19.62683448 -28.85700803 19.62683448 -25.28125 21.59375 C-22.27707815 22.12873951 -19.2935189 22.34945368 -16.25 22.5625 C-15.07953125 22.64628906 -13.9090625 22.73007812 -12.703125 22.81640625 C-11.36507813 22.90728516 -11.36507813 22.90728516 -10 23 C-14.27878993 25.85252662 -17.97997169 25.48827023 -23 25 C-26.75444 24.09326732 -29.47597436 22.44340631 -32.4375 19.9375 C-34.75249524 15.58530894 -34.96780153 11.81650063 -34 7 C-32.15343814 3.19538575 -29.81274973 0.7444626 -25.87890625 -0.87109375 C-17.01909264 -3.09756337 -8.79236268 -1.81019232 0 0 Z " fill="#F40A3C" transform="translate(379,512)"/>
<path d="M0 0 C3.32606815 2.54386398 4.83762364 4.23236563 6.16015625 8.2734375 C6.00913593 12.57751653 5.2114183 15.11523141 3.03515625 18.8359375 C-0.39828507 21.67225859 -3.4546666 23.72855233 -7.96484375 23.8359375 C-12.43165623 22.90497859 -15.29764786 21.53649318 -18.46484375 18.2109375 C-20.38070743 13.90024421 -20.91934823 10.47565928 -19.96484375 5.8359375 C-18.16152969 2.22163571 -15.710291 0.20866113 -12.08984375 -1.6015625 C-7.55251399 -2.41828186 -4.06224341 -2.40665713 0 0 Z M-16.96484375 3.8359375 C-19.25132252 7.10233574 -19.51438431 9.91064779 -18.96484375 13.8359375 C-17.13936439 16.76077617 -15.09625964 19.27022955 -11.96484375 20.8359375 C-7.67664419 21.27402468 -4.02061927 21.28520368 -0.02734375 19.5859375 C3.13344359 16.90405733 3.87693512 15.04896617 4.41015625 10.9609375 C3.93377123 6.99106236 2.50475199 4.94057214 0.03515625 1.8359375 C-5.76960744 -2.03390496 -12.20310357 -1.35868815 -16.96484375 3.8359375 Z " fill="#EC0C35" transform="translate(810.96484375,436.1640625)"/>
<path d="M0 0 C0.33 0 0.66 0 1 0 C2.47171666 21.97062725 2.09464182 43.99359355 2 66 C7.28 66 12.56 66 18 66 C18 66.33 18 66.66 18 67 C12.39 67 6.78 67 1 67 C1 58.75 1 50.5 1 42 C0.34 41.67 -0.32 41.34 -1 41 C-1.02464705 35.32169922 -1.04283462 29.64342931 -1.05493164 23.96508789 C-1.05997256 22.03181415 -1.06680519 20.09854424 -1.07543945 18.1652832 C-1.08751565 15.39273128 -1.09323057 12.62022959 -1.09765625 9.84765625 C-1.10281754 8.97786636 -1.10797882 8.10807648 -1.11329651 7.21192932 C-1.11349185 5.14094186 -1.06208168 3.07005676 -1 1 C-0.67 0.67 -0.34 0.34 0 0 Z " fill="#F40A41" transform="translate(513,514)"/>
<path d="M0 0 C2.12157677 3.86336207 2.21929481 6.64052464 2.16015625 11.07421875 C2.1523539 12.09912163 2.1523539 12.09912163 2.14439392 13.14472961 C2.12663756 15.3258728 2.0955339 17.50653891 2.0625 19.6875 C1.03319194 34.05606909 1.03319194 34.05606909 4.375 47.5 C7.71894405 50.58671758 11.37923703 50.10515607 15.6875 50.0625 C16.86699219 50.05347656 18.04648437 50.04445313 19.26171875 50.03515625 C20.16535156 50.02355469 21.06898438 50.01195312 22 50 C21.67 50.66 21.34 51.32 21 52 C15.14116303 53.39175438 9.57945443 53.39119476 4 51 C0.69298571 47.5827519 -0.12687227 44.27842263 -0.11352539 39.62036133 C-0.11344986 38.73967484 -0.11337433 37.85898834 -0.11329651 36.95161438 C-0.10813522 36.00465195 -0.10297394 35.05768951 -0.09765625 34.08203125 C-0.0962413 33.10965012 -0.09482635 32.13726898 -0.09336853 31.13542175 C-0.08776817 28.02774996 -0.07521562 24.92015004 -0.0625 21.8125 C-0.05748505 19.70638125 -0.05292213 17.60026137 -0.04882812 15.49414062 C-0.03779862 10.32939936 -0.02053375 5.16471187 0 0 Z " fill="#EA0730" transform="translate(852,482)"/>
<path d="M0 0 C0.33 0 0.66 0 1 0 C1.10957031 1.11117188 1.21914063 2.22234375 1.33203125 3.3671875 C2.91463862 18.59036319 5.34420856 31.13393781 17.69921875 41.42578125 C21.83070107 44.25258494 26.36502217 46.15112098 31 48 C28.42969854 48.95942128 27.26465441 49.09171193 24.6328125 48.1796875 C12.67493263 41.95860981 5.53311209 33.73920731 1 21 C-0.18192812 16.58695668 -0.11518148 12.2221601 -0.0625 7.6875 C-0.05798828 6.94693359 -0.05347656 6.20636719 -0.04882812 5.44335938 C-0.03712175 3.62887101 -0.01918898 1.81442466 0 0 Z " fill="#EA0B33" transform="translate(881,501)"/>
<path d="M0 0 C0 3.23352147 -0.61759955 4.45649907 -2 7.3125 C-5.46196665 15.73949355 -5.3648472 25.63094841 -1.96875 34.10546875 C1.29341793 40.48511168 5.63668899 43.31572488 12 46 C12 46.33 12 46.66 12 47 C8.64728635 47.39054908 7.27839162 47.18658162 4.4296875 45.27734375 C-3.32351253 38.17617125 -6.35723889 33.12450044 -7.1953125 22.53125 C-7.56183219 13.83251591 -5.43831301 6.84074331 0 0 Z " fill="#F00C3A" transform="translate(440,487)"/>
<path d="M0 0 C3.83389204 1.43770951 7.41563869 3.19830545 11.03515625 5.09765625 C20.53431639 9.46009361 33.10478459 7.60984808 42.546875 4.16796875 C44.97245018 3.01311687 46.92269665 1.69387586 49 0 C49.66 0.33 50.32 0.66 51 1 C43.02928108 8.43933765 32.66921968 10.33123985 22.12890625 10.21484375 C14.26968377 9.67519676 7.18944092 6.89660731 1 2 C0.67 1.34 0.34 0.68 0 0 Z " fill="#EE0C38" transform="translate(436,542)"/>
<path d="M0 0 C5.66839369 3.24963286 9.59836949 7.69440969 11.4375 14 C11.47875 14.66 11.52 15.32 11.5625 16 C9.41107907 13.49000892 7.72220103 11.42919652 6.5625 8.3125 C5.77772154 5.92266932 5.77772154 5.92266932 3.875 4.875 C3.111875 4.58625 2.34875 4.2975 1.5625 4 C0.49 3.484375 -0.5825 2.96875 -1.6875 2.4375 C-11.13557829 -1.50254967 -19.1697635 0.67312023 -28.4375 4 C-21.54530279 -3.95253524 -9.17282343 -4.12152581 0 0 Z " fill="#F00C3A" transform="translate(471.4375,481)"/>
<path d="M0 0 C3.98150664 2.34206273 6.33586279 5.68336962 7.79296875 10.0546875 C7.86099842 11.78264102 7.8779252 13.51304115 7.85546875 15.2421875 C7.84644531 16.14324219 7.83742188 17.04429687 7.828125 17.97265625 C7.81652344 18.65972656 7.80492187 19.34679687 7.79296875 20.0546875 C5.77417948 17.0265036 5.43252279 15.60880419 4.91796875 12.1171875 C4.13585625 7.91944308 3.41166215 5.60905931 -0.20703125 3.0546875 C-5.36194104 -0.12649557 -11.36714895 0.43805397 -17.20703125 1.0546875 C-19.77652963 2.10433471 -21.10380154 3.17883398 -23.20703125 5.0546875 C-24.19703125 5.5496875 -24.19703125 5.5496875 -25.20703125 6.0546875 C-23.74916784 2.21122941 -21.81737537 0.90388815 -18.20703125 -0.9453125 C-12.11197325 -2.9769985 -5.90432529 -2.47486689 0 0 Z " fill="#F30B3B" transform="translate(374.20703125,479.9453125)"/>
<path d="M0 0 C-2.18073757 2.18073757 -3.4173918 2.60470603 -6.3125 3.5 C-9.60322631 4.54560175 -12.81301569 5.66352271 -16 7 C-16 7.66 -16 8.32 -16 9 C-16.75023437 9.58652344 -17.50046875 10.17304688 -18.2734375 10.77734375 C-25.79081014 16.90540254 -29.09291873 26.77335919 -31 36 C-31.33 36 -31.66 36 -32 36 C-32.53510588 29.71250587 -30.91049671 25.53377335 -28 20 C-27.649375 19.31679688 -27.29875 18.63359375 -26.9375 17.9296875 C-21.84895882 8.91872916 -11.24789127 -1.45134081 0 0 Z " fill="#EE0B35" transform="translate(914,464)"/>
<path d="M0 0 C0.87454834 0.00523682 1.74909668 0.01047363 2.65014648 0.01586914 C3.59438477 0.0190918 4.53862305 0.02231445 5.51147461 0.02563477 C6.50469727 0.03401367 7.49791992 0.04239258 8.52124023 0.05102539 C9.51833008 0.05553711 10.51541992 0.06004883 11.54272461 0.06469727 C14.01478872 0.07652532 16.48673541 0.0930069 18.95874023 0.11352539 C18.95874023 0.77352539 18.95874023 1.43352539 18.95874023 2.11352539 C10.04874023 3.10352539 10.04874023 3.10352539 0.95874023 4.11352539 C0.95874023 6.42352539 0.95874023 8.73352539 0.95874023 11.11352539 C-0.77788311 7.88836776 -1.93185257 4.60023373 -3.04125977 1.11352539 C-2.04125977 0.11352539 -2.04125977 0.11352539 0 0 Z " fill="#EC1542" transform="translate(602.041259765625,463.886474609375)"/>
<path d="M0 0 C1.27423828 -0.00193359 1.27423828 -0.00193359 2.57421875 -0.00390625 C3.91419922 0.00189453 3.91419922 0.00189453 5.28125 0.0078125 C6.17457031 0.00394531 7.06789063 0.00007813 7.98828125 -0.00390625 C8.83777344 -0.00261719 9.68726563 -0.00132812 10.5625 0 C11.34689453 0.00112793 12.13128906 0.00225586 12.93945312 0.00341797 C14.78125 0.1328125 14.78125 0.1328125 15.78125 1.1328125 C15.69161938 2.82422906 15.53547324 4.51240852 15.34375 6.1953125 C15.24191406 7.11441406 15.14007812 8.03351563 15.03515625 8.98046875 C14.95136719 9.69074219 14.86757813 10.40101563 14.78125 11.1328125 C14.45125 11.1328125 14.12125 11.1328125 13.78125 11.1328125 C13.78125 8.1628125 13.78125 5.1928125 13.78125 2.1328125 C5.86125 2.6278125 5.86125 2.6278125 -2.21875 3.1328125 C-2.54875 4.4528125 -2.87875 5.7728125 -3.21875 7.1328125 C-3.87875 7.1328125 -4.53875 7.1328125 -5.21875 7.1328125 C-5.26129356 5.13326504 -5.25955783 3.13239614 -5.21875 1.1328125 C-3.66268249 -0.42325501 -2.15917629 0.00310481 0 0 Z " fill="#EE1544" transform="translate(738.21875,463.8671875)"/>
<path d="M0 0 C1.41096709 3.80035041 0.56209198 6.38150683 -0.58203125 10.19140625 C-0.93716797 11.38314453 -1.29230469 12.57488281 -1.65820312 13.80273438 C-2.22958008 15.66381836 -2.22958008 15.66381836 -2.8125 17.5625 C-3.18181641 18.80708984 -3.55113281 20.05167969 -3.93164062 21.33398438 C-6.71993172 30.57989758 -6.71993172 30.57989758 -9 34 C-8.43220034 26.49242667 -6.66901545 19.69520788 -4.5 12.5 C-4.01853516 10.85644531 -4.01853516 10.85644531 -3.52734375 9.1796875 C-1.14478616 1.14478616 -1.14478616 1.14478616 0 0 Z " fill="#F00936" transform="translate(701,486)"/>
<path d="M0 0 C8.77624494 0.39005533 13.24881011 2.96224843 19.25 9.4375 C24.0572263 14.79438977 25.28220883 18.80367473 25 26 C23.73910239 23.5751969 22.65808578 21.16075601 21.625 18.625 C18.58332361 11.83972191 15.28274194 6.75423046 8.234375 3.8671875 C5.50269572 2.86557177 2.76345117 1.90985783 0 1 C0 0.67 0 0.34 0 0 Z " fill="#EF0A36" transform="translate(374,464)"/>
<path d="M0 0 C6.27 0 12.54 0 19 0 C20.04973814 4.19895255 19.72795155 6.79405774 19 11 C18.67 11 18.34 11 18 11 C18 8.36 18 5.72 18 3 C17.28714844 3.01160156 16.57429688 3.02320313 15.83984375 3.03515625 C10.43674634 3.08606026 5.32171525 2.94608271 0 2 C0 1.34 0 0.68 0 0 Z " fill="#F21144" transform="translate(416,464)"/>
<path d="M0 0 C0.77601563 0.01417969 1.55203125 0.02835937 2.3515625 0.04296875 C3.12242187 0.04941406 3.89328125 0.05585938 4.6875 0.0625 C6.9765625 0.23046875 6.9765625 0.23046875 10.9765625 1.23046875 C10.9765625 8.16046875 10.9765625 15.09046875 10.9765625 22.23046875 C8.9765625 20.23046875 8.9765625 20.23046875 8.78125 16.53515625 C8.7945535 15.05846767 8.81841415 13.58184517 8.8515625 12.10546875 C8.86058594 11.35136719 8.86960937 10.59726562 8.87890625 9.8203125 C8.9024938 7.95689621 8.93836531 6.09364282 8.9765625 4.23046875 C4.6865625 3.57046875 0.3965625 2.91046875 -4.0234375 2.23046875 C-2.0234375 0.23046875 -2.0234375 0.23046875 0 0 Z " fill="#F00E3E" transform="translate(773.0234375,461.76953125)"/>
<path d="M0 0 C0.33 0.66 0.66 1.32 1 2 C-1.93244327 8.35362708 -5.98698251 12.94505829 -12.265625 16.16015625 C-15.71412303 17.21933779 -18.71168205 17.19230501 -22.3125 17.125 C-23.56675781 17.10695313 -24.82101562 17.08890625 -26.11328125 17.0703125 C-27.06589844 17.04710937 -28.01851563 17.02390625 -29 17 C-29 16.67 -29 16.34 -29 16 C-28.05898438 15.89042969 -27.11796875 15.78085937 -26.1484375 15.66796875 C-24.90320313 15.50941406 -23.65796875 15.35085938 -22.375 15.1875 C-21.14523437 15.03667969 -19.91546875 14.88585937 -18.6484375 14.73046875 C-10.87493919 13.17410453 -6.04239745 9.16636498 -1.6875 2.6875 C-1.130625 1.800625 -0.57375 0.91375 0 0 Z " fill="#EE0936" transform="translate(482,518)"/>
<path d="M0 0 C0.33 0 0.66 0 1 0 C1.17015625 1.01320313 1.3403125 2.02640625 1.515625 3.0703125 C1.75968113 4.42200801 2.00451432 5.77356338 2.25 7.125 C2.35957031 7.79015625 2.46914063 8.4553125 2.58203125 9.140625 C3.65398245 14.89531036 5.68018144 19.13339103 10.359375 22.8984375 C11.14828125 23.38570312 11.9371875 23.87296875 12.75 24.375 C13.54921875 24.87773438 14.3484375 25.38046875 15.171875 25.8984375 C15.77515625 26.26195312 16.3784375 26.62546875 17 27 C16.01 27.33 15.02 27.66 14 28 C7.4762238 24.5206527 2.23373426 19.13959923 0 12 C-0.1953125 8.88671875 -0.1953125 8.88671875 -0.125 5.6875 C-0.10695313 4.61886719 -0.08890625 3.55023437 -0.0703125 2.44921875 C-0.04710937 1.64097656 -0.02390625 0.83273437 0 0 Z " fill="#F00A35" transform="translate(327,521)"/>
<path d="M0 0 C1.19882812 0.15275391 1.19882812 0.15275391 2.421875 0.30859375 C3.02515625 0.39238281 3.6284375 0.47617187 4.25 0.5625 C4.25 0.8925 4.25 1.2225 4.25 1.5625 C3.39277344 1.63726562 2.53554688 1.71203125 1.65234375 1.7890625 C-4.72415523 2.52232394 -9.74336223 3.10309289 -14.3828125 7.765625 C-16.71807499 10.83482713 -18.22464479 14.02367591 -19.75 17.5625 C-20.75 14.5625 -20.75 14.5625 -19.5625 11.6875 C-16.34185714 6.13466749 -13.17997262 2.0050331 -6.890625 -0.04296875 C-4.43987821 -0.49465748 -2.46580295 -0.32635627 0 0 Z " fill="#F40E41" transform="translate(921.75,478.4375)"/>
<path d="M0 0 C4.18953514 1.54811633 6.50569941 3.03117083 8.5625 7.0625 C9 10 9 10 7 13 C6.731875 11.865625 6.46375 10.73125 6.1875 9.5625 C5.795625 8.386875 5.40375 7.21125 5 6 C4.01 5.67 3.02 5.34 2 5 C2 4.34 2 3.68 2 3 C-1.96 3 -5.92 3 -10 3 C-5.74899087 -0.18825685 -5.01714896 -0.68862829 0 0 Z " fill="#F30634" transform="translate(222,494)"/>
<path d="M0 0 C4.19147353 4.64055998 8 10.59845756 8 17 C9.98 17.33 11.96 17.66 14 18 C14 18.33 14 18.66 14 19 C11.69 19 9.38 19 7 19 C6.014733 16.77335683 5.03668556 14.54398683 4.0625 12.3125 C3.64581055 11.37374023 3.64581055 11.37374023 3.22070312 10.41601562 C1.7211135 6.96515276 0.56270143 3.72522594 0 0 Z " fill="#F00E3C" transform="translate(229,447)"/>
<path d="M0 0 C0.33 0 0.66 0 1 0 C1.3221077 6.03653699 1.56806924 10.83245145 -2 16 C-4.83943664 18.6938245 -7.08974009 20.42070224 -11 21 C-10.2575 20.278125 -9.515 19.55625 -8.75 18.8125 C-7.8425 17.884375 -6.935 16.95625 -6 16 C-5.278125 15.29875 -4.55625 14.5975 -3.8125 13.875 C-1.09875989 9.57044673 -0.66376456 4.98696797 0 0 Z " fill="#F00732" transform="translate(381,514)"/>
<path d="M0 0 C1.18613892 0.00785522 1.18613892 0.00785522 2.39624023 0.01586914 C3.67724609 0.02070313 3.67724609 0.02070313 4.98413086 0.02563477 C5.88196289 0.03401367 6.77979492 0.04239258 7.70483398 0.05102539 C8.6065332 0.05553711 9.50823242 0.06004883 10.43725586 0.06469727 C12.67234712 0.07652315 14.90730835 0.09300319 17.14233398 0.11352539 C17.14233398 0.44352539 17.14233398 0.77352539 17.14233398 1.11352539 C8.72733398 1.60852539 8.72733398 1.60852539 0.14233398 2.11352539 C-0.18766602 5.74352539 -0.51766602 9.37352539 -0.85766602 13.11352539 C-1.18766602 13.11352539 -1.51766602 13.11352539 -1.85766602 13.11352539 C-2.84014797 9.06078731 -3.01784483 5.27817465 -2.85766602 1.11352539 C-1.85766602 0.11352539 -1.85766602 0.11352539 0 0 Z " fill="#F21B53" transform="translate(514.857666015625,463.886474609375)"/>
<path d="M0 0 C0.350625 0.474375 0.70125 0.94875 1.0625 1.4375 C0.20978516 1.20160156 0.20978516 1.20160156 -0.66015625 0.9609375 C-4.44748935 0.09043555 -8.08950221 -0.1935442 -11.9375 0.4375 C-14.69319447 2.61909145 -16.37338747 4.30927494 -17.9375 7.4375 C-18.5975 7.4375 -19.2575 7.4375 -19.9375 7.4375 C-18.58658476 3.01632285 -16.7724855 0.994157 -12.9375 -1.5625 C-8.74647478 -3.37861093 -3.55388564 -2.8660368 0 0 Z " fill="#E9163A" transform="translate(810.9375,436.5625)"/>
<path d="M0 0 C0.66 0.33 1.32 0.66 2 1 C2 7.6 2 14.2 2 21 C0.35 21.33 -1.3 21.66 -3 22 C-3 21.34 -3 20.68 -3 20 C-2.01 20 -1.02 20 0 20 C0 13.4 0 6.8 0 0 Z " fill="#E6143D" transform="translate(531,561)"/>
<path d="M0 0 C0.33 0 0.66 0 1 0 C0.67 3.63 0.34 7.26 0 11 C-3.63 11 -7.26 11 -11 11 C-7.5647952 8.70986347 -6.014669 8.82157027 -2 9 C-1.855625 7.700625 -1.71125 6.40125 -1.5625 5.0625 C-1.125 1.125 -1.125 1.125 0 0 Z " fill="#F20E3D" transform="translate(108,466)"/>
<path d="M0 0 C-0.56589844 0.27972656 -1.13179688 0.55945313 -1.71484375 0.84765625 C-4.01835981 2.00925837 -6.29548622 3.2061778 -8.5625 4.4375 C-9.70912109 5.05431641 -9.70912109 5.05431641 -10.87890625 5.68359375 C-13.03818676 6.9109628 -13.03818676 6.9109628 -14.65234375 8.66015625 C-16 10 -16 10 -18 10 C-15.36370221 3.26279455 -7.06646561 -1.11575773 0 0 Z " fill="#F10B39" transform="translate(455,464)"/>
<path d="M0 0 C0.93423645 3.01031744 1.04449911 3.86650268 0 7 C-2.64 7 -5.28 7 -8 7 C-8.33 7.66 -8.66 8.32 -9 9 C-9 8.34 -9 7.68 -9 7 C-10.32 6.67 -11.64 6.34 -13 6 C-10.11788698 5.03929566 -8.30149956 4.89418117 -5.3125 4.9375 C-4.10013672 4.95103516 -4.10013672 4.95103516 -2.86328125 4.96484375 C-1.94095703 4.98224609 -1.94095703 4.98224609 -1 5 C-0.67 3.35 -0.34 1.7 0 0 Z " fill="#EA1E4F" transform="translate(208,563)"/>
<path d="M0 0 C0.66 0.33 1.32 0.66 2 1 C4.37123246 1.23029956 6.74741943 1.41119942 9.125 1.5625 C10.40632812 1.64628906 11.68765625 1.73007812 13.0078125 1.81640625 C14.48894531 1.90728516 14.48894531 1.90728516 16 2 C16 2.33 16 2.66 16 3 C9.565 3.495 9.565 3.495 3 4 C3 6.31 3 8.62 3 11 C1.26337666 7.77484237 0.1094072 4.48670834 -1 1 C-0.67 0.67 -0.34 0.34 0 0 Z " fill="#F30E46" transform="translate(600,464)"/>
<path d="M0 0 C0.33 0 0.66 0 1 0 C1.05380578 2.79192205 1.09357669 5.5828141 1.125 8.375 C1.14175781 9.1690625 1.15851562 9.963125 1.17578125 10.78125 C1.19335473 12.85492015 1.10335168 14.92883241 1 17 C0.34 17.66 -0.32 18.32 -1 19 C-1.33 15.37 -1.66 11.74 -2 8 C-1.34 8 -0.68 8 0 8 C0 5.36 0 2.72 0 0 Z " fill="#F50A42" transform="translate(514,536)"/>
<path d="M0 0 C0 0.66 0 1.32 0 2 C-1.72156096 3.01303762 -3.45261806 4.00994848 -5.1875 5 C-6.63189453 5.8353125 -6.63189453 5.8353125 -8.10546875 6.6875 C-11.04888743 8.02216758 -12.81880057 8.27915461 -16 8 C-13.79659236 5.79659236 -11.66426894 4.96134732 -8.8125 3.796875 C-6.78254208 2.94976535 -6.78254208 2.94976535 -4.1875 1.3125 C-2 0 -2 0 0 0 Z " fill="#EC1039" transform="translate(950,542)"/>
<path d="M0 0 C-1.28813342 0.83878455 -2.58063256 1.67086783 -3.875 2.5 C-4.59429688 2.9640625 -5.31359375 3.428125 -6.0546875 3.90625 C-8 5 -8 5 -10 5 C-10 5.66 -10 6.32 -10 7 C-10.66 7 -11.32 7 -12 7 C-12 7.66 -12 8.32 -12 9 C-12.66 8.67 -13.32 8.34 -14 8 C-10.75150679 3.32216978 -6.05825152 -2.01941717 0 0 Z " fill="#F20C3D" transform="translate(546,466)"/>
<path d="M0 0 C-1.28813342 0.83878455 -2.58063256 1.67086783 -3.875 2.5 C-4.59429688 2.9640625 -5.31359375 3.428125 -6.0546875 3.90625 C-8 5 -8 5 -10 5 C-10.66 6.32 -11.32 7.64 -12 9 C-12.66 8.67 -13.32 8.34 -14 8 C-12.71937515 6.2925002 -11.38232443 4.62626404 -10 3 C-9.34 3 -8.68 3 -8 3 C-8 2.34 -8 1.68 -8 1 C-4.85571151 -0.9090323 -3.47925125 -1.04523725 0 0 Z " fill="#F30C3D" transform="translate(768,465)"/>
<path d="M0 0 C0.50789063 0.39832031 1.01578125 0.79664063 1.5390625 1.20703125 C5.53903498 4.28566175 9.36879143 6.91595614 14 9 C14 9.33 14 9.66 14 10 C10.70316168 10.36306212 9.32598755 10.22285318 6.54296875 8.3203125 C5.76566406 7.59585938 4.98835938 6.87140625 4.1875 6.125 C3.39730469 5.40570312 2.60710937 4.68640625 1.79296875 3.9453125 C0 2 0 2 0 0 Z " fill="#ED0836" transform="translate(438,524)"/>
<path d="M0 0 C3.10009769 1.38238352 5.28263873 2.98578859 7.6875 5.375 C8.28949219 5.96023438 8.89148438 6.54546875 9.51171875 7.1484375 C11.10135013 9.12608914 11.5905426 10.5214179 12 13 C10.85872377 11.85872377 9.71776264 10.71713121 8.578125 9.57421875 C7.42694314 8.42588635 6.26987213 7.28344889 5.109375 6.14453125 C4.47515625 5.51933594 3.8409375 4.89414062 3.1875 4.25 C2.58292969 3.65703125 1.97835937 3.0640625 1.35546875 2.453125 C0 1 0 1 0 0 Z " fill="#F0062A" transform="translate(217,435)"/>
<path d="M0 0 C0.66 0.33 1.32 0.66 2 1 C1.38511719 1.65355469 1.38511719 1.65355469 0.7578125 2.3203125 C-2.61090002 6.04362634 -4.78240479 9.00785965 -6 14 C-6.33 14 -6.66 14 -7 14 C-6.73672346 7.54972485 -4.49335977 4.52084209 0 0 Z " fill="#F10935" transform="translate(335,505)"/>
<path d="M0 0 C0.33 0.66 0.66 1.32 1 2 C-1.12081604 6.32018082 -2.79664822 9.44796499 -7 12 C-7.66 11.67 -8.32 11.34 -9 11 C-8.51789062 10.45730469 -8.03578125 9.91460938 -7.5390625 9.35546875 C-6.90742187 8.64003906 -6.27578125 7.92460938 -5.625 7.1875 C-4.68527344 6.12595703 -4.68527344 6.12595703 -3.7265625 5.04296875 C-1.859401 2.91196181 -1.859401 2.91196181 0 0 Z " fill="#EE0A36" transform="translate(578,519)"/>
<path d="M0 0 C0.33 2.64 0.66 5.28 1 8 C0.01 8.495 0.01 8.495 -1 9 C-1.33 7.68 -1.66 6.36 -2 5 C-3.32 5 -4.64 5 -6 5 C-6 4.34 -6 3.68 -6 3 C-5.01 3 -4.02 3 -3 3 C-3 2.34 -3 1.68 -3 1 C-1 0 -1 0 0 0 Z " fill="#F40D45" transform="translate(383,540)"/>
<path d="M0 0 C2.475 0.495 2.475 0.495 5 1 C6.125 3.8125 6.125 3.8125 7 7 C6.01 8.485 6.01 8.485 5 10 C4.731875 8.865625 4.46375 7.73125 4.1875 6.5625 C3.795625 5.386875 3.40375 4.21125 3 3 C2.01 2.67 1.02 2.34 0 2 C0 1.34 0 0.68 0 0 Z " fill="#F30D43" transform="translate(224,497)"/>
<path d="M0 0 C1.67542976 0.28604898 3.34385343 0.61781233 5 1 C5 3.64 5 6.28 5 9 C4.34 9 3.68 9 3 9 C3 6.69 3 4.38 3 2 C1.68 1.67 0.36 1.34 -1 1 C-0.67 0.67 -0.34 0.34 0 0 Z " fill="#EB113B" transform="translate(809,464)"/>
<path d="M0 0 C-0.33 0.99 -0.66 1.98 -1 3 C-1.66 3 -2.32 3 -3 3 C-3 3.66 -3 4.32 -3 5 C-3.99 5.66 -4.98 6.32 -6 7 C-6.99 6.67 -7.98 6.34 -9 6 C-7.8803014 4.99406757 -6.7540588 3.9954151 -5.625 3 C-4.68527344 2.1646875 -4.68527344 2.1646875 -3.7265625 1.3125 C-2 0 -2 0 0 0 Z " fill="#EF133D" transform="translate(132,431)"/>
<path d="M0 0 C0.33 0.99 0.66 1.98 1 3 C-4.14285714 7.42857143 -4.14285714 7.42857143 -8 8 C-5.33333333 5.33333333 -2.66666667 2.66666667 0 0 Z " fill="#F20B3E" transform="translate(378,527)"/>
<path d="M0 0 C3 1 3 1 3 1 Z " fill="#ED386E" transform="translate(797,551)"/>
<path d="M0 0 C2 1 2 1 2 1 Z " fill="#E93C74" transform="translate(734,551)"/>
<path d="" fill="#F0386F" transform="translate(0,0)"/>
<path d="" fill="#F62A66" transform="translate(0,0)"/>
<path d="M0 0 C2 1 2 1 2 1 Z " fill="#EE4274" transform="translate(836,444)"/>
<path d="" fill="#8D8F8E" transform="translate(0,0)"/>
<path d="" fill="#E73D70" transform="translate(0,0)"/>
<path d="" fill="#F6336E" transform="translate(0,0)"/>
<path d="" fill="#EE3B72" transform="translate(0,0)"/>
<path d="" fill="#F3296A" transform="translate(0,0)"/>
<path d="" fill="#F52E6C" transform="translate(0,0)"/>
<path d="" fill="#FA2869" transform="translate(0,0)"/>
<path d="" fill="#F9246A" transform="translate(0,0)"/>
<path d="" fill="#F62C69" transform="translate(0,0)"/>
<path d="" fill="#F0346D" transform="translate(0,0)"/>
<path d="" fill="#F3356E" transform="translate(0,0)"/>
<path d="" fill="#F92666" transform="translate(0,0)"/>
<path d="" fill="#EE336A" transform="translate(0,0)"/>
<path d="" fill="#F32F6C" transform="translate(0,0)"/>
<path d="" fill="#EF2F6B" transform="translate(0,0)"/>
<path d="" fill="#F22B6C" transform="translate(0,0)"/>
<path d="" fill="#F62C69" transform="translate(0,0)"/>
<path d="" fill="#F72C6A" transform="translate(0,0)"/>
<path d="" fill="#F72567" transform="translate(0,0)"/>
<path d="" fill="#F4276A" transform="translate(0,0)"/>
<path d="" fill="#F42468" transform="translate(0,0)"/>
<path d="" fill="#F42C68" transform="translate(0,0)"/>
<path d="" fill="#F92866" transform="translate(0,0)"/>
<path d="" fill="#F32867" transform="translate(0,0)"/>
<path d="" fill="#F32C6B" transform="translate(0,0)"/>
<path d="" fill="#F2306D" transform="translate(0,0)"/>
<path d="" fill="#F92367" transform="translate(0,0)"/>
<path d="" fill="#F92567" transform="translate(0,0)"/>
<path d="" fill="#FC2066" transform="translate(0,0)"/>
<path d="" fill="#FD1E64" transform="translate(0,0)"/>
<path d="" fill="#FA2765" transform="translate(0,0)"/>
<path d="" fill="#F72667" transform="translate(0,0)"/>
<path d="" fill="#FB2164" transform="translate(0,0)"/>
<path d="" fill="#FC2264" transform="translate(0,0)"/>
<path d="" fill="#F92869" transform="translate(0,0)"/>
<path d="" fill="#F82363" transform="translate(0,0)"/>
<path d="" fill="#FC2467" transform="translate(0,0)"/>
<path d="" fill="#F91F64" transform="translate(0,0)"/>
<path d="" fill="#F82166" transform="translate(0,0)"/>
<path d="" fill="#F2366E" transform="translate(0,0)"/>
<path d="" fill="#F62B67" transform="translate(0,0)"/>
<path d="" fill="#F62E6D" transform="translate(0,0)"/>
<path d="" fill="#F3366E" transform="translate(0,0)"/>
<path d="" fill="#F4336F" transform="translate(0,0)"/>
<path d="" fill="#F2346D" transform="translate(0,0)"/>
<path d="" fill="#EF336E" transform="translate(0,0)"/>
<path d="" fill="#F23E73" transform="translate(0,0)"/>
<path d="" fill="#EE4678" transform="translate(0,0)"/>
<path d="" fill="#EE4475" transform="translate(0,0)"/>
<path d="" fill="#EF4275" transform="translate(0,0)"/>
<path d="" fill="#EC3C72" transform="translate(0,0)"/>
<path d="" fill="#F04778" transform="translate(0,0)"/>
</svg>
