<?xml version="1.0" encoding="UTF-8"?>
<svg version="1.1" xmlns="http://www.w3.org/2000/svg" width="1024" height="1024">
<path d="M0 0 C0.33 0.66 0.66 1.32 1 2 C52.15 2 103.3 2 156 2 C156 29.39 156 56.78 156 85 C121.6875 85.4375 121.6875 85.4375 110.85424805 85.56811523 C107.64895513 85.61136968 107.64895513 85.61136968 104.44367981 85.65589905 C103.01633428 85.67511667 101.58896247 85.69243966 100.16157532 85.70826721 C97.9991515 85.73261336 95.83688735 85.76297535 93.67456055 85.79467773 C91.84588692 85.81799416 91.84588692 85.81799416 89.98027039 85.84178162 C86.94558057 85.87064557 86.94558057 85.87064557 84 87 C90.45197966 94.18934877 97.05721364 101.16968208 103.96337891 107.92626953 C106.91080118 110.8290729 109.72121563 113.786908 112.421875 116.921875 C116.08154016 121.15927496 120.00461041 125.08115044 124 129 C130.9801846 135.84646459 137.4074929 143.02590435 143.640625 150.5546875 C145.13655398 152.25429843 145.13655398 152.25429843 148 154 C147.67 154.66 147.34 155.32 147 156 C126.54 156.33 106.08 156.66 85 157 C85 180.76 85 204.52 85 229 C82 229 82 229 79.984375 227.09375 C79.24703125 226.2378125 78.5096875 225.381875 77.75 224.5 C76.95722656 223.58863281 76.16445312 222.67726563 75.34765625 221.73828125 C74.57292969 220.83464844 73.79820312 219.93101562 73 219 C71.73005299 217.56171693 70.45931625 216.12413045 69.1875 214.6875 C67.35952838 212.59478766 65.59943256 210.4934 63.875 208.3125 C61.74370079 205.68389764 59.39521368 203.3918017 57 201 C55.0606627 198.97899587 53.15215619 196.93096936 51.25 194.875 C50.75628906 194.35035156 50.26257813 193.82570313 49.75390625 193.28515625 C47.51691568 190.86430345 46.05514408 189.16543223 45 186 C44.34 186 43.68 186 43 186 C41.66015625 184.671875 41.66015625 184.671875 40.0625 182.75 C36.95431646 179.09025988 33.75751424 175.52670736 30.5 172 C26.85764542 168.04474103 23.26498966 164.05436606 19.7421875 159.9921875 C17.68499601 157.63979365 15.59403085 155.31965034 13.5 153 C12.37078125 151.73542969 12.37078125 151.73542969 11.21875 150.4453125 C9.80999002 148.89270027 8.37491845 147.36325648 6.90625 145.8671875 C6.2771875 145.20976563 5.648125 144.55234375 5 143.875 C4.1646875 143.03582031 4.1646875 143.03582031 3.3125 142.1796875 C-0.23981703 136.28030386 0.85374559 127.43102585 0.8671875 120.75390625 C0.86623077 119.70218735 0.86527405 118.65046844 0.86428833 117.56687927 C0.86361123 115.35912007 0.86543257 113.15135883 0.86962891 110.94360352 C0.87502153 107.54894624 0.86964883 104.15441902 0.86328125 100.75976562 C0.86394138 98.61197887 0.86522118 96.4641922 0.8671875 94.31640625 C0.86516327 93.29672256 0.86313904 92.27703888 0.86105347 91.22645569 C0.86420563 90.29135666 0.86735779 89.35625763 0.87060547 88.39282227 C0.87140106 87.56645767 0.87219666 86.74009308 0.87301636 85.88868713 C1 84 1 84 2 83 C4.23929886 82.90563471 6.4816175 82.88257673 8.72290039 82.88647461 C9.4253035 82.88632858 10.1277066 82.88618256 10.85139465 82.8860321 C13.18351278 82.88673128 15.515552 82.89452383 17.84765625 82.90234375 C19.46048438 82.90420792 21.07331307 82.90563182 22.68614197 82.90663147 C26.93915357 82.91045677 31.19213124 82.92028715 35.44512939 82.93133545 C39.7817743 82.94154931 44.11842467 82.94612904 48.45507812 82.95117188 C56.97006769 82.96190941 65.48502963 82.97898597 74 83 C74 82.34 74 81.68 74 81 C72.02 80.01 72.02 80.01 70 79 C70 78.34 70 77.68 70 77 C69.34 77 68.68 77 68 77 C66.36502637 75.25839766 64.92214608 73.40190406 63.4375 71.53125 C62.963125 71.0259375 62.48875 70.520625 62 70 C61.34 70 60.68 70 60 70 C58.98848283 68.34029798 57.99061912 66.67225941 57 65 C55.62841078 63.51942791 54.20864122 62.08238942 52.75 60.6875 C49.89306922 57.89957721 47.15163432 55.10058161 44.5625 52.0625 C41.05650315 47.97081459 37.24538109 44.23033117 33.4140625 40.4453125 C30.71248706 37.70876521 28.20921265 34.85020634 25.7109375 31.9296875 C23.25426881 29.15892418 20.60640023 26.597071 17.96875 24 C15.45389077 21.44522237 13.13846383 18.74610323 10.80859375 16.0234375 C8.18465103 13.08779532 5.35381535 10.37877667 2.50390625 7.6640625 C1 6 1 6 1 4 C0.34 4 -0.32 4 -1 4 C-0.67 2.68 -0.34 1.36 0 0 Z " fill="#161617" transform="translate(108,395)"/>
<path d="M0 0 C0.33 0.66 0.66 1.32 1 2 C1.66 2.33 2.32 2.66 3 3 C3 5.64 3 8.28 3 11 C3.46148438 10.61328125 3.92296875 10.2265625 4.3984375 9.828125 C13.56987419 2.50547594 23.04010289 -0.58979715 34.7890625 0.18359375 C43.18102176 1.33010086 50.6017701 4.82780051 56.125 11.375 C56.74375 12.24125 57.3625 13.1075 58 14 C61.12878422 13.21249724 61.12878422 13.21249724 63.1875 10.75 C70.50536878 3.59475052 78.99672562 0.20892823 89.2734375 -0.09765625 C98.47644238 0.35047107 108.26716817 2.26716817 115 9 C115.845625 9.825 116.69125 10.65 117.5625 11.5 C128.68399703 25.84918702 125.15369703 49.90980731 124.96386719 66.92651367 C124.95081543 68.42275269 124.95081543 68.42275269 124.9375 69.94921875 C124.92009766 71.26925903 124.92009766 71.26925903 124.90234375 72.6159668 C124.99604645 74.90348394 125.4404005 76.79208494 126 79 C125.91382359 81.76876481 125.77449327 84.49165074 125.5625 87.25 C125.51029297 87.99507812 125.45808594 88.74015625 125.40429688 89.5078125 C125.2751783 91.33894861 125.13834886 93.16953813 125 95 C120.68903724 96.00514676 117.37164968 95.77146759 113 95 C112.67 95.66 112.34 96.32 112 97 C111.43539062 96.83371094 110.87078125 96.66742187 110.2890625 96.49609375 C107.15841979 95.81760975 104.20843685 96.02788883 101.0234375 96.16015625 C99 96 99 96 97 94 C97.495 92.515 97.495 92.515 98 91 C98.09687965 89.41693585 98.13813789 87.8301504 98.14526367 86.24414062 C98.15164352 85.27883423 98.15802338 84.31352783 98.16459656 83.31896973 C98.16570938 82.27527222 98.1668222 81.23157471 98.16796875 80.15625 C98.17129715 79.07678101 98.17462555 77.99731201 98.17805481 76.88513184 C98.18312273 74.59530056 98.18546318 72.30546188 98.18530273 70.015625 C98.18747404 66.54153924 98.20558917 63.06777892 98.22460938 59.59375 C98.2275465 57.36458441 98.22952916 55.13541732 98.23046875 52.90625 C98.24124702 51.36499451 98.24124702 51.36499451 98.25224304 49.79260254 C98.38773378 37.47787958 98.38773378 37.47787958 93.75 26.4375 C90.06132131 23.16798934 87.49683137 21.99208611 82.53515625 22.0078125 C77.66582667 22.33672463 74.78861856 22.77649051 71 26 C70.13375 26.70125 69.2675 27.4025 68.375 28.125 C62.74069441 34.94547519 63.66855759 44.69982051 63.5859375 53.12890625 C63.56657135 54.35915024 63.5472052 55.58939423 63.5272522 56.85691833 C63.46781398 60.75870994 63.42121417 64.66053161 63.375 68.5625 C63.33783162 71.21943202 63.2977338 73.87630986 63.2578125 76.53320312 C63.16214195 83.02202875 63.07699119 89.51092729 63 96 C62.21625 95.95875 61.4325 95.9175 60.625 95.875 C57.83883881 95.71271266 57.83883881 95.71271266 56 98 C56 97.34 56 96.68 56 96 C54.906875 96.185625 53.81375 96.37125 52.6875 96.5625 C49.09706049 97.02747493 45.80664585 96.89189587 42.20703125 96.52734375 C41.22839111 96.4305835 40.24975098 96.33382324 39.24145508 96.23413086 C38.5017749 96.15686768 37.76209473 96.07960449 37 96 C36.99413376 95.26830093 36.98826752 94.53660187 36.98222351 93.7827301 C36.92408384 86.85403326 36.85188691 79.92560661 36.76428509 72.99722385 C36.7197438 69.4360796 36.68045322 65.87504546 36.65356445 62.3137207 C36.62234345 58.21016331 36.56756222 54.10720301 36.51171875 50.00390625 C36.50532883 48.73793106 36.4989389 47.47195587 36.49235535 46.1676178 C36.34131329 34.35038646 36.34131329 34.35038646 30.5625 24.5 C26.0305399 21.84714531 22.25999963 21.5616667 17 22 C13.15009252 23.12978593 10.06575988 24.56061166 7.640625 27.8359375 C4.59978443 33.58709249 3.89699387 39.36124397 3.79467773 45.82177734 C3.77473251 46.94248627 3.75478729 48.06319519 3.73423767 49.21786499 C3.71752518 50.41182892 3.70081268 51.60579285 3.68359375 52.8359375 C3.66281265 54.07042633 3.64203156 55.30491516 3.62062073 56.57681274 C3.55538164 60.50948671 3.49635948 64.44222589 3.4375 68.375 C3.39479388 71.04558857 3.35067536 73.71615149 3.30664062 76.38671875 C3.19972653 82.92441079 3.09791299 89.46216729 3 96 C-1.29165262 96.02891949 -5.58328036 96.04677118 -9.875 96.0625 C-11.09832031 96.07087891 -12.32164062 96.07925781 -13.58203125 96.08789062 C-14.74863281 96.09111328 -15.91523437 96.09433594 -17.1171875 96.09765625 C-18.73536377 96.10551147 -18.73536377 96.10551147 -20.38623047 96.11352539 C-23 96 -23 96 -25 95 C-25 93.68 -25 92.36 -25 91 C-24.34 91 -23.68 91 -23 91 C-23 61.63 -23 32.26 -23 2 C-20.16851745 1.05617248 -18.5093211 0.89367664 -15.5859375 0.9375 C-14.74289062 0.94523437 -13.89984375 0.95296875 -13.03125 0.9609375 C-11.71640625 0.98027344 -11.71640625 0.98027344 -10.375 1 C-8.63287303 1.02539544 -6.89067579 1.04646713 -5.1484375 1.0625 C-4.37677246 1.07410156 -3.60510742 1.08570313 -2.81005859 1.09765625 C-0.97826772 1.20092955 -0.97826772 1.20092955 0 0 Z M2 12 C3 14 3 14 3 14 Z " fill="#181818" transform="translate(625,469)"/>
<path d="M0 0 C0.99 0.99 0.99 0.99 2 2 C2 -1.63 2 -5.26 2 -9 C10.50464931 -10.70092986 19.32692545 -10 28 -10 C28 21.02 28 52.04 28 84 C25.00468461 84.99843846 23.82744268 85.00732761 20.8125 84.5625 C18.9253125 84.2840625 18.9253125 84.2840625 17 84 C16.67 84.66 16.34 85.32 16 86 C14.741875 85.835 13.48375 85.67 12.1875 85.5 C9.73543415 85.17841759 7.48349306 85 5 85 C3.515 84.505 3.515 84.505 2 84 C2 81.36 2 78.72 2 76 C1.29037109 76.58007812 1.29037109 76.58007812 0.56640625 77.171875 C-10.22419862 85.66973927 -20.34081971 87.97869516 -34 87 C-45.86955837 84.8702621 -55.06319924 79.21150467 -62.4375 69.6875 C-70.94101092 57.14133635 -72.61142187 42.49845098 -70.5390625 27.7109375 C-68.4450081 18.37391848 -64.43581874 9.16391136 -58 2 C-57.34 2 -56.68 2 -56 2 C-56 1.34 -56 0.68 -56 0 C-39.29942782 -14.43259324 -16.44888169 -14.11056028 0 0 Z M-37.375 17.125 C-44.18321586 26.31222311 -45.1121545 35.91215661 -44 47 C-42.30953715 54.11440783 -39.34872133 58.9285255 -33.32421875 63.18359375 C-27.51138292 66.66166736 -21.61683193 66.97080932 -15 66 C-8.86748541 64.07774161 -4.42463334 61.27957551 -0.9375 55.84375 C3.31829659 47.4740167 4.3262312 37.12341591 1.7890625 28.0234375 C-0.92337818 21.06777278 -5.19177287 15.11051386 -12.20703125 12.03125 C-21.30129373 8.77360374 -30.46439678 9.68686981 -37.375 17.125 Z " fill="#171718" transform="translate(561,480)"/>
<path d="M0 0 C25.74 0 51.48 0 78 0 C78 5.94 78 11.88 78 18 C78.66 18 79.32 18 80 18 C79.34 19.65 78.68 21.3 78 23 C61.5 23.33 45 23.66 28 24 C28 35.88 28 47.76 28 60 C44.17 60 60.34 60 77 60 C77 67.59 77 75.18 77 83 C66.875 84.125 66.875 84.125 63.30639648 84.20532227 C62.49537476 84.22550415 61.68435303 84.24568604 60.84875488 84.26647949 C60.03112671 84.28295532 59.21349854 84.29943115 58.37109375 84.31640625 C57.59382935 84.33505737 56.81656494 84.3537085 56.01574707 84.3729248 C53.15642929 84.44040174 50.29695407 84.50106933 47.4375 84.5625 C37.8159375 84.7790625 37.8159375 84.7790625 28 85 C27.67 101.17 27.34 117.34 27 134 C23.37 134 19.74 134 16 134 C14.68 134.33 13.36 134.66 12 135 C9.640625 134.87890625 9.640625 134.87890625 7.25 134.5625 C6.45078125 134.46066406 5.6515625 134.35882812 4.828125 134.25390625 C4.22484375 134.17011719 3.6215625 134.08632813 3 134 C2.505 134.99 2.505 134.99 2 136 C2 135.34 2 134.68 2 134 C1.01 133.67 0.02 133.34 -1 133 C-1.02343989 117.57846639 -1.04103337 102.15693412 -1.05181217 86.73538685 C-1.05695168 79.57366653 -1.06394931 72.41195732 -1.07543945 65.25024414 C-1.08545835 59.00253103 -1.09187045 52.75482598 -1.09408849 46.50710505 C-1.09538345 43.20405909 -1.09892962 39.90104133 -1.10573006 36.59800148 C-1.11304546 32.89580575 -1.11398654 29.19365693 -1.11352539 25.49145508 C-1.11712067 24.41610504 -1.12071594 23.340755 -1.12442017 22.2328186 C-1.11437992 14.72768187 -0.57969882 7.53608466 0 0 Z " fill="#181818" transform="translate(341,431)"/>
<path d="M0 0 C10.70872623 11.32988205 12.60891244 24.8987249 14.3125 39.75 C13.6525 39.75 12.9925 39.75 12.3125 39.75 C12.3125 40.41 12.3125 41.07 12.3125 41.75 C12.9725 42.08 13.6325 42.41 14.3125 42.75 C11.50034488 44.15607756 9.1720578 43.86950486 6.02685547 43.86352539 C5.38282776 43.86367142 4.73880005 43.86381744 4.07525635 43.8639679 C1.94336598 43.8632704 -0.18843737 43.85548566 -2.3203125 43.84765625 C-3.79718986 43.84579149 -5.27406784 43.84436786 -6.75094604 43.84336853 C-10.64062199 43.83954792 -14.53026067 43.82972152 -18.41992188 43.81866455 C-22.38801571 43.80844064 -26.35611555 43.80386881 -30.32421875 43.79882812 C-38.11199616 43.78809885 -45.89974286 43.77102789 -53.6875 43.75 C-53.07132542 45.68818674 -52.44745372 47.62392767 -51.8203125 49.55859375 C-51.30041748 51.17592407 -51.30041748 51.17592407 -50.77001953 52.82592773 C-49.36299214 56.62655178 -48.06272175 58.47539404 -44.6875 60.75 C-37.48671814 63.94613651 -30.8887318 64.67772927 -23.453125 61.921875 C-19.2934378 60.05807122 -19.2934378 60.05807122 -16.3984375 56.66015625 C-14.6875 54.75 -14.6875 54.75 -11.5 54.140625 C-10.241875 54.09421875 -8.98375 54.0478125 -7.6875 54 C-7.02484131 53.97107666 -6.36218262 53.94215332 -5.67944336 53.91235352 C-0.0185975 53.68804684 5.64853125 53.64402137 11.3125 53.75 C8.67537285 63.77108316 2.72279164 71.82186665 -5.6875 77.75 C-17.90821722 84.68036344 -31.47315422 86.71687621 -45.2578125 84.0625 C-57.93373262 80.46649429 -67.26764775 74.26288315 -74.125 62.9375 C-75.6875 59.75 -75.6875 59.75 -75.6875 56.75 C-76.3475 56.42 -77.0075 56.09 -77.6875 55.75 C-78.28515625 53.53515625 -78.28515625 53.53515625 -78.75 50.8125 C-79.35555467 47.16227791 -79.35555467 47.16227791 -80.6875 43.75 C-80.76906513 27.4262418 -76.89637872 12.00911438 -65.6875 -0.25 C-46.59075494 -17.46315109 -18.82818313 -17.50690712 0 0 Z M-46.6875 11.75 C-47.0175 12.74 -47.3475 13.73 -47.6875 14.75 C-48.3475 14.75 -49.0075 14.75 -49.6875 14.75 C-50.35624384 16.39499042 -51.02244074 18.04101648 -51.6875 19.6875 C-52.05875 20.60402344 -52.43 21.52054687 -52.8125 22.46484375 C-53.747098 24.49782158 -53.747098 24.49782158 -53.6875 25.75 C-40.1575 25.75 -26.6275 25.75 -12.6875 25.75 C-15.98578486 15.39921252 -15.98578486 15.39921252 -23.8125 8.875 C-31.35025635 6.13250477 -40.29285061 6.63770008 -46.6875 11.75 Z " fill="#171718" transform="translate(840.6875,482.25)"/>
<path d="M0 0 C1.14943658 2.29887317 1.12898906 3.62090614 1.1328125 6.17578125 C1.13474609 7.41811523 1.13474609 7.41811523 1.13671875 8.68554688 C1.13285156 9.55244141 1.12898438 10.41933594 1.125 11.3125 C1.13080078 12.59543945 1.13080078 12.59543945 1.13671875 13.90429688 C1.13027628 18.06290869 1.05322505 21.94591946 0 26 C-0.68964844 25.89300781 -1.37929688 25.78601563 -2.08984375 25.67578125 C-8.72403798 24.82944371 -13.98482543 24.85901167 -20 28 C-24.75390685 31.82379464 -27.4399073 36.02879397 -28.57421875 42.04614258 C-29.09167367 46.85129305 -29.10532019 51.55871607 -29.0625 56.38671875 C-29.05871338 57.36614944 -29.05492676 58.34558014 -29.05102539 59.35469055 C-29.03886845 62.46567305 -29.02023375 65.5765602 -29 68.6875 C-28.97341669 72.79557039 -28.95342928 76.90359481 -28.9375 81.01171875 C-28.92920166 81.9534343 -28.92090332 82.89514984 -28.91235352 83.86540222 C-28.90739868 85.18245903 -28.90739868 85.18245903 -28.90234375 86.52612305 C-28.89448853 87.68025948 -28.89448853 87.68025948 -28.88647461 88.85771179 C-29.00133678 91.02522573 -29.40232217 92.9181172 -30 95 C-32.7084017 95.02714434 -35.41652721 95.04690846 -38.125 95.0625 C-38.88554687 95.07087891 -39.64609375 95.07925781 -40.4296875 95.08789062 C-44.7389644 95.10646509 -48.75516474 94.86117265 -53 94 C-53.495 94.99 -53.495 94.99 -54 96 C-54.66 95.67 -55.32 95.34 -56 95 C-57.52697888 85.41497346 -57.1453227 75.61811852 -57.1328125 65.9375 C-57.13348701 64.09570299 -57.13445826 62.25390608 -57.13571167 60.41210938 C-57.13717877 56.57274519 -57.13506401 52.73340442 -57.13037109 48.89404297 C-57.12464208 43.96657984 -57.12797896 39.0391708 -57.13394356 34.11170959 C-57.13754848 30.31829415 -57.13641146 26.52489165 -57.13381577 22.73147583 C-57.13314797 20.91334019 -57.1339698 19.09520337 -57.13629532 17.27706909 C-57.13882416 14.7471807 -57.13497944 12.2173817 -57.12939453 9.6875 C-57.13141876 8.9342897 -57.13344299 8.18107941 -57.13552856 7.40504456 C-57.11427123 2.22854246 -57.11427123 2.22854246 -56 0 C-51.85418113 -0.02886751 -47.70838784 -0.04675327 -43.5625 -0.0625 C-41.78649414 -0.07506836 -41.78649414 -0.07506836 -39.97460938 -0.08789062 C-38.84990234 -0.09111328 -37.72519531 -0.09433594 -36.56640625 -0.09765625 C-35.52427979 -0.10289307 -34.48215332 -0.10812988 -33.40844727 -0.11352539 C-31 0 -31 0 -30 1 C-29.76636119 2.84891946 -29.58696365 4.70488031 -29.4375 6.5625 C-29.31181641 8.08037109 -29.31181641 8.08037109 -29.18359375 9.62890625 C-29.12300781 10.41136719 -29.06242187 11.19382812 -29 12 C-28.505 11.113125 -28.01 10.22625 -27.5 9.3125 C-23.74804287 3.7632767 -18.35592724 1.09039435 -11.9375 -0.375 C-7.66169196 -1.07443774 -4.20016175 -1.07238172 0 0 Z " fill="#161617" transform="translate(487,470)"/>
<path d="M0 0 C0 8.58 0 17.16 0 26 C-2.330625 25.9175 -4.66125 25.835 -7.0625 25.75 C-13.1873895 25.67781896 -17.22752563 25.96991053 -22 30 C-28.51108165 37.56693273 -28.28525261 47.06172861 -28.16015625 56.5625 C-28.15495468 57.635 -28.14975311 58.7075 -28.14439392 59.8125 C-28.12670138 63.20847659 -28.09550928 66.60414057 -28.0625 70 C-28.03490329 73.42439158 -28.01023434 76.84874258 -27.99131775 80.27319336 C-27.9790309 82.39774388 -27.96139869 84.52227128 -27.93800354 86.64672852 C-27.93147263 87.59862061 -27.92494171 88.5505127 -27.91821289 89.53125 C-27.90995987 90.37236328 -27.90170685 91.21347656 -27.89320374 92.08007812 C-28 94 -28 94 -29 95 C-30.92667507 95.08748207 -32.85651861 95.10697334 -34.78515625 95.09765625 C-36.53989258 95.09282227 -36.53989258 95.09282227 -38.33007812 95.08789062 C-39.56177734 95.07951172 -40.79347656 95.07113281 -42.0625 95.0625 C-43.91584961 95.05573242 -43.91584961 95.05573242 -45.80664062 95.04882812 C-48.87114117 95.03699608 -51.93554721 95.02051173 -55 95 C-56.15234778 90.43202532 -56.13418044 85.94029815 -56.11352539 81.26245117 C-56.11367142 80.39365326 -56.11381744 79.52485535 -56.1139679 78.62973022 C-56.11327306 75.76745071 -56.10550073 72.90523685 -56.09765625 70.04296875 C-56.09579055 68.05471329 -56.09436736 66.06645738 -56.09336853 64.07820129 C-56.08955534 58.85200729 -56.07973528 53.6258412 -56.06866455 48.3996582 C-56.05842467 43.06396868 -56.05386539 37.72827464 -56.04882812 32.39257812 C-56.03811194 21.92837317 -56.0210499 11.46418891 -56 1 C-51.85451585 0.80416085 -47.7086033 0.61972158 -43.5625 0.4375 C-42.37849609 0.38142578 -41.19449219 0.32535156 -39.97460938 0.26757812 C-38.84990234 0.21923828 -37.72519531 0.17089844 -36.56640625 0.12109375 C-35.00321655 0.05039673 -35.00321655 0.05039673 -33.40844727 -0.02172852 C-31 0 -31 0 -30 1 C-29.76636119 2.84891946 -29.58696365 4.70488031 -29.4375 6.5625 C-29.31181641 8.08037109 -29.31181641 8.08037109 -29.18359375 9.62890625 C-29.12300781 10.41136719 -29.06242188 11.19382812 -29 12 C-28.59910156 11.46890625 -28.19820312 10.9378125 -27.78515625 10.390625 C-22.75244502 4.13682511 -17.97216951 1.57654155 -10.4375 -0.8125 C-8 -1 -8 -1 0 0 Z " fill="#181818" transform="translate(920,470)"/>
<path d="M0 0 C24.42 0 48.84 0 74 0 C74 7.26 74 14.52 74 22 C57.83 22.33 41.66 22.66 25 23 C25 34.88 25 46.76 25 59 C41.17 59 57.34 59 74 59 C74 66.59 74 74.18 74 82 C63.875 83.125 63.875 83.125 60.30639648 83.20532227 C59.49537476 83.22550415 58.68435303 83.24568604 57.84875488 83.26647949 C57.03112671 83.28295532 56.21349854 83.29943115 55.37109375 83.31640625 C54.59382935 83.33505737 53.81656494 83.3537085 53.01574707 83.3729248 C50.15642929 83.44040174 47.29695407 83.50106933 44.4375 83.5625 C34.8159375 83.7790625 34.8159375 83.7790625 25 84 C24.67 100.17 24.34 116.34 24 133 C17.99438125 133 12.3127367 132.96570484 6.375 132.5 C5.16585938 132.4071875 3.95671875 132.314375 2.7109375 132.21875 C1.81632812 132.1465625 0.92171875 132.074375 0 132 C0 131.67 0 131.34 0 131 C7.26 131 14.52 131 22 131 C22 114.83 22 98.66 22 82 C22.66 82 23.32 82 24 82 C24 81.34 24 80.68 24 80 C39.84 80 55.68 80 72 80 C72 74.06 72 68.12 72 62 C70.55641113 62.01571045 69.11282227 62.0314209 67.62548828 62.04760742 C62.28439891 62.10178863 56.94333395 62.13630707 51.60205078 62.16479492 C49.28755615 62.17990853 46.97309026 62.20039996 44.65869141 62.22631836 C41.33749304 62.26258841 38.01667232 62.27970044 34.6953125 62.29296875 C33.13588425 62.31619453 33.13588425 62.31619453 31.54495239 62.33988953 C30.10368484 62.34022942 30.10368484 62.34022942 28.63330078 62.34057617 C27.78502716 62.34723801 26.93675354 62.35389984 26.06277466 62.36076355 C25.0417012 62.18218559 25.0417012 62.18218559 24 62 C21.41004559 58.11506838 21.74774458 54.89432764 21.8046875 50.39453125 C21.8075174 49.55532639 21.81034729 48.71612152 21.81326294 47.85148621 C21.82445615 45.17167897 21.84955899 42.49220619 21.875 39.8125 C21.88503092 37.99544754 21.89415657 36.17838983 21.90234375 34.36132812 C21.92439266 29.90742325 21.95891649 25.45376833 22 21 C24.41774581 19.79112709 25.93331064 19.87940657 28.63330078 19.88647461 C29.59414581 19.88655014 30.55499084 19.88662567 31.54495239 19.88670349 C32.58457123 19.89186478 33.62419006 19.89702606 34.6953125 19.90234375 C35.75789276 19.9037587 36.82047302 19.90517365 37.91525269 19.90663147 C41.31853009 19.91224166 44.72174238 19.92479591 48.125 19.9375 C50.42838447 19.94251369 52.73176997 19.94707682 55.03515625 19.95117188 C60.69012936 19.96221441 66.34505363 19.97948591 72 20 C72 14.06 72 8.12 72 2 C48.24 2 24.48 2 0 2 C0 1.34 0 0.68 0 0 Z " fill="#0F0F10" transform="translate(344,432)"/>
<path d="M0 0 C49.83 0 99.66 0 151 0 C151 27.06 151 54.12 151 82 C139.90375 82.185625 128.8075 82.37125 117.375 82.5625 C113.8795459 82.62381104 110.3840918 82.68512207 106.78271484 82.74829102 C102.4934082 82.81628418 102.4934082 82.81628418 100.48135376 82.8467865 C99.08491735 82.86898647 97.68851404 82.89333478 96.29214478 82.91941833 C94.1692578 82.95864659 92.04636357 82.99092029 89.92333984 83.02172852 C88.72865082 83.04171402 87.53396179 83.06169952 86.30307007 83.08229065 C83.10401275 83.00259131 80.13738955 82.60937149 77 82 C77.33 81.34 77.66 80.68 78 80 C101.43 80 124.86 80 149 80 C149 53.93 149 27.86 149 1 C99.83 1 50.66 1 0 1 C0 0.67 0 0.34 0 0 Z " fill="#010000" transform="translate(113,398)"/>
<path d="M0 0 C1.51223648 0.00666183 1.51223648 0.00666183 3.05502319 0.01345825 C4.19605499 0.01360931 5.33708679 0.01376038 6.51269531 0.01391602 C8.36741959 0.02939987 8.36741959 0.02939987 10.25961304 0.04519653 C12.15313004 0.04944138 12.15313004 0.04944138 14.0848999 0.05377197 C17.44201998 0.06308772 20.79886965 0.08106068 24.15591431 0.10317993 C27.58108176 0.12363353 31.00627713 0.13277264 34.43148804 0.14285278 C41.15291724 0.16494445 47.87421827 0.19844527 54.59555054 0.24050903 C54.26555054 0.90050903 53.93555054 1.56050903 53.59555054 2.24050903 C35.11555054 2.24050903 16.63555054 2.24050903 -2.40444946 2.24050903 C-1.90944946 3.23050903 -1.90944946 3.23050903 -1.40444946 4.24050903 C-1.31236489 6.51777077 -1.28695348 8.7978155 -1.29092407 11.07693481 C-1.29077805 11.77948395 -1.29063202 12.48203308 -1.29048157 13.20587158 C-1.29117932 15.53255276 -1.29896528 17.8591543 -1.30679321 20.18582153 C-1.30865788 21.79722042 -1.31008155 23.40861987 -1.31108093 25.02001953 C-1.31490226 29.26479655 -1.32472928 33.50953945 -1.33578491 37.75430298 C-1.34600728 42.08433572 -1.35058033 46.41437396 -1.35562134 50.74441528 C-1.36635188 59.24312887 -1.38342371 67.74181471 -1.40444946 76.24050903 C-4.40444946 76.24050903 -4.40444946 76.24050903 -6.42007446 74.33425903 C-7.15741821 73.47832153 -7.89476196 72.62238403 -8.65444946 71.74050903 C-9.4472229 70.82914185 -10.23999634 69.91777466 -11.05679321 68.97879028 C-11.83151978 68.07515747 -12.60624634 67.17152466 -13.40444946 66.24050903 C-14.67439648 64.80222596 -15.94513322 63.36463948 -17.21694946 61.92800903 C-19.04492109 59.83529669 -20.8050169 57.73390903 -22.52944946 55.55300903 C-24.66094487 52.9241647 -27.00734072 50.63077867 -29.40444946 48.24050903 C-31.32351521 46.26172271 -33.21179783 44.25623623 -35.09194946 42.24050903 C-35.57728149 41.73261841 -36.06261353 41.22472778 -36.56265259 40.70144653 C-39.32983068 37.72434459 -41.18182738 35.13002022 -42.40444946 31.24050903 C-37.24887486 35.51473219 -32.58219361 40.02094684 -28.02944946 44.92800903 C-27.40167603 45.59123169 -26.77390259 46.25445435 -26.12710571 46.93777466 C-25.53026978 47.57779419 -24.93343384 48.21781372 -24.31851196 48.87722778 C-23.78177856 49.45174683 -23.24504517 50.02626587 -22.69204712 50.61819458 C-21.40444946 52.24050903 -21.40444946 52.24050903 -20.40444946 55.24050903 C-19.74444946 55.24050903 -19.08444946 55.24050903 -18.40444946 55.24050903 C-16.88947487 56.96313458 -15.44125647 58.74486418 -14.02944946 60.55300903 C-11.3487569 63.98232309 -8.93277462 66.71093277 -5.40444946 69.24050903 C-5.39636261 68.40556915 -5.38827576 67.57062927 -5.37994385 66.71038818 C-5.30209225 58.85245574 -5.21483053 50.99469685 -5.11692238 43.13698769 C-5.0669174 39.09698565 -5.02058798 35.0570103 -4.98257446 31.01687622 C-4.94577438 27.11993366 -4.89942933 23.22321212 -4.84638596 19.32645798 C-4.82781381 17.83770998 -4.81271632 16.34891454 -4.8011055 14.86009598 C-4.78429078 12.77914917 -4.75526889 10.69871171 -4.72329712 8.61795044 C-4.70997345 7.43214386 -4.69664978 6.24633728 -4.68292236 5.02459717 C-4.32581313 1.45432671 -3.63885994 0.36398298 0 0 Z " fill="#101010" transform="translate(194.40444946289063,547.7594909667969)"/>
<path d="M0 0 C24.42 0 48.84 0 74 0 C74 7.26 74 14.52 74 22 C57.83 22.33 41.66 22.66 25 23 C24.67 34.22 24.34 45.44 24 57 C23.34 56.67 22.68 56.34 22 56 C22 44.45 22 32.9 22 21 C24.41774581 19.79112709 25.93331064 19.87940657 28.63330078 19.88647461 C29.59414581 19.88655014 30.55499084 19.88662567 31.54495239 19.88670349 C32.58457123 19.89186478 33.62419006 19.89702606 34.6953125 19.90234375 C35.75789276 19.9037587 36.82047302 19.90517365 37.91525269 19.90663147 C41.31853009 19.91224166 44.72174238 19.92479591 48.125 19.9375 C50.42838447 19.94251369 52.73176997 19.94707682 55.03515625 19.95117188 C60.69012936 19.96221441 66.34505363 19.97948591 72 20 C72 14.06 72 8.12 72 2 C48.24 2 24.48 2 0 2 C0 1.34 0 0.68 0 0 Z " fill="#020102" transform="translate(344,432)"/>
<path d="M0 0 C1 1 1 1 1.09765625 3.94140625 C1.08605469 5.13636719 1.07445312 6.33132813 1.0625 7.5625 C1.05347656 8.76003906 1.04445313 9.95757812 1.03515625 11.19140625 C1.02355469 12.11824219 1.01195312 13.04507812 1 14 C0.67 14 0.34 14 0 14 C0 10.04 0 6.08 0 2 C-6.93 2 -13.86 2 -21 2 C-21 30.71 -21 59.42 -21 89 C-21.66 89 -22.32 89 -23 89 C-23.94108408 59.32831968 -24.12193776 29.68527864 -24 0 C-21.43643112 -0.17874425 -18.87268564 -0.35250734 -16.30859375 -0.5234375 C-15.22596252 -0.5996936 -15.22596252 -0.5996936 -14.12145996 -0.67749023 C-9.21501889 -0.99945356 -4.81045566 -0.98172565 0 0 Z " fill="#0E0E0E" transform="translate(888,471)"/>
<path d="M0 0 C6.39434198 2.80727209 10.84430357 8.60318445 15.3125 13.8125 C20.40676242 19.74208028 26.06524825 25.14916475 31.6484375 30.61328125 C33.1377522 32.14133535 34.4999036 33.74340893 35.875 35.375 C39.24764468 39.26430514 42.84178761 42.8833346 46.5 46.5 C50.56907753 50.52328037 54.47798591 54.58219796 58.171875 58.95703125 C61.50436744 62.68116276 65.14913238 66.11135539 68.7421875 69.58203125 C71 72 71 72 72 75 C69.5625 74.1875 69.5625 74.1875 67 73 C66.67 72.01 66.34 71.02 66 70 C65.34 70 64.68 70 64 70 C62.36502637 68.25839766 60.92214608 66.40190406 59.4375 64.53125 C58.963125 64.0259375 58.48875 63.520625 58 63 C57.34 63 56.68 63 56 63 C54.98848283 61.34029798 53.99061912 59.67225941 53 58 C51.62841078 56.51942791 50.20864122 55.08238942 48.75 53.6875 C45.89306922 50.89957721 43.15163432 48.10058161 40.5625 45.0625 C37.05650315 40.97081459 33.24538109 37.23033117 29.4140625 33.4453125 C26.71248706 30.70876521 24.20921265 27.85020634 21.7109375 24.9296875 C19.2579241 22.16304682 16.6143097 19.60480394 13.98046875 17.01171875 C11.39651797 14.38699557 9.00462172 11.62050448 6.609375 8.82421875 C5.15463749 7.17528084 3.64946794 5.64510131 2.0625 4.125 C0 2 0 2 0 0 Z " fill="#0D0D0D" transform="translate(112,402)"/>
<path d="M0 0 C11.25 0 11.25 0 16.125 0.5 C17.52105469 0.63921875 17.52105469 0.63921875 18.9453125 0.78125 C19.62335937 0.8534375 20.30140625 0.925625 21 1 C21 1.66 21 2.32 21 3 C14.73 3 8.46 3 2 3 C2 33.03 2 63.06 2 94 C1.34 94 0.68 94 0 94 C0 62.98 0 31.96 0 0 Z " fill="#080808" transform="translate(603,470)"/>
<path d="M0 0 C0.33 0 0.66 0 1 0 C1 18.81 1 37.62 1 57 C8.26 57 15.52 57 23 57 C23 39.18 23 21.36 23 3 C23.66 2.67 24.32 2.34 25 2 C25 20.81 25 39.62 25 59 C16.75 58.67 8.5 58.34 0 58 C0 38.86 0 19.72 0 0 Z " fill="#020202" transform="translate(663,506)"/>
<path d="M0 0 C0.33 0 0.66 0 1 0 C1.16781282 7.38714445 1.32777871 14.77442832 1.48217773 22.16186523 C1.53568866 24.67720426 1.59102469 27.19250512 1.64819336 29.70776367 C1.72985135 33.31420661 1.8050364 36.92073396 1.87890625 40.52734375 C1.90594131 41.65961899 1.93297638 42.79189423 1.96083069 43.95848083 C1.98092697 44.99948441 2.00102325 46.04048798 2.02172852 47.11303711 C2.04171402 48.03459091 2.06169952 48.95614471 2.08229065 49.90562439 C2 52 2 52 1 53 C-0.56172745 53.08685603 -2.12729344 53.10702219 -3.69140625 53.09765625 C-4.63564453 53.09443359 -5.57988281 53.09121094 -6.55273438 53.08789062 C-7.54595703 53.07951172 -8.53917969 53.07113281 -9.5625 53.0625 C-10.55958984 53.05798828 -11.55667969 53.05347656 -12.58398438 53.04882812 C-15.05604849 53.03700007 -17.52799518 53.02051849 -20 53 C-20 52.34 -20 51.68 -20 51 C-20.99 50.67 -21.98 50.34 -23 50 C-15.74 50 -8.48 50 -1 50 C-1.01160156 46.55820312 -1.02320313 43.11640625 -1.03515625 39.5703125 C-1.0429485 36.24755953 -1.04902431 32.92480757 -1.05493164 29.60205078 C-1.05996943 27.28759304 -1.06679981 24.9731385 -1.07543945 22.65869141 C-1.08752924 19.3375571 -1.09323375 16.01646475 -1.09765625 12.6953125 C-1.10281754 11.65569366 -1.10797882 10.61607483 -1.11329651 9.54495239 C-1.11337204 8.58410736 -1.11344757 7.62326233 -1.11352539 6.63330078 C-1.115746 5.78502716 -1.11796661 4.93675354 -1.12025452 4.06277466 C-1 2 -1 2 0 0 Z " fill="#0B0B0B" transform="translate(890,512)"/>
<path d="M0 0 C0.33 0.66 0.66 1.32 1 2 C52.15 2 103.3 2 156 2 C156 2.33 156 2.66 156 3 C104.19 3.33 52.38 3.66 -1 4 C-0.67 2.68 -0.34 1.36 0 0 Z " fill="#1D1D1D" transform="translate(108,395)"/>
<path d="M0 0 C0.495 0.99 0.495 0.99 1 2 C1.99 2.495 1.99 2.495 3 3 C0.17738993 4.41130503 -2.22081484 4.16394327 -5.37744141 4.20532227 C-6.03122269 4.21522186 -6.68500397 4.22512146 -7.3585968 4.23532104 C-9.52288167 4.26694711 -11.6871885 4.29169772 -13.8515625 4.31640625 C-15.35086645 4.33697483 -16.85016459 4.35797128 -18.34945679 4.37937927 C-22.29825131 4.43460988 -26.24709826 4.48401476 -30.19598389 4.53222656 C-34.22445346 4.58243439 -38.25284678 4.6381242 -42.28125 4.69335938 C-50.18743556 4.80095303 -58.09368485 4.90239529 -66 5 C-66 3.68 -66 2.36 -66 1 C-44.22 0.67 -22.44 0.34 0 0 Z " fill="#1E1E1E" transform="translate(852,522)"/>
<path d="M0 0 C0 0.66 0 1.32 0 2 C-0.969375 2.268125 -1.93875 2.53625 -2.9375 2.8125 C-4.4534375 3.4003125 -4.4534375 3.4003125 -6 4 C-6.33 4.99 -6.66 5.98 -7 7 C-8.0828125 7.61875 -8.0828125 7.61875 -9.1875 8.25 C-16.01795107 12.50005844 -19.10927863 18.73190055 -22 26 C-22.76183594 27.54880859 -22.76183594 27.54880859 -23.5390625 29.12890625 C-25.52456368 33.74291555 -25.79810422 38.47538315 -26.1875 43.4375 C-26.26935547 44.35982422 -26.35121094 45.28214844 -26.43554688 46.23242188 C-26.63418917 48.48759616 -26.82206853 50.74311342 -27 53 C-27.33 53 -27.66 53 -28 53 C-28.78084003 36.05937532 -27.92979223 22.31208553 -16 9 C-15.34 9 -14.68 9 -14 9 C-14 8.34 -14 7.68 -14 7 C-12.1015625 5.52734375 -12.1015625 5.52734375 -9.625 3.9375 C-8.81289063 3.41027344 -8.00078125 2.88304687 -7.1640625 2.33984375 C-4.36840588 0.60895887 -3.35933655 0 0 0 Z " fill="#121212" transform="translate(519,473)"/>
<path d="M0 0 C6.28424941 2.56024976 10.0358073 7.72664368 12.78791809 13.71421814 C15.64186239 21.0083388 15.28909062 28.16256517 15.07421875 35.87890625 C15.04613081 37.30091234 15.01944639 38.72294677 14.99409485 40.14500427 C14.92416234 43.85905409 14.83536768 47.57241382 14.74243164 51.28594971 C14.65071766 55.0868826 14.57713357 58.88816364 14.50195312 62.68945312 C14.3522232 70.1267557 14.18253413 77.56342247 14 85 C13.67 85 13.34 85 13 85 C12.99191315 84.24102417 12.98382629 83.48204834 12.97549438 82.70007324 C12.8973086 75.52094033 12.80994716 68.34200368 12.71247292 61.16310883 C12.66268794 57.47303471 12.61635759 53.78298677 12.578125 50.09277344 C12.54104573 46.52647417 12.49462706 42.96040394 12.44193649 39.39430237 C12.41459191 37.38269589 12.39673168 35.37096763 12.37905884 33.35925293 C12.24399212 24.92555865 11.79071843 17.5573794 7.5625 10.0625 C7.15128906 9.31097656 6.74007812 8.55945313 6.31640625 7.78515625 C5.03790153 5.69271605 5.03790153 5.69271605 2 5 C0.3125 2.9375 0.3125 2.9375 -1 1 C-0.67 0.67 -0.34 0.34 0 0 Z " fill="#0B0B0B" transform="translate(734,475)"/>
<path d="M0 0 C0.66 0 1.32 0 2 0 C2.75768832 3.34383095 3.10663906 6.36555808 3.02172852 9.7902832 C2.99158409 11.17114861 2.99158409 11.17114861 2.96083069 12.57991028 C2.92027809 14.05049141 2.92027809 14.05049141 2.87890625 15.55078125 C2.85529526 16.56472458 2.83168427 17.57866791 2.80735779 18.62333679 C2.73095062 21.85320845 2.64682756 25.08282638 2.5625 28.3125 C2.50925635 30.50584707 2.45651611 32.69920643 2.40429688 34.89257812 C2.27536661 40.26187481 2.14010538 45.63098392 2 51 C0.41748509 51.00594975 -1.16503638 51.0101687 -2.74755859 51.01367188 C-3.62882416 51.01620972 -4.51008972 51.01874756 -5.4180603 51.0213623 C-8.84178341 50.9930353 -12.21130194 50.76774102 -15.625 50.5 C-16.83414062 50.4071875 -18.04328125 50.314375 -19.2890625 50.21875 C-20.18367188 50.1465625 -21.07828125 50.074375 -22 50 C-22 49.67 -22 49.34 -22 49 C-14.74 49 -7.48 49 0 49 C0 32.83 0 16.66 0 0 Z " fill="#070707" transform="translate(366,514)"/>
<path d="M0 0 C1.73956658 1.73956658 1.37190386 4.1936622 1.5625 6.5625 C1.68818359 8.08037109 1.68818359 8.08037109 1.81640625 9.62890625 C1.87699219 10.41136719 1.93757813 11.19382812 2 12 C2.53625 11.0925 3.0725 10.185 3.625 9.25 C5.88467257 5.87651719 8.36853223 3.89138946 12 2 C14.1875 2.40234375 14.1875 2.40234375 16 3 C15.33613281 3.49628906 14.67226563 3.99257813 13.98828125 4.50390625 C8.63226807 8.62451785 4.73525039 12.39712441 1 18 C0.34 18 -0.32 18 -1 18 C-1 13.05 -1 8.1 -1 3 C-8.26 3 -15.52 3 -23 3 C-23 2.34 -23 1.68 -23 1 C-5.99630996 -0.2398524 -5.99630996 -0.2398524 0 0 Z " fill="#171817" transform="translate(456,470)"/>
<path d="M0 0 C0.33 0 0.66 0 1 0 C0.67 19.8 0.34 39.6 0 60 C-0.99 60.495 -0.99 60.495 -2 61 C-2.05075968 53.27704682 -2.08575878 45.55413676 -2.10986328 37.83105469 C-2.11991339 35.20441073 -2.1335556 32.57777793 -2.15087891 29.95117188 C-2.17517028 26.17314902 -2.18649319 22.39527427 -2.1953125 18.6171875 C-2.20563507 17.44509735 -2.21595764 16.2730072 -2.22659302 15.06539917 C-2.22797609 4.9878911 -2.22797609 4.9878911 0 0 Z " fill="#020203" transform="translate(628,501)"/>
<path d="M0 0 C4.05849062 1.50314467 6.73802583 4.39930642 9 8 C11.04409033 12.99056946 11.29340663 17.31109938 11.265625 22.609375 C11.26753845 23.41739563 11.2694519 24.22541626 11.27142334 25.05792236 C11.27277802 26.75557774 11.26913195 28.45324372 11.26074219 30.15087891 C11.24997616 32.75576764 11.26069017 35.3599755 11.2734375 37.96484375 C11.27211687 39.61718902 11.26955649 41.26953388 11.265625 42.921875 C11.26967346 43.70205994 11.27372192 44.48224487 11.27789307 45.28607178 C11.22995868 50.77004132 11.22995868 50.77004132 9 53 C8.98018066 52.05793701 8.96036133 51.11587402 8.93994141 50.14526367 C8.86112534 46.59832275 8.77441471 43.05174685 8.68261719 39.50512695 C8.64469716 37.97981 8.60978517 36.4544148 8.578125 34.92895508 C8.99169375 17.73625355 8.99169375 17.73625355 1.2421875 3.33984375 C0 2 0 2 0 0 Z " fill="#090809" transform="translate(715,490)"/>
<path d="M0 0 C4.60642601 1.41230886 6.80879127 3.64403062 9.9375 7.25 C14.80986277 12.77729145 19.92559704 17.98710288 25.22827148 23.10253906 C28.69999024 26.50417731 31.45219917 29.85591118 34 34 C31 34 31 34 28.546875 31.875 C27.60619469 30.92489943 26.67436548 29.96598084 25.75 29 C25.25693359 28.49597656 24.76386719 27.99195313 24.25585938 27.47265625 C21.00565994 24.12448226 17.91494856 20.66626546 14.89453125 17.109375 C11.56413515 13.40130512 7.93967202 9.97623505 4.35546875 6.515625 C2.3272458 4.34949635 1.09890866 2.71868733 0 0 Z " fill="#0B0B0B" transform="translate(187,480)"/>
<path d="M0 0 C3.06255961 -0.0270491 6.1248786 -0.04686298 9.1875 -0.0625 C10.05181641 -0.07087891 10.91613281 -0.07925781 11.80664062 -0.08789062 C12.64775391 -0.09111328 13.48886719 -0.09433594 14.35546875 -0.09765625 C15.12528076 -0.10289307 15.89509277 -0.10812988 16.68823242 -0.11352539 C19 0 19 0 24 1 C23.67 7.93 23.34 14.86 23 22 C22.67 22 22.34 22 22 22 C22 15.73 22 9.46 22 3 C15.4 3 8.8 3 2 3 C2 6.96 2 10.92 2 15 C1.34 15 0.68 15 0 15 C-0.19601608 13.25093341 -0.38147403 11.50068154 -0.5625 9.75 C-0.66691406 8.77546875 -0.77132812 7.8009375 -0.87890625 6.796875 C-0.99110811 4.20537391 -0.68488514 2.4628193 0 0 Z " fill="#0D0D0D" transform="translate(564,470)"/>
<path d="M0 0 C4.02550319 1.3418344 4.88285636 3.4227573 7 7 C7 7.66 7 8.32 7 9 C8.0828125 9.433125 8.0828125 9.433125 9.1875 9.875 C10.88161 10.552644 12.56412832 11.26220049 14.21875 12.03125 C17.62750413 13.21856886 20.71306602 13.42316258 24.3125 13.625 C25.56675781 13.69976563 26.82101562 13.77453125 28.11328125 13.8515625 C29.06589844 13.90054688 30.01851562 13.94953125 31 14 C31 14.66 31 15.32 31 16 C23.87301263 18.37566246 16.62932308 17.17779042 10 14 C5.1738035 10.83543401 2.10987756 7.46085957 0 2 C0 1.34 0 0.68 0 0 Z " fill="#0F0E0E" transform="translate(517,532)"/>
<path d="M0 0 C5.92848999 1.30137585 9.35433443 4.32788491 13 9 C17.87082749 17.45059227 18.15294663 25.44933287 18 35 C17.01 35.495 17.01 35.495 16 36 C15.91363281 34.88882813 15.82726562 33.77765625 15.73828125 32.6328125 C14.41610061 17.81510075 14.41610061 17.81510075 5.875 6.0625 C4.92625 5.381875 3.9775 4.70125 3 4 C1.125 2.25 1.125 2.25 0 1 C0 0.67 0 0.34 0 0 Z " fill="#0D0C0D" transform="translate(548,490)"/>
<path d="M0 0 C-1 3 -1 3 -3.6875 4.5625 C-9.23908208 8.04059962 -12.01133139 14.45770928 -14.3125 20.375 C-15.29460858 25.55339071 -15.67203827 30.74398177 -16 36 C-16.66 35.67 -17.32 35.34 -18 35 C-18.77344819 24.08578672 -16.6415693 14.22069356 -9.5859375 5.625 C-6.94622862 2.92027366 -3.95491045 0 0 0 Z " fill="#0B0A0B" transform="translate(532,490)"/>
<path d="M0 0 C0.66 0 1.32 0 2 0 C1.99214478 0.98226563 1.99214478 0.98226563 1.98413086 1.984375 C1.963173 4.98957333 1.9502805 7.99475621 1.9375 11 C1.92912109 12.02996094 1.92074219 13.05992187 1.91210938 14.12109375 C1.89386363 19.85025613 2.13524616 25.33484101 3 31 C2.34 31 1.68 31 1 31 C0.79503906 30.30132813 0.59007812 29.60265625 0.37890625 28.8828125 C0.10949219 27.97273437 -0.15992188 27.06265625 -0.4375 26.125 C-0.70433594 25.22007812 -0.97117187 24.31515625 -1.24609375 23.3828125 C-1.92613826 21.01724619 -1.92613826 21.01724619 -3 19 C-2.96255023 16.72708728 -2.84659149 14.45514738 -2.6875 12.1875 C-2.60886719 10.96417969 -2.53023437 9.74085938 -2.44921875 8.48046875 C-2.03765321 5.2917305 -1.35126745 2.8955731 0 0 Z " fill="#161516" transform="translate(763,507)"/>
<path d="M0 0 C0.33 0.66 0.66 1.32 1 2 C-2.63035114 10.53849034 -7.33065905 19.22564166 -15.9375 23.4375 C-16.618125 23.623125 -17.29875 23.80875 -18 24 C-18.33 23.34 -18.66 22.68 -19 22 C-15.25 19 -15.25 19 -13 19 C-13 18.34 -13 17.68 -13 17 C-12.2575 16.484375 -11.515 15.96875 -10.75 15.4375 C-7.06718807 12.17318942 -5.73223868 8.52898157 -4 4 C-6.475 3.01 -6.475 3.01 -9 2 C-9 1.67 -9 1.34 -9 1 C-4.545 0.505 -4.545 0.505 0 0 Z " fill="#101010" transform="translate(851,536)"/>
<path d="M0 0 C21.12 0 42.24 0 64 0 C64 0.33 64 0.66 64 1 C43.21 1 22.42 1 1 1 C1.33 3.31 1.66 5.62 2 8 C0.4375 6.25 0.4375 6.25 -1 4 C-0.67 2.68 -0.34 1.36 0 0 Z " fill="#010201" transform="translate(785,524)"/>
<path d="M0 0 C0.66 0 1.32 0 2 0 C3.05199344 1.485343 4.0409258 3.01553177 5 4.5625 C10.23236879 12.25844242 17.35964697 16.80682605 26 20 C26 20.33 26 20.66 26 21 C17.90882174 21 12.93986124 17.26127175 7 12 C0 4.47923875 0 4.47923875 0 0 Z " fill="#0E0E0E" transform="translate(496,543)"/>
<path d="M0 0 C5.16465418 4.21604423 10.01287003 8.61919239 14 14 C14 14.66 14 15.32 14 16 C14.66 16 15.32 16 16 16 C17.5078125 17.75 17.5078125 17.75 19.125 20 C19.66382813 20.7425 20.20265625 21.485 20.7578125 22.25 C21.16773438 22.8275 21.57765625 23.405 22 24 C19 24 19 24 17.45361328 22.71826172 C16.64512939 21.83291748 16.64512939 21.83291748 15.8203125 20.9296875 C15.22089844 20.28 14.62148437 19.6303125 14.00390625 18.9609375 C13.38386719 18.27257812 12.76382813 17.58421875 12.125 16.875 C11.51269531 16.20984375 10.90039062 15.5446875 10.26953125 14.859375 C8.49508512 12.92154303 6.74390534 10.9653214 5 9 C4.2280127 8.14583496 4.2280127 8.14583496 3.44042969 7.27441406 C0 3.35392442 0 3.35392442 0 0 Z " fill="#0D0C0C" transform="translate(112,534)"/>
<path d="M0 0 C-0.33 0.99 -0.66 1.98 -1 3 C-1.639375 2.690625 -2.27875 2.38125 -2.9375 2.0625 C-10.64922293 -0.61299571 -18.93607932 -0.12280082 -27 0 C-26.67 -0.99 -26.34 -1.98 -26 -3 C-17.43643665 -4.45145142 -7.73925899 -4.44117283 0 0 Z " fill="#111212" transform="translate(672,473)"/>
<path d="M0 0 C0 7.26 0 14.52 0 22 C-0.33 22 -0.66 22 -1 22 C-1 15.4 -1 8.8 -1 2 C-3.0625 2.309375 -5.125 2.61875 -7.25 2.9375 C-8.99023438 3.19853516 -8.99023438 3.19853516 -10.765625 3.46484375 C-13.23106961 3.8727736 -15.59424562 4.33901303 -18 5 C-17.67 4.01 -17.34 3.02 -17 2 C-14.9609375 1.015625 -14.9609375 1.015625 -12.375 0.25 C-11.53710938 -0.01296875 -10.69921875 -0.2759375 -9.8359375 -0.546875 C-7 -1 -7 -1 0 0 Z " fill="#0A0A0A" transform="translate(919,470)"/>
<path d="M0 0 C3.73050348 1.5295914 5.89134203 3.76698094 8.5625 6.75 C9.70912109 8.01070313 9.70912109 8.01070313 10.87890625 9.296875 C14.65065435 14.10359634 16.4389777 17.85431216 16 24 C13.84697442 21.84697442 13.06267398 20.13135628 11.8125 17.375 C8.63314965 10.85591665 4.10422568 6.05782363 -1 1 C-0.67 0.67 -0.34 0.34 0 0 Z " fill="#0C0C0D" transform="translate(834,478)"/>
<path d="M0 0 C0 5.61 0 11.22 0 17 C-0.33 17 -0.66 17 -1 17 C-1 12.38 -1 7.76 -1 3 C-8.26 3 -15.52 3 -23 3 C-23 2.34 -23 1.68 -23 1 C-20.66687403 0.82987623 -18.33356929 0.66383693 -16 0.5 C-14.700625 0.4071875 -13.40125 0.314375 -12.0625 0.21875 C-8.01791282 -0.07014908 -4.0940248 0 0 0 Z " fill="#050506" transform="translate(456,470)"/>
<path d="M0 0 C2.45039078 2.38232437 4.75340905 4.65653403 6.75 7.4375 C10.87820294 12.13906446 16.3892533 15.30939192 22 18 C19.39087732 19.00166319 18.30524592 19.12220063 15.66796875 18.06640625 C9.39556044 14.26345003 2.19112269 9.78491 0.31640625 2.25390625 C0.21199219 1.51011719 0.10757813 0.76632812 0 0 Z " fill="#0E0E0E" transform="translate(768,544)"/>
<path d="M0 0 C0.33 0 0.66 0 1 0 C1 3.63 1 7.26 1 11 C-2.3 10.67 -5.6 10.34 -9 10 C-9.33 10.66 -9.66 11.32 -10 12 C-12.97 11.01 -15.94 10.02 -19 9 C-19 8.67 -19 8.34 -19 8 C-12.73 8 -6.46 8 0 8 C0 5.36 0 2.72 0 0 Z " fill="#111111" transform="translate(587,554)"/>
<path d="M0 0 C6.70821055 5.36656844 12.28806145 11.61667627 18 18 C17.34 18.66 16.68 19.32 16 20 C11.9175946 16.01302746 7.89459418 11.97961433 4.0625 7.75 C3.49660156 7.12609375 2.93070313 6.5021875 2.34765625 5.859375 C0.919281 3.88863118 0.41584437 2.37926147 0 0 Z " fill="#100F0F" transform="translate(134,559)"/>
<path d="M0 0 C0.90902558 2.45436907 1.19435389 3.57108108 0.09375 6 C-1.49364252 10.3539909 -1.72870411 14.71611732 -2.125 19.3125 C-2.21136719 20.24384766 -2.29773438 21.17519531 -2.38671875 22.13476562 C-2.59790805 24.42264973 -2.80211266 26.71093346 -3 29 C-3.33 29 -3.66 29 -4 29 C-4.0878954 25.64600151 -4.14068879 22.2923036 -4.1875 18.9375 C-4.21263672 17.99455078 -4.23777344 17.05160156 -4.26367188 16.08007812 C-4.32476414 10.23558435 -3.78412133 6.16850736 -1 1 C-0.67 0.67 -0.34 0.34 0 0 Z " fill="#080808" transform="translate(495,497)"/>
<path d="M0 0 C5.24676851 2.69833809 8.59041649 6.37304891 11.375 11.5625 C12.10181868 14.39709284 11.79698163 16.21056428 11 19 C8.73404658 16.73404658 8.23342322 15.1247968 7.1875 12.125 C5.52266579 7.75873671 3.88794649 5.69996284 0 3 C0 2.01 0 1.02 0 0 Z " fill="#101010" transform="translate(818,490)"/>
<path d="M0 0 C1 1 1 1 1.09765625 3.94140625 C1.08605469 5.13636719 1.07445312 6.33132813 1.0625 7.5625 C1.05347656 8.76003906 1.04445313 9.95757812 1.03515625 11.19140625 C1.02355469 12.11824219 1.01195312 13.04507812 1 14 C0.67 14 0.34 14 0 14 C0 10.04 0 6.08 0 2 C-5.28 2 -10.56 2 -16 2 C-15.67 1.34 -15.34 0.68 -15 0 C-9.69607347 -1.19067738 -5.28239156 -0.91075717 0 0 Z " fill="#040404" transform="translate(888,471)"/>
<path d="M0 0 C6.27 0 12.54 0 19 0 C18.01 0.99 17.02 1.98 16 3 C12.8125 2.6875 12.8125 2.6875 10 2 C9.67 2.66 9.34 3.32 9 4 C4.545 3.01 4.545 3.01 0 2 C0 1.34 0 0.68 0 0 Z " fill="#111111" transform="translate(728,562)"/>
<path d="M0 0 C1.17175781 0.04640625 2.34351563 0.0928125 3.55078125 0.140625 C5.32001953 0.19476562 5.32001953 0.19476562 7.125 0.25 C8.48044922 0.31960938 8.48044922 0.31960938 9.86328125 0.390625 C9.86328125 0.720625 9.86328125 1.050625 9.86328125 1.390625 C9.15042969 1.46539063 8.43757812 1.54015625 7.703125 1.6171875 C1.48464 2.47086916 -2.31472281 3.56663925 -6.69921875 8.1484375 C-8.13671875 9.390625 -8.13671875 9.390625 -11.13671875 9.390625 C-11.13671875 8.730625 -11.13671875 8.070625 -11.13671875 7.390625 C-10.37359375 6.936875 -9.61046875 6.483125 -8.82421875 6.015625 C-6.05894675 4.62990193 -6.05894675 4.62990193 -4.88671875 2.3046875 C-3.13671875 0.390625 -3.13671875 0.390625 0 0 Z " fill="#0B0C0B" transform="translate(829.13671875,536.609375)"/>
<path d="M0 0 C2.64 0.33 5.28 0.66 8 1 C7.67 7.93 7.34 14.86 7 22 C6.67 22 6.34 22 6 22 C6 15.73 6 9.46 6 3 C3.03 3 0.06 3 -3 3 C-2.01 2.01 -1.02 1.02 0 0 Z " fill="#0D0D0D" transform="translate(580,470)"/>
<path d="M0 0 C3.41760055 1.41417954 5.17429506 2.76352307 7 6 C7.96132164 8.96452259 8.79913914 11.88378726 9 15 C8.01 16.485 8.01 16.485 7 18 C6.61908203 16.67935547 6.61908203 16.67935547 6.23046875 15.33203125 C5.88628906 14.17058594 5.54210937 13.00914062 5.1875 11.8125 C4.85105469 10.66394531 4.51460937 9.51539063 4.16796875 8.33203125 C3.08111342 5.23140384 1.79821097 2.73595995 0 0 Z " fill="#0E0F0F" transform="translate(655,491)"/>
<path d="M0 0 C0.66 0.33 1.32 0.66 2 1 C-1.17753019 6.9011275 -4.19853227 10.5620932 -10 14 C-10.99 14 -11.98 14 -13 14 C-13 13.34 -13 12.68 -13 12 C-11.42578125 10.95703125 -11.42578125 10.95703125 -9.3125 9.8125 C-4.88901947 7.18826821 -2.715816 4.32833174 0 0 Z " fill="#0C0C0C" transform="translate(562,532)"/>
<path d="M0 0 C0.33 0.99 0.66 1.98 1 3 C0.0278535 4.37441402 -0.94735302 5.74681468 -1.94140625 7.10546875 C-3.97498514 10.7448996 -4.38718154 14.91991923 -5 19 C-7.29033608 14.88455235 -7.23480893 12.63053349 -6 8 C-4.20122212 5.15484164 -2.17755274 2.56378534 0 0 Z " fill="#161515" transform="translate(463,497)"/>
<path d="M0 0 C1.60294922 0.15275391 1.60294922 0.15275391 3.23828125 0.30859375 C4.45064453 0.43427734 4.45064453 0.43427734 5.6875 0.5625 C5.6875 1.2225 5.6875 1.8825 5.6875 2.5625 C-0.5825 2.5625 -6.8525 2.5625 -13.3125 2.5625 C-9.52994896 -1.22005104 -5.04047946 -0.49850896 0 0 Z " fill="#050505" transform="translate(618.3125,470.4375)"/>
<path d="M0 0 C0 3.16611388 -0.46280377 4.17751295 -1.9375 6.875 C-3.52462768 9.91465797 -4.57002529 12.56020233 -5 16 C-5.66 16 -6.32 16 -7 16 C-6.56952295 9.86570207 -5.4459553 6.11672151 -2 1 C-1.34 0.67 -0.68 0.34 0 0 Z " fill="#0C0C0C" transform="translate(771,489)"/>
<path d="M0 0 C0 0.66 0 1.32 0 2 C-1.65532623 3.01866229 -3.32260138 4.01810813 -5 5 C-5.33 5.66 -5.66 6.32 -6 7 C-6.66 7 -7.32 7 -8 7 C-8.66 8.98 -9.32 10.96 -10 13 C-10.66 13 -11.32 13 -12 13 C-10.63550416 7.79010681 -8.60150156 4.87161418 -5 1 C-3 0 -3 0 0 0 Z " fill="#0C0B0B" transform="translate(799,490)"/>
<path d="M0 0 C0.99 0 1.98 0 3 0 C2.34 3.96 1.68 7.92 1 12 C0.01 12 -0.98 12 -2 12 C-1.34 8.04 -0.68 4.08 0 0 Z " fill="#101010" transform="translate(688,497)"/>
<path d="M0 0 C3 3 6 6 9 9 C8.67 9.99 8.34 10.98 8 12 C2.00704225 6.16901408 2.00704225 6.16901408 0 3 C0 2.01 0 1.02 0 0 Z " fill="#0D0D0D" transform="translate(787,534)"/>
<path d="M0 0 C0.33 0.66 0.66 1.32 1 2 C-0.3125 4.625 -0.3125 4.625 -2 7 C-2.66 7 -3.32 7 -4 7 C-4 6.01 -4 5.02 -4 4 C-6.475 3.01 -6.475 3.01 -9 2 C-9 1.67 -9 1.34 -9 1 C-4.545 0.505 -4.545 0.505 0 0 Z " fill="#0A0A0B" transform="translate(851,536)"/>
<path d="M0 0 C3 3 3 3 3.25 6.75 C3.10917049 10.55239672 2.62514019 14.24915886 2 18 C1.67 18 1.34 18 1 18 C0.67 12.06 0.34 6.12 0 0 Z " fill="#090909" transform="translate(850,504)"/>
<path d="M0 0 C-1 2 -1 2 -2.9609375 2.8515625 C-4.15589844 3.23441406 -4.15589844 3.23441406 -5.375 3.625 C-6.56222656 4.01558594 -6.56222656 4.01558594 -7.7734375 4.4140625 C-10 5 -10 5 -13 5 C-13 4.34 -13 3.68 -13 3 C-8.44573816 0.33409063 -5.26053037 -0.31563182 0 0 Z " fill="#0A0A0A" transform="translate(708,471)"/>
<path d="M0 0 C0.33 0 0.66 0 1 0 C1.08333357 4.8333472 0.95261487 9.23692563 0 14 C-0.66 14 -1.32 14 -2 14 C-2.1799928 8.78020872 -1.97094808 4.92737019 0 0 Z " fill="#0B0B0B" transform="translate(628,501)"/>
<path d="M0 0 C5.01009707 1.43145631 7.10619424 3.82951522 10 8 C9.67 8.99 9.34 9.98 9 11 C8.51789062 10.43410156 8.03578125 9.86820312 7.5390625 9.28515625 C6.90742187 8.55167969 6.27578125 7.81820313 5.625 7.0625 C4.99851562 6.33160156 4.37203125 5.60070312 3.7265625 4.84765625 C2.12252286 2.91619094 2.12252286 2.91619094 0 2 C0 1.34 0 0.68 0 0 Z " fill="#10100F" transform="translate(673,475)"/>
<path d="M0 0 C0 0.99 0 1.98 0 3 C-5.94 3.495 -5.94 3.495 -12 4 C-11.67 3.01 -11.34 2.02 -11 1 C-7.26513121 0.4254048 -3.78706732 0 0 0 Z " fill="#0E0F0F" transform="translate(536,469)"/>
<path d="M0 0 C0.66 0 1.32 0 2 0 C1.34 6.6 0.68 13.2 0 20 C-0.33 20 -0.66 20 -1 20 C-1.02689449 17.04160645 -1.04678741 14.08345573 -1.0625 11.125 C-1.07087891 10.28324219 -1.07925781 9.44148437 -1.08789062 8.57421875 C-1.09111328 7.76855469 -1.09433594 6.96289062 -1.09765625 6.1328125 C-1.10289307 5.38918457 -1.10812988 4.64555664 -1.11352539 3.87939453 C-1 2 -1 2 0 0 Z " fill="#030303" transform="translate(763,507)"/>
<path d="M0 0 C2.6015625 -0.29296875 2.6015625 -0.29296875 5.625 -0.1875 C7.12933594 -0.14689453 7.12933594 -0.14689453 8.6640625 -0.10546875 C9.43492187 -0.07066406 10.20578125 -0.03585937 11 0 C8.41073669 2.58926331 6.97294721 2.37398043 3.375 2.625 C2.37210938 2.69976562 1.36921875 2.77453125 0.3359375 2.8515625 C-0.82035156 2.92503906 -0.82035156 2.92503906 -2 3 C-1.34 2.01 -0.68 1.02 0 0 Z " fill="#0A090A" transform="translate(701,488)"/>
<path d="M0 0 C0.33 0.66 0.66 1.32 1 2 C1.66 2.33 2.32 2.66 3 3 C2.4140625 9.15234375 2.4140625 9.15234375 2 11 C1.01 11.495 1.01 11.495 0 12 C-0.19401633 10.18818595 -0.38004375 8.37551468 -0.5625 6.5625 C-0.66691406 5.55316406 -0.77132812 4.54382813 -0.87890625 3.50390625 C-0.91886719 2.67761719 -0.95882812 1.85132813 -1 1 C-0.67 0.67 -0.34 0.34 0 0 Z " fill="#10100F" transform="translate(625,469)"/>
<path d="M0 0 C0.99 0 1.98 0 3 0 C3 0.66 3 1.32 3 2 C3.66 2 4.32 2 5 2 C5 2.66 5 3.32 5 4 C6.65 4 8.3 4 10 4 C10 4.33 10 4.66 10 5 C8.54207116 5.05399736 7.08357288 5.09279177 5.625 5.125 C4.81289063 5.14820313 4.00078125 5.17140625 3.1640625 5.1953125 C1 5 1 5 -1 3 C-0.67 2.01 -0.34 1.02 0 0 Z " fill="#252424" transform="translate(723,560)"/>
<path d="M0 0 C8.57142857 -0.28571429 8.57142857 -0.28571429 12 2 C11.67 2.99 11.34 3.98 11 5 C7.37 3.68 3.74 2.36 0 1 C0 0.67 0 0.34 0 0 Z " fill="#0C0C0C" transform="translate(660,471)"/>
<path d="M0 0 C0.99 0.33 1.98 0.66 3 1 C2.2575 1.5775 1.515 2.155 0.75 2.75 C-1.66087643 4.72253526 -3.84042701 6.76044282 -6 9 C-6.66 8.67 -7.32 8.34 -8 8 C-7.04578192 6.85073734 -6.08647955 5.70569459 -5.125 4.5625 C-4.59132813 3.92441406 -4.05765625 3.28632813 -3.5078125 2.62890625 C-2 1 -2 1 0 0 Z " fill="#0A0A0A" transform="translate(783,476)"/>
<path d="M0 0 C0.59296875 0.20238281 1.1859375 0.40476562 1.796875 0.61328125 C0.69928993 1.45526432 -0.40647817 2.28658796 -1.515625 3.11328125 C-2.13050781 3.57734375 -2.74539063 4.04140625 -3.37890625 4.51953125 C-5.203125 5.61328125 -5.203125 5.61328125 -8.203125 5.61328125 C-8.203125 4.95328125 -8.203125 4.29328125 -8.203125 3.61328125 C-2.99894173 -0.52640999 -2.99894173 -0.52640999 0 0 Z " fill="#0F0F10" transform="translate(470.203125,472.38671875)"/>
<path d="M0 0 C0.33 0.99 0.66 1.98 1 3 C-2.63423209 5.32590854 -5.77088331 5.16265833 -10 5 C-7.90217213 2.90217213 -6.6200793 2.3490604 -3.875 1.375 C-3.15054688 1.11460937 -2.42609375 0.85421875 -1.6796875 0.5859375 C-0.84824219 0.29589844 -0.84824219 0.29589844 0 0 Z " fill="#0D0D0C" transform="translate(552,560)"/>
<path d="M0 0 C-1.36944102 2.94956528 -2.87830409 5.52468811 -5 8 C-5.66 8 -6.32 8 -7 8 C-4.18918919 0 -4.18918919 0 0 0 Z " fill="#070707" transform="translate(636,491)"/>
<path d="M0 0 C0.99 0.33 1.98 0.66 3 1 C2.67 1.33 2.34 1.66 2 2 C1.76712992 3.68183948 1.58735834 5.3712416 1.4375 7.0625 C1.31181641 8.44115234 1.31181641 8.44115234 1.18359375 9.84765625 C1.12300781 10.55792969 1.06242188 11.26820313 1 12 C-1 10 -1 10 -1.23046875 7.87109375 C-1.20919922 6.66646484 -1.20919922 6.66646484 -1.1875 5.4375 C-1.18105469 4.63183594 -1.17460938 3.82617188 -1.16796875 2.99609375 C-1 1 -1 1 0 0 Z " fill="#1E1E1E" transform="translate(564,470)"/>
<path d="M0 0 C0 0.66 0 1.32 0 2 C-1.258125 2.04125 -2.51625 2.0825 -3.8125 2.125 C-4.52019531 2.14820313 -5.22789062 2.17140625 -5.95703125 2.1953125 C-8 2 -8 2 -11 0 C-7.01803543 -1.05404945 -4.01804691 -0.84098656 0 0 Z " fill="#060606" transform="translate(813,547)"/>
<path d="M0 0 C0 0.66 0 1.32 0 2 C-5.2734375 5.22265625 -5.2734375 5.22265625 -7 6 C-7.66 5.67 -8.32 5.34 -9 5 C-4.16129032 0 -4.16129032 0 0 0 Z " fill="#0C0C0D" transform="translate(519,473)"/>
<path d="M0 0 C0.33 0.66 0.66 1.32 1 2 C-2.625 6.875 -2.625 6.875 -6 8 C-6.33 7.34 -6.66 6.68 -7 6 C-4.69 4.02 -2.38 2.04 0 0 Z " fill="#0E0F0E" transform="translate(562,552)"/>
<path d="M0 0 C0.33 0.99 0.66 1.98 1 3 C-0.8125 5.6875 -0.8125 5.6875 -3 8 C-3.66 8 -4.32 8 -5 8 C-3.8141763 4.62496331 -2.72426311 2.35277269 0 0 Z " fill="#0B0B0B" transform="translate(463,497)"/>
<path d="M0 0 C3.26954202 0.56371414 4.82575883 1.49962266 7 4 C6.67 4.99 6.34 5.98 6 7 C1.125 2.25 1.125 2.25 0 0 Z " fill="#0F100F" transform="translate(556,478)"/>
<path d="M0 0 C0.66 0.33 1.32 0.66 2 1 C0.02 3.31 -1.96 5.62 -4 8 C-4.33 6.68 -4.66 5.36 -5 4 C-3.35 2.68 -1.7 1.36 0 0 Z " fill="#070707" transform="translate(505,482)"/>
<path d="M0 0 C0.33 0 0.66 0 1 0 C1 3.63 1 7.26 1 11 C0.67 11 0.34 11 0 11 C-0.66 8.03 -1.32 5.06 -2 2 C-1.34 2 -0.68 2 0 2 C0 1.34 0 0.68 0 0 Z " fill="#0F0E0E" transform="translate(432,476)"/>
<path d="M0 0 C-3.28463659 2.18975773 -6.20696275 2.99806563 -10 4 C-9.67 3.01 -9.34 2.02 -9 1 C-6.04335481 -0.4783226 -3.25770263 -0.06032783 0 0 Z " fill="#080809" transform="translate(911,471)"/>
<path d="M0 0 C-2.96278714 1.64599285 -5.61306808 2.65262237 -9 3 C-9.99 2.34 -10.98 1.68 -12 1 C-7.93631321 0.22596442 -4.13574827 -0.0984702 0 0 Z " fill="#262626" transform="translate(717,469)"/>
<path d="M0 0 C4.75 0.875 4.75 0.875 7 2 C6.67 2.99 6.34 3.98 6 5 C4.02 4.01 2.04 3.02 0 2 C0 1.34 0 0.68 0 0 Z " fill="#0A0B0B" transform="translate(548,473)"/>
<path d="M0 0 C0.33 0 0.66 0 1 0 C1 3.3 1 6.6 1 10 C0.67 10 0.34 10 0 10 C0 6.7 0 3.4 0 0 Z " fill="#2E2D2E" transform="translate(600,486)"/>
<path d="M0 0 C1.98 0 3.96 0 6 0 C6 0.33 6 0.66 6 1 C4.02 1 2.04 1 0 1 C0 0.67 0 0.34 0 0 Z " fill="#323232" transform="translate(835,527)"/>
<path d="M0 0 C1.65 0 3.3 0 5 0 C5 0.33 5 0.66 5 1 C3.35 1 1.7 1 0 1 C0 0.67 0 0.34 0 0 Z " fill="#333233" transform="translate(820,527)"/>
<path d="M0 0 C1.65 0 3.3 0 5 0 C5 0.33 5 0.66 5 1 C3.35 1 1.7 1 0 1 C0 0.67 0 0.34 0 0 Z " fill="#323232" transform="translate(804,527)"/>
<path d="M0 0 C1.65 0 3.3 0 5 0 C5 0.33 5 0.66 5 1 C3.35 1 1.7 1 0 1 C0 0.67 0 0.34 0 0 Z " fill="#322F30" transform="translate(788,527)"/>
<path d="M0 0 C0.33 0 0.66 0 1 0 C1 1.65 1 3.3 1 5 C0.67 5 0.34 5 0 5 C0 3.35 0 1.7 0 0 Z " fill="#323333" transform="translate(600,475)"/>
<path d="M0 0 C4 1 4 1 4 1 Z " fill="#323130" transform="translate(534,544)"/>
<path d="M0 0 C1 4 1 4 1 4 Z " fill="#2D2D2D" transform="translate(600,508)"/>
<path d="M0 0 C1 4 1 4 1 4 Z " fill="#2D2C2D" transform="translate(600,503)"/>
<path d="M0 0 C0.99 0.495 0.99 0.495 2 1 C1.01 1.495 1.01 1.495 0 2 C0 1.34 0 0.68 0 0 Z " fill="#303030" transform="translate(761,536)"/>
<path d="M0 0 C3 1 3 1 3 1 Z " fill="#343133" transform="translate(827,527)"/>
<path d="M0 0 C3 1 3 1 3 1 Z " fill="#333132" transform="translate(799,527)"/>
<path d="" fill="#313030" transform="translate(0,0)"/>
<path d="" fill="#3A3839" transform="translate(0,0)"/>
<path d="M0 0 C3 1 3 1 3 1 Z " fill="#363635" transform="translate(405,455)"/>
<path d="M0 0 C3 1 3 1 3 1 Z " fill="#3F403F" transform="translate(166,395)"/>
<path d="" fill="#3C3B3B" transform="translate(0,0)"/>
<path d="" fill="#3A3837" transform="translate(0,0)"/>
<path d="M0 0 C2 1 2 1 2 1 Z " fill="#313031" transform="translate(801,544)"/>
<path d="M0 0 C2 1 2 1 2 1 Z " fill="#333333" transform="translate(544,544)"/>
<path d="" fill="#2E2D2F" transform="translate(0,0)"/>
<path d="" fill="#2E2C2E" transform="translate(0,0)"/>
<path d="M0 0 C2 1 2 1 2 1 Z " fill="#323033" transform="translate(796,527)"/>
<path d="" fill="#2D2B2E" transform="translate(0,0)"/>
<path d="" fill="#313030" transform="translate(0,0)"/>
<path d="M0 0 C2 1 2 1 2 1 Z " fill="#323130" transform="translate(698,493)"/>
<path d="M0 0 C2 1 2 1 2 1 Z " fill="#312F30" transform="translate(534,492)"/>
<path d="M0 0 C2 1 2 1 2 1 Z " fill="#313131" transform="translate(646,491)"/>
<path d="M0 0 C2 1 2 1 2 1 Z " fill="#3D3B3C" transform="translate(733,472)"/>
<path d="M0 0 C2 1 2 1 2 1 Z " fill="#393937" transform="translate(416,455)"/>
<path d="M0 0 C2 1 2 1 2 1 Z " fill="#353536" transform="translate(389,455)"/>
<path d="" fill="#363737" transform="translate(0,0)"/>
<path d="" fill="#393736" transform="translate(0,0)"/>
<path d="" fill="#363636" transform="translate(0,0)"/>
<path d="" fill="#363736" transform="translate(0,0)"/>
<path d="" fill="#393936" transform="translate(0,0)"/>
<path d="" fill="#424241" transform="translate(0,0)"/>
<path d="" fill="#3F4341" transform="translate(0,0)"/>
<path d="" fill="#3F3B3B" transform="translate(0,0)"/>
<path d="" fill="#40403E" transform="translate(0,0)"/>
<path d="" fill="#42403F" transform="translate(0,0)"/>
<path d="" fill="#3F3E3F" transform="translate(0,0)"/>
<path d="" fill="#404241" transform="translate(0,0)"/>
<path d="" fill="#3E3C3E" transform="translate(0,0)"/>
<path d="" fill="#3D3B3C" transform="translate(0,0)"/>
<path d="" fill="#42403E" transform="translate(0,0)"/>
<path d="" fill="#3F413F" transform="translate(0,0)"/>
<path d="" fill="#403F3F" transform="translate(0,0)"/>
<path d="" fill="#353432" transform="translate(0,0)"/>
<path d="" fill="#454543" transform="translate(0,0)"/>
<path d="" fill="#3B3A39" transform="translate(0,0)"/>
<path d="" fill="#413F3F" transform="translate(0,0)"/>
<path d="" fill="#39393B" transform="translate(0,0)"/>
<path d="" fill="#3B3C39" transform="translate(0,0)"/>
<path d="" fill="#3F3F3C" transform="translate(0,0)"/>
<path d="" fill="#3B3C39" transform="translate(0,0)"/>
<path d="" fill="#3B3A3B" transform="translate(0,0)"/>
<path d="" fill="#3B3A3D" transform="translate(0,0)"/>
<path d="" fill="#3D3A39" transform="translate(0,0)"/>
<path d="" fill="#393936" transform="translate(0,0)"/>
<path d="" fill="#343635" transform="translate(0,0)"/>
<path d="" fill="#363636" transform="translate(0,0)"/>
<path d="" fill="#3C3A3B" transform="translate(0,0)"/>
<path d="" fill="#373738" transform="translate(0,0)"/>
<path d="" fill="#333333" transform="translate(0,0)"/>
<path d="" fill="#353636" transform="translate(0,0)"/>
<path d="" fill="#302F30" transform="translate(0,0)"/>
<path d="" fill="#373336" transform="translate(0,0)"/>
<path d="" fill="#373534" transform="translate(0,0)"/>
<path d="" fill="#353334" transform="translate(0,0)"/>
<path d="" fill="#353234" transform="translate(0,0)"/>
<path d="" fill="#393B38" transform="translate(0,0)"/>
<path d="" fill="#313231" transform="translate(0,0)"/>
<path d="" fill="#393837" transform="translate(0,0)"/>
<path d="" fill="#353031" transform="translate(0,0)"/>
<path d="" fill="#353234" transform="translate(0,0)"/>
<path d="" fill="#2E2F2E" transform="translate(0,0)"/>
<path d="" fill="#323131" transform="translate(0,0)"/>
<path d="" fill="#343234" transform="translate(0,0)"/>
<path d="" fill="#31302F" transform="translate(0,0)"/>
<path d="" fill="#363535" transform="translate(0,0)"/>
<path d="" fill="#333332" transform="translate(0,0)"/>
<path d="" fill="#323434" transform="translate(0,0)"/>
<path d="" fill="#2F2D2E" transform="translate(0,0)"/>
<path d="" fill="#302E2F" transform="translate(0,0)"/>
<path d="" fill="#303132" transform="translate(0,0)"/>
<path d="" fill="#312E31" transform="translate(0,0)"/>
<path d="" fill="#2C2F31" transform="translate(0,0)"/>
<path d="" fill="#333333" transform="translate(0,0)"/>
<path d="" fill="#33302F" transform="translate(0,0)"/>
<path d="" fill="#31302E" transform="translate(0,0)"/>
<path d="" fill="#323132" transform="translate(0,0)"/>
<path d="" fill="#2E2F2E" transform="translate(0,0)"/>
<path d="" fill="#343234" transform="translate(0,0)"/>
<path d="" fill="#323234" transform="translate(0,0)"/>
<path d="" fill="#333335" transform="translate(0,0)"/>
<path d="" fill="#353333" transform="translate(0,0)"/>
<path d="" fill="#323230" transform="translate(0,0)"/>
<path d="" fill="#353433" transform="translate(0,0)"/>
<path d="" fill="#313330" transform="translate(0,0)"/>
<path d="" fill="#302D2E" transform="translate(0,0)"/>
<path d="" fill="#312F30" transform="translate(0,0)"/>
<path d="" fill="#302B2E" transform="translate(0,0)"/>
<path d="" fill="#2F2F2E" transform="translate(0,0)"/>
<path d="" fill="#333232" transform="translate(0,0)"/>
<path d="" fill="#303030" transform="translate(0,0)"/>
<path d="" fill="#303032" transform="translate(0,0)"/>
<path d="" fill="#2D2C2C" transform="translate(0,0)"/>
<path d="" fill="#2F2C2E" transform="translate(0,0)"/>
<path d="" fill="#353435" transform="translate(0,0)"/>
<path d="" fill="#303131" transform="translate(0,0)"/>
<path d="" fill="#333333" transform="translate(0,0)"/>
<path d="" fill="#302F2F" transform="translate(0,0)"/>
<path d="" fill="#2D2D2B" transform="translate(0,0)"/>
<path d="" fill="#313130" transform="translate(0,0)"/>
<path d="" fill="#312F30" transform="translate(0,0)"/>
<path d="" fill="#303131" transform="translate(0,0)"/>
<path d="" fill="#323133" transform="translate(0,0)"/>
<path d="" fill="#31312F" transform="translate(0,0)"/>
<path d="" fill="#323031" transform="translate(0,0)"/>
<path d="" fill="#323130" transform="translate(0,0)"/>
<path d="" fill="#322F32" transform="translate(0,0)"/>
<path d="" fill="#343332" transform="translate(0,0)"/>
<path d="" fill="#353333" transform="translate(0,0)"/>
<path d="" fill="#32312F" transform="translate(0,0)"/>
<path d="" fill="#333131" transform="translate(0,0)"/>
<path d="" fill="#353433" transform="translate(0,0)"/>
<path d="" fill="#333131" transform="translate(0,0)"/>
<path d="" fill="#30312E" transform="translate(0,0)"/>
<path d="" fill="#353433" transform="translate(0,0)"/>
<path d="" fill="#353736" transform="translate(0,0)"/>
<path d="" fill="#373536" transform="translate(0,0)"/>
<path d="" fill="#363638" transform="translate(0,0)"/>
<path d="" fill="#2C292B" transform="translate(0,0)"/>
<path d="" fill="#30302F" transform="translate(0,0)"/>
<path d="" fill="#353433" transform="translate(0,0)"/>
<path d="" fill="#313031" transform="translate(0,0)"/>
<path d="" fill="#2F3030" transform="translate(0,0)"/>
<path d="" fill="#383835" transform="translate(0,0)"/>
<path d="" fill="#393839" transform="translate(0,0)"/>
<path d="" fill="#3D3D3A" transform="translate(0,0)"/>
<path d="" fill="#3E3D3B" transform="translate(0,0)"/>
<path d="" fill="#3B3C3B" transform="translate(0,0)"/>
<path d="" fill="#3B3B3A" transform="translate(0,0)"/>
<path d="" fill="#413F3E" transform="translate(0,0)"/>
<path d="" fill="#413F3F" transform="translate(0,0)"/>
<path d="" fill="#363738" transform="translate(0,0)"/>
<path d="" fill="#2D2C2B" transform="translate(0,0)"/>
<path d="" fill="#404343" transform="translate(0,0)"/>
<path d="" fill="#454343" transform="translate(0,0)"/>
<path d="" fill="#404242" transform="translate(0,0)"/>
<path d="" fill="#434040" transform="translate(0,0)"/>
<path d="" fill="#414142" transform="translate(0,0)"/>
<path d="" fill="#444444" transform="translate(0,0)"/>
<path d="" fill="#2B2B2B" transform="translate(0,0)"/>
<path d="" fill="#434544" transform="translate(0,0)"/>
<path d="" fill="#3D3C3D" transform="translate(0,0)"/>
<path d="" fill="#343635" transform="translate(0,0)"/>
<path d="" fill="#343334" transform="translate(0,0)"/>
<path d="" fill="#343535" transform="translate(0,0)"/>
<path d="" fill="#2F2F2D" transform="translate(0,0)"/>
<path d="" fill="#323130" transform="translate(0,0)"/>
<path d="" fill="#363533" transform="translate(0,0)"/>
<path d="" fill="#363538" transform="translate(0,0)"/>
<path d="" fill="#3A3735" transform="translate(0,0)"/>
<path d="" fill="#3C3C38" transform="translate(0,0)"/>
<path d="" fill="#494A49" transform="translate(0,0)"/>
<path d="" fill="#444746" transform="translate(0,0)"/>
<path d="" fill="#444543" transform="translate(0,0)"/>
<path d="" fill="#414140" transform="translate(0,0)"/>
<path d="" fill="#413F3E" transform="translate(0,0)"/>
<path d="" fill="#444441" transform="translate(0,0)"/>
</svg>
