<?xml version="1.0" encoding="UTF-8"?>
<svg version="1.1" xmlns="http://www.w3.org/2000/svg" width="1024" height="1024">
<path d="M0 0 C1.51880013 -0.00956978 1.51880013 -0.00956978 3.06828308 -0.01933289 C4.72118095 -0.02100212 4.72118095 -0.02100212 6.4074707 -0.02270508 C7.54545609 -0.02603348 8.68344147 -0.02936188 9.85591125 -0.03279114 C12.27616979 -0.03786601 14.69643536 -0.04019929 17.11669922 -0.04003906 C20.77299069 -0.0422007 24.42896806 -0.06028088 28.08520508 -0.0793457 C59.56078164 -0.15782765 84.10225933 5.74768931 107.39575195 27.95776367 C122.95519622 44.1466353 138.14575195 72.2532426 138.14575195 95.14526367 C138.80575195 95.47526367 139.46575195 95.80526367 140.14575195 96.14526367 C140.70825195 99.07495117 140.70825195 99.07495117 141.14575195 103.02026367 C141.22623779 103.73061768 141.30672363 104.44097168 141.38964844 105.17285156 C141.56122016 106.70337764 141.72828728 108.23441393 141.89135742 109.76586914 C142.14349734 112.12417586 142.41081716 114.48035844 142.6809082 116.83666992 C148.83129367 171.43967928 148.6518969 237.3847317 113.36450195 282.76635742 C98.31057808 301.49906982 78.03010404 312.81192209 54.04415226 315.68096066 C49.01729065 316.22054097 44.04180549 316.28180067 38.99009705 316.26551819 C37.51460879 316.26679983 37.51460879 316.26679983 36.00931269 316.26810735 C32.73437966 316.26974605 29.45949858 316.26426728 26.18457031 316.25878906 C23.82859295 316.25850682 21.4726155 316.25866566 19.11663818 316.25923157 C12.73513552 316.25951808 6.35365171 316.25364486 -0.02784657 316.24665761 C-6.02562687 316.24103425 -12.0234072 316.24003371 -18.02118962 316.23900574 C-29.89580314 316.23682066 -41.77040976 316.23017535 -53.64501953 316.22070312 C-65.17561814 316.21151492 -76.70621487 316.20444098 -88.23681641 316.20019531 C-88.94834384 316.19993259 -89.65987127 316.19966987 -90.39296014 316.19939918 C-93.96271745 316.19809408 -97.53247477 316.19683039 -101.1022321 316.19558728 C-130.68624211 316.18523161 -160.27024442 316.16735164 -189.85424805 316.14526367 C-189.85424805 322.41526367 -189.85424805 328.68526367 -189.85424805 335.14526367 C-186.81325645 335.14193275 -186.81325645 335.14193275 -183.71083069 335.13853455 C-164.65373241 335.11813497 -145.59663557 335.10323424 -126.53952885 335.0934515 C-116.74086642 335.08828813 -106.94221199 335.08124465 -97.14355469 335.06982422 C-88.6062615 335.05987864 -80.0689741 335.05341055 -71.53167528 335.05117518 C-67.00834877 335.04986786 -62.48503882 335.04678065 -57.96171761 335.03953362 C-53.70926872 335.03277538 -49.45684332 335.03064631 -45.20438957 335.03215599 C-43.63901517 335.03187957 -42.07364004 335.02987328 -40.50827026 335.0260582 C-38.38036712 335.02112401 -36.25255403 335.02226434 -34.12464905 335.02500916 C-32.93092713 335.02408736 -31.73720522 335.02316557 -30.50730991 335.02221584 C-27.85424805 335.14526367 -27.85424805 335.14526367 -26.85424805 336.14526367 C-26.73858973 338.45244628 -26.69450735 340.76322693 -26.67724609 343.07324219 C-26.6706749 343.79871246 -26.6641037 344.52418274 -26.65733337 345.27163696 C-26.63752279 347.68914898 -26.62590918 350.10659808 -26.6159668 352.52416992 C-26.61189127 353.35278975 -26.60781574 354.18140957 -26.60361671 355.03513908 C-26.58270457 359.43667224 -26.56843575 363.83817392 -26.55908203 368.23974609 C-26.54811876 372.74816355 -26.51385342 377.25607347 -26.47391033 381.7643137 C-26.44749033 385.25893438 -26.43936708 388.75344007 -26.43580055 392.24815178 C-26.43098495 393.90682264 -26.41951827 395.56549016 -26.40076256 397.22406197 C-26.17858312 418.20784118 -30.99921276 436.5325527 -45.85424805 452.14526367 C-57.42474248 463.32839075 -71.55869836 471.25315012 -86.85424805 476.14526367 C-87.69987305 476.41580566 -88.54549805 476.68634766 -89.41674805 476.96508789 C-155.77046471 497.84873532 -244.48215271 500.61769834 -307.91674805 469.02026367 C-327.58919012 458.72944325 -344.04275913 443.23394479 -351.14306641 421.84423828 C-353.76859246 413.44986724 -354.91859975 405.36644912 -355.1706543 396.58276367 C-355.19152603 395.86021896 -355.21239777 395.13767426 -355.23390198 394.39323425 C-355.30070667 391.97735631 -355.35972387 389.56139158 -355.41674805 387.14526367 C-355.4375946 386.28881256 -355.45844116 385.43236145 -355.47991943 384.54995728 C-356.08114819 359.08470176 -356.0275863 333.61543281 -355.85424805 308.14526367 C-355.84564758 306.83511292 -355.83704712 305.52496216 -355.82818604 304.17510986 C-355.7731937 296.12438625 -355.69388489 288.07433552 -355.58978271 280.02407837 C-355.55817041 277.47137511 -355.53091228 274.9186136 -355.50836182 272.36581421 C-355.19756479 239.19276931 -355.19756479 239.19276931 -348.66674805 224.39526367 C-348.36559082 223.69264404 -348.06443359 222.99002441 -347.75415039 222.26611328 C-337.87288587 200.01931153 -319.05702438 182.90186499 -296.52514648 174.09326172 C-284.43133788 169.63526806 -271.81325757 168.0358105 -258.99829102 167.93994141 C-258.15671825 167.93003614 -257.31514549 167.92013088 -256.44807053 167.90992546 C-253.66421995 167.87840382 -250.88035507 167.85347929 -248.09643555 167.82885742 C-246.10403138 167.80824991 -244.11163029 167.78734329 -242.11923218 167.76615906 C-236.76593248 167.71065392 -231.41259064 167.66147065 -226.05921936 167.61344147 C-222.72781194 167.58275044 -219.39643844 167.54958556 -216.06506348 167.51556396 C-192.46032331 167.27505988 -168.85869093 167.10099329 -145.25268555 167.18823242 C-143.41816223 167.19400804 -141.58363871 167.19972073 -139.74911499 167.20536804 C-132.05026124 167.23090563 -124.35184368 167.26460796 -116.65327644 167.33729649 C-113.53534999 167.3639776 -110.41744144 167.3785202 -107.29942703 167.3903904 C-105.88527709 167.39862125 -104.47114431 167.41218612 -103.05710983 167.43204308 C-79.42700997 167.76024962 -57.65745092 160.83976415 -40.26049805 144.51635742 C-22.83141819 127.34192321 -12.99959159 106.3722073 -9.85424805 82.14526367 C-9.68006348 80.90196289 -9.50587891 79.65866211 -9.32641602 78.37768555 C-8.65398368 72.24241591 -8.7586029 66.10087023 -8.80964851 59.93839264 C-8.82724356 57.74356923 -8.83740055 55.54882053 -8.8455658 53.35394287 C-8.86985185 47.12041184 -8.90571104 40.88698313 -8.95019531 34.65356445 C-8.97701022 30.82418216 -8.99402757 26.99485631 -9.00506401 23.16539764 C-9.01125464 21.7125615 -9.02123587 20.2597362 -9.0351429 18.80695343 C-9.05441145 16.77818833 -9.06020471 14.74930886 -9.06542969 12.72045898 C-9.07288712 11.56846008 -9.08034454 10.41646118 -9.08802795 9.22955322 C-8.85073054 6.09885672 -8.29133765 3.92631004 -6.85424805 1.14526367 C-4.38991272 -0.08690399 -2.75600123 0.01177918 0 0 Z M-114.5690918 389.30541992 C-118.8208619 395.39230053 -119.80380245 401.85587443 -119.85424805 409.14526367 C-119.52424805 409.47526367 -119.19424805 409.80526367 -118.85424805 410.14526367 C-118.75112305 411.36213867 -118.64799805 412.57901367 -118.54174805 413.83276367 C-117.66942971 421.04221813 -113.12080782 425.0721989 -107.9519043 429.72729492 C-105.57547185 431.33371015 -103.67544715 431.76746831 -100.85424805 432.14526367 C-100.85424805 432.47526367 -100.85424805 432.80526367 -100.85424805 433.14526367 C-91.94830768 434.41535482 -84.43895218 434.68845909 -76.6315918 429.73510742 C-69.86808366 424.38751127 -66.0210849 417.44861564 -64.97924805 408.89526367 C-64.45529457 399.62419791 -67.45857423 393.43671478 -72.85424805 386.14526367 C-77.68278526 381.04081005 -85.16209431 378.5796347 -92.04174805 377.77026367 C-101.31823037 379.00712798 -108.62984105 381.81404498 -114.5690918 389.30541992 Z " fill="#FEDB59" transform="translate(699.854248046875,336.854736328125)"/>
<path d="M0 0 C1.10214844 0.36738281 2.20429687 0.73476562 3.33984375 1.11328125 C26.45131006 9.42655281 47.09035961 23.49236313 58.14355469 46.07177734 C62.68412362 56.29452917 65.11841232 66.95524336 65.20532227 78.13012695 C65.22015892 79.32708852 65.22015892 79.32708852 65.2352953 80.54823112 C65.26687315 83.1948847 65.29171419 85.84155516 65.31640625 88.48828125 C65.33719216 90.36591467 65.35832782 92.24354425 65.37979126 94.12117004 C65.43574401 99.14622037 65.485306 104.17131287 65.5328331 109.19644928 C65.56246916 112.30926029 65.59338613 115.42205616 65.62466431 118.53485107 C65.76613981 132.68977586 65.88919969 146.84480372 66 161 C66.00671219 161.84220345 66.01342438 162.68440689 66.02033997 163.55213165 C66.09195085 172.56885812 66.15045231 181.58538639 66.17623901 190.60238647 C66.18364154 192.91801207 66.19422855 195.23363007 66.20828247 197.54922485 C66.29842366 213.62479958 66.26123126 229.7045432 61.375 245.1875 C61.11557617 246.0228125 60.85615234 246.858125 60.58886719 247.71875 C53.80413332 268.47955726 39.15040286 284.8495975 20.16796875 295.43359375 C7.0697452 301.91002734 -6.12006619 304.28766819 -20.62182617 304.31884766 C-21.72002276 304.32889894 -22.81821936 304.33895023 -23.94969463 304.34930611 C-27.56411503 304.38004388 -31.17845913 304.39720474 -34.79296875 304.4140625 C-37.35898398 304.43276508 -39.9249936 304.45225185 -42.49099731 304.47247314 C-47.91834617 304.51330333 -53.34567993 304.54819265 -58.77310181 304.57757568 C-66.49776383 304.61940296 -74.22229491 304.67430462 -81.94685829 304.7312119 C-105.99829872 304.9066948 -130.04943373 305.05243767 -154.1015625 304.953125 C-155.65845221 304.94762087 -157.21534205 304.94215711 -158.77223206 304.93673706 C-165.48096504 304.9112812 -172.18884713 304.86668381 -178.8972168 304.78759766 C-190.00706746 304.69097014 -200.28420365 304.72683832 -211 308 C-211.87213135 308.25555664 -212.7442627 308.51111328 -213.64282227 308.77441406 C-216.0016316 309.51173228 -218.31089472 310.32077884 -220.625 311.1875 C-221.4298584 311.48720703 -222.2347168 311.78691406 -223.06396484 312.09570312 C-230.12355893 314.84086499 -235.96386742 318.39710438 -242 323 C-242.79535156 323.55300781 -243.59070313 324.10601562 -244.41015625 324.67578125 C-264.83166838 339.35264846 -274.80779349 364.81031515 -279.51699829 388.6131897 C-280.07784691 392.54586293 -280.16769856 396.41296291 -280.18945312 400.3762207 C-280.19774643 401.1947905 -280.20603973 402.01336029 -280.21458435 402.85673523 C-280.23191152 404.62456196 -280.24709795 406.39241071 -280.26036072 408.1602726 C-280.28146691 410.9544981 -280.30847843 413.74861173 -280.33703613 416.54277039 C-280.4067017 423.47574255 -280.46641584 430.40879351 -280.52606201 437.34185791 C-280.57690615 443.21311091 -280.63167128 449.08430063 -280.69187927 454.95546532 C-280.7185231 457.71478293 -280.73928768 460.47410632 -280.7598877 463.23347473 C-280.77648029 464.91257007 -280.7933512 466.59166268 -280.81054688 468.27075195 C-280.8168235 469.42941269 -280.8168235 469.42941269 -280.82322693 470.61148071 C-280.88614394 475.88614394 -280.88614394 475.88614394 -282 477 C-283.46972547 477.10357804 -284.94436933 477.13851134 -286.41772461 477.14526367 C-287.83202003 477.15483345 -287.83202003 477.15483345 -289.27488708 477.16459656 C-290.30694778 477.16570938 -291.33900848 477.1668222 -292.40234375 477.16796875 C-294.00088951 477.17296135 -294.00088951 477.17296135 -295.63172913 477.17805481 C-297.90413989 477.18313586 -300.17655817 477.18546277 -302.44897461 477.18530273 C-305.86390323 477.18745364 -309.27848958 477.20549583 -312.69335938 477.22460938 C-345.16367485 477.31087301 -370.89504743 472.84042853 -395 449.4375 C-411.1225923 433.27203987 -420.11000951 411.77441364 -426 390 C-426.19432617 389.29117676 -426.38865234 388.58235352 -426.58886719 387.85205078 C-442.47410907 328.28932447 -437.72671558 256.94357037 -410 202 C-409.67 201.34 -409.34 200.68 -409 200 C-407.84564525 198.87959686 -406.69104552 197.75944494 -405.53515625 196.640625 C-402.95959739 193.88811935 -400.78251768 190.82634886 -398.55078125 187.79296875 C-398.03902344 187.20128906 -397.52726562 186.60960937 -397 186 C-396.34 186 -395.68 186 -395 186 C-395 185.34 -395 184.68 -395 184 C-371.25306318 161.44729985 -343.53094529 156.66367911 -312.11376953 156.77294922 C-309.82601934 156.77351427 -307.53826878 156.77319495 -305.2505188 156.77206421 C-299.07795873 156.77149336 -292.90547732 156.7832042 -286.73293543 156.79721212 C-280.2680772 156.80976425 -273.80321692 156.81089351 -267.33834839 156.81326294 C-256.4998015 156.81876117 -245.66128667 156.83123047 -234.82275391 156.84912109 C-223.66585431 156.86751792 -212.50896251 156.88165574 -201.35205078 156.89013672 C-200.31809351 156.89092489 -200.31809351 156.89092489 -199.26324822 156.89172898 C-195.80473262 156.89433932 -192.34621696 156.89686667 -188.88770127 156.89935279 C-160.25844759 156.92003972 -131.62922634 156.95578087 -103 157 C-103 150.4 -103 143.8 -103 137 C-156.46 137 -209.92 137 -265 137 C-265 41 -265 41 -245 21 C-189.22699273 -28.07354694 -65.7136056 -22.089043 0 0 Z M-220 50 C-225.01537573 56.01601031 -227.48301653 63.00923131 -227.25390625 70.890625 C-226.18503187 79.77050445 -221.88558868 87.07506003 -214.9765625 92.67578125 C-208.7690591 96.83456317 -201.33849183 98.17055698 -194 97 C-185.13276875 94.13275157 -179.86918594 88.62771926 -175.0625 80.875 C-172.60474583 74.23448408 -172.9289428 65.31721358 -175.0625 58.625 C-178.32121036 51.56193476 -183.41528202 46.45391787 -190.6796875 43.68359375 C-201.64336245 40.45355483 -211.3432356 42.38540918 -220 50 Z " fill="#4887B7" transform="translate(610,183)"/>
<path d="M0 0 C7.2733251 -0.05121855 14.54660273 -0.08594842 21.82006836 -0.10986328 C24.288185 -0.11984588 26.75629004 -0.13343668 29.22436523 -0.15087891 C62.11630419 -0.37730651 87.74103948 4.44349113 112.25 27.8125 C127.80944427 44.00137163 143 72.10797893 143 95 C143.66 95.33 144.32 95.66 145 96 C145.5625 98.9296875 145.5625 98.9296875 146 102.875 C146.08048584 103.585354 146.16097168 104.29570801 146.24389648 105.02758789 C146.41546821 106.55811397 146.58253533 108.08915026 146.74560547 109.62060547 C146.99774538 111.97891219 147.26506521 114.33509477 147.53515625 116.69140625 C153.68554172 171.29441561 153.50614495 237.23946803 118.21875 282.62109375 C103.16482613 301.35380615 82.88435209 312.66665842 58.89840031 315.53569698 C53.87153869 316.07527729 48.89605353 316.136537 43.84434509 316.12025452 C42.36885684 316.12153615 42.36885684 316.12153615 40.86356074 316.12284368 C37.5886277 316.12448238 34.31374662 316.1190036 31.03881836 316.11352539 C28.682841 316.11324315 26.32686354 316.11340198 23.97088623 316.1139679 C17.58938357 316.11425441 11.20789976 316.10838119 4.82640147 316.10139394 C-1.17137882 316.09577058 -7.16915915 316.09477004 -13.16694158 316.09374207 C-25.04155509 316.09155699 -36.91616171 316.08491167 -48.79077148 316.07543945 C-60.32137009 316.06625125 -71.85196683 316.05917731 -83.38256836 316.05493164 C-84.09409579 316.05466892 -84.80562322 316.05440619 -85.53871209 316.05413551 C-89.1084694 316.05283041 -92.67822672 316.05156672 -96.24798405 316.05032361 C-125.83199406 316.03996794 -155.41599637 316.02208797 -185 316 C-185 322.27 -185 328.54 -185 335 C-181.95900841 334.99666908 -181.95900841 334.99666908 -178.85658264 334.99327087 C-159.79948437 334.9728713 -140.74238753 334.95797057 -121.6852808 334.94818783 C-111.88661837 334.94302446 -102.08796394 334.93598098 -92.28930664 334.92456055 C-83.75201345 334.91461497 -75.21472605 334.90814687 -66.67742723 334.90591151 C-62.15410072 334.90460418 -57.63079078 334.90151698 -53.10746956 334.89426994 C-48.85502068 334.88751171 -44.60259527 334.88538263 -40.35014153 334.88689232 C-38.78476713 334.8866159 -37.21939199 334.88460961 -35.65402222 334.88079453 C-33.52611907 334.87586033 -31.39830599 334.87700067 -29.270401 334.87974548 C-28.07667909 334.87882369 -26.88295717 334.8779019 -25.65306187 334.87695217 C-23 335 -23 335 -22 336 C-21.88434168 338.30718261 -21.8402593 340.61796326 -21.82299805 342.92797852 C-21.81642685 343.65344879 -21.80985565 344.37891907 -21.80308533 345.12637329 C-21.78327475 347.54388531 -21.77166113 349.96133441 -21.76171875 352.37890625 C-21.75764322 353.20752607 -21.7535677 354.0361459 -21.74936867 354.88987541 C-21.72845653 359.29140857 -21.7141877 363.69291025 -21.70483398 368.09448242 C-21.69387072 372.60289988 -21.65960537 377.1108098 -21.61966228 381.61905003 C-21.59324229 385.11367071 -21.58511904 388.60817639 -21.58155251 392.10288811 C-21.57673691 393.76155897 -21.56527022 395.42022649 -21.54651451 397.07879829 C-21.32433507 418.06257751 -26.14496471 436.38728903 -41 452 C-52.57049443 463.18312708 -66.70445031 471.10788645 -82 476 C-82.845625 476.27054199 -83.69125 476.54108398 -84.5625 476.81982422 C-150.91621666 497.70347165 -239.62790466 500.47243466 -303.0625 468.875 C-322.73494208 458.58417958 -339.18851108 443.08868111 -346.28881836 421.69897461 C-348.91434442 413.30460356 -350.0643517 405.22118545 -350.31640625 396.4375 C-350.33727798 395.71495529 -350.35814972 394.99241058 -350.37965393 394.24797058 C-350.44645862 391.83209263 -350.50547582 389.41612791 -350.5625 387 C-350.58334656 386.14354889 -350.60419312 385.28709778 -350.62567139 384.4046936 C-351.45411965 349.31547592 -351.1805147 314.20246951 -350.68060303 279.10977173 C-350.64364732 276.46135378 -350.60965277 273.8128928 -350.57867432 271.16439819 C-350.53390109 267.4869678 -350.47603494 263.80998807 -350.4140625 260.1328125 C-350.40250122 259.03041733 -350.39093994 257.92802216 -350.37902832 256.79222107 C-350.3591687 255.78973831 -350.33930908 254.78725555 -350.31884766 253.75439453 C-350.30552399 252.87961456 -350.29220032 252.00483459 -350.2784729 251.10354614 C-350 249 -350 249 -348 247 C-347.99668985 247.79199893 -347.99337971 248.58399786 -347.98996925 249.39999676 C-347.90857267 268.71541474 -347.81642632 288.03075446 -347.71247292 307.34606457 C-347.66245715 316.68699207 -347.61601341 326.02791127 -347.578125 335.36889648 C-347.54507311 343.5152139 -347.50517007 351.66146479 -347.45720994 359.80770856 C-347.43207548 364.11678423 -347.41025648 368.42581651 -347.39665604 372.7349453 C-347.38371617 376.8003662 -347.36153661 380.86563733 -347.33261681 384.93097496 C-347.3236333 386.41388823 -347.31787272 387.89682555 -347.31578636 389.37976456 C-347.29612121 401.24642858 -346.71107426 413.03548542 -342.3125 424.1875 C-342.05122314 424.86184082 -341.78994629 425.53618164 -341.52075195 426.23095703 C-339.1349234 432.12319851 -336.05980338 437.09649263 -332 442 C-331.33226562 442.82886719 -330.66453125 443.65773438 -329.9765625 444.51171875 C-316.95801695 459.85668309 -299.72814501 468.19607679 -280.99438477 474.32275391 C-278.90173741 475.03336766 -276.84370944 475.81179038 -274.78125 476.60546875 C-272.01340944 477.6543382 -269.36076981 478.48317882 -266.4375 479 C-263.53823207 479.53153245 -260.64982103 480.07401126 -257.765625 480.68359375 C-250.45724439 482.22345997 -243.13553857 483.51946243 -235.75 484.625 C-234.9664917 484.7480249 -234.1829834 484.8710498 -233.37573242 484.99780273 C-217.91159824 487.22718592 -202.14049915 487.18663408 -186.54907227 487.18530273 C-183.69988059 487.18749049 -180.85107708 487.20575074 -178.00195312 487.22460938 C-159.48272335 487.28250777 -141.22377668 485.63515251 -122.9375 482.75 C-122.26199097 482.64362213 -121.58648193 482.53724426 -120.89050293 482.42764282 C-91.66153998 477.76802122 -58.37357397 468.39333433 -38.29296875 445.16796875 C-26.45188697 428.80831403 -24.90060354 412.09441445 -24.68359375 392.4921875 C-24.66298034 390.91463735 -24.64198286 389.33709219 -24.62062073 387.759552 C-24.56585244 383.63989331 -24.51624682 379.52018859 -24.46777344 375.40045166 C-24.41722454 371.18359357 -24.36171411 366.96680099 -24.30664062 362.75 C-24.19961387 354.50005565 -24.09804959 346.25005591 -24 338 C-25.24186097 338.00138269 -25.24186097 338.00138269 -26.50881004 338.00279331 C-46.62978941 338.02485301 -66.7507667 338.04141374 -86.8717556 338.05181217 C-96.60200814 338.0569741 -106.33225263 338.06401484 -116.0625 338.07543945 C-124.54083913 338.08538944 -133.01917242 338.09185418 -141.49751723 338.09408849 C-145.9890176 338.09539506 -150.48050127 338.09847755 -154.97199631 338.10573006 C-159.1957212 338.11249522 -163.41942244 338.11461594 -167.64315224 338.11310768 C-169.1968187 338.11338378 -170.75048592 338.11538598 -172.30414772 338.11920547 C-174.41856407 338.12415045 -176.53289009 338.12299529 -178.64730835 338.12025452 C-180.42544702 338.12163721 -180.42544702 338.12163721 -182.23950768 338.12304783 C-185 338 -185 338 -187 337 C-187 329.41 -187 321.82 -187 314 C-182.54438065 313.99453156 -182.54438065 313.99453156 -177.99874878 313.98895264 C-150.67160894 313.95357164 -123.34456334 313.89841648 -96.01751011 313.82207905 C-92.42573631 313.81206326 -88.83396206 313.80221885 -85.2421875 313.79248047 C-84.52722017 313.7905391 -83.81225284 313.78859772 -83.07561983 313.78659752 C-71.54450386 313.75569407 -60.01340771 313.73862961 -48.48225819 313.72680578 C-36.62374578 313.71433345 -24.76533637 313.68669645 -12.90688908 313.64538693 C-6.25733271 313.62264716 0.39211337 313.60708373 7.04172134 313.60811615 C13.31757732 313.60886827 19.59311074 313.59069811 25.86888313 313.55883217 C28.15590884 313.55040611 30.44297105 313.54853273 32.73000526 313.55419731 C43.94583188 313.57824802 54.82942496 313.19095142 65.89425659 311.2354126 C66.7625979 311.08319362 67.6309392 310.93097465 68.52559388 310.77414298 C81.5655446 308.20178305 94.13232689 301.89224795 104 293 C104.99 292.2575 105.98 291.515 107 290.75 C113.63438787 285.15339347 119.06673644 277.69551566 123 270 C123.66 270 124.32 270 125 270 C125.27199219 269.13117188 125.54398438 268.26234375 125.82421875 267.3671875 C126.95264208 264.135623 128.30221199 261.19339517 129.8125 258.125 C133.021161 251.2470673 135.36160521 244.28103748 137.43408203 236.98681641 C137.95831162 235.14635895 138.50740112 233.31303171 139.05859375 231.48046875 C140.21039518 227.34384337 141.15730864 223.20935412 142 219 C142.277229 217.61699707 142.277229 217.61699707 142.56005859 216.20605469 C145.95580989 198.20080947 146.35418569 180.40449705 146.3125 162.125 C146.30881409 160.43945007 146.30881409 160.43945007 146.30505371 158.71984863 C146.23986235 142.03025179 146.0298736 125.44348603 143.3125 108.9375 C143.13879883 107.88022705 142.96509766 106.8229541 142.78613281 105.73364258 C139.01121344 83.75634984 133.46271222 60.22882184 120 42 C119.47019531 41.25105469 118.94039062 40.50210938 118.39453125 39.73046875 C104.51362292 20.90386861 85.1318178 8.11662182 62 4 C57.05340208 3.57981894 52.1307016 3.51288138 47.16796875 3.48828125 C45.79647778 3.47138221 44.42500179 3.45322524 43.05354309 3.43388367 C39.49124851 3.38694294 35.92901465 3.35677589 32.36651611 3.33044434 C28.71232094 3.30035181 25.0583343 3.25392244 21.40429688 3.20898438 C14.26965172 3.1235904 7.13494182 3.05596579 0 3 C0 2.01 0 1.02 0 0 Z " fill="#FDD046" transform="translate(695,337)"/>
<path d="M0 0 C7.2733251 -0.05121855 14.54660273 -0.08594842 21.82006836 -0.10986328 C24.288185 -0.11984588 26.75629004 -0.13343668 29.22436523 -0.15087891 C62.11630419 -0.37730651 87.74103948 4.44349113 112.25 27.8125 C127.80944427 44.00137163 143 72.10797893 143 95 C143.66 95.33 144.32 95.66 145 96 C145.5625 98.9296875 145.5625 98.9296875 146 102.875 C146.08048584 103.585354 146.16097168 104.29570801 146.24389648 105.02758789 C146.41546821 106.55811397 146.58253533 108.08915026 146.74560547 109.62060547 C146.99774538 111.97891219 147.26506521 114.33509477 147.53515625 116.69140625 C153.68554172 171.29441561 153.50614495 237.23946803 118.21875 282.62109375 C109.60723879 293.33703494 100.06050254 301.34126062 87.6875 307.375 C87.06141846 307.6848584 86.43533691 307.9947168 85.7902832 308.31396484 C70.32956798 315.36756819 54.98839689 315.56226286 38.32617188 315.45410156 C35.87064126 315.45297127 33.4151093 315.45361049 30.95957947 315.45587158 C25.70448611 315.45677719 20.44957283 315.4455648 15.1945343 315.42292023 C7.59695592 315.39020296 -0.00052678 315.37997323 -7.59816796 315.37496826 C-19.9292697 315.36624626 -32.2602647 315.33971543 -44.59130859 315.30175781 C-56.55907666 315.26495709 -68.52681557 315.23668497 -80.49462891 315.21972656 C-81.60396639 315.21815022 -81.60396639 315.21815022 -82.73571473 315.21654204 C-86.44641814 315.21132132 -90.15712176 315.20626662 -93.86782551 315.20129442 C-124.57862905 315.15992893 -155.28929383 315.08845319 -186 315 C-186 321.93 -186 328.86 -186 336 C-132.54 336 -79.08 336 -24 336 C-24 336.66 -24 337.32 -24 338 C-44.95724913 338.02333383 -65.91449613 338.04098156 -86.8717556 338.05181217 C-96.60200814 338.0569741 -106.33225263 338.06401484 -116.0625 338.07543945 C-124.54083913 338.08538944 -133.01917242 338.09185418 -141.49751723 338.09408849 C-145.9890176 338.09539506 -150.48050127 338.09847755 -154.97199631 338.10573006 C-159.1957212 338.11249522 -163.41942244 338.11461594 -167.64315224 338.11310768 C-169.1968187 338.11338378 -170.75048592 338.11538598 -172.30414772 338.11920547 C-174.41856407 338.12415045 -176.53289009 338.12299529 -178.64730835 338.12025452 C-179.83273413 338.12117631 -181.0181599 338.1220981 -182.23950768 338.12304783 C-185 338 -185 338 -187 337 C-187 329.41 -187 321.82 -187 314 C-182.54438065 313.99453156 -182.54438065 313.99453156 -177.99874878 313.98895264 C-150.67160894 313.95357164 -123.34456334 313.89841648 -96.01751011 313.82207905 C-92.42573631 313.81206326 -88.83396206 313.80221885 -85.2421875 313.79248047 C-84.52722017 313.7905391 -83.81225284 313.78859772 -83.07561983 313.78659752 C-71.54450386 313.75569407 -60.01340771 313.73862961 -48.48225819 313.72680578 C-36.62374578 313.71433345 -24.76533637 313.68669645 -12.90688908 313.64538693 C-6.25733271 313.62264716 0.39211337 313.60708373 7.04172134 313.60811615 C13.31757732 313.60886827 19.59311074 313.59069811 25.86888313 313.55883217 C28.15590884 313.55040611 30.44297105 313.54853273 32.73000526 313.55419731 C43.94583188 313.57824802 54.82942496 313.19095142 65.89425659 311.2354126 C66.7625979 311.08319362 67.6309392 310.93097465 68.52559388 310.77414298 C81.5655446 308.20178305 94.13232689 301.89224795 104 293 C104.99 292.2575 105.98 291.515 107 290.75 C113.63438787 285.15339347 119.06673644 277.69551566 123 270 C123.66 270 124.32 270 125 270 C125.27199219 269.13117188 125.54398438 268.26234375 125.82421875 267.3671875 C126.95264208 264.135623 128.30221199 261.19339517 129.8125 258.125 C133.021161 251.2470673 135.36160521 244.28103748 137.43408203 236.98681641 C137.95831162 235.14635895 138.50740112 233.31303171 139.05859375 231.48046875 C140.21039518 227.34384337 141.15730864 223.20935412 142 219 C142.277229 217.61699707 142.277229 217.61699707 142.56005859 216.20605469 C145.95580989 198.20080947 146.35418569 180.40449705 146.3125 162.125 C146.30881409 160.43945007 146.30881409 160.43945007 146.30505371 158.71984863 C146.23986235 142.03025179 146.0298736 125.44348603 143.3125 108.9375 C143.13879883 107.88022705 142.96509766 106.8229541 142.78613281 105.73364258 C139.01121344 83.75634984 133.46271222 60.22882184 120 42 C119.47019531 41.25105469 118.94039062 40.50210938 118.39453125 39.73046875 C104.51362292 20.90386861 85.1318178 8.11662182 62 4 C57.05340208 3.57981894 52.1307016 3.51288138 47.16796875 3.48828125 C45.79647778 3.47138221 44.42500179 3.45322524 43.05354309 3.43388367 C39.49124851 3.38694294 35.92901465 3.35677589 32.36651611 3.33044434 C28.71232094 3.30035181 25.0583343 3.25392244 21.40429688 3.20898438 C14.26965172 3.1235904 7.13494182 3.05596579 0 3 C0 2.01 0 1.02 0 0 Z " fill="#FDC839" transform="translate(695,337)"/>
<path d="M0 0 C2.30495003 -0.00160803 4.60988993 -0.00515404 6.91483688 -0.00918579 C10.51789428 -0.01502093 14.12090932 -0.01528658 17.72396851 -0.01093674 C19.61795431 -0.00950191 21.51194192 -0.01235858 23.40592575 -0.01544189 C31.14746952 0.00554673 38.79630904 0.42368202 46.50593185 1.12338257 C46.50593185 1.45338257 46.50593185 1.78338257 46.50593185 2.12338257 C42.34290239 3.13070269 38.32947411 3.26172351 34.07116318 3.24363708 C32.96219585 3.24491872 32.96219585 3.24491872 31.83082515 3.24622625 C29.35881442 3.24787057 26.88687186 3.24237686 24.4148674 3.23690796 C22.64075344 3.23662584 20.86663937 3.23678431 19.09252548 3.23735046 C14.27891527 3.23763745 9.46532996 3.23175655 4.65172553 3.22477651 C-0.37979649 3.21852666 -5.41131908 3.21793788 -10.44284439 3.2167511 C-19.96957859 3.2136426 -29.49630131 3.20543569 -39.02303046 3.19540161 C-49.86937138 3.18422554 -60.71571285 3.17872625 -71.56205809 3.17370617 C-93.87273447 3.16325269 -116.18340067 3.14566254 -138.49406815 3.12338257 C-138.16406815 2.46338257 -137.83406815 1.80338257 -137.49406815 1.12338257 C-43.63083599 0.01989715 -43.63083599 0.01989715 0 0 Z " fill="#FACF49" transform="translate(569.494068145752,503.8766174316406)"/>
<path d="M0 0 C0.33 0 0.66 0 1 0 C1.02312312 10.80458085 1.04091493 21.60915586 1.05181217 32.41375637 C1.05704107 37.4302247 1.06413883 42.44667615 1.07543945 47.46313477 C1.0862681 52.30009694 1.09227679 57.13704284 1.09487724 61.97401619 C1.09673153 63.82368285 1.10035222 65.67334857 1.10573006 67.52300835 C1.1129402 70.10447014 1.11399095 72.68586382 1.11352539 75.26733398 C1.11712067 76.03985001 1.12071594 76.81236603 1.12442017 77.60829163 C1.11405216 82.88594784 1.11405216 82.88594784 0 84 C-1.46972547 84.10357804 -2.94436933 84.13851134 -4.41772461 84.14526367 C-5.83202003 84.15483345 -5.83202003 84.15483345 -7.27488708 84.16459656 C-8.30694778 84.16570938 -9.33900848 84.1668222 -10.40234375 84.16796875 C-11.46804092 84.17129715 -12.5337381 84.17462555 -13.63172913 84.17805481 C-15.90413989 84.18313586 -18.17655817 84.18546277 -20.44897461 84.18530273 C-23.86390323 84.18745364 -27.27848958 84.20549583 -30.69335938 84.22460938 C-40.68979449 84.25101557 -50.61782809 84.17335436 -60.56640625 83.11328125 C-61.31623276 83.03554977 -62.06605927 82.9578183 -62.83860779 82.87773132 C-64.57068943 82.66444474 -66.28898379 82.34354259 -68 82 C-68.33 81.34 -68.66 80.68 -69 80 C-35.34 80.495 -35.34 80.495 -1 81 C-0.67 54.27 -0.34 27.54 0 0 Z " fill="#648FA5" transform="translate(328,576)"/>
<path d="M0 0 C1.21558594 0.12213867 2.43117188 0.24427734 3.68359375 0.37011719 C11.92383264 1.29883264 11.92383264 1.29883264 14.1875 3.5625 C12.00007121 3.58980494 9.81254093 3.60903255 7.625 3.625 C6.40683594 3.63660156 5.18867187 3.64820313 3.93359375 3.66015625 C0.26372482 3.56448709 -3.18601691 3.11050189 -6.8125 2.5625 C-19.76205689 1.41614578 -32.73382911 1.51723374 -45.72091675 1.57247925 C-59.77488876 1.62825696 -73.77382128 1.27236326 -87.8125 0.5625 C-84.53482492 -1.62261672 -83.37353598 -1.73467673 -79.546875 -1.88671875 C-78.44923828 -1.93086914 -77.35160156 -1.97501953 -76.22070312 -2.02050781 C-74.40989258 -2.07223145 -74.40989258 -2.07223145 -72.5625 -2.125 C-71.29341797 -2.16334961 -70.02433594 -2.20169922 -68.71679688 -2.24121094 C-45.81284934 -2.83927701 -22.80042517 -2.301966 0 0 Z " fill="#3380BD" transform="translate(558.8125,172.4375)"/>
<path d="M0 0 C0.99 0.33 1.98 0.66 3 1 C3.0254003 8.84707954 3.04288807 16.69414844 3.05493164 24.54125977 C3.05938761 27.20957367 3.0667724 29.87783373 3.07543945 32.54614258 C3.08759844 36.38623736 3.09324974 40.22629569 3.09765625 44.06640625 C3.10281754 45.25520889 3.10797882 46.44401154 3.11329651 47.6688385 C3.11367072 53.22097445 3.00304311 58.53358856 2 64 C1.34 64 0.68 64 0 64 C-1.10481238 60.68556286 -1.12935958 58.21746664 -1.1328125 54.7265625 C-1.13474609 53.43943359 -1.13667969 52.15230469 -1.13867188 50.82617188 C-1.1345555 49.42577988 -1.12998817 48.02538916 -1.125 46.625 C-1.12411377 45.92157471 -1.12322754 45.21814941 -1.12231445 44.4934082 C-1.10045634 29.6483864 -0.63197376 14.83121399 0 0 Z " fill="#5584A4" transform="translate(673,344)"/>
<path d="M0 0 C0.495 0.99 0.495 0.99 1 2 C-0.38549637 6.11220383 -2.22782073 10.04130095 -4 14 C-4.48533203 15.11568359 -4.48533203 15.11568359 -4.98046875 16.25390625 C-7.14970591 20.94286867 -10.01416013 24.80317861 -13.2578125 28.8125 C-14.87490254 30.84292695 -16.35146819 32.91850065 -17.8125 35.0625 C-18.534375 36.031875 -19.25625 37.00125 -20 38 C-20.66 38 -21.32 38 -22 38 C-22 38.66 -22 39.32 -22 40 C-34.64792967 52.21703827 -49.69365153 60.14689266 -67 63 C-64.81708511 60.54507613 -63.04745918 59.44206578 -59.9375 58.421875 C-58.75015259 58.01702881 -58.75015259 58.01702881 -57.53881836 57.60400391 C-56.28210327 57.18127197 -56.28210327 57.18127197 -55 56.75 C-33.77741594 49.2352877 -17.61951315 33.77826357 -7 14 C-5.56970418 10.81632122 -4.24404197 7.62675415 -3.0078125 4.36328125 C-2 2 -2 2 0 0 Z " fill="#FBD046" transform="translate(686,442)"/>
<path d="M0 0 C6.76717725 5.45944881 10.66474242 11.85767284 11.76953125 20.4921875 C12.52263196 27.71510797 12.90294754 33.79687486 8.70703125 39.9921875 C3.90693345 45.87617835 -0.66485155 50.64691501 -8.23046875 52.4921875 C-6.34753141 50.53079444 -4.4581826 48.67230542 -2.32421875 46.984375 C4.53689861 41.4801204 7.51719624 35.9816261 8.58203125 27.2421875 C8.81099966 23.80233643 8.75064645 20.82797917 7.76953125 17.4921875 C7.64449219 16.87988281 7.51945313 16.26757812 7.390625 15.63671875 C5.74737417 9.96285267 1.87468948 4.86367972 -2.98046875 1.5546875 C-10.86283358 -2.78285671 -19.44501434 -2.80845543 -28.23046875 -2.5078125 C-27.90046875 -3.1678125 -27.57046875 -3.8278125 -27.23046875 -4.5078125 C-17.75580103 -7.56415692 -8.07587766 -5.45934987 0 0 Z " fill="#FECD3D" transform="translate(625.23046875,718.5078125)"/>
<path d="M0 0 C2.8228938 2.8228938 2.28249458 4.68559821 2.3347168 8.64257812 C2.34636871 9.32596756 2.35802063 10.00935699 2.37002563 10.7134552 C2.40615778 12.98602862 2.42795033 15.25849239 2.44921875 17.53125 C2.4704938 19.12195751 2.49246207 20.71265589 2.51509094 22.30334473 C2.5606014 25.65254512 2.5993328 29.00173483 2.63305664 32.35107422 C2.67603844 36.5913087 2.73282256 40.83120751 2.7946043 45.07120514 C2.84146973 48.36768286 2.88195827 51.66421637 2.92057228 54.96080017 C2.93931749 56.52011613 2.9596196 58.07941434 2.98166466 59.63868713 C3.13326308 70.80114459 2.74061864 81.86135806 2 93 C1.34 93 0.68 93 0 93 C0 62.31 0 31.62 0 0 Z " fill="#3074AB" transform="translate(673,251)"/>
<path d="M0 0 C0.66 0.33 1.32 0.66 2 1 C1.40832031 1.46148438 0.81664062 1.92296875 0.20703125 2.3984375 C-9.15700416 10.12796755 -12.48349088 18.09427167 -14 30 C-13.34 30.33 -12.68 30.66 -12 31 C-11.87625 32.216875 -11.7525 33.43375 -11.625 34.6875 C-10.90228122 41.44492062 -6.8791693 45.62060617 -1.81640625 49.80859375 C0.70381934 51.46164494 3.02081024 51.85467367 6 52 C6 52.33 6 52.66 6 53 C10.95 53.66 15.9 54.32 21 55 C20.505 55.99 20.505 55.99 20 57 C10.34709362 57.44099572 2.56456117 57.15087228 -5.1875 50.9375 C-10.74419048 45.69198419 -15.66673977 38.83161544 -16 31 C-16.06058594 30.34773437 -16.12117187 29.69546875 -16.18359375 29.0234375 C-16.70133698 20.14335663 -13.76345922 12.63644607 -8 5.9375 C-5.55125964 3.2926691 -3.41601479 1.25965545 0 0 Z " fill="#FECB3A" transform="translate(594,716)"/>
<path d="M0 0 C0.33 0 0.66 0 1 0 C1 22.11 1 44.22 1 67 C-1.4040367 63.39394494 -1.45007378 60.56223907 -1.625 56.375 C-1.66222168 55.59447266 -1.69944336 54.81394531 -1.73779297 54.00976562 C-2.34566202 39.56657297 -2.33436204 25.06090621 -1.5625 10.625 C-1.52334473 9.88830078 -1.48418945 9.15160156 -1.44384766 8.39257812 C-1.25617097 5.38687481 -0.95752801 2.87258404 0 0 Z " fill="#3781BC" transform="translate(178,464)"/>
<path d="M0 0 C1.19081177 0.00960754 2.38162354 0.01921509 3.60852051 0.02911377 C6.86017782 0.05637077 10.1117492 0.08827155 13.36334181 0.12226367 C16.7665784 0.15673424 20.16986497 0.18523122 23.57315063 0.21437073 C30.01161719 0.27040114 36.45002114 0.33177832 42.88841975 0.39509207 C50.22090992 0.46693659 57.55345005 0.53279682 64.88600039 0.59816253 C79.96394146 0.73270786 95.0418036 0.87474184 110.11962891 1.02172852 C110.11962891 1.35172852 110.11962891 1.68172852 110.11962891 2.02172852 C78.86583419 2.82955328 47.63235534 3.11498756 16.36962891 3.08422852 C15.49338993 3.0833725 14.61715096 3.08251648 13.71435928 3.08163452 C2.84942817 3.07023272 -8.01547134 3.05013997 -18.88037109 3.02172852 C-18.55037109 2.36172852 -18.22037109 1.70172852 -17.88037109 1.02172852 C-12.0855067 -0.53601147 -5.94972223 -0.06882051 0 0 Z " fill="#3C85BD" transform="translate(278.88037109375,340.978271484375)"/>
<path d="M0 0 C2.81235091 2.45052798 4.08003904 5.00499744 5.625 8.375 C13.30676139 24.07993439 24.28601893 36.31971777 38 47 C39.66801443 48.33164688 41.33508762 49.66447676 43 51 C31.62212688 49.32388351 20.41904494 35.96707544 13.58984375 27.18701172 C0 8.19967269 0 8.19967269 0 0 Z " fill="#2E75AF" transform="translate(193,596)"/>
<path d="M0 0 C0.33 0 0.66 0 1 0 C1.10022461 0.72888428 1.20044922 1.45776855 1.30371094 2.20874023 C3.87449951 20.71288 6.72407454 38.43778775 13.14453125 56.0234375 C14 59 14 59 13 62 C9.20167567 55.19815488 7.26359794 48.34600018 5.375 40.8125 C5.0759375 39.66974609 4.776875 38.52699219 4.46875 37.34960938 C1.84840231 27.09431057 -0.3396568 16.81301142 -0.125 6.1875 C-0.10695312 5.00542969 -0.08890625 3.82335937 -0.0703125 2.60546875 C-0.04710937 1.74566406 -0.02390625 0.88585937 0 0 Z " fill="#2D78B4" transform="translate(179,533)"/>
<path d="M0 0 C0.66 0.33 1.32 0.66 2 1 C-5.62635678 9.87430607 -15.61752419 15.35000132 -26.375 19.5625 C-27.35521118 19.95804077 -27.35521118 19.95804077 -28.35522461 20.36157227 C-32.92582937 22.04100919 -36.27142951 22.02024712 -41 21 C-41 20.67 -41 20.34 -41 20 C-40.39526855 19.83395264 -39.79053711 19.66790527 -39.16748047 19.49682617 C-36.40151024 18.73344381 -33.63828017 17.96056052 -30.875 17.1875 C-29.44800781 16.79594727 -29.44800781 16.79594727 -27.9921875 16.39648438 C-23.06782611 15.01150773 -18.42455637 13.64748045 -14 11 C-13.67 10.34 -13.34 9.68 -13 9 C-10.4375 8.375 -10.4375 8.375 -8 8 C-7.9071875 7.071875 -7.9071875 7.071875 -7.8125 6.125 C-7 4 -7 4 -4.5625 2.875 C-3.716875 2.58625 -2.87125 2.2975 -2 2 C-1.34 1.34 -0.68 0.68 0 0 Z " fill="#497DA4" transform="translate(647,463)"/>
<path d="M0 0 C2.27568935 2.11173479 3.78685155 4.18021202 5.3125 6.875 C9.10787141 13.01291519 13.68367346 16.47937782 20.578125 18.4921875 C27.96544167 20.04114099 33.52386953 19.31144777 40.1875 15.77734375 C40.785625 15.52082031 41.38375 15.26429688 42 15 C42.66 15.33 43.32 15.66 44 16 C37.61669986 20.67070742 31.05037364 23.1118523 23 22 C13.81991163 19.75866264 6.52478069 15.47120315 1.5 7.3125 C0 4 0 4 0 0 Z " fill="#3280BF" transform="translate(383,260)"/>
<path d="M0 0 C0.33 0 0.66 0 1 0 C1.19765513 5.57140409 0.727328 10.29231852 -1 15.625 C-1.22002686 16.31158691 -1.44005371 16.99817383 -1.66674805 17.70556641 C-5.54729769 29.14588467 -12.11424312 38.89782318 -20 48 C-20.495 46.515 -20.495 46.515 -21 45 C-19.33984375 42.50390625 -19.33984375 42.50390625 -16.9375 39.5625 C-10.97336065 31.99598513 -4 22.03136519 -4 12 C-3.34 12 -2.68 12 -2 12 C-1.34 8.04 -0.68 4.08 0 0 Z " fill="#487CA3" transform="translate(672,414)"/>
<path d="M0 0 C6.43069154 2.61991137 10.16803639 7.89352483 13.046875 13.98828125 C15.3924222 21.3998259 15.25618613 29.89849183 12.3125 37.125 C10.40282976 40.74584429 8.09099705 43.33830809 5 46 C5.6393286 42.75191676 6.86993367 40.45076601 8.5625 37.625 C12.33859586 30.22604115 12.41780196 21.4513133 9.875 13.5625 C7.84341281 9.05218203 4.48970697 4.24485349 0 2 C0 1.34 0 0.68 0 0 Z " fill="#3C85BF" transform="translate(424,228)"/>
<path d="M0 0 C0.33 0.99 0.66 1.98 1 3 C-0.1875 5.171875 -0.1875 5.171875 -2 7.75 C-9.65770914 19.35859891 -14.20971838 31.70781422 -18 45 C-18.66 45 -19.32 45 -20 45 C-19.42720761 39.93599457 -18.31723025 35.3983948 -16.5 30.625 C-16.24299316 29.94526123 -15.98598633 29.26552246 -15.72119141 28.56518555 C-13.59597299 23.14197967 -11.08998709 17.9631222 -8.375 12.8125 C-8.00310547 12.10625488 -7.63121094 11.40000977 -7.24804688 10.67236328 C-5.14505358 6.79415229 -2.88771343 3.36464348 0 0 Z " fill="#437CA7" transform="translate(349,521)"/>
<path d="M0 0 C-1.03898437 0.61746094 -2.07796875 1.23492188 -3.1484375 1.87109375 C-15.20303185 9.14466923 -24.86924297 17.21142396 -34 28 C-34.33 27.01 -34.66 26.02 -35 25 C-10.41961735 -3.35751001 -10.41961735 -3.35751001 0 0 Z " fill="#FBD34C" transform="translate(398,516)"/>
<path d="M0 0 C-1.03898437 0.49628906 -2.07796875 0.99257812 -3.1484375 1.50390625 C-16.89627465 8.16157042 -29.47297227 15.79349572 -39 28 C-39.33 27.34 -39.66 26.68 -40 26 C-33.60141825 16.57589077 -12.7995218 -5.0098367 0 0 Z " fill="#2E7DBD" transform="translate(397,188)"/>
<path d="M0 0 C0.99 0.33 1.98 0.66 3 1 C2.39414063 1.49886719 1.78828125 1.99773437 1.1640625 2.51171875 C-10.24546135 12.28880304 -17.94968687 23.86436074 -25 37 C-26.03813802 34.31084729 -26.08897164 33.23219429 -25.0390625 30.4921875 C-24.57242188 29.62851562 -24.10578125 28.76484375 -23.625 27.875 C-23.16351563 27.00617188 -22.70203125 26.13734375 -22.2265625 25.2421875 C-21.82179687 24.50226563 -21.41703125 23.76234375 -21 23 C-20.67 22.34 -20.34 21.68 -20 21 C-18.84564525 19.87959686 -17.69104552 18.75944494 -16.53515625 17.640625 C-13.95959739 14.88811935 -11.78251768 11.82634886 -9.55078125 8.79296875 C-9.03902344 8.20128906 -8.52726562 7.60960937 -8 7 C-7.34 7 -6.68 7 -6 7 C-6 6.34 -6 5.68 -6 5 C-3.1875 2.3125 -3.1875 2.3125 0 0 Z " fill="#307DBC" transform="translate(221,362)"/>
<path d="M0 0 C4.4952649 0.61532143 8.1719599 2.37917706 12.125 4.5 C12.78153564 4.85094727 13.43807129 5.20189453 14.11450195 5.56347656 C22.01921658 9.92987204 28.68454409 15.55387948 35 22 C34.505 23.485 34.505 23.485 34 25 C32.5 23.625 32.5 23.625 31 22 C31 21.34 31 20.68 31 20 C30.44957031 19.75507813 29.89914062 19.51015625 29.33203125 19.2578125 C26.51588205 17.73888445 24.19387159 15.86484411 21.6875 13.875 C14.89207365 8.69233244 7.62297063 4.82189921 0 1 C0 0.67 0 0.34 0 0 Z " fill="#317AB6" transform="translate(620,188)"/>
<path d="M0 0 C0.99 0.33 1.98 0.66 3 1 C2.22554348 15.69429348 2.22554348 15.69429348 0 22 C-0.54312601 23.64535233 -1.08473062 25.29120746 -1.625 26.9375 C-2.08183463 28.292173 -2.53963371 29.64652311 -3 31 C-3.33 31 -3.66 31 -4 31 C-3.35465725 23.92335032 -2.46929362 16.90501966 -1.4375 9.875 C-1.29892578 8.91851562 -1.16035156 7.96203125 -1.01757812 6.9765625 C-0.68033541 4.65075065 -0.3411174 2.32524616 0 0 Z " fill="#F9D351" transform="translate(691,410)"/>
<path d="M0 0 C-3.36974814 2.09848936 -6.73899154 3.84869974 -10.375 5.4375 C-13.71907769 6.92025143 -16.88453517 8.45932056 -20 10.375 C-20.99 10.91125 -21.98 11.4475 -23 12 C-23.99 11.67 -24.98 11.34 -26 11 C-20.90379154 6.5408176 -15.90692867 3.91962547 -9.625 1.5625 C-8.91085937 1.29163574 -8.19671875 1.02077148 -7.4609375 0.74169922 C-2.26345257 -1.13172629 -2.26345257 -1.13172629 0 0 Z " fill="#447CA8" transform="translate(395,491)"/>
<path d="M0 0 C0.99 0.33 1.98 0.66 3 1 C2.45730469 1.92941406 1.91460937 2.85882812 1.35546875 3.81640625 C0.63260718 5.06498532 -0.09003747 6.31368999 -0.8125 7.5625 C-1.16892578 8.17158203 -1.52535156 8.78066406 -1.89257812 9.40820312 C-4.25481767 13.50419646 -6.21357155 17.62127791 -8 22 C-8.33 22 -8.66 22 -9 22 C-8.6293054 13.84471889 -4.45762679 6.68644019 0 0 Z " fill="#FBD148" transform="translate(360,545)"/>
<path d="M0 0 C0.66 0.33 1.32 0.66 2 1 C1.68546875 1.55945313 1.3709375 2.11890625 1.046875 2.6953125 C-2.77553422 9.85657314 -4.97754809 17.15876188 -7 25 C-7.33 25 -7.66 25 -8 25 C-8.89911194 15.64923581 -4.86601367 7.80559965 0 0 Z " fill="#2B7DBF" transform="translate(355,217)"/>
<path d="M0 0 C4.25423924 2.99730492 6.75475635 6.32585997 9.25 10.8125 C9.600625 11.40353516 9.95125 11.99457031 10.3125 12.60351562 C12.71032866 16.83199424 13.58628835 20.2484 14 25 C10.69943633 21.69943633 9.08910271 17.21284885 7.09765625 13.02929688 C5.09542218 8.91443941 2.92732237 5.55085517 0 2 C0 1.34 0 0.68 0 0 Z " fill="#3279B1" transform="translate(656,213)"/>
<path d="M0 0 C6.93 0.33 13.86 0.66 21 1 C21 1.66 21 2.32 21 3 C18.62468606 3.0543965 16.25064117 3.09385864 13.875 3.125 C13.20984375 3.14175781 12.5446875 3.15851562 11.859375 3.17578125 C7.50483944 3.21847278 4.04399886 2.59996217 0 1 C0 0.67 0 0.34 0 0 Z " fill="#3B7AAD" transform="translate(259,656)"/>
<path d="M0 0 C0.33 0 0.66 0 1 0 C1.55214302 8.20545877 1.03295588 15.12160861 -4.37890625 21.66796875 C-5.75 23.0625 -5.75 23.0625 -8 25 C-7.34678591 21.77796647 -6.15346554 19.30312636 -4.5625 16.4375 C-1.81093323 11.10136908 -0.75403382 5.91972817 0 0 Z " fill="#2878BB" transform="translate(437,249)"/>
<path d="M0 0 C0 0.66 0 1.32 0 2 C-6.43028541 3.32388229 -12.4294834 4.24794402 -19 4 C-18 2 -18 2 -16.25 1.3671875 C-10.71230879 0.15581755 -5.66808602 -0.17993924 0 0 Z " fill="#3081BF" transform="translate(436,177)"/>
<path d="M0 0 C-2.89071404 2.38885397 -5.40293895 3.65115162 -9 4.6875 C-10.2684375 5.06455078 -10.2684375 5.06455078 -11.5625 5.44921875 C-14 6 -14 6 -18 6 C-18 5.34 -18 4.68 -18 4 C-15.94037148 3.32451422 -13.87715678 2.65995688 -11.8125 2 C-10.66394531 1.62875 -9.51539063 1.2575 -8.33203125 0.875 C-5.35679188 0.09369447 -3.04716104 -0.18363306 0 0 Z " fill="#2F7EBE" transform="translate(416,181)"/>
<path d="M0 0 C0 0.33 0 0.66 0 1 C-2.22907395 1.47959778 -4.45826297 1.9586608 -6.6875 2.4375 C-7.92886719 2.70433594 -9.17023438 2.97117187 -10.44921875 3.24609375 C-13.29612015 3.85055136 -16.14455626 4.43764684 -19 5 C-18.67 4.01 -18.34 3.02 -18 2 C-12.01992993 -0.60722778 -6.32197208 -1.54537095 0 0 Z " fill="#5587A7" transform="translate(413,487)"/>
<path d="M0 0 C-4.41345565 2.94230377 -7.53080168 4.14218048 -12.875 3.625 C-13.90625 3.41875 -14.9375 3.2125 -16 3 C-16 2.67 -16 2.34 -16 2 C-14.27507022 1.46530198 -12.544802 0.94780825 -10.8125 0.4375 C-9.36810547 0.00244141 -9.36810547 0.00244141 -7.89453125 -0.44140625 C-4.87247412 -1.02461026 -2.94070045 -0.81178385 0 0 Z " fill="#4F81A6" transform="translate(622,481)"/>
<path d="M0 0 C0.66 0 1.32 0 2 0 C0.07289294 11.52164009 0.07289294 11.52164009 -2 17 C-2.33 17 -2.66 17 -3 17 C-2.54775239 11.08507728 -1.8417395 5.64800112 0 0 Z " fill="#FBCD40" transform="translate(690,424)"/>
<path d="M0 0 C0.99 0.33 1.98 0.66 3 1 C2.40832031 1.35191406 1.81664062 1.70382813 1.20703125 2.06640625 C-4.23492856 5.46652144 -7.6172244 8.54391033 -11 14 C-11.33 13.34 -11.66 12.68 -12 12 C-8.54577867 6.95340714 -5.51636193 2.81947388 0 0 Z " fill="#2A7DBF" transform="translate(397,226)"/>
<path d="M0 0 C0.33 0 0.66 0 1 0 C0.67 5.61 0.34 11.22 0 17 C-2.69734626 12.95398061 -2.43218852 9.74576236 -2 5 C-1 1.9375 -1 1.9375 0 0 Z " fill="#297CBE" transform="translate(383,242)"/>
<path d="M0 0 C4.38894929 3.26720791 8.75259665 6.54898478 13 10 C8.77510398 9.46719784 6.45919284 8.12321801 3.1875 5.4375 C2.39730469 4.79683594 1.60710937 4.15617188 0.79296875 3.49609375 C0.20128906 3.00238281 -0.39039063 2.50867188 -1 2 C-0.67 1.34 -0.34 0.68 0 0 Z " fill="#3677AC" transform="translate(223,637)"/>
<path d="M0 0 C1.25127906 3.54667178 0.72285053 5.72253438 -0.4375 9.25 C-0.72496094 10.14203125 -1.01242187 11.0340625 -1.30859375 11.953125 C-1.53675781 12.62859375 -1.76492188 13.3040625 -2 14 C-2.33 14 -2.66 14 -3 14 C-3.28999065 5.44527596 -3.28999065 5.44527596 -1 1 C-0.67 0.67 -0.34 0.34 0 0 Z " fill="#FBD148" transform="translate(350,568)"/>
<path d="M0 0 C-1.93625098 0.98163422 -3.87404539 1.96022454 -5.8125 2.9375 C-7.43091797 3.75541016 -7.43091797 3.75541016 -9.08203125 4.58984375 C-12 6 -12 6 -15 7 C-14 4 -14 4 -11.85546875 2.578125 C-10.97503906 2.13984375 -10.09460938 1.7015625 -9.1875 1.25 C-8.31480469 0.80140625 -7.44210938 0.3528125 -6.54296875 -0.109375 C-3.80064256 -1.06982104 -2.6686569 -1.02018585 0 0 Z " fill="#307EBD" transform="translate(247,349)"/>
<path d="M0 0 C-1.5588334 3.82622743 -3.95433582 6.25147379 -7 9 C-7.99 9.33 -8.98 9.66 -10 10 C-8.50006099 6.10015857 -4.53875449 0 0 0 Z " fill="#467CA6" transform="translate(363,508)"/>
<path d="M0 0 C4.56749627 1.86083181 7.88579746 5.03688123 10.3125 9.3125 C10.6528125 10.1478125 10.6528125 10.1478125 11 11 C10.01 11.495 10.01 11.495 9 12 C8.60167969 11.44570312 8.20335937 10.89140625 7.79296875 10.3203125 C7.26316406 9.59585938 6.73335938 8.87140625 6.1875 8.125 C5.66542969 7.40570313 5.14335937 6.68640625 4.60546875 5.9453125 C2.96727223 3.76971345 2.96727223 3.76971345 0 2 C0 1.34 0 0.68 0 0 Z " fill="#317EBD" transform="translate(424,228)"/>
<path d="M0 0 C0.66 0.99 1.32 1.98 2 3 C-6.57142857 2.14285714 -6.57142857 2.14285714 -10 0 C-6.42030426 -1.23912545 -3.64409679 -0.95063395 0 0 Z " fill="#FDD146" transform="translate(434,817)"/>
<path d="M0 0 C0.80824219 0.10183594 1.61648438 0.20367187 2.44921875 0.30859375 C3.06410156 0.39238281 3.67898438 0.47617188 4.3125 0.5625 C4.3125 0.8925 4.3125 1.2225 4.3125 1.5625 C-2.1225 2.0575 -2.1225 2.0575 -8.6875 2.5625 C-6.80760684 -1.19728632 -3.63897564 -0.474649 0 0 Z " fill="#4089C1" transform="translate(403.6875,224.4375)"/>
<path d="M0 0 C0.66 0 1.32 0 2 0 C1.67 3.3 1.34 6.6 1 10 C-0.87376865 6.2524627 -1.3214079 4.96403081 -1 1 C-0.67 0.67 -0.34 0.34 0 0 Z " fill="#628AA1" transform="translate(673,408)"/>
<path d="M0 0 C0.33 0 0.66 0 1 0 C1.66 2.64 2.32 5.28 3 8 C2.01 8.66 1.02 9.32 0 10 C-1.2380014 6.42355152 -0.74926071 3.66305234 0 0 Z " fill="#FDD54A" transform="translate(634,745)"/>
<path d="M0 0 C0.7425 0.0825 1.485 0.165 2.25 0.25 C1.25 2.25 1.25 2.25 -0.59765625 2.8828125 C-1.32855469 3.04523437 -2.05945313 3.20765625 -2.8125 3.375 C-3.91271484 3.62636719 -3.91271484 3.62636719 -5.03515625 3.8828125 C-5.60105469 4.00398437 -6.16695313 4.12515625 -6.75 4.25 C-3.42692308 0.31153846 -3.42692308 0.31153846 0 0 Z " fill="#FBD14B" transform="translate(405.75,510.75)"/>
<path d="M0 0 C0.66 0.33 1.32 0.66 2 1 C0.02 2.98 -1.96 4.96 -4 7 C-4.99 6.67 -5.98 6.34 -7 6 C-4.69 4.02 -2.38 2.04 0 0 Z " fill="#4177A1" transform="translate(647,463)"/>
<path d="M0 0 C4 1 4 1 4 1 Z " fill="#6B90A0" transform="translate(267,660)"/>
<path d="M0 0 C4 1 4 1 4 1 Z " fill="#FEDA53" transform="translate(673,654)"/>
<path d="M0 0 C3 1 3 1 3 1 Z " fill="#F6CF4C" transform="translate(574,823)"/>
<path d="" fill="#FFD851" transform="translate(0,0)"/>
<path d="" fill="#5B8EB5" transform="translate(0,0)"/>
<path d="M0 0 C2 1 2 1 2 1 Z " fill="#F8D251" transform="translate(443,823)"/>
<path d="M0 0 C2 1 2 1 2 1 Z " fill="#F7D251" transform="translate(433,821)"/>
<path d="M0 0 C2 1 2 1 2 1 Z " fill="#F6CD49" transform="translate(612,814)"/>
<path d="M0 0 C2 1 2 1 2 1 Z " fill="#F8D350" transform="translate(745,654)"/>
<path d="M0 0 C2 1 2 1 2 1 Z " fill="#FBD852" transform="translate(715,654)"/>
<path d="M0 0 C2 1 2 1 2 1 Z " fill="#FCD850" transform="translate(707,654)"/>
<path d="M0 0 C2 1 2 1 2 1 Z " fill="#FED953" transform="translate(691,654)"/>
<path d="M0 0 C2 1 2 1 2 1 Z " fill="#FEDA53" transform="translate(683,654)"/>
<path d="M0 0 C2 1 2 1 2 1 Z " fill="#FEDA52" transform="translate(667,654)"/>
<path d="M0 0 C2 1 2 1 2 1 Z " fill="#FEDA52" transform="translate(643,654)"/>
<path d="M0 0 C2 1 2 1 2 1 Z " fill="#FEDC54" transform="translate(595,654)"/>
<path d="M0 0 C2 1 2 1 2 1 Z " fill="#FFDD54" transform="translate(592,654)"/>
<path d="" fill="#94A89D" transform="translate(0,0)"/>
<path d="" fill="#568DB3" transform="translate(0,0)"/>
<path d="" fill="#5A8DB3" transform="translate(0,0)"/>
<path d="" fill="#F8D250" transform="translate(0,0)"/>
<path d="M0 0 C2 1 2 1 2 1 Z " fill="#96AA9E" transform="translate(400,491)"/>
<path d="" fill="#F6CF49" transform="translate(0,0)"/>
<path d="" fill="#F6D04D" transform="translate(0,0)"/>
<path d="" fill="#F8CF49" transform="translate(0,0)"/>
<path d="" fill="#F6D04D" transform="translate(0,0)"/>
<path d="" fill="#F6D153" transform="translate(0,0)"/>
<path d="" fill="#F6D04B" transform="translate(0,0)"/>
<path d="" fill="#F6D351" transform="translate(0,0)"/>
<path d="" fill="#F5D359" transform="translate(0,0)"/>
<path d="" fill="#F6D459" transform="translate(0,0)"/>
<path d="" fill="#F7D55B" transform="translate(0,0)"/>
<path d="" fill="#F5D55C" transform="translate(0,0)"/>
<path d="" fill="#F3D357" transform="translate(0,0)"/>
<path d="" fill="#F3D15A" transform="translate(0,0)"/>
<path d="" fill="#FED950" transform="translate(0,0)"/>
<path d="" fill="#FFDA4D" transform="translate(0,0)"/>
<path d="" fill="#FED751" transform="translate(0,0)"/>
<path d="" fill="#FFD84F" transform="translate(0,0)"/>
<path d="" fill="#FFDA4F" transform="translate(0,0)"/>
<path d="" fill="#F3D55D" transform="translate(0,0)"/>
<path d="" fill="#FFD852" transform="translate(0,0)"/>
<path d="" fill="#FBD754" transform="translate(0,0)"/>
<path d="" fill="#F4D560" transform="translate(0,0)"/>
<path d="" fill="#F5D661" transform="translate(0,0)"/>
<path d="" fill="#FFD951" transform="translate(0,0)"/>
<path d="" fill="#FED753" transform="translate(0,0)"/>
<path d="" fill="#FFD854" transform="translate(0,0)"/>
<path d="" fill="#FFDA53" transform="translate(0,0)"/>
<path d="" fill="#FDD755" transform="translate(0,0)"/>
<path d="" fill="#FFD751" transform="translate(0,0)"/>
<path d="" fill="#FFD850" transform="translate(0,0)"/>
<path d="" fill="#9AA997" transform="translate(0,0)"/>
<path d="" fill="#6D91A1" transform="translate(0,0)"/>
<path d="" fill="#6D90A0" transform="translate(0,0)"/>
<path d="" fill="#ACB78B" transform="translate(0,0)"/>
<path d="" fill="#FEDE5B" transform="translate(0,0)"/>
<path d="" fill="#668EA6" transform="translate(0,0)"/>
<path d="" fill="#FAD753" transform="translate(0,0)"/>
<path d="" fill="#FBD853" transform="translate(0,0)"/>
<path d="" fill="#FCDA53" transform="translate(0,0)"/>
<path d="" fill="#FDDB54" transform="translate(0,0)"/>
<path d="" fill="#FDDA54" transform="translate(0,0)"/>
<path d="" fill="#FFDB52" transform="translate(0,0)"/>
<path d="" fill="#FFDA54" transform="translate(0,0)"/>
<path d="" fill="#FFDA50" transform="translate(0,0)"/>
<path d="" fill="#FFDA51" transform="translate(0,0)"/>
<path d="" fill="#FFDB51" transform="translate(0,0)"/>
<path d="" fill="#FFDC56" transform="translate(0,0)"/>
<path d="" fill="#FFDA53" transform="translate(0,0)"/>
<path d="" fill="#FFDA54" transform="translate(0,0)"/>
<path d="" fill="#FFDC54" transform="translate(0,0)"/>
<path d="" fill="#FFDD54" transform="translate(0,0)"/>
<path d="" fill="#FFDB54" transform="translate(0,0)"/>
<path d="" fill="#FFDD54" transform="translate(0,0)"/>
<path d="" fill="#FFDC54" transform="translate(0,0)"/>
<path d="" fill="#FFDF56" transform="translate(0,0)"/>
<path d="" fill="#FFDE56" transform="translate(0,0)"/>
<path d="" fill="#FEDD57" transform="translate(0,0)"/>
<path d="" fill="#FFDE57" transform="translate(0,0)"/>
<path d="" fill="#FFDC57" transform="translate(0,0)"/>
<path d="" fill="#628FA6" transform="translate(0,0)"/>
<path d="" fill="#628CA9" transform="translate(0,0)"/>
<path d="" fill="#5C8AA9" transform="translate(0,0)"/>
<path d="" fill="#A5B493" transform="translate(0,0)"/>
<path d="" fill="#A4B393" transform="translate(0,0)"/>
<path d="" fill="#F7D04D" transform="translate(0,0)"/>
<path d="" fill="#5289AF" transform="translate(0,0)"/>
<path d="" fill="#5689AF" transform="translate(0,0)"/>
<path d="" fill="#588BB1" transform="translate(0,0)"/>
<path d="" fill="#5589B0" transform="translate(0,0)"/>
<path d="" fill="#5389B1" transform="translate(0,0)"/>
<path d="" fill="#99AC96" transform="translate(0,0)"/>
<path d="" fill="#558CB2" transform="translate(0,0)"/>
<path d="" fill="#E5D478" transform="translate(0,0)"/>
<path d="" fill="#94A898" transform="translate(0,0)"/>
<path d="" fill="#558CB4" transform="translate(0,0)"/>
<path d="" fill="#D4C87F" transform="translate(0,0)"/>
<path d="" fill="#578EB4" transform="translate(0,0)"/>
<path d="" fill="#588DB5" transform="translate(0,0)"/>
<path d="" fill="#94A69B" transform="translate(0,0)"/>
<path d="" fill="#E8D376" transform="translate(0,0)"/>
<path d="" fill="#909D94" transform="translate(0,0)"/>
<path d="" fill="#95A698" transform="translate(0,0)"/>
<path d="" fill="#E6D377" transform="translate(0,0)"/>
<path d="" fill="#E7D275" transform="translate(0,0)"/>
<path d="" fill="#91A295" transform="translate(0,0)"/>
<path d="" fill="#90A297" transform="translate(0,0)"/>
<path d="" fill="#8FA398" transform="translate(0,0)"/>
<path d="" fill="#E2D47B" transform="translate(0,0)"/>
<path d="" fill="#91A39B" transform="translate(0,0)"/>
<path d="" fill="#E3D37B" transform="translate(0,0)"/>
<path d="" fill="#DFD27C" transform="translate(0,0)"/>
<path d="" fill="#8DA29E" transform="translate(0,0)"/>
<path d="" fill="#E4D376" transform="translate(0,0)"/>
<path d="" fill="#E6D573" transform="translate(0,0)"/>
<path d="" fill="#8AA29E" transform="translate(0,0)"/>
<path d="" fill="#EBD36F" transform="translate(0,0)"/>
<path d="" fill="#ECD269" transform="translate(0,0)"/>
<path d="" fill="#8AA49F" transform="translate(0,0)"/>
<path d="" fill="#8AA29F" transform="translate(0,0)"/>
<path d="" fill="#E8D16C" transform="translate(0,0)"/>
<path d="" fill="#96A695" transform="translate(0,0)"/>
<path d="" fill="#95A591" transform="translate(0,0)"/>
<path d="" fill="#96A795" transform="translate(0,0)"/>
<path d="" fill="#95A795" transform="translate(0,0)"/>
<path d="" fill="#E6D26E" transform="translate(0,0)"/>
<path d="" fill="#98A793" transform="translate(0,0)"/>
<path d="" fill="#9CA993" transform="translate(0,0)"/>
<path d="" fill="#E8D26E" transform="translate(0,0)"/>
<path d="" fill="#F6D252" transform="translate(0,0)"/>
<path d="" fill="#95A696" transform="translate(0,0)"/>
<path d="" fill="#90A296" transform="translate(0,0)"/>
<path d="" fill="#95A493" transform="translate(0,0)"/>
<path d="" fill="#E9D169" transform="translate(0,0)"/>
<path d="" fill="#5B8FB8" transform="translate(0,0)"/>
<path d="" fill="#5A8EB7" transform="translate(0,0)"/>
<path d="" fill="#5B8EB9" transform="translate(0,0)"/>
<path d="" fill="#A0A992" transform="translate(0,0)"/>
<path d="" fill="#5891B6" transform="translate(0,0)"/>
<path d="" fill="#9CAA93" transform="translate(0,0)"/>
<path d="" fill="#E5D06D" transform="translate(0,0)"/>
<path d="" fill="#5A8EB6" transform="translate(0,0)"/>
<path d="" fill="#98AA94" transform="translate(0,0)"/>
<path d="" fill="#F2D154" transform="translate(0,0)"/>
<path d="" fill="#F1CE53" transform="translate(0,0)"/>
<path d="" fill="#558EB8" transform="translate(0,0)"/>
<path d="" fill="#F2CE52" transform="translate(0,0)"/>
<path d="" fill="#96A698" transform="translate(0,0)"/>
<path d="" fill="#568DB8" transform="translate(0,0)"/>
<path d="" fill="#5E91B8" transform="translate(0,0)"/>
<path d="" fill="#568FB8" transform="translate(0,0)"/>
<path d="" fill="#C9C279" transform="translate(0,0)"/>
<path d="" fill="#558FBD" transform="translate(0,0)"/>
<path d="" fill="#5591C3" transform="translate(0,0)"/>
<path d="" fill="#5694C5" transform="translate(0,0)"/>
<path d="" fill="#86A09F" transform="translate(0,0)"/>
<path d="" fill="#5594C1" transform="translate(0,0)"/>
<path d="" fill="#6894AA" transform="translate(0,0)"/>
<path d="" fill="#5896C5" transform="translate(0,0)"/>
<path d="" fill="#5C91BA" transform="translate(0,0)"/>
<path d="" fill="#628FAC" transform="translate(0,0)"/>
<path d="" fill="#5693C0" transform="translate(0,0)"/>
<path d="" fill="#5396C8" transform="translate(0,0)"/>
<path d="" fill="#5494C8" transform="translate(0,0)"/>
<path d="" fill="#5390C3" transform="translate(0,0)"/>
<path d="" fill="#5C90B9" transform="translate(0,0)"/>
<path d="" fill="#598BAC" transform="translate(0,0)"/>
<path d="" fill="#5E93BB" transform="translate(0,0)"/>
<path d="" fill="#5790BC" transform="translate(0,0)"/>
<path d="" fill="#578DB6" transform="translate(0,0)"/>
<path d="" fill="#5591BD" transform="translate(0,0)"/>
<path d="" fill="#538FB5" transform="translate(0,0)"/>
<path d="" fill="#5A90BA" transform="translate(0,0)"/>
<path d="" fill="#5590B9" transform="translate(0,0)"/>
<path d="" fill="#5391BC" transform="translate(0,0)"/>
<path d="" fill="#548FBB" transform="translate(0,0)"/>
<path d="" fill="#518DB7" transform="translate(0,0)"/>
<path d="" fill="#528DB6" transform="translate(0,0)"/>
<path d="" fill="#528BB4" transform="translate(0,0)"/>
<path d="" fill="#538EB6" transform="translate(0,0)"/>
<path d="" fill="#5490BA" transform="translate(0,0)"/>
</svg>
