<?xml version="1.0" encoding="UTF-8"?>
<svg version="1.1" xmlns="http://www.w3.org/2000/svg" width="1024" height="1024">
<path d="M0 0 C2.09149945 1.05944818 2.09149945 1.05944818 4.9609375 1.9453125 C6.23167027 2.74667551 7.47885009 3.58571663 8.7109375 4.4453125 C9.51402344 4.97511719 10.31710937 5.50492188 11.14453125 6.05078125 C13.18822052 7.42552368 15.19738328 8.85203941 17.18359375 10.30859375 C26.94238965 17.13526502 34.88199123 17.81952981 46.57861328 17.88525391 C66.24160364 18.38095955 85.9648788 27.69751745 102.9609375 36.9453125 C103.70359863 37.34540527 104.44625977 37.74549805 105.21142578 38.15771484 C128.87244794 50.94067189 128.87244794 50.94067189 136.9375 58.19921875 C139.77395179 60.64689047 142.7388815 62.9154853 145.7109375 65.1953125 C146.2786084 65.63206299 146.8462793 66.06881348 147.43115234 66.51879883 C149.89904533 68.40776249 152.37393253 70.22064252 154.9609375 71.9453125 C154.9609375 72.6053125 154.9609375 73.2653125 154.9609375 73.9453125 C155.48945312 74.15800781 156.01796875 74.37070312 156.5625 74.58984375 C159.90272442 76.47756016 162.55504246 79.02353341 165.3359375 81.6328125 C165.91666016 82.17301025 166.49738281 82.71320801 167.09570312 83.26977539 C171.01684547 86.95606916 174.55526708 90.77336623 177.9609375 94.9453125 C178.73695313 95.70585937 179.51296875 96.46640625 180.3125 97.25 C183.06392587 100.05012368 185.47385872 103.00777995 187.8359375 106.1328125 C188.27301025 106.70813721 188.71008301 107.28346191 189.16040039 107.8762207 C190.4339884 109.56099102 191.69941702 111.25149367 192.9609375 112.9453125 C193.86005859 114.151875 193.86005859 114.151875 194.77734375 115.3828125 C203.1857325 127.05325087 210.61287114 139.52562487 216.82470703 152.49536133 C218.26690098 155.50272946 219.71784529 158.50561881 221.17480469 161.50585938 C227.07148451 173.70895112 232.54668099 186.05385599 237.83056641 198.53320312 C239.18499932 201.71880524 240.55531265 204.89717328 241.9296875 208.07421875 C246.11759915 217.77555236 250.21801184 227.47232409 253.91796875 237.37109375 C259.73018645 254.43237926 259.73018645 254.43237926 272.61938477 265.99047852 C276.16025677 267.31651551 279.71776935 268.32332172 283.38916016 269.21875 C287.57327786 270.40082084 291.23719766 272.40611575 295.0234375 274.5078125 C295.71977295 274.88437988 296.4161084 275.26094727 297.13354492 275.64892578 C303.33301569 279.0453061 309.18810776 282.86767879 314.9609375 286.9453125 C316.09077897 287.72449057 317.22100303 288.50311409 318.3515625 289.28125 C326.10056864 294.66318949 333.39546856 300.44043409 340.48974609 306.65771484 C341.84319328 307.84226189 343.20818561 309.0135833 344.57421875 310.18359375 C349.43457991 314.42381314 353.94385714 318.91645768 358.3359375 323.6328125 C359.08629272 324.43501221 359.08629272 324.43501221 359.85180664 325.25341797 C367.9609375 334.11194815 367.9609375 334.11194815 367.9609375 337.9453125 C366.55908203 338.1786731 366.55908203 338.1786731 365.12890625 338.41674805 C346.32032357 341.55598887 327.58637137 344.83331125 308.9609375 348.9453125 C308.9609375 349.9353125 308.9609375 350.9253125 308.9609375 351.9453125 C309.53730957 352.22060791 310.11368164 352.49590332 310.70751953 352.77954102 C327.08421641 361.25177586 342.64730656 374.30629177 355.9609375 386.9453125 C356.49187012 387.44369629 357.02280273 387.94208008 357.56982422 388.45556641 C368.48789662 398.76382827 377.66771858 409.78727007 384.9609375 422.9453125 C381.55287623 422.9453125 380.29479763 422.23166102 377.34765625 420.6015625 C376.42791016 420.09625 375.50816406 419.5909375 374.56054688 419.0703125 C373.59955078 418.5340625 372.63855469 417.9978125 371.6484375 417.4453125 C370.27075195 416.68734375 370.27075195 416.68734375 368.86523438 415.9140625 C362.38488966 412.33623243 355.95606593 408.66927674 349.53344727 404.98925781 C346.03865281 402.98753841 342.53548673 401.00077275 339.03125 399.015625 C285.48233644 368.63140618 285.48233644 368.63140618 274.9609375 341.9453125 C274.38362759 337.71170649 274.38362759 337.71170649 276.08203125 335.45703125 C288.0415554 325.8347114 311.23866517 324.92547662 325.96875 323.33984375 C328.88050791 323.12154998 328.88050791 323.12154998 330.9609375 321.9453125 C311.06343835 303.28368287 285.57716919 289.69804293 259.73461914 281.37792969 C251.88677886 278.79934224 247.04667596 276.07133296 243.20751953 268.56884766 C240.85775037 263.6235638 238.59677765 258.64729588 236.3984375 253.6328125 C235.87813965 252.45420654 235.3578418 251.27560059 234.82177734 250.0612793 C230.68887534 240.68354568 226.64588095 231.26734948 222.62963867 221.83911133 C219.82156127 215.25470161 216.97898709 208.68762301 214.09375 202.13671875 C213.7696817 201.40014542 213.4456134 200.66357208 213.11172485 199.90467834 C211.52208454 196.29281565 209.92834197 192.68284499 208.32861328 189.07543945 C207.75279008 187.7691045 207.17709958 186.46271104 206.6015625 185.15625 C206.09141602 184.00431152 205.58126953 182.85237305 205.05566406 181.66552734 C203.9609375 178.9453125 203.9609375 178.9453125 203.9609375 176.9453125 C202.9709375 176.9453125 201.9809375 176.9453125 200.9609375 176.9453125 C200.8578125 175.9140625 200.7546875 174.8828125 200.6484375 173.8203125 C199.96681756 169.97845467 198.75187036 167.37144494 196.9609375 163.9453125 C196.9609375 162.9553125 196.9609375 161.9653125 196.9609375 160.9453125 C196.3009375 160.9453125 195.6409375 160.9453125 194.9609375 160.9453125 C194.51105469 159.98753906 194.06117188 159.02976562 193.59765625 158.04296875 C185.18007652 140.48088718 174.47266678 123.76064057 161.17578125 109.46875 C159.9609375 107.9453125 159.9609375 107.9453125 159.9609375 105.9453125 C159.3009375 105.9453125 158.6409375 105.9453125 157.9609375 105.9453125 C156.48046875 104.44140625 156.48046875 104.44140625 154.7734375 102.3828125 C134.44787033 78.5931343 104.96507212 59.57778083 75.9609375 47.9453125 C74.9709375 47.9453125 73.9809375 47.9453125 72.9609375 47.9453125 C72.9609375 47.2853125 72.9609375 46.6253125 72.9609375 45.9453125 C53.16677416 40.49696899 53.16677416 40.49696899 32.8359375 38.9453125 C23.20538005 39.21600925 16.87934853 35.62090628 8.87109375 30.70703125 C-1.53840364 24.40544289 -11.91756473 19.34106348 -23.4765625 15.4453125 C-24.47059082 15.10709473 -25.46461914 14.76887695 -26.48876953 14.42041016 C-32.67525637 12.42166721 -38.54583981 11.29422865 -45.0390625 10.9453125 C-47.36453434 17.92172801 -46.18160481 22.283225 -43.1015625 28.8203125 C-40.12541041 34.690055 -36.41137343 39.36622101 -31.76171875 44.0546875 C-30.0390625 45.9453125 -30.0390625 45.9453125 -30.0390625 47.9453125 C-29.3790625 47.9453125 -28.7190625 47.9453125 -28.0390625 47.9453125 C-28.0390625 48.6053125 -28.0390625 49.2653125 -28.0390625 49.9453125 C-27.3790625 49.9453125 -26.7190625 49.9453125 -26.0390625 49.9453125 C-18.22317291 58.94201994 -13.62192861 68.65544693 -10.0390625 79.9453125 C-9.67844727 81.07807617 -9.31783203 82.21083984 -8.94628906 83.37792969 C-8.33323796 85.30501458 -7.72019194 87.23210111 -7.10736084 89.15925598 C0.546374 113.2131458 8.34720912 134.31671675 25.1484375 153.578125 C28.1526147 157.50168401 29.18194688 160.30709769 28.79296875 165.22265625 C28.12047112 169.9872478 26.53726289 174.10890872 24.6484375 178.5078125 C12.90409887 207.37218704 11.25249509 239.70066197 22.9609375 268.9453125 C25.9088518 275.78522213 29.11479184 282.22961773 33.9609375 287.9453125 C35.55798543 283.60474519 36.37214624 279.59451665 36.85546875 275 C37.00779848 273.66138248 37.16081597 272.32284309 37.31445312 270.984375 C37.54559421 268.91214277 37.77143607 266.83978537 37.98461914 264.765625 C39.75870548 247.75394983 46.45697755 235.21895947 56.1484375 221.4453125 C56.57664795 220.83316895 57.0048584 220.22102539 57.44604492 219.59033203 C59.46586026 216.77027228 61.04286166 214.89069639 63.9609375 212.9453125 C66.5554789 219.12915711 69.12088958 225.32264981 71.6171875 231.546875 C91.04010615 281.34070083 91.04010615 281.34070083 122.64208984 323.5012207 C123.9609375 324.9453125 123.9609375 324.9453125 123.9609375 327.9453125 C122.6409375 327.2853125 121.3209375 326.6253125 119.9609375 325.9453125 C119.9609375 325.2853125 119.9609375 324.6253125 119.9609375 323.9453125 C117.62879602 322.73903242 115.46451611 321.7798387 112.9609375 320.9453125 C111.78336226 319.53222221 110.61017103 318.11513285 109.46484375 316.67578125 C107.83634415 314.80194925 106.09939133 313.24344211 104.2109375 311.6328125 C86.78481542 296.6914658 73.07666349 277.50117552 62.9609375 256.9453125 C62.89624268 257.49767578 62.83154785 258.05003906 62.76489258 258.61914062 C58.29179777 295.69399342 58.29179777 295.69399342 45.5859375 305.9453125 C41.68335163 308.42096169 38.58458374 308.9453125 33.9609375 308.9453125 C22.92607209 305.5206991 17.12545535 297.02504954 11.94921875 287.21875 C4.8910636 273.23520024 -0.5446085 257.59971814 -2.0390625 241.9453125 C-2.10996094 241.22891602 -2.18085938 240.51251953 -2.25390625 239.77441406 C-4.41812024 216.30028602 -0.55215367 193.95619925 8.0078125 172.06640625 C9.04201406 168.67981998 9.48864576 166.4541095 8.9609375 162.9453125 C7.39711767 160.78985741 5.91306064 159.03173604 4.0859375 157.1328125 C-10.59532071 140.69208278 -17.90387148 120.21336877 -24.90234375 99.61328125 C-25.14359482 98.90407028 -25.38484589 98.19485931 -25.63340759 97.4641571 C-26.81163465 93.98932427 -27.97370244 90.51029555 -29.10913086 87.02124023 C-32.94509814 75.37101036 -37.17458048 65.92416231 -46.3515625 57.6328125 C-57.29483701 47.20738818 -67.09074207 34.07727339 -68.0703125 18.453125 C-67.95873559 9.49907801 -65.37733841 2.39775357 -59.109375 -4.03515625 C-42.40280822 -19.32324094 -17.67617208 -8.6378705 0 0 Z " fill="#19639A" transform="translate(387.0390625,207.0546875)"/>
<path d="M0 0 C5.49531532 0.86511616 8.37617673 5.0953133 12 9 C12.56847656 9.61101562 13.13695312 10.22203125 13.72265625 10.8515625 C29.39903408 28.26976009 42.75018654 48.43382676 52.86376953 69.55004883 C54.30596348 72.55741696 55.75690779 75.56030631 57.21386719 78.56054688 C63.11054701 90.76363862 68.58574349 103.10854349 73.86962891 115.58789062 C75.22406182 118.77349274 76.59437515 121.95186078 77.96875 125.12890625 C82.15666165 134.83023986 86.25707434 144.52701159 89.95703125 154.42578125 C95.76924895 171.48706676 95.76924895 171.48706676 108.65844727 183.04516602 C112.19931927 184.37120301 115.75683185 185.37800922 119.42822266 186.2734375 C123.61234036 187.45550834 127.27626016 189.46080325 131.0625 191.5625 C131.75883545 191.93906738 132.4551709 192.31563477 133.17260742 192.70361328 C139.37207819 196.0999936 145.22717026 199.92236629 151 204 C152.12984147 204.77917807 153.26006553 205.55780159 154.390625 206.3359375 C162.13963114 211.71787699 169.43453106 217.49512159 176.52880859 223.71240234 C177.88225578 224.89694939 179.24724811 226.0682708 180.61328125 227.23828125 C185.47364241 231.47850064 189.98291964 235.97114518 194.375 240.6875 C194.87523682 241.2222998 195.37547363 241.75709961 195.89086914 242.30810547 C204 251.16663565 204 251.16663565 204 255 C200.00170835 255.67718814 196.00113468 256.33983508 192 257 C190.31197266 257.28617188 190.31197266 257.28617188 188.58984375 257.578125 C182.642717 258.55192353 177.02622377 259.2363225 171 259 C174 257 174 257 177 257 C177 256.01 177 255.02 177 254 C184.92 254 192.84 254 201 254 C197.04802642 248.07203963 192.85436981 243.16873412 188 238 C187.1234375 237.05769531 186.246875 236.11539063 185.34375 235.14453125 C177.33839571 226.73324012 168.37748328 219.81338093 159 213 C158.4210498 212.57589844 157.84209961 212.15179688 157.24560547 211.71484375 C148.22343329 205.14143066 138.70444733 199.49401651 129 194 C128.34177246 193.62423828 127.68354492 193.24847656 127.00537109 192.86132812 C125.11532421 191.78894754 123.21746771 190.73312503 121.3125 189.6875 C120.3999646 189.18367798 120.3999646 189.18367798 119.46899414 188.66967773 C115.26382308 186.43766345 111.18820067 185.20563475 106.5625 184 C101.68532687 182.32501125 99.20788301 180.69901948 96.69604492 176.11425781 C95.34343195 173.27010543 94.13528988 170.38574332 92.98046875 167.45605469 C91.95261554 164.88130287 90.84745357 162.35239583 89.71875 159.8203125 C87.08827173 153.90450671 84.54238809 147.95408539 82 142 C81.05109927 139.78501998 80.10187316 137.57017933 79.15234375 135.35546875 C78.42494995 133.65801514 78.42494995 133.65801514 77.68286133 131.92626953 C76.6791845 129.58463004 75.67511021 127.24316087 74.6706543 124.90185547 C70.29338863 114.69634291 70.29338863 114.69634291 68.40917969 110.24951172 C55.2284375 79.14344245 40.94159803 49.698661 20 23 C19.21882812 21.99324219 18.43765625 20.98648437 17.6328125 19.94921875 C12.82909584 13.906109 7.62625928 8.47892874 2.08984375 3.1171875 C0 1 0 1 0 0 Z " fill="#215073" transform="translate(551,290)"/>
<path d="M0 0 C5.36023358 4.97735975 8.36291077 9.54399881 9.53515625 16.87890625 C9.74040302 22.72397718 7.77310744 26.99500603 4.1875 31.5 C1.625 33.4375 1.625 33.4375 -2.375 33.4375 C-2.81199219 32.18646484 -2.81199219 32.18646484 -3.2578125 30.91015625 C-5.60907294 24.45528089 -8.07467994 18.79618462 -12.140625 13.2421875 C-13.375 11.4375 -13.375 11.4375 -14.375 8.4375 C-15.365 8.1075 -16.355 7.7775 -17.375 7.4375 C-17.375 6.7775 -17.375 6.1175 -17.375 5.4375 C-19.85 4.4475 -19.85 4.4475 -22.375 3.4375 C-22.375 2.4475 -22.375 1.4575 -22.375 0.4375 C-14.98025142 -1.79487693 -7.23692428 -3.35042791 0 0 Z " fill="#1A649C" transform="translate(430.375,271.5625)"/>
<path d="M0 0 C3.14623926 1.57311963 3.29061201 4.16699746 4.4375 7.4375 C16.50219202 40.67492016 33.05393977 85.9123959 59.68115234 110.5559082 C61 112 61 112 61 115 C59.02 114.01 59.02 114.01 57 113 C57 112.34 57 111.68 57 111 C54.66785852 109.79371992 52.50357861 108.8345262 50 108 C48.82242476 106.58690971 47.64923353 105.16982035 46.50390625 103.73046875 C44.87540665 101.85663675 43.13845383 100.29812961 41.25 98.6875 C28.72801448 87.95101336 18.88988917 75.47336078 10.04394531 61.62988281 C9.0988204 60.15428554 8.12520366 58.69703329 7.1484375 57.2421875 C6.76945312 56.50226563 6.39046875 55.76234375 6 55 C6.33 54.01 6.66 53.02 7 52 C9.31813595 55.43373052 11.62852756 58.87260229 13.9375 62.3125 C14.9265332 63.77719727 14.9265332 63.77719727 15.93554688 65.27148438 C16.87817383 66.67817383 16.87817383 66.67817383 17.83984375 68.11328125 C18.42113037 68.97735596 19.00241699 69.84143066 19.60131836 70.73168945 C21 73 21 73 22 76 C22.66 76 23.32 76 24 76 C25.19921875 77.44140625 25.19921875 77.44140625 26.6875 79.5625 C30.33205299 84.39616562 34.42282905 88.65744238 38.6875 92.9375 C39.34129639 93.60015869 39.99509277 94.26281738 40.66870117 94.94555664 C41.29752197 95.57067139 41.92634277 96.19578613 42.57421875 96.83984375 C43.13713623 97.40050537 43.70005371 97.96116699 44.2800293 98.53881836 C46.08559395 100.07271537 47.84571362 101.03197001 50 102 C49.62230469 101.48695313 49.24460937 100.97390625 48.85546875 100.4453125 C1 33.8735363 1 33.8735363 1 4 C-8.41255151 13.02292519 -15.95935821 25.64038981 -20 38 C-20.33 38 -20.66 38 -21 38 C-21.44918495 32.76218262 -20.0157445 29.27767172 -17.5 24.8125 C-17.14123779 24.15902588 -16.78247559 23.50555176 -16.4128418 22.83227539 C-11.79442434 14.59926917 -6.16729321 7.13093278 0 0 Z " fill="#225072" transform="translate(450,420)"/>
<path d="M0 0 C23.32312488 6.81050466 48.78794305 24.79543728 65.4375 42.40234375 C67.16063131 44.16424551 68.98991996 45.72564551 70.875 47.3125 C87.07209313 61.40366133 100.98908227 81.27531981 111.0390625 100.19921875 C111.90064773 101.81381546 112.85150314 103.38002233 113.8125 104.9375 C115 107 115 107 115 109 C116.485 109.495 116.485 109.495 118 110 C118.0825 110.81339844 118.165 111.62679687 118.25 112.46484375 C119.19103882 116.90046942 120.98754003 120.52285063 123 124.5625 C126.52720722 131.83240993 129.90810647 139.14968622 133.125 146.5625 C133.72828125 147.92773804 133.72828125 147.92773804 134.34375 149.32055664 C134.70726562 150.16481201 135.07078125 151.00906738 135.4453125 151.87890625 C135.93281982 153.00147827 135.93281982 153.00147827 136.43017578 154.14672852 C137 156 137 156 136 158 C133.61091152 155.0415027 132.03044476 152.13274593 130.51953125 148.6484375 C130.07802734 147.63265625 129.63652344 146.616875 129.18164062 145.5703125 C128.50391602 143.98863281 128.50391602 143.98863281 127.8125 142.375 C127.34908203 141.3128125 126.88566406 140.250625 126.40820312 139.15625 C123 131.26568253 123 131.26568253 123 129 C122.01 129 121.02 129 120 129 C119.896875 127.96875 119.79375 126.9375 119.6875 125.875 C119.00588006 122.03314217 117.79093286 119.42613244 116 116 C116 115.01 116 114.02 116 113 C115.34 113 114.68 113 114 113 C113.55011719 112.04222656 113.10023438 111.08445312 112.63671875 110.09765625 C104.21913902 92.53557468 93.51172928 75.81532807 80.21484375 61.5234375 C79 60 79 60 79 58 C78.34 58 77.68 58 77 58 C75.51953125 56.49609375 75.51953125 56.49609375 73.8125 54.4375 C57.58859299 35.44853287 36.16749759 21.27754447 14.39453125 9.39453125 C13.32452881 8.80986084 13.32452881 8.80986084 12.23291016 8.21337891 C10.65287991 7.35477948 9.06880006 6.50361283 7.48193359 5.65771484 C6.6667627 5.21766113 5.8515918 4.77760742 5.01171875 4.32421875 C4.26752686 3.92678467 3.52333496 3.52935059 2.7565918 3.11987305 C1 2 1 2 0 0 Z " fill="#214F71" transform="translate(468,255)"/>
<path d="M0 0 C-2.00993705 2.00993705 -3.59211232 2.89940919 -6.125 4.125 C-6.84945312 4.47820313 -7.57390625 4.83140625 -8.3203125 5.1953125 C-8.87460937 5.46085938 -9.42890625 5.72640625 -10 6 C-9.26294782 17.54715081 -0.71736117 28.91262827 7.5625 36.5625 C18.73123566 45.64783689 31.34068337 52.57454784 43.87109375 59.55859375 C50.13324921 63.05498901 56.31771883 66.67730108 62.5 70.3125 C76.89504569 79.2720643 76.89504569 79.2720643 92.3125 86.0703125 C95 87 95 87 96.375 89.125 C96.58125 89.74375 96.7875 90.3625 97 91 C93.59193873 91 92.33386013 90.28634852 89.38671875 88.65625 C88.46697266 88.1509375 87.54722656 87.645625 86.59960938 87.125 C85.63861328 86.58875 84.67761719 86.0525 83.6875 85.5 C82.30981445 84.74203125 82.30981445 84.74203125 80.90429688 83.96875 C74.42395216 80.39091993 67.99512843 76.72396424 61.57250977 73.04394531 C58.07771531 71.04222591 54.57454923 69.05546025 51.0703125 67.0703125 C-2.47860106 36.68609368 -2.47860106 36.68609368 -13 10 C-13.40151326 7.05556945 -13.52559298 5.74689529 -11.8125 3.3125 C-8.00331515 0.55412477 -4.66795739 -0.26674042 0 0 Z " fill="#225073" transform="translate(675,539)"/>
<path d="M0 0 C3.05246707 1.52623353 3.37521221 3.8786648 4.65234375 7 C4.90839386 7.61934921 5.16444397 8.23869843 5.42825317 8.8768158 C5.98136691 10.21610334 6.53154597 11.55660577 7.07913208 12.89816284 C8.52532537 16.43937485 9.99422996 19.97115325 11.4609375 23.50390625 C11.9053997 24.57663536 11.9053997 24.57663536 12.35884094 25.67103577 C15.17842351 32.46281565 18.09751739 39.20779331 21.0625 45.9375 C21.50263428 46.94103516 21.94276855 47.94457031 22.39624023 48.97851562 C27.29068366 61.76294316 27.29068366 61.76294316 37.4140625 70.01953125 C41.78797683 71.66436945 46.17315486 73.05278347 50.6875 74.25 C58.2193931 76.46805356 65.09480109 80.33039711 72 84 C72.80791992 84.42861328 73.61583984 84.85722656 74.44824219 85.29882812 C76.93068681 86.62447092 79.40443919 87.96485373 81.875 89.3125 C82.65423828 89.73281494 83.43347656 90.15312988 84.23632812 90.58618164 C84.96013672 90.98699951 85.68394531 91.38781738 86.4296875 91.80078125 C87.07147949 92.15309814 87.71327148 92.50541504 88.37451172 92.8684082 C90 94 90 94 92 97 C89.07264217 96.38119573 86.78450224 95.45756024 84.19921875 93.9609375 C83.11664795 93.34279175 83.11664795 93.34279175 82.01220703 92.7121582 C81.24505371 92.270896 80.47790039 91.82963379 79.6875 91.375 C67.45860843 84.49026897 55.24149062 78.80778761 41.87548828 74.48364258 C33.99446549 71.8763336 29.10659968 69.1667875 25.24658203 61.62353516 C22.8968188 56.67826377 20.63530755 51.70221067 18.4375 46.6875 C17.67228027 44.95004517 17.67228027 44.95004517 16.89160156 43.17749023 C15.53642905 40.09316891 14.18627478 37.00675518 12.83880615 33.91906738 C11.98714453 31.97058854 11.13195068 30.02369332 10.27587891 28.07714844 C8.8620699 24.8608557 7.45662564 21.64102991 6.05740356 18.41836548 C5.26187073 16.58978558 4.45996144 14.76398405 3.65795898 12.93823242 C3.17786377 11.82552979 2.69776855 10.71282715 2.203125 9.56640625 C1.77676758 8.58615479 1.35041016 7.60590332 0.91113281 6.59594727 C0 4 0 4 0 0 Z " fill="#225071" transform="translate(605,414)"/>
<path d="M0 0 C9.4971943 1.65094596 18.04484979 6.43953863 26.5 10.875 C27.33208984 11.30731934 28.16417969 11.73963867 29.02148438 12.18505859 C33.4931121 14.54370966 37.52518322 17.09472218 41.625 20.0625 C48.40140869 24.1801761 55.95614366 23.76646579 63.66650391 23.73852539 C70.26503532 23.72973287 76.00056364 24.48690412 82.35668945 26.29760742 C84.82721114 26.95408575 87.14800931 27.31661593 89.6875 27.5625 C91.3271875 27.7790625 91.3271875 27.7790625 93 28 C93.495 28.99 93.495 28.99 94 30 C96.34038186 31.13102526 96.34038186 31.13102526 99.0625 32.125 C99.98160156 32.47820312 100.90070313 32.83140625 101.84765625 33.1953125 C102.55792969 33.46085937 103.26820313 33.72640625 104 34 C101.50935112 34.68707555 99.62113708 35 97 35 C97 34.34 97 33.68 97 33 C77.20583666 27.55165649 77.20583666 27.55165649 56.875 26 C47.27713283 26.26977789 40.92711503 22.71536862 32.9609375 17.77734375 C23.118686 11.86939595 13.00142144 6.39784723 2 3 C2 2.34 2 1.68 2 1 C1.34 0.67 0.68 0.34 0 0 Z " fill="#215176" transform="translate(363,220)"/>
<path d="M0 0 C4.92326224 0.5491331 8.39295277 2.80504569 12.5 5.375 C13.15097656 5.77460938 13.80195313 6.17421875 14.47265625 6.5859375 C15.11074219 6.9778125 15.74882812 7.3696875 16.40625 7.7734375 C17.03055908 8.1540332 17.65486816 8.53462891 18.2980957 8.92675781 C19.70027371 9.81098884 21.05195848 10.77476484 22.38671875 11.7578125 C26.29666802 13.61635341 30.03542121 13.4420483 34.3125 13.5 C47.80499373 13.9767364 59.77435771 16.33556077 72.5 20.875 C73.42022949 21.20250244 74.34045898 21.53000488 75.28857422 21.86743164 C80.98143781 23.99097659 85.99122079 26.55867822 91 30 C90.34 30.33 89.68 30.66 89 31 C86.8847392 30.20528337 84.80661235 29.31108141 82.75 28.375 C68.04788314 21.88184976 53.63367256 17.0313795 37.46118164 16.85009766 C26.37242577 16.68889041 20.08944551 14.37954871 11 8 C8.87847394 6.6818921 6.75372604 5.36894813 4.625 4.0625 C3.06237877 3.07404075 1.51186303 2.06447499 0 1 C0 0.67 0 0.34 0 0 Z " fill="#20537A" transform="translate(391,211)"/>
<path d="M0 0 C0.83595703 0.00902344 1.67191406 0.01804688 2.53320312 0.02734375 C4.58475969 0.05079011 6.63616777 0.08665734 8.6875 0.125 C9.1825 1.115 9.1825 1.115 9.6875 2.125 C8.841875 2.10179687 7.99625 2.07859375 7.125 2.0546875 C-3.67741223 1.88283094 -11.11216581 2.63327543 -19.5 10.0625 C-25.57006094 16.96981073 -25.85477225 24.30454651 -25.6484375 33.20703125 C-24.73441461 43.86708886 -18.79430732 51.95438432 -12.3125 60.125 C-13.7975 60.62 -13.7975 60.62 -15.3125 61.125 C-23.56948189 48.88067216 -31.14189293 37.43435551 -28.6875 22 C-26.63351249 13.36514463 -21.52574755 7.17973787 -14.3125 2.125 C-9.67594631 -0.41466184 -5.14031735 -0.10548402 0 0 Z " fill="#235479" transform="translate(348.3125,195.875)"/>
<path d="M0 0 C0.66 0 1.32 0 2 0 C1.835 0.66 1.67 1.32 1.5 2 C-0.13379153 11.80274919 2.63988314 18.76704858 8 27 C10.30862804 29.85656191 12.69222278 32.50267539 15.27734375 35.109375 C17 37 17 37 17 39 C17.66 39 18.32 39 19 39 C19 39.66 19 40.32 19 41 C19.66 41 20.32 41 21 41 C22.72799625 43.08924982 24.31391529 45.16539934 25.875 47.375 C26.32536621 48.01042725 26.77573242 48.64585449 27.23974609 49.30053711 C31.70014925 55.75843931 35.31079501 61.96171083 35 70 C33.19717507 67.2957626 32.02040237 64.84774154 30.75 61.875 C28.67527531 57.22687791 26.27084742 53.12111707 23.33203125 48.97265625 C22.02943515 47.04359165 20.99250822 45.10261221 20 43 C19.34 43 18.68 43 18 43 C16.2734375 41.3203125 16.2734375 41.3203125 14.375 39.125 C13.74335938 38.40570313 13.11171875 37.68640625 12.4609375 36.9453125 C11 35 11 35 11 33 C10.34 33 9.68 33 9 33 C7.40025538 30.82124333 5.93737177 28.65734432 4.5 26.375 C4.09652344 25.75753906 3.69304687 25.14007813 3.27734375 24.50390625 C0.02119995 19.39939039 -2.29370979 14.55993564 -2.25 8.375 C-2.25515625 7.64023438 -2.2603125 6.90546875 -2.265625 6.1484375 C-1.96781656 3.73969275 -1.19513895 2.09623577 0 0 Z " fill="#23567C" transform="translate(340,216)"/>
<path d="M0 0 C4.44031971 4.12315401 7.44514315 7.1713037 7.9375 13.375 C7.834375 14.385625 7.73125 15.39625 7.625 16.4375 C7.3775 15.921875 7.13 15.40625 6.875 14.875 C3.12492328 6.9205808 3.12492328 6.9205808 -3.375 1.4375 C-7.40964484 1.01081065 -11.34648428 0.92575354 -15.375 1.4375 C-16.035 2.0975 -16.695 2.7575 -17.375 3.4375 C-16.95089844 3.80359375 -16.52679688 4.1696875 -16.08984375 4.546875 C-9.48595028 10.64277666 -4.05173531 18.79830139 -1.375 27.4375 C-1.82885742 29.58642578 -1.82885742 29.58642578 -2.375 31.4375 C-2.90609375 30.34050781 -3.4371875 29.24351562 -3.984375 28.11328125 C-4.69759161 26.65869474 -5.41115148 25.2042765 -6.125 23.75 C-6.47304688 23.02876953 -6.82109375 22.30753906 -7.1796875 21.56445312 C-9.21944438 17.42827946 -11.42808999 14.01494255 -14.375 10.4375 C-14.375 9.7775 -14.375 9.1175 -14.375 8.4375 C-15.365 8.1075 -16.355 7.7775 -17.375 7.4375 C-17.375 6.7775 -17.375 6.1175 -17.375 5.4375 C-19.85 4.4475 -19.85 4.4475 -22.375 3.4375 C-22.375 2.4475 -22.375 1.4575 -22.375 0.4375 C-14.98025142 -1.79487693 -7.23692428 -3.35042791 0 0 Z " fill="#255A81" transform="translate(430.375,271.5625)"/>
<path d="M0 0 C2.67338051 2.67338051 3.46295576 5.75699772 4.6875 9.25 C12.15919708 29.7217449 12.15919708 29.7217449 27 45 C31.54710693 46.30625981 35.05970224 46.39321543 39.4375 44.5625 C40.283125 44.046875 41.12875 43.53125 42 43 C42.66 43 43.32 43 44 43 C44 43.66 44 44.32 44 45 C39.12203659 48.09690865 35.10168261 49.80883671 29.29296875 48.7890625 C18.42962758 45.05074067 12.56275514 34.41044366 7.81665039 24.68603516 C-0.65975638 6.81748255 -0.65975638 6.81748255 0 0 Z " fill="#275476" transform="translate(390,467)"/>
<path d="M0 0 C5.35402073 1.44658324 9.27516092 3.98645864 13.75 7.125 C18.01806044 10.56051026 18.01806044 10.56051026 23 12 C24.18292647 13.16384701 25.3609592 14.33318415 26.51074219 15.52978516 C29.1778587 18.16279756 32.16440011 20.39693061 35.125 22.6875 C36.05505859 23.41549805 36.05505859 23.41549805 37.00390625 24.15820312 C39.62023941 26.19781768 42.23867106 28.15911404 45 30 C45 30.66 45 31.32 45 32 C45.5775 32.2475 46.155 32.495 46.75 32.75 C49.3002997 34.16683317 51.01785701 35.87627537 53 38 C52.505 38.99 52.505 38.99 52 40 C51.14341797 39.19949219 51.14341797 39.19949219 50.26953125 38.3828125 C43.49034364 32.15328875 36.39263819 26.47734912 29 21 C28.42701172 20.57541504 27.85402344 20.15083008 27.26367188 19.71337891 C18.58650104 13.32184273 9.66269982 6.83134991 0 2 C0 1.34 0 0.68 0 0 Z " fill="#215277" transform="translate(497,249)"/>
<path d="M0 0 C2.52191478 2.24229665 3.69626717 4.22527438 4.91015625 7.359375 C5.25498047 8.22062988 5.59980469 9.08188477 5.95507812 9.96923828 C6.32052734 10.88688965 6.68597656 11.80454102 7.0625 12.75 C12.58171087 26.08505204 19.97613788 37.03812499 29.3828125 47.92578125 C31 50 31 50 31 52 C26.10871748 50.36957249 23.99609985 46.0447348 21 42 C20.35546875 41.18144531 19.7109375 40.36289062 19.046875 39.51953125 C11.76023996 30.03829943 0 12.41468805 0 0 Z " fill="#225377" transform="translate(383,313)"/>
<path d="M0 0 C2.17741201 2.73598246 3.75168563 5.36804165 5.1640625 8.5625 C5.55972412 9.43656494 5.95538574 10.31062988 6.36303711 11.21118164 C6.77948486 12.1314917 7.19593262 13.05180176 7.625 14 C11.58959665 22.56708155 15.9173511 29.74808935 22 37 C23.00824436 38.32711005 24.01144065 39.65816238 25 41 C24.67 41.66 24.34 42.32 24 43 C13.28491626 32.46608917 4.43225765 18.43982888 0 4 C0 2.68 0 1.36 0 0 Z " fill="#225073" transform="translate(370,324)"/>
<path d="M0 0 C3.19789201 0.62312852 5.3738036 1.72019964 8.0546875 3.5546875 C8.82820557 4.08199463 9.60172363 4.60930176 10.39868164 5.15258789 C11.2158667 5.72098389 12.03305176 6.28937988 12.875 6.875 C13.71474365 7.45564209 14.5544873 8.03628418 15.41967773 8.63452148 C20.72051355 12.33115036 25.94980782 16.1093593 31.0625 20.0625 C31.63919434 20.50255371 32.21588867 20.94260742 32.81005859 21.39599609 C35.6718906 23.65699184 37.71404705 25.54150542 39 29 C34.96969778 26.35884041 31.08720257 23.6068852 27.25 20.6875 C22.740068 17.28419743 18.1755837 13.99142153 13.53515625 10.76953125 C10.63224932 8.74331116 7.74925375 6.69167287 4.875 4.625 C3.94429687 3.95726562 3.01359375 3.28953125 2.0546875 2.6015625 C1.37664063 2.07304688 0.69859375 1.54453125 0 1 C0 0.67 0 0.34 0 0 Z " fill="#205177" transform="translate(696,560)"/>
<path d="M0 0 C0.66 0 1.32 0 2 0 C4 2.5 4 2.5 6 5 C7.3921875 6.0828125 7.3921875 6.0828125 8.8125 7.1875 C16.12973704 13.23617082 19.73592699 21.17135384 23 29.875 C23.31509521 30.70789551 23.63019043 31.54079102 23.95483398 32.39892578 C24.23786377 33.19282715 24.52089355 33.98672852 24.8125 34.8046875 C25.06644531 35.51608887 25.32039063 36.22749023 25.58203125 36.96044922 C26.0616311 39.30073962 25.7424943 40.75294454 25 43 C24.79246094 42.46375 24.58492188 41.9275 24.37109375 41.375 C23.69793458 39.66252813 23.01285682 37.95472448 22.3203125 36.25 C21.62681262 34.54292337 20.93578428 32.83470238 20.26855469 31.1171875 C16.53196458 21.52895628 12.58228511 14.21380023 5 7 C3.31129497 5.35047606 1.64275505 3.69574715 0 2 C0 1.34 0 0.68 0 0 Z " fill="#245275" transform="translate(336,258)"/>
<path d="M0 0 C3.53062596 0.58453102 5.22774632 1.83345141 7.7578125 4.32421875 C8.46172119 5.01717041 9.16562988 5.71012207 9.89086914 6.42407227 C10.62813232 7.17100342 11.36539551 7.91793457 12.125 8.6875 C12.87966553 9.44538818 13.63433105 10.20327637 14.41186523 10.98413086 C20.75433847 17.48419795 26.08542651 24.38059983 31 32 C30.67 32.66 30.34 33.32 30 34 C28.93072266 32.60587891 28.93072266 32.60587891 27.83984375 31.18359375 C22.87305248 24.75490851 17.96793 18.54164928 12 13 C10.33333333 11.33333333 8.66666667 9.66666667 7 8 C6.38511719 7.39671875 5.77023437 6.7934375 5.13671875 6.171875 C4.49347656 5.53765625 3.85023438 4.9034375 3.1875 4.25 C2.58292969 3.65703125 1.97835937 3.0640625 1.35546875 2.453125 C0 1 0 1 0 0 Z " fill="#215174" transform="translate(736,590)"/>
<path d="M0 0 C0.70237793 0.1119873 1.40475586 0.22397461 2.12841797 0.33935547 C4.23625689 0.68199472 6.33643849 1.05566683 8.4375 1.4375 C9.15615234 1.55931641 9.87480469 1.68113281 10.61523438 1.80664062 C12.42391468 2.13626791 14.21482402 2.56053972 16 3 C16.33 3.66 16.66 4.32 17 5 C19.34038186 6.13102526 19.34038186 6.13102526 22.0625 7.125 C22.98160156 7.47820312 23.90070313 7.83140625 24.84765625 8.1953125 C25.55792969 8.46085938 26.26820313 8.72640625 27 9 C24.50935112 9.68707555 22.62113708 10 20 10 C20 9.34 20 8.68 20 8 C9.43450162 5.16535409 -1.26654399 3.08458367 -12 1 C-7.81200723 -1.41189969 -4.60429919 -0.81069626 0 0 Z " fill="#22557B" transform="translate(440,245)"/>
<path d="M0 0 C0.33 0 0.66 0 1 0 C1.01981934 0.66942627 1.03963867 1.33885254 1.06005859 2.02856445 C1.15655166 5.12353971 1.26571634 8.21795099 1.375 11.3125 C1.4059375 12.36501953 1.436875 13.41753906 1.46875 14.50195312 C1.69630095 20.66479143 2.30398626 26.51534438 3.58447266 32.55151367 C4.01362881 35.08030749 4.07032128 37.44013371 4 40 C3.34 39.67 2.68 39.34 2 39 C1.32792443 36.68781342 0.81208893 34.48483308 0.375 32.125 C0.17825684 31.0736084 0.17825684 31.0736084 -0.02246094 30.00097656 C-1.61527998 20.56404087 -2.58578885 9.29122125 0 0 Z " fill="#204F73" transform="translate(386,426)"/>
<path d="M0 0 C0.66 0 1.32 0 2 0 C2.20753906 0.70382812 2.41507812 1.40765625 2.62890625 2.1328125 C6.08766028 13.21819153 10.78573861 23.81821278 18 33 C17.01 33 16.02 33 15 33 C10.04060865 27.8933 6.98447523 21.24856024 4.125 14.8125 C3.8269043 14.14798828 3.52880859 13.48347656 3.22167969 12.79882812 C1.39271042 8.51065104 0.46937718 4.63961289 0 0 Z " fill="#1F5174" transform="translate(404,464)"/>
<path d="M0 0 C2 0 2 0 3.48046875 1.36328125 C9.82283754 8.60548268 15.98196865 16.75727898 19 26 C18.5625 28.19140625 18.5625 28.19140625 18 30 C17.46890625 28.90300781 16.9378125 27.80601562 16.390625 26.67578125 C15.67740839 25.22119474 14.96384852 23.7667765 14.25 22.3125 C13.90195312 21.59126953 13.55390625 20.87003906 13.1953125 20.12695312 C11.15555562 15.99077946 8.94691001 12.57744255 6 9 C6 8.34 6 7.68 6 7 C5.01 6.67 4.02 6.34 3 6 C3 5.34 3 4.68 3 4 C2.01 3.67 1.02 3.34 0 3 C0 2.01 0 1.02 0 0 Z " fill="#225275" transform="translate(410,273)"/>
<path d="M0 0 C1.8055478 5.54377124 0.36662468 11.33345741 -0.3125 17 C-0.44333984 18.18851562 -0.57417969 19.37703125 -0.70898438 20.6015625 C-0.84240234 21.74367188 -0.97582031 22.88578125 -1.11328125 24.0625 C-1.23485596 25.10535156 -1.35643066 26.14820313 -1.48168945 27.22265625 C-1.97078035 29.84342782 -2.67095839 31.70809884 -4 34 C-4.25516845 26.77022727 -3.89096073 19.68433379 -3.125 12.5 C-3.04652832 11.72285645 -2.96805664 10.94571289 -2.88720703 10.14501953 C-2.46248362 6.40729043 -2.0350466 3.21503161 0 0 Z " fill="#21547B" transform="translate(428,459)"/>
<path d="M0 0 C2.71262827 2.71262827 3.55425368 5.89507766 4.8125 9.4375 C6.98552487 15.42039116 9.35842667 21.21785677 12.1171875 26.9609375 C13 29 13 29 13 31 C12.34 31 11.68 31 11 31 C-0.66458121 6.86733912 -0.66458121 6.86733912 0 0 Z " fill="#224E70" transform="translate(390,467)"/>
<path d="M0 0 C0.33 0 0.66 0 1 0 C1.40178389 6.54014893 0.18262463 11.07948525 -2.375 17.0625 C-3.0107885 18.59381987 -3.64364906 20.12635898 -4.2734375 21.66015625 C-4.57217773 22.38734863 -4.87091797 23.11454102 -5.17871094 23.86376953 C-6.3324116 26.86462589 -7.18274392 29.89195036 -8 33 C-8.66 33 -9.32 33 -10 33 C-9.0520372 26.05372086 -6.86960406 19.86047865 -4.18652344 13.42333984 C-2.34641373 8.9781182 -0.96053175 4.70660555 0 0 Z " fill="#245374" transform="translate(414,369)"/>
<path d="M0 0 C0.33 0 0.66 0 1 0 C1.48825104 7.16101529 0.88795842 13.68486657 -0.8125 20.625 C-0.97782227 21.32367188 -1.14314453 22.02234375 -1.31347656 22.7421875 C-2.3032885 26.52994239 -2.63206305 27.7547087 -6 30 C-4 20 -2 10 0 0 Z " fill="#1F5176" transform="translate(447,468)"/>
<path d="M0 0 C6.06892629 -0.25287193 11.16200408 0.30167391 17 2 C17 2.33 17 2.66 17 3 C1.25512528 5.29612756 1.25512528 5.29612756 -6 5 C-3 3 -3 3 0 3 C0 2.01 0 1.02 0 0 Z " fill="#225882" transform="translate(728,544)"/>
<path d="M0 0 C4.68669733 4.32618215 9.80723329 9.56193389 11 16 C9.68 15.34 8.36 14.68 7 14 C7 13.34 7 12.68 7 12 C4.66785852 10.79371992 2.50357861 9.8345262 0 9 C-0.33 8.01 -0.66 7.02 -1 6 C-0.34 6 0.32 6 1 6 C0.34 4.35 -0.32 2.7 -1 1 C-0.67 0.67 -0.34 0.34 0 0 Z " fill="#335D7C" transform="translate(500,519)"/>
<path d="M0 0 C5.69138774 0.51682591 10.3251561 1.63120585 15.5625 3.875 C16.18318359 4.13152344 16.80386719 4.38804687 17.44335938 4.65234375 C19.30077695 5.4232011 21.15120614 6.2087026 23 7 C23.66757324 7.28520508 24.33514648 7.57041016 25.02294922 7.86425781 C26.68266139 8.57454952 28.34142842 9.28704902 30 10 C30 10.66 30 11.32 30 12 C23.67396549 10.00230489 17.54226665 7.66753901 11.40600586 5.15771484 C7.64385628 3.6259224 3.86757977 2.24166539 0 1 C0 0.67 0 0.34 0 0 Z " fill="#205177" transform="translate(359,198)"/>
<path d="M0 0 C8.45329369 3.95360764 15.06800492 9.88227328 22 16 C21.01 16.33 20.02 16.66 19 17 C16.94136815 15.52524911 15.12613705 14.05665233 13.25 12.375 C9.85192227 9.4194339 6.48639205 6.52665856 2.75 4 C1.8425 3.34 0.935 2.68 0 2 C0 1.34 0 0.68 0 0 Z " fill="#215175" transform="translate(698,511)"/>
<path d="M0 0 C5.24122097 0.4137806 9.1630139 2.43022547 13.73046875 4.84375 C16.06688201 6.10500838 16.06688201 6.10500838 19 7 C20.1875 9.0625 20.1875 9.0625 21 11 C17.68930999 11 16.59363813 10.41483015 13.76953125 8.8125 C12.96708984 8.36132812 12.16464844 7.91015625 11.33789062 7.4453125 C10.50451172 6.96835937 9.67113281 6.49140625 8.8125 6 C7.96751953 5.52304687 7.12253906 5.04609375 6.25195312 4.5546875 C4.16468168 3.3754381 2.08094018 2.19037503 0 1 C0 0.67 0 0.34 0 0 Z " fill="#2A5779" transform="translate(751,619)"/>
<path d="M0 0 C2.34762489 2.34762489 3.32531424 4.56376626 4.75 7.5625 C7.4300289 13.03477575 10.46876624 18.04124621 14 23 C13.01 23 12.02 23 11 23 C9.33220867 20.77627822 7.87574752 18.61501386 6.4375 16.25 C5.83905273 15.29867187 5.83905273 15.29867187 5.22851562 14.328125 C-0.30345528 5.46219501 -0.30345528 5.46219501 0 0 Z " fill="#224C6C" transform="translate(322,234)"/>
<path d="M0 0 C2.92611963 0.43031171 4.94300333 0.965802 7.5 2.5 C12.29758817 4.55610922 16.70620207 4.56493365 21.875 4.6875 C23.33679688 4.73874023 23.33679688 4.73874023 24.828125 4.79101562 C27.21863491 4.87304293 29.60879905 4.94233848 32 5 C32 5.33 32 5.66 32 6 C10.56904401 8.02427921 10.56904401 8.02427921 3 3 C1.96827859 2.03276118 0.95724328 1.04100207 0 0 Z " fill="#1D4461" transform="translate(400,239)"/>
<path d="M0 0 C3.12623069 2.92565394 5.4522122 5.95379481 7.75 9.5625 C8.67039062 10.98755859 8.67039062 10.98755859 9.609375 12.44140625 C11 15 11 15 11 18 C8.36 15.69 5.72 13.38 3 11 C3.33 10.34 3.66 9.68 4 9 C3.2308002 7.27317419 3.2308002 7.27317419 2.0625 5.5 C0 2.2 0 2.2 0 0 Z " fill="#1F6BA3" transform="translate(489,506)"/>
<path d="M0 0 C3.49124426 1.74562213 3.9657738 5.898806 5.1875 9.4375 C5.47302734 10.22705078 5.75855469 11.01660156 6.05273438 11.83007812 C6.31763672 12.58611328 6.58253906 13.34214844 6.85546875 14.12109375 C7.22128052 15.16414673 7.22128052 15.16414673 7.59448242 16.22827148 C8 18 8 18 7 20 C4.36562124 16.85988091 3.07995273 13.88491259 1.8125 10 C1.46832031 8.96875 1.12414062 7.9375 0.76953125 6.875 C0 4 0 4 0 0 Z " fill="#235073" transform="translate(362,302)"/>
<path d="M0 0 C5.57142857 5.14285714 5.57142857 5.14285714 6 9 C2.84493858 9.93619813 0.03413498 10.1057123 -3.25 10.0625 C-4.14203125 10.05347656 -5.0340625 10.04445313 -5.953125 10.03515625 C-6.62859375 10.02355469 -7.3040625 10.01195312 -8 10 C-4.91111478 7.94074319 -4.29064073 7.7609626 -0.8125 7.875 C1.0746875 7.936875 1.0746875 7.936875 3 8 C2.505 7.236875 2.01 6.47375 1.5 5.6875 C0 3 0 3 0 0 Z " fill="#2B5879" transform="translate(749,536)"/>
<path d="M0 0 C0.66 0.33 1.32 0.66 2 1 C2.625 3.5625 2.625 3.5625 3 6 C2.34 6 1.68 6 1 6 C1 5.34 1 4.68 1 4 C-1.97 6.475 -1.97 6.475 -5 9 C-5 4.61031544 -2.87194899 3.23094261 0 0 Z " fill="#2A5C7E" transform="translate(450,420)"/>
<path d="M0 0 C0.66 0 1.32 0 2 0 C1.34 4.95 0.68 9.9 0 15 C-2 13 -2 13 -2.265625 10.9765625 C-2.26046875 10.20054687 -2.2553125 9.42453125 -2.25 8.625 C-2.25515625 7.85414063 -2.2603125 7.08328125 -2.265625 6.2890625 C-1.97688045 3.8007639 -1.24139229 2.15765802 0 0 Z " fill="#205072" transform="translate(340,216)"/>
<path d="M0 0 C5.75 4.625 5.75 4.625 8 8 C5.03 7.01 2.06 6.02 -1 5 C-1 2 -1 2 0 0 Z " fill="#22689D" transform="translate(761,618)"/>
<path d="M0 0 C2.52588702 2.36292656 3.88820837 3.66462511 5 7 C4.34 7.66 3.68 8.32 3 9 C2.01 9 1.02 9 0 9 C-0.33 8.01 -0.66 7.02 -1 6 C-0.34 6 0.32 6 1 6 C0.34 4.35 -0.32 2.7 -1 1 C-0.67 0.67 -0.34 0.34 0 0 Z " fill="#285F87" transform="translate(500,519)"/>
<path d="M0 0 C0.66 0 1.32 0 2 0 C0.93204565 4.50066475 -0.14038586 8.7494534 -2 13 C-2.33 13 -2.66 13 -3 13 C-2.52060632 8.28596212 -2.03165952 4.33420699 0 0 Z " fill="#205177" transform="translate(395,379)"/>
<path d="M0 0 C3 1 3 1 4.6875 3.125 C6.274286 6.60081696 6.2222986 9.22092373 6 13 C5.7525 12.484375 5.505 11.96875 5.25 11.4375 C4.18746118 9.36554929 3.05551546 7.38020179 1.875 5.375 C0 2 0 2 0 0 Z " fill="#235376" transform="translate(432,275)"/>
<path d="M0 0 C0 0.66 0 1.32 0 2 C-1.98 2.33 -3.96 2.66 -6 3 C-5.67 3.99 -5.34 4.98 -5 6 C-5.99 5.67 -6.98 5.34 -8 5 C-8.33 4.01 -8.66 3.02 -9 2 C-5.62902617 0.50178941 -3.79557881 0 0 0 Z " fill="#205175" transform="translate(700,553)"/>
<path d="M0 0 C3.81684226 1.55500981 6.19195732 4.03595495 9 7 C8.67 7.99 8.34 8.98 8 10 C6.66370254 8.52351062 5.33103329 7.0437367 4 5.5625 C3.2575 4.73878906 2.515 3.91507812 1.75 3.06640625 C0 1 0 1 0 0 Z " fill="#1F4A6A" transform="translate(561,300)"/>
<path d="M0 0 C0.33 0 0.66 0 1 0 C1.50130606 5.26371362 0.31168629 7.9090934 -3 12 C-3.66 12 -4.32 12 -5 12 C-4.731875 11.505 -4.46375 11.01 -4.1875 10.5 C-2.56124507 7.0763054 -1.30484829 3.55867715 0 0 Z " fill="#225071" transform="translate(437,292)"/>
<path d="M0 0 C4.43458973 1.3937282 6.87378374 3.60582235 10 7 C9.67 7.66 9.34 8.32 9 9 C7.49704815 7.69088122 5.99770689 6.37761608 4.5 5.0625 C3.6646875 4.33160156 2.829375 3.60070312 1.96875 2.84765625 C1.3190625 2.23792969 0.669375 1.62820313 0 1 C0 0.67 0 0.34 0 0 Z " fill="#1E4B6A" transform="translate(540,280)"/>
<path d="M0 0 C3.78717347 1.48781815 5.77407001 3.61988409 8 7 C7.67 7.99 7.34 8.98 7 10 C6.67 9.01 6.34 8.02 6 7 C5.34 7 4.68 7 4 7 C2.02 3.535 2.02 3.535 0 0 Z " fill="#215276" transform="translate(345,242)"/>
<path d="M0 0 C0.75 1.625 0.75 1.625 1 4 C-0.8125 7.25 -0.8125 7.25 -3 10 C-3.66 10 -4.32 10 -5 10 C-3.66511872 6.40608886 -2.03977277 3.24509304 0 0 Z " fill="#245476" transform="translate(440,499)"/>
<path d="M0 0 C1.485 0.99 1.485 0.99 3 2 C3.3125 5.5 3.3125 5.5 3 9 C2.34 9.66 1.68 10.32 1 11 C0.67 7.37 0.34 3.74 0 0 Z " fill="#225375" transform="translate(396,367)"/>
<path d="M0 0 C3.67230705 3.07999946 4.56802365 5.2482602 5 10 C2.59927045 7.11912454 0.52708963 4.43595166 -1 1 C-0.67 0.67 -0.34 0.34 0 0 Z " fill="#215277" transform="translate(568,339)"/>
<path d="M0 0 C1.34173403 0.92543709 2.67320159 1.86577405 4 2.8125 C5.11375 3.59560547 5.11375 3.59560547 6.25 4.39453125 C6.8275 4.92433594 7.405 5.45414062 8 6 C8 6.99 8 7.98 8 9 C6.84775972 8.07038578 5.70340824 7.1309875 4.5625 6.1875 C3.60537109 5.40439453 3.60537109 5.40439453 2.62890625 4.60546875 C1 3 1 3 0 0 Z " fill="#1E4969" transform="translate(530,295)"/>
<path d="M0 0 C2.83022097 3.99560608 1.76210446 7.42737323 1 12 C-1.83022097 8.00439392 -0.76210446 4.57262677 0 0 Z " fill="#286189" transform="translate(438,284)"/>
<path d="M0 0 C3.53372712 1.96318174 6.24479785 4.04070881 9 7 C5.13066838 6.42676569 2.84777943 4.61046448 0 2 C0 1.34 0 0.68 0 0 Z " fill="#1D4A6A" transform="translate(514,282)"/>
<path d="M0 0 C1.98 0.99 1.98 0.99 4 2 C4 2.66 4 3.32 4 4 C4.66 4 5.32 4 6 4 C5.67 5.32 5.34 6.64 5 8 C0 2.25 0 2.25 0 0 Z " fill="#255578" transform="translate(468,492)"/>
<path d="M0 0 C2.97 0.99 5.94 1.98 9 3 C5 5 5 5 2.25 4.125 C1.5075 3.75375 0.765 3.3825 0 3 C0 2.01 0 1.02 0 0 Z " fill="#265D85" transform="translate(651,468)"/>
<path d="M0 0 C0.99 0.33 1.98 0.66 3 1 C2.01 1 1.02 1 0 1 C0 0.67 0 0.34 0 0 Z " fill="#2A6A99" transform="translate(485,240)"/>
<path d="" fill="#346D97" transform="translate(0,0)"/>
<path d="" fill="#2D6B99" transform="translate(0,0)"/>
<path d="M0 0 C2 1 2 1 2 1 Z " fill="#316C9B" transform="translate(544,280)"/>
<path d="M0 0 C2 1 2 1 2 1 Z " fill="#2E6D9B" transform="translate(440,224)"/>
<path d="" fill="#6D6E6D" transform="translate(0,0)"/>
<path d="" fill="#44708F" transform="translate(0,0)"/>
<path d="" fill="#3F6F94" transform="translate(0,0)"/>
<path d="" fill="#43708F" transform="translate(0,0)"/>
<path d="" fill="#3E7296" transform="translate(0,0)"/>
<path d="" fill="#316D9C" transform="translate(0,0)"/>
<path d="" fill="#2F6E9D" transform="translate(0,0)"/>
<path d="" fill="#2F709E" transform="translate(0,0)"/>
<path d="" fill="#2C6D9E" transform="translate(0,0)"/>
<path d="" fill="#2E709F" transform="translate(0,0)"/>
<path d="" fill="#2C6D9A" transform="translate(0,0)"/>
<path d="" fill="#296EA1" transform="translate(0,0)"/>
<path d="" fill="#316B99" transform="translate(0,0)"/>
<path d="" fill="#326C9B" transform="translate(0,0)"/>
<path d="" fill="#2E6D9D" transform="translate(0,0)"/>
<path d="" fill="#326D99" transform="translate(0,0)"/>
<path d="" fill="#2E70A0" transform="translate(0,0)"/>
<path d="" fill="#336F9B" transform="translate(0,0)"/>
<path d="" fill="#336E97" transform="translate(0,0)"/>
<path d="" fill="#376F9A" transform="translate(0,0)"/>
<path d="" fill="#2D6F9E" transform="translate(0,0)"/>
<path d="" fill="#326F9A" transform="translate(0,0)"/>
<path d="" fill="#417095" transform="translate(0,0)"/>
<path d="" fill="#427296" transform="translate(0,0)"/>
<path d="" fill="#437497" transform="translate(0,0)"/>
<path d="" fill="#356D99" transform="translate(0,0)"/>
<path d="" fill="#346F99" transform="translate(0,0)"/>
<path d="" fill="#37709A" transform="translate(0,0)"/>
<path d="" fill="#376F97" transform="translate(0,0)"/>
<path d="" fill="#38719B" transform="translate(0,0)"/>
<path d="" fill="#356D96" transform="translate(0,0)"/>
<path d="" fill="#2C6E9F" transform="translate(0,0)"/>
<path d="" fill="#2E6DA0" transform="translate(0,0)"/>
<path d="" fill="#2B6C9A" transform="translate(0,0)"/>
<path d="" fill="#2D6B98" transform="translate(0,0)"/>
<path d="" fill="#356D96" transform="translate(0,0)"/>
<path d="" fill="#36709B" transform="translate(0,0)"/>
<path d="" fill="#2B6D9B" transform="translate(0,0)"/>
<path d="" fill="#2F6D9C" transform="translate(0,0)"/>
<path d="" fill="#34709A" transform="translate(0,0)"/>
<path d="" fill="#2F6C9A" transform="translate(0,0)"/>
<path d="" fill="#2C6B9E" transform="translate(0,0)"/>
<path d="" fill="#36709B" transform="translate(0,0)"/>
<path d="" fill="#326C98" transform="translate(0,0)"/>
<path d="" fill="#2B6B9A" transform="translate(0,0)"/>
<path d="" fill="#2B6B9B" transform="translate(0,0)"/>
<path d="" fill="#2C6D9C" transform="translate(0,0)"/>
<path d="" fill="#2C6F9B" transform="translate(0,0)"/>
<path d="" fill="#34719B" transform="translate(0,0)"/>
<path d="" fill="#336F9B" transform="translate(0,0)"/>
<path d="" fill="#2E6E9B" transform="translate(0,0)"/>
<path d="" fill="#2B70A1" transform="translate(0,0)"/>
<path d="" fill="#2D6E9E" transform="translate(0,0)"/>
<path d="" fill="#2E6C9B" transform="translate(0,0)"/>
<path d="" fill="#2F6D98" transform="translate(0,0)"/>
<path d="" fill="#2E6C9C" transform="translate(0,0)"/>
<path d="" fill="#35719A" transform="translate(0,0)"/>
<path d="" fill="#2E6D9B" transform="translate(0,0)"/>
<path d="" fill="#2E6A9A" transform="translate(0,0)"/>
<path d="" fill="#2E6D99" transform="translate(0,0)"/>
<path d="" fill="#2A6B99" transform="translate(0,0)"/>
<path d="" fill="#2F6B9B" transform="translate(0,0)"/>
<path d="" fill="#2C6D9B" transform="translate(0,0)"/>
<path d="" fill="#2F709E" transform="translate(0,0)"/>
<path d="" fill="#316B98" transform="translate(0,0)"/>
<path d="" fill="#2D6C9D" transform="translate(0,0)"/>
<path d="" fill="#2D6E9E" transform="translate(0,0)"/>
<path d="" fill="#30709F" transform="translate(0,0)"/>
<path d="" fill="#2D6D98" transform="translate(0,0)"/>
<path d="" fill="#2F6D99" transform="translate(0,0)"/>
<path d="" fill="#2E6B9A" transform="translate(0,0)"/>
<path d="" fill="#2E6E9C" transform="translate(0,0)"/>
<path d="" fill="#2D6E9E" transform="translate(0,0)"/>
<path d="" fill="#296B9C" transform="translate(0,0)"/>
<path d="" fill="#2C6C97" transform="translate(0,0)"/>
<path d="" fill="#2D6D9A" transform="translate(0,0)"/>
<path d="" fill="#2D6C9A" transform="translate(0,0)"/>
<path d="" fill="#2C6C9A" transform="translate(0,0)"/>
<path d="" fill="#2B6999" transform="translate(0,0)"/>
<path d="" fill="#2D6C9A" transform="translate(0,0)"/>
<path d="" fill="#2C6C9B" transform="translate(0,0)"/>
<path d="" fill="#306F9D" transform="translate(0,0)"/>
<path d="" fill="#34719D" transform="translate(0,0)"/>
<path d="" fill="#34709F" transform="translate(0,0)"/>
<path d="" fill="#326E99" transform="translate(0,0)"/>
<path d="" fill="#306E9B" transform="translate(0,0)"/>
<path d="" fill="#2C6C9C" transform="translate(0,0)"/>
<path d="" fill="#2B6C9C" transform="translate(0,0)"/>
<path d="" fill="#316F9C" transform="translate(0,0)"/>
<path d="" fill="#306E9B" transform="translate(0,0)"/>
<path d="" fill="#3070A0" transform="translate(0,0)"/>
<path d="" fill="#306E9B" transform="translate(0,0)"/>
<path d="" fill="#2F6D97" transform="translate(0,0)"/>
<path d="" fill="#2C6D9D" transform="translate(0,0)"/>
<path d="" fill="#2E6D9A" transform="translate(0,0)"/>
<path d="" fill="#316E9A" transform="translate(0,0)"/>
<path d="" fill="#2E6E9B" transform="translate(0,0)"/>
<path d="" fill="#296C9C" transform="translate(0,0)"/>
<path d="" fill="#2B6CA1" transform="translate(0,0)"/>
<path d="" fill="#2D6E9E" transform="translate(0,0)"/>
<path d="" fill="#2D6E9C" transform="translate(0,0)"/>
<path d="" fill="#2F6A95" transform="translate(0,0)"/>
<path d="" fill="#2B6A98" transform="translate(0,0)"/>
<path d="" fill="#2B6EA0" transform="translate(0,0)"/>
<path d="" fill="#2A6FA1" transform="translate(0,0)"/>
<path d="" fill="#316C97" transform="translate(0,0)"/>
<path d="" fill="#326E9A" transform="translate(0,0)"/>
<path d="" fill="#316E9C" transform="translate(0,0)"/>
<path d="" fill="#2A6D9E" transform="translate(0,0)"/>
<path d="" fill="#2C6E9E" transform="translate(0,0)"/>
<path d="" fill="#2D6DA0" transform="translate(0,0)"/>
<path d="" fill="#2C6FA2" transform="translate(0,0)"/>
<path d="" fill="#32709A" transform="translate(0,0)"/>
<path d="" fill="#2B70A1" transform="translate(0,0)"/>
<path d="" fill="#326D9B" transform="translate(0,0)"/>
<path d="" fill="#397098" transform="translate(0,0)"/>
<path d="" fill="#2F6F9D" transform="translate(0,0)"/>
</svg>
