<?xml version="1.0" encoding="UTF-8"?>
<svg version="1.1" xmlns="http://www.w3.org/2000/svg" width="1024" height="1024">
<path d="M0 0 C0.98911377 0.56807373 1.97822754 1.13614746 2.99731445 1.72143555 C6.10844847 3.51236746 9.21150555 5.31657599 12.3125 7.125 C13.28445313 7.6907373 14.25640625 8.25647461 15.2578125 8.83935547 C19.16814178 11.11664798 23.07671102 13.39689249 26.98168945 15.68334961 C34.68861551 20.1930441 42.43051413 24.63967708 50.1875 29.0625 C68.60609479 39.56683753 86.97121837 50.16139849 105.27880859 60.8581543 C115.84179962 67.02610308 126.43977355 73.13299011 137.0390625 79.23828125 C140.2772516 81.1046838 143.51389438 82.97373763 146.75 84.84375 C159.96956279 92.48232419 159.96956279 92.48232419 173.22265625 100.0625 C175.56521176 101.39564441 177.90769555 102.72891453 180.25 104.0625 C181.11773041 104.5565332 181.11773041 104.5565332 182.00299072 105.06054688 C191.49527619 110.46977678 200.90858851 116.00388467 210.29504395 121.59439087 C217.25843062 125.74087958 224.24157023 129.83021172 231.3269043 133.7644043 C237.22647735 137.0491398 243.04920928 140.46149045 248.875 143.875 C257.02663871 148.64826676 265.20906763 153.36032593 273.4375 158 C274.39342041 158.53987549 275.34934082 159.07975098 276.33422852 159.63598633 C280.42002248 161.94103994 284.50963353 164.23783747 288.6171875 166.50390625 C297.40483392 171.37808493 304.0648719 176.27083896 310.3125 184.125 C310.9725 184.785 311.6325 185.445 312.3125 186.125 C313.36714649 188.0967304 314.35855164 190.10262948 315.3125 192.125 C315.828125 193.1975 316.34375 194.27 316.875 195.375 C320.61526423 204.39319757 320.60097568 213.76104998 320.57319641 223.3822937 C320.57622161 224.80955489 320.58011293 226.23681446 320.58478898 227.6640712 C320.59503023 231.56328314 320.59289709 235.46240272 320.58860838 239.3616221 C320.58613411 243.57576747 320.595164 247.78989102 320.60264587 252.00402832 C320.61537529 260.2511041 320.61718877 268.4981473 320.61484561 276.74523126 C320.61306037 283.4506527 320.6148165 290.15606427 320.61907005 296.86148453 C320.61966524 297.81693994 320.62026043 298.77239536 320.62087366 299.75680397 C320.62208545 301.69800185 320.62329958 303.63919974 320.62451603 305.58039762 C320.63538474 323.77237178 320.63323221 341.96432739 320.62713119 360.15630259 C320.62196227 376.78595601 320.633218 393.41555086 320.65222941 410.0451927 C320.67161756 427.13588032 320.67986211 444.22654024 320.67610615 461.31723893 C320.67419564 470.90621311 320.67666711 480.49513744 320.69082069 490.08410263 C320.70274789 498.2470493 320.70412434 506.40991541 320.69203053 514.57286321 C320.68615134 518.73436928 320.68501577 522.8957281 320.69703293 527.05722427 C320.70792369 530.87311929 320.70475076 534.68874467 320.69077124 538.50462724 C320.68689153 540.52533949 320.69764521 542.54606386 320.70906812 544.56674755 C320.62459639 558.90195216 317.54600246 572.04501794 307.2734375 582.55078125 C302.49449854 587.21321968 297.38642061 590.42086321 291.5625 593.625 C289.43178927 594.83244722 287.30160421 596.0408224 285.171875 597.25 C284.05619141 597.87777344 282.94050781 598.50554688 281.79101562 599.15234375 C276.37733441 602.22242687 271.01725023 605.38225996 265.65475464 608.5406189 C262.58074233 610.35003264 259.50320683 612.15343089 256.42578125 613.95703125 C255.82415665 614.30973587 255.22253204 614.66244049 254.60267639 615.02583313 C245.81822893 620.17475631 237.02053717 625.30097288 228.22314453 630.42773438 C225.28189161 632.14284848 222.34193984 633.86017294 219.40234375 635.578125 C209.01555955 641.64652086 198.61345065 647.6866152 188.1875 653.6875 C180.2002074 658.28547522 172.2383168 662.92184749 164.3125 667.625 C155.2909937 672.9783309 146.21716956 678.23646374 137.125 683.46875 C128.84657401 688.2342269 120.59166191 693.03864722 112.34545898 697.85961914 C105.08073606 702.10307375 97.79343166 706.30612625 90.5 710.5 C81.45818125 715.70153837 72.46430608 720.97896743 63.5 726.3125 C54.86712366 731.44783201 46.19980634 736.50858552 37.46386719 741.46630859 C27.8669962 746.92367769 18.35425802 752.52407071 8.83668518 758.11813354 C7.11170621 759.13168545 5.38605747 760.14409719 3.66040039 761.15649414 C1.42985561 762.46801478 -0.79753759 763.78491032 -3.02172852 765.10717773 C-4.06901123 765.72665283 -5.11629395 766.34612793 -6.1953125 766.984375 C-7.11586426 767.5319043 -8.03641602 768.07943359 -8.98486328 768.64355469 C-20.3269559 774.86070175 -32.48636792 776.0596508 -45 772.75 C-53.79278747 769.6666767 -61.69912463 764.8495863 -69.6875 760.125 C-70.67556641 759.54137695 -71.66363281 758.95775391 -72.68164062 758.35644531 C-77.12903466 755.72545776 -81.57384227 753.09020499 -86.01196289 750.44360352 C-94.36843534 745.46551713 -102.7906921 740.61341376 -111.25 735.8125 C-119.89400122 730.90660907 -128.45913161 725.90753123 -136.90234375 720.66308594 C-141.76979272 717.64779005 -146.71945559 714.86051136 -151.81640625 712.24609375 C-153.6875 711.125 -153.6875 711.125 -154.6875 709.125 C-156.34145045 708.42738253 -158.01070727 707.7657717 -159.6875 707.125 C-161.35993594 706.2231087 -163.01424743 705.28707406 -164.65234375 704.32421875 C-165.6060083 703.76581299 -166.55967285 703.20740723 -167.54223633 702.63208008 C-168.55954834 702.03161865 -169.57686035 701.43115723 -170.625 700.8125 C-171.68678467 700.18947998 -172.74856934 699.56645996 -173.8425293 698.92456055 C-181.81613037 694.24168955 -189.7745325 689.53287931 -197.73046875 684.82006836 C-204.46546785 680.83425983 -211.23296077 676.90738335 -218.01269531 672.99829102 C-222.62066799 670.3364556 -227.19819494 667.63160958 -231.75 664.875 C-238.46143311 660.81269471 -245.25920136 656.9060404 -252.0625 653 C-262.89511234 646.77480048 -273.62748825 640.39795241 -284.328125 633.94921875 C-294.32406417 627.92773706 -304.3750591 621.99906535 -314.42041016 616.06054688 C-317.65259314 614.14568014 -320.87968925 612.22250588 -324.10546875 610.296875 C-325.61524292 609.39799561 -325.61524292 609.39799561 -327.15551758 608.48095703 C-329.03852834 607.35972193 -330.91998054 606.23586351 -332.79956055 605.10888672 C-333.63656494 604.61146973 -334.47356934 604.11405273 -335.3359375 603.6015625 C-336.05958496 603.16924316 -336.78323242 602.73692383 -337.52880859 602.29150391 C-339.85529948 601.03432527 -342.21675606 600.06229076 -344.6875 599.125 C-344.6875 598.465 -344.6875 597.805 -344.6875 597.125 C-345.40292969 596.86074219 -346.11835938 596.59648438 -346.85546875 596.32421875 C-359.61322714 590.92196796 -370.6450202 581.73068321 -376 568.875 C-377.13348215 565.98977271 -377.6875 564.25332339 -377.6875 561.125 C-378.3475 560.795 -379.0075 560.465 -379.6875 560.125 C-379.75619246 515.61394801 -379.80904217 471.10290164 -379.84069599 426.59180708 C-379.84444803 421.3348049 -379.84833101 416.07780281 -379.85229492 410.82080078 C-379.85308185 409.77424272 -379.85386878 408.72768466 -379.85467956 407.64941272 C-379.86772733 390.71197068 -379.89137772 373.77455924 -379.91895839 356.83713534 C-379.94703007 339.45296854 -379.96367999 322.06881774 -379.96976548 304.6846292 C-379.97387826 293.96088104 -379.98686015 283.23721939 -380.0112494 272.51349786 C-380.02712834 265.15612893 -380.03189547 257.79880462 -380.02800413 250.44141981 C-380.02608595 246.19896566 -380.02899071 241.95666249 -380.04511642 237.71423531 C-380.05979511 233.82393856 -380.06040114 229.93389327 -380.05019668 226.04358456 C-380.04893687 224.64229852 -380.05267471 223.24099631 -380.06214955 221.83974174 C-380.16638842 205.4602914 -376.52015668 190.2783569 -364.9140625 178.12890625 C-360.8680181 174.48746629 -356.39461572 171.82979388 -351.6875 169.125 C-350.36038854 168.35336063 -349.03358644 167.58118903 -347.70703125 166.80859375 C-345.39676422 165.46666832 -343.08459818 164.12832211 -340.76855469 162.79638672 C-333.68200768 158.72033101 -326.65089402 154.55455515 -319.625 150.375 C-309.54368558 144.38169143 -299.41516743 138.4764419 -289.24780273 132.62988281 C-282.04536945 128.48806154 -274.86007774 124.31829917 -267.6875 120.125 C-259.33030828 115.23956497 -250.95278157 110.39086958 -242.5625 105.5625 C-233.68086085 100.44978337 -224.83880307 95.27594311 -216.02612305 90.04541016 C-207.7262715 85.12792675 -199.36950096 80.31136598 -191.0078125 75.5 C-185.05036721 72.07038609 -179.10486415 68.62329739 -173.1875 65.125 C-161.74287079 58.36316703 -150.20701321 51.75809798 -138.6875 45.125 C-134.31199212 42.60504705 -129.93695536 40.08427962 -125.5625 37.5625 C-124.48774414 36.9430249 -123.41298828 36.3235498 -122.30566406 35.68530273 C-115.02177325 31.48284689 -107.75767376 27.24752964 -100.5 23 C-90.71237683 17.27592353 -80.86905066 11.6571098 -70.98046875 6.109375 C-67.67354703 4.25298264 -64.38405964 2.37244345 -61.11328125 0.453125 C-38.96485573 -12.49249604 -22.15282536 -12.93177293 0 0 Z M-179.24951172 186.85009766 C-181.05670518 188.45233267 -182.90576354 190.00317689 -184.75 191.5625 C-194.26036928 199.9504008 -202.9349982 209.0915014 -210.6875 219.125 C-211.74130859 220.45337891 -211.74130859 220.45337891 -212.81640625 221.80859375 C-252.16912612 272.56585856 -269.93187278 337.17994798 -262.5625 400.9375 C-257.86892833 437.06492383 -245.39179988 472.71399998 -224.9375 503 C-224.15826172 504.15870605 -224.15826172 504.15870605 -223.36328125 505.34082031 C-195.29373923 546.7073642 -156.25653837 580.31401336 -108.6875 597.125 C-107.54909668 597.53975586 -107.54909668 597.53975586 -106.38769531 597.96289062 C-49.85569504 618.45099811 14.44408855 617.27204295 69.41748047 592.16357422 C74.11861311 589.94718399 78.73106366 587.57814657 83.3125 585.125 C83.90482422 584.80950195 84.49714844 584.49400391 85.10742188 584.16894531 C99.14435338 576.61842195 112.25960137 567.55066271 124.3125 557.125 C125.08207031 556.46628906 125.85164063 555.80757812 126.64453125 555.12890625 C159.62856776 526.34731667 159.62856776 526.34731667 179.4375 488.75 C179.67752675 485.17066912 179.67752675 485.17066912 177.7109375 483.140625 C174.90112041 480.77928034 172.01445017 479.04568827 168.8125 477.25 C168.1944751 476.90267822 167.5764502 476.55535645 166.93969727 476.19750977 C162.13260662 473.52005702 157.23908457 471.03991772 152.30078125 468.61328125 C143.9282731 464.44344386 135.78789247 459.85111978 127.68847656 455.1784668 C122.78400944 452.36226159 117.80554991 449.70137155 112.79980469 447.0703125 C107.72049307 444.38549545 102.79324784 441.48221051 97.8984375 438.47265625 C94.288645 436.57688538 94.288645 436.57688538 90.3125 436.125 C85.67207506 439.24259815 82.75802946 442.98247387 79.6875 447.625 C59.37420796 477.02428338 30.11994647 494.54140459 -4.5078125 501.94140625 C-37.4546912 507.40707174 -71.09409671 498.20220916 -98.6875 480.125 C-103.32384041 476.79049487 -107.53397982 473.03460775 -111.6875 469.125 C-113.11642578 467.81595703 -113.11642578 467.81595703 -114.57421875 466.48046875 C-139.17174601 443.04935143 -151.67944213 410.56291625 -152.91015625 376.96875 C-153.69625403 342.70161586 -144.23178184 310.39101337 -121.6875 284.125 C-120.62208984 282.87589844 -120.62208984 282.87589844 -119.53515625 281.6015625 C-98.99269033 258.13477367 -70.72929523 243.09438041 -39.6875 239.125 C-35.28725777 238.84067245 -30.90851057 238.7921033 -26.5 238.8125 C-24.72967407 238.81552124 -24.72967407 238.81552124 -22.92358398 238.81860352 C-13.86043193 238.92227818 -5.46714038 239.87470705 3.3125 242.125 C4.0034375 242.29128906 4.694375 242.45757812 5.40625 242.62890625 C40.33534501 251.71906007 67.60295019 274.56067529 87.3125 304.125 C94.66643815 305.66164379 100.17353795 301.19122463 106.25 297.5 C107.40363887 296.81447888 108.55819638 296.13050157 109.71362305 295.44799805 C112.08990265 294.04182466 114.46133403 292.62797729 116.82910156 291.20751953 C122.06629878 288.06951449 127.34783834 285.00762847 132.625 281.9375 C133.6056543 281.36418945 134.58630859 280.79087891 135.59667969 280.20019531 C141.3110148 276.86035325 147.04385681 273.5559389 152.79882812 270.28662109 C155.40938671 268.80154737 158.0138464 267.30627461 160.6171875 265.80859375 C163.5610407 264.11554947 166.52085674 262.46325594 169.5078125 260.84765625 C170.71396696 260.17002729 171.91973036 259.49170151 173.125 258.8125 C174.14207031 258.25949219 175.15914062 257.70648438 176.20703125 257.13671875 C178.58284685 255.2321634 178.58284685 255.2321634 179.04296875 252.0390625 C177.98365935 246.36297686 175.10189244 242.48194644 171.8125 237.8125 C170.84727417 236.40810669 170.84727417 236.40810669 169.86254883 234.9753418 C163.58524529 225.91428006 156.84171014 217.576294 149.40234375 209.4375 C147.62893159 207.47514486 145.93099755 205.47838591 144.25 203.4375 C141.5122392 200.20542128 138.43464971 197.50344134 135.20703125 194.76953125 C133.52329116 193.30797542 131.97595585 191.79856734 130.4375 190.1875 C128.56686301 187.89284154 128.56686301 187.89284154 126.3125 188.125 C126.3125 187.465 126.3125 186.805 126.3125 186.125 C124.70542424 184.59710764 124.70542424 184.59710764 122.5703125 183.03515625 C121.35541138 182.11391968 121.35541138 182.11391968 120.1159668 181.17407227 C119.23207275 180.51850342 118.34817871 179.86293457 117.4375 179.1875 C116.53362549 178.51452881 115.62975098 177.84155762 114.69848633 177.14819336 C106.21298497 170.91353921 97.44205892 165.35832538 88.3125 160.125 C87.38872559 159.58286865 87.38872559 159.58286865 86.44628906 159.02978516 C67.19720397 147.78093625 45.90391186 141.21724465 24.3125 136.125 C23.53777344 135.94211426 22.76304687 135.75922852 21.96484375 135.57080078 C-46.91106975 119.97716523 -126.69035931 139.97909564 -179.24951172 186.85009766 Z " fill="#216EC7" transform="translate(543.6875,126.875)"/>
<path d="M0 0 C3.57474189 0.57194302 6.2521694 1.4878635 9.37890625 3.30078125 C10.20704834 3.77700928 11.03519043 4.2532373 11.88842773 4.74389648 C12.77087158 5.26153564 13.65331543 5.7791748 14.5625 6.3125 C15.49070557 6.85011963 16.41891113 7.38773926 17.37524414 7.94165039 C25.23814773 12.5120838 33.03841334 17.18651072 40.82421875 21.88671875 C46.6117527 25.37680781 52.42957509 28.81512621 58.25 32.25 C59.22187256 32.82355225 60.19374512 33.39710449 61.19506836 33.98803711 C63.46305672 35.3259058 65.73133863 36.66327296 68 38 C65.38732098 39.0118207 64.31959565 39.1336663 61.69189453 38.03466797 C60.42514893 37.27114014 60.42514893 37.27114014 59.1328125 36.4921875 C58.17584473 35.92411377 57.21887695 35.35604004 56.23291016 34.77075195 C55.2072998 34.14515381 54.18168945 33.51955566 53.125 32.875 C52.05942871 32.23844482 50.99385742 31.60188965 49.89599609 30.94604492 C47.67913117 29.62126899 45.46513037 28.29168941 43.25390625 26.95751953 C39.30635605 24.5827103 35.33511267 22.24997076 31.36132812 19.91943359 C23.41537382 15.25309962 15.50451148 10.52763304 7.625 5.75 C6.8510791 5.28376221 6.0771582 4.81752441 5.27978516 4.3371582 C3.50225388 3.25312257 1.74810624 2.13087367 0 1 C0 0.67 0 0.34 0 0 Z " fill="#2868B9" transform="translate(245,751)"/>
<path d="M0 0 C0.33 0.66 0.66 1.32 1 2 C1.66 2 2.32 2 3 2 C3.40089844 3.00675781 3.80179687 4.01351562 4.21484375 5.05078125 C12.27342096 25.08382513 20.98175118 45.45911156 34.97192383 62.15161133 C36 64 36 64 35.6628418 66.2331543 C35.444104 66.81621338 35.22536621 67.39927246 35 68 C28.65998242 59.69060366 23.16754266 51.07249788 18 42 C17.6272998 41.34789551 17.25459961 40.69579102 16.87060547 40.02392578 C11.94110778 31.30579982 7.7486217 22.38738685 3.9375 13.125 C3.54304688 12.167146 3.14859375 11.20929199 2.7421875 10.22241211 C0 3.39212922 0 3.39212922 0 0 Z " fill="#2365B8" transform="translate(291,576)"/>
<path d="M0 0 C0 10.480692 -13.74985746 24.0331923 -20 32 C-20.4635791 32.59570801 -20.9271582 33.19141602 -21.40478516 33.80517578 C-22.55494233 35.24339869 -23.77193264 36.62770366 -25 38 C-25.66 38 -26.32 38 -27 38 C-27.2475 38.7425 -27.495 39.485 -27.75 40.25 C-29.10465039 43.23023087 -30.5101541 44.89919252 -33 47 C-33.66 47 -34.32 47 -35 47 C-34.54009974 42.67693757 -31.72205612 40.36684589 -28.8125 37.4375 C-23.64093773 32.03603785 -19.05279151 26.33645954 -14.625 20.3125 C-14.05499268 19.54156006 -13.48498535 18.77062012 -12.89770508 17.97631836 C-9.37761546 13.13047402 -6.23815682 8.16335844 -3.27490234 2.95776367 C-2 1 -2 1 0 0 Z " fill="#2365B7" transform="translate(721,622)"/>
<path d="M0 0 C0.33 0 0.66 0 1 0 C1.22447694 8.67567471 1.42578031 17.35150089 1.59840012 26.02836323 C1.67928432 30.05841258 1.76781675 34.08797646 1.87451172 38.11743164 C1.97739629 42.01404204 2.05929738 45.91060473 2.12732697 49.80797386 C2.1566983 51.28669765 2.19333113 52.76529756 2.2377243 54.24364662 C2.61170871 66.96241148 0.33180534 76.51311449 -7 87 C-8.37436828 82.87689515 -7.0286438 81.45860525 -5.125 77.625 C-1.98242954 71.26677605 -0.88939422 66.45045366 -0.79467773 59.3737793 C-0.78477814 58.72931351 -0.77487854 58.08484772 -0.76467896 57.42085266 C-0.73326613 55.30534451 -0.70838721 53.18981395 -0.68359375 51.07421875 C-0.66300672 49.60162292 -0.6420098 48.12903276 -0.62062073 46.65644836 C-0.56558057 42.79154067 -0.51609214 38.92658126 -0.46777344 35.06158447 C-0.41742608 31.11327543 -0.36180928 27.16504097 -0.30664062 23.21679688 C-0.19928011 15.47792785 -0.09778662 7.73899655 0 0 Z " fill="#1C66BD" transform="translate(861,619)"/>
<path d="M0 0 C0.33 0 0.66 0 1 0 C1.06774444 14.61303919 0.8720363 29.20445707 0.5 43.8125 C0.45158925 45.78840575 0.40341128 47.76431721 0.35546875 49.74023438 C0.23964508 54.49355935 0.12073257 59.24679728 0 64 C-0.33 64 -0.66 64 -1 64 C-1.7949537 58.38853882 -2.15965886 52.94885538 -2.16796875 47.28515625 C-2.17129715 46.47114853 -2.17462555 45.65714081 -2.17805481 44.81846619 C-2.18308973 43.10155801 -2.1854642 41.38464016 -2.18530273 39.66772461 C-2.18746789 37.10057445 -2.20560133 34.53387006 -2.22460938 31.96679688 C-2.26009299 21.1676909 -1.5286072 10.68985759 0 0 Z " fill="#2263B5" transform="translate(280,463)"/>
<path d="M0 0 C2.94779134 1.3150707 4.83822521 2.68116996 7 5.0625 C15.21125227 13.42933389 24.77835283 19.2384576 35.0324707 24.72583008 C35.777146 25.12439209 36.52182129 25.5229541 37.2890625 25.93359375 C38.28993896 26.4603772 38.28993896 26.4603772 39.31103516 26.99780273 C41 28 41 28 43 30 C41.35 30.33 39.7 30.66 38 31 C38 30.34 38 29.68 38 29 C37.3090625 28.74089844 36.618125 28.48179687 35.90625 28.21484375 C21.9475533 22.37995844 10.30130891 12.94514072 0 2 C0 1.34 0 0.68 0 0 Z " fill="#2869BB" transform="translate(426,589)"/>
<path d="M0 0 C0.66 0 1.32 0 2 0 C0.50052938 3.98405856 -1.63544562 5.31323964 -5.25 7.4375 C-5.797771 7.76097412 -6.34554199 8.08444824 -6.90991211 8.41772461 C-8.18184647 9.16839956 -9.45604364 9.91524775 -10.73193359 10.65917969 C-13.37849519 12.22375625 -15.99500576 13.83386339 -18.61328125 15.4453125 C-20.5959807 16.6516557 -22.57905489 17.8573832 -24.5625 19.0625 C-26.00834473 19.95763306 -26.00834473 19.95763306 -27.48339844 20.87084961 C-28.39766602 21.4200708 -29.31193359 21.96929199 -30.25390625 22.53515625 C-31.07189697 23.034104 -31.8898877 23.53305176 -32.73266602 24.04711914 C-35.33633003 25.1413477 -36.40697523 24.99565907 -39 24 C-38.16863525 23.51644043 -37.33727051 23.03288086 -36.48071289 22.53466797 C-33.35356 20.7147612 -30.22860331 18.89111102 -27.10424805 17.06640625 C-25.75977878 16.28187797 -24.41474058 15.49832373 -23.0690918 14.71582031 C-10.85792125 8.26230221 -10.85792125 8.26230221 0 0 Z " fill="#2869B9" transform="translate(847,709)"/>
<path d="M0 0 C4.27659775 2.25002981 7.17609045 5.15588217 10.3125 8.75 C17.40070714 16.66882072 25.16816849 23.82780136 33 31 C32.67 31.66 32.34 32.32 32 33 C20.61684385 24.21870811 8.41395703 13.76688728 0 2 C0 1.34 0 0.68 0 0 Z " fill="#2466BA" transform="translate(335,654)"/>
<path d="M0 0 C4.53841016 0.86518391 6.9777036 3.48269332 10.125 6.6875 C10.69105957 7.25968262 11.25711914 7.83186523 11.84033203 8.42138672 C15.85611475 12.58385439 19.47869051 16.94505084 22.875 21.625 C23.3095752 22.21627686 23.74415039 22.80755371 24.19189453 23.41674805 C25.3671875 25.1015625 25.3671875 25.1015625 27 28 C26.67 28.99 26.34 29.98 26 31 C24.49412261 29.04594482 22.99521356 27.08718716 21.5 25.125 C21.07074219 24.56941406 20.64148438 24.01382812 20.19921875 23.44140625 C17 19.2265625 17 19.2265625 17 17 C16.01 16.67 15.02 16.34 14 16 C12.67578125 14.65234375 12.67578125 14.65234375 11.3125 12.9375 C8.27749891 9.24504276 4.96779407 5.92756054 1.5390625 2.6015625 C0 1 0 1 0 0 Z " fill="#2165B9" transform="translate(602,399)"/>
<path d="M0 0 C0.54785156 0.23074219 1.09570312 0.46148437 1.66015625 0.69921875 C0.88671875 1.19550781 0.11328125 1.69179688 -0.68359375 2.203125 C-6.43645381 5.95529981 -11.81970068 9.72659408 -16.81640625 14.44921875 C-18.33984375 15.69921875 -18.33984375 15.69921875 -20.33984375 15.69921875 C-20.33984375 16.35921875 -20.33984375 17.01921875 -20.33984375 17.69921875 C-20.99984375 17.69921875 -21.65984375 17.69921875 -22.33984375 17.69921875 C-22.33984375 18.35921875 -22.33984375 19.01921875 -22.33984375 19.69921875 C-24.30132249 21.08859952 -26.30150951 22.42525985 -28.33984375 23.69921875 C-27.9623276 19.1690249 -24.70445382 16.8016805 -21.52734375 13.94921875 C-20.94927979 13.42497314 -20.37121582 12.90072754 -19.77563477 12.3605957 C-5.12245042 -0.6584786 -5.12245042 -0.6584786 0 0 Z " fill="#2567B9" transform="translate(455.33984375,383.30078125)"/>
<path d="M0 0 C0.66 0.33 1.32 0.66 2 1 C-1.58930444 5.17787317 -5.96628935 7.385406 -10.75 9.9375 C-12.30846624 10.77777305 -13.86576706 11.62021134 -15.421875 12.46484375 C-16.18177734 12.87589355 -16.94167969 13.28694336 -17.72460938 13.71044922 C-20.70209894 15.39790629 -23.54559652 17.26518609 -26.37988281 19.18188477 C-27.18184082 19.58685181 -27.18184082 19.58685181 -28 20 C-28.66 19.67 -29.32 19.34 -30 19 C-24.03150042 12.50140341 -15.20730891 8.4504507 -7.5078125 4.359375 C-4.93017506 3.00269995 -4.93017506 3.00269995 -2.3046875 1.265625 C-1.54414062 0.84796875 -0.78359375 0.4303125 0 0 Z " fill="#2A6ABB" transform="translate(799,738)"/>
<path d="M0 0 C0.33 0.99 0.66 1.98 1 3 C-0.38211271 5.20407402 -1.79226965 7.19740986 -3.375 9.25 C-7.70477472 15.04073692 -11.51294994 20.97766592 -15.04248047 27.28808594 C-17.68635384 31.89545128 -17.68635384 31.89545128 -21 33 C-19.38561546 28.42149959 -17.01172584 24.52109166 -14.4375 20.4375 C-14.00002441 19.73947266 -13.56254883 19.04144531 -13.11181641 18.32226562 C-9.06798795 11.95334486 -4.65401512 5.93555552 0 0 Z " fill="#2160B3" transform="translate(330,347)"/>
<path d="M0 0 C4.11934688 1.65571812 7.02303661 4.61563467 10.1875 7.625 C11.34052105 8.70639572 12.49417029 9.78712202 13.6484375 10.8671875 C14.49680176 11.66334473 14.49680176 11.66334473 15.36230469 12.47558594 C18.84656443 15.71883547 22.42419705 18.85846769 26 22 C25.67 22.66 25.34 23.32 25 24 C19.45011573 19.88897462 14.40342042 15.59792278 9.62890625 10.6015625 C8.07478934 8.90898352 8.07478934 8.90898352 6 8 C6 7.34 6 6.68 6 6 C5.38125 5.7525 4.7625 5.505 4.125 5.25 C1.64931313 3.79371361 1.04874998 2.62187494 0 0 Z " fill="#296ABB" transform="translate(664,307)"/>
<path d="M0 0 C1.216875 0.0721875 2.43375 0.144375 3.6875 0.21875 C20.4624079 1.132945 37.20707242 1.10295607 54 1 C54 1.33 54 1.66 54 2 C44.04674547 3.09994846 34.11613111 3.21860586 24.11474609 3.24023438 C21.34574107 3.25010429 18.5774306 3.28129634 15.80859375 3.3125 C14.04687935 3.31901665 12.28515974 3.32427234 10.5234375 3.328125 C9.69645355 3.3404718 8.8694696 3.3528186 8.01742554 3.36553955 C5.70849609 3.35644531 5.70849609 3.35644531 2 3 C1.34 2.01 0.68 1.02 0 0 Z " fill="#377AC8" transform="translate(488,737)"/>
<path d="M0 0 C0 0.66 0 1.32 0 2 C-3.73799181 4.66956764 -7.78170134 6.87871296 -11.75 9.1875 C-12.86117187 9.85458984 -13.97234375 10.52167969 -15.1171875 11.20898438 C-16.18710937 11.83482422 -17.25703125 12.46066406 -18.359375 13.10546875 C-19.34389648 13.68449951 -20.32841797 14.26353027 -21.34277344 14.86010742 C-24 16 -24 16 -26.35253906 15.6809082 C-26.89620117 15.4562085 -27.43986328 15.23150879 -28 15 C-24.04225382 12.686494 -20.08370463 10.37436553 -16.125 8.0625 C-14.99707031 7.40314453 -13.86914062 6.74378906 -12.70703125 6.06445312 C-11.63066406 5.43603516 -10.55429687 4.80761719 -9.4453125 4.16015625 C-8.45031738 3.57886963 -7.45532227 2.99758301 -6.43017578 2.39868164 C-2.262524 0 -2.262524 0 0 0 Z " fill="#2767B9" transform="translate(599,856)"/>
<path d="M0 0 C0.55268555 0.22163818 1.10537109 0.44327637 1.67480469 0.67163086 C-14.47413148 10.43758831 -14.47413148 10.43758831 -22.32519531 14.67163086 C-22.98519531 14.01163086 -23.64519531 13.35163086 -24.32519531 12.67163086 C-20.75395738 10.46389977 -17.16646709 8.28409483 -13.57519531 6.10913086 C-12.55941406 5.48071289 -11.54363281 4.85229492 -10.49707031 4.20483398 C-9.02753906 3.32021484 -9.02753906 3.32021484 -7.52832031 2.41772461 C-6.62758789 1.86785889 -5.72685547 1.31799316 -4.79882812 0.75146484 C-2.32519531 -0.32836914 -2.32519531 -0.32836914 0 0 Z " fill="#2768B9" transform="translate(238.3251953125,270.328369140625)"/>
<path d="M0 0 C0 0.66 0 1.32 0 2 C-3.40359695 4.49917135 -7.11434955 6.54473851 -10.75 8.6875 C-11.76578125 9.30689453 -12.7815625 9.92628906 -13.828125 10.56445312 C-15.29765625 11.43553711 -15.29765625 11.43553711 -16.796875 12.32421875 C-18.14797363 13.1299231 -18.14797363 13.1299231 -19.52636719 13.9519043 C-22.25928552 15.10986111 -23.2901624 15.07958982 -26 14 C-22.0457735 11.65965277 -18.08596494 9.3289215 -14.125 7 C-12.99707031 6.33226562 -11.86914062 5.66453125 -10.70703125 4.9765625 C-9.09248047 4.02910156 -9.09248047 4.02910156 -7.4453125 3.0625 C-5.95281982 2.18271484 -5.95281982 2.18271484 -4.43017578 1.28515625 C-2 0 -2 0 0 0 Z " fill="#2565B7" transform="translate(628,839)"/>
<path d="M0 0 C3.51716993 1.31928086 6.65308518 2.87348391 9.86328125 4.8203125 C11.19262695 5.62275391 11.19262695 5.62275391 12.54882812 6.44140625 C13.9168457 7.27478516 13.9168457 7.27478516 15.3125 8.125 C16.24384766 8.68832031 17.17519531 9.25164063 18.13476562 9.83203125 C20.42521142 11.2180446 22.71352076 12.60745628 25 14 C23.21850586 14.61035156 23.21850586 14.61035156 21 15 C18.38011914 13.67688699 16.01776169 12.32923968 13.5625 10.75 C12.90701172 10.34136719 12.25152344 9.93273437 11.57617188 9.51171875 C10.29654165 8.71339378 9.02114429 7.90823595 7.75048828 7.09570312 C6.22790466 6.14265497 4.66174932 5.25992043 3.08984375 4.390625 C1 3 1 3 0 0 Z " fill="#2565B7" transform="translate(395,838)"/>
<path d="M0 0 C3.44311058 1.31293711 6.64211396 2.8143342 9.86328125 4.6015625 C11.19262695 5.33632813 11.19262695 5.33632813 12.54882812 6.0859375 C13.46083984 6.59382812 14.37285156 7.10171875 15.3125 7.625 C16.24384766 8.140625 17.17519531 8.65625 18.13476562 9.1875 C20.42463469 10.45573517 22.71297715 11.72664162 25 13 C22.45273625 13.95308021 21.31348244 14.1169796 18.72583008 13.15136719 C17.91525146 12.70438477 17.10467285 12.25740234 16.26953125 11.796875 C15.38458984 11.31089844 14.49964844 10.82492187 13.58789062 10.32421875 C12.67201172 9.80472656 11.75613281 9.28523437 10.8125 8.75 C9.88501953 8.24597656 8.95753906 7.74195313 8.00195312 7.22265625 C1.13084241 3.39252723 1.13084241 3.39252723 0 0 Z " fill="#2364B7" transform="translate(641,564)"/>
<path d="M0 0 C3.40202433 1.28924356 6.50564554 2.7652076 9.64453125 4.6015625 C10.48564453 5.09140625 11.32675781 5.58125 12.19335938 6.0859375 C13.05767578 6.59382812 13.92199219 7.10171875 14.8125 7.625 C15.69615234 8.140625 16.57980469 8.65625 17.49023438 9.1875 C19.66194789 10.45531114 21.8317818 11.72622348 24 13 C21.48752061 13.93258436 20.35529829 14.13816052 17.81762695 13.15136719 C17.04894287 12.70438477 16.28025879 12.25740234 15.48828125 11.796875 C14.64845703 11.31089844 13.80863281 10.82492187 12.94335938 10.32421875 C12.07517578 9.80472656 11.20699219 9.28523437 10.3125 8.75 C9.43271484 8.24597656 8.55292969 7.74195313 7.64648438 7.22265625 C1.13172389 3.39517168 1.13172389 3.39517168 0 0 Z " fill="#2665B7" transform="translate(425,856)"/>
<path d="M0 0 C3.16524451 0.33913334 3.97600118 0.97247195 6.125 3.4375 C6.74375 4.283125 7.3625 5.12875 8 6 C8.66 6.66 9.32 7.32 10 8 C10.94192803 9.61989392 11.83288206 11.26989306 12.6875 12.9375 C13.37392578 14.25041016 13.37392578 14.25041016 14.07421875 15.58984375 C15 18 15 18 14 21 C14 20.34 14 19.68 14 19 C13.34 19 12.68 19 12 19 C11.61328125 18.26394531 11.2265625 17.52789062 10.828125 16.76953125 C6.78340684 8.16508734 6.78340684 8.16508734 0 2 C0 1.34 0 0.68 0 0 Z " fill="#296AB8" transform="translate(846,305)"/>
<path d="M0 0 C4.05671683 -0.07431978 8.11316846 -0.12868133 12.17041016 -0.16479492 C13.54971218 -0.17985422 14.92896653 -0.20030613 16.30810547 -0.22631836 C18.29373403 -0.26282415 20.27971618 -0.27814853 22.265625 -0.29296875 C23.45961914 -0.3086792 24.65361328 -0.32438965 25.88378906 -0.34057617 C29.23493371 0.02567632 30.57585392 0.7253954 33 3 C21.77929357 3.23135477 11.08713858 2.83150372 0 1 C0 0.67 0 0.34 0 0 Z " fill="#387ECF" transform="translate(496,628)"/>
<path d="M0 0 C2.66986547 3.32504718 4.62912701 6.86256709 6.625 10.625 C7.23601562 11.77226563 7.84703125 12.91953125 8.4765625 14.1015625 C9.33111302 15.72739963 10.17858622 17.35717244 11 19 C10.01 19 9.02 19 8 19 C6.65304207 16.77812073 5.32258204 14.54882537 4 12.3125 C3.6184375 11.68666016 3.236875 11.06082031 2.84375 10.41601562 C0.7259136 6.8043482 -0.51587721 4.21568411 0 0 Z " fill="#2464B6" transform="translate(402,552)"/>
<path d="M0 0 C-7.09145057 4.72763371 -13.71965219 5.29989187 -22 5 C-18.20469352 2.80428604 -14.09290378 1.85754414 -9.875 0.8125 C-9.14667969 0.62236328 -8.41835938 0.43222656 -7.66796875 0.23632812 C-2.24422722 -1.12211361 -2.24422722 -1.12211361 0 0 Z " fill="#2261B5" transform="translate(560,623)"/>
<path d="M0 0 C4.39383706 1.59623144 8.28995807 3.78024333 12.3125 6.125 C12.95767578 6.49753906 13.60285156 6.87007812 14.26757812 7.25390625 C15.84675945 8.16632213 17.42361864 9.08275509 19 10 C17.44921875 10.734375 17.44921875 10.734375 15 11 C12.45364339 9.84759175 10.19506353 8.67417308 7.8125 7.25 C6.85053711 6.70859375 6.85053711 6.70859375 5.86914062 6.15625 C1.13158721 3.39476163 1.13158721 3.39476163 0 0 Z " fill="#2465B7" transform="translate(335,803)"/>
<path d="M0 0 C0.66 0 1.32 0 2 0 C1.45628039 4.53099675 0.28697545 7.83672603 -1.9375 11.8125 C-2.46214844 12.76769531 -2.98679687 13.72289062 -3.52734375 14.70703125 C-5 17 -5 17 -7 18 C-6.35534798 13.66695924 -4.81074878 10.13327935 -2.9375 6.1875 C-2.11572266 4.44533203 -2.11572266 4.44533203 -1.27734375 2.66796875 C-0.85582031 1.78753906 -0.43429687 0.90710938 0 0 Z " fill="#296AB8" transform="translate(860,688)"/>
<path d="M0 0 C13.6332574 -0.18451025 13.6332574 -0.18451025 20 1 C20 1.33 20 1.66 20 2 C11.64251778 2.84327749 3.39802254 3.12190678 -5 3 C-5 2.67 -5 2.34 -5 2 C-3.35 1.67 -1.7 1.34 0 1 C0 0.67 0 0.34 0 0 Z " fill="#2D6FC1" transform="translate(501,256)"/>
<path d="M0 0 C3.09709467 1.37195861 5.15870525 2.93792501 7.5 5.375 C8.09941406 5.99246094 8.69882812 6.60992188 9.31640625 7.24609375 C10.14978516 8.11427734 10.14978516 8.11427734 11 9 C11.804375 9.804375 12.60875 10.60875 13.4375 11.4375 C13.953125 11.953125 14.46875 12.46875 15 13 C10.1236066 12.56947157 8.03013005 10.51407503 4.6875 7.0625 C3.80449219 6.16660156 2.92148437 5.27070312 2.01171875 4.34765625 C0 2 0 2 0 0 Z " fill="#1F60B4" transform="translate(426,589)"/>
<path d="M0 0 C0.66 0.33 1.32 0.66 2 1 C-1.05099404 4.32366742 -4.23449516 6.54224226 -8.125 8.8125 C-9.17945313 9.43769531 -10.23390625 10.06289063 -11.3203125 10.70703125 C-12.64675781 11.34705078 -12.64675781 11.34705078 -14 12 C-14.66 11.67 -15.32 11.34 -16 11 C-13.06166824 7.78249183 -10.17069535 5.81628904 -6.3125 3.8125 C-2.94126398 2.21263044 -2.94126398 2.21263044 0 0 Z " fill="#2B6DBC" transform="translate(212,284)"/>
<path d="M0 0 C0.639375 0.680625 1.27875 1.36125 1.9375 2.0625 C5.62709757 5.77342473 9.83346374 8.8501349 14 12 C12.29296875 12.7265625 12.29296875 12.7265625 10 13 C7.67578125 11.5234375 7.67578125 11.5234375 5.3125 9.375 C4.52488281 8.68148437 3.73726562 7.98796875 2.92578125 7.2734375 C0.81146344 4.77742743 0.33255616 3.21283068 0 0 Z " fill="#2665B5" transform="translate(174,703)"/>
<path d="M0 0 C0.8971875 0.31324219 0.8971875 0.31324219 1.8125 0.6328125 C0.56410501 1.7387935 -0.68629234 2.84251451 -1.9375 3.9453125 C-2.63359375 4.56019531 -3.3296875 5.17507813 -4.046875 5.80859375 C-6.03864506 7.50595984 -8.07648915 9.08759059 -10.1875 10.6328125 C-10.8475 10.3028125 -11.5075 9.9728125 -12.1875 9.6328125 C-4.47383642 -0.7509654 -4.47383642 -0.7509654 0 0 Z " fill="#2365B9" transform="translate(671.1875,682.3671875)"/>
<path d="M0 0 C1.29700035 3.00119849 0.93380699 4.20184207 -0.109375 7.3828125 C-0.6442982 8.63538018 -1.19161217 9.88271515 -1.75 11.125 C-2.01554687 11.75792969 -2.28109375 12.39085937 -2.5546875 13.04296875 C-4.03581756 16.42943602 -4.85340005 17.9022667 -8 20 C-5.83836487 13.06001352 -3.1063786 6.56882431 0 0 Z " fill="#2363B5" transform="translate(302,392)"/>
<path d="M0 0 C2.21454972 3.32182457 3.04618501 6.16421335 4.125 10 C4.47820312 11.2375 4.83140625 12.475 5.1953125 13.75 C6 17 6 17 6 20 C5.34 20 4.68 20 4 20 C1.44672896 13.16088115 -0.5644718 7.33813334 0 0 Z " fill="#2463B4" transform="translate(395,530)"/>
<path d="M0 0 C0 4.20547571 -2.36738124 6.16710361 -5 9.1875 C-5.47695313 9.74630859 -5.95390625 10.30511719 -6.4453125 10.88085938 C-7.62366206 12.25952836 -8.81098952 13.63051472 -10 15 C-10.33 14.01 -10.66 13.02 -11 12 C-9.453125 9.58984375 -9.453125 9.58984375 -7.25 6.9375 C-6.53328125 6.05964844 -5.8165625 5.18179687 -5.078125 4.27734375 C-3 2 -3 2 0 0 Z " fill="#2262B4" transform="translate(424,409)"/>
<path d="M0 0 C4.06225548 0.57823096 6.84762346 1.89117737 10.3125 4.0625 C11.19550781 4.61035156 12.07851563 5.15820312 12.98828125 5.72265625 C13.65214844 6.14417969 14.31601562 6.56570313 15 7 C14.67 7.99 14.34 8.98 14 10 C13.32453125 9.59007812 12.6490625 9.18015625 11.953125 8.7578125 C11.06109375 8.21898437 10.1690625 7.68015625 9.25 7.125 C8.36828125 6.59132813 7.4865625 6.05765625 6.578125 5.5078125 C4.41725907 4.24403334 2.25429605 3.08501165 0 2 C0 1.34 0 0.68 0 0 Z " fill="#2769BB" transform="translate(762,255)"/>
<path d="M0 0 C0.66 0.33 1.32 0.66 2 1 C-0.38146224 3.59228021 -2.94948743 5.39878018 -5.9375 7.25 C-7.21947266 8.06210937 -7.21947266 8.06210937 -8.52734375 8.890625 C-11.3629493 10.16283981 -12.14111014 9.88198587 -15 9 C-12.54732365 7.46931512 -10.08866106 5.95031377 -7.625 4.4375 C-6.92632813 3.99986328 -6.22765625 3.56222656 -5.5078125 3.11132812 C-3.70814097 2.01249022 -1.85677657 0.99932133 0 0 Z " fill="#2566B8" transform="translate(739,773)"/>
<path d="M0 0 C0.54269531 0.23203125 1.08539062 0.4640625 1.64453125 0.703125 C-0.08116514 1.83344103 -1.81118614 2.95715607 -3.54296875 4.078125 C-4.50589844 4.70460938 -5.46882812 5.33109375 -6.4609375 5.9765625 C-9.05350811 7.52300812 -11.52399991 8.67820575 -14.35546875 9.703125 C-13.06182022 5.8221794 -11.44843533 5.13623205 -8.04296875 2.953125 C-7.07746094 2.31890625 -6.11195313 1.6846875 -5.1171875 1.03125 C-2.35546875 -0.296875 -2.35546875 -0.296875 0 0 Z " fill="#2566B9" transform="translate(649.35546875,699.296875)"/>
<path d="M0 0 C4.04301175 1.48518799 7.61146256 3.42877998 11.3125 5.625 C12.38113281 6.25664063 13.44976562 6.88828125 14.55078125 7.5390625 C15.76314453 8.26222656 15.76314453 8.26222656 17 9 C15.38671875 9.703125 15.38671875 9.703125 13 10 C10.01953125 8.671875 10.01953125 8.671875 6.8125 6.75 C5.74644531 6.12609375 4.68039062 5.5021875 3.58203125 4.859375 C1 3 1 3 0 0 Z " fill="#2363B5" transform="translate(468,881)"/>
<path d="M0 0 C0.33 0.99 0.66 1.98 1 3 C-11.87 2.505 -11.87 2.505 -25 2 C-25 1.67 -25 1.34 -25 1 C-22.14596025 0.83087172 -19.29179998 0.66462837 -16.4375 0.5 C-15.23770508 0.42845703 -15.23770508 0.42845703 -14.01367188 0.35546875 C-9.33281023 0.08799094 -4.68841621 -0.05034541 0 0 Z " fill="#3C80CF" transform="translate(548,257)"/>
<path d="M0 0 C0.66 0 1.32 0 2 0 C0.57250019 3.79049707 -1.16236542 7.27122456 -3.125 10.8125 C-3.93324219 12.27623047 -3.93324219 12.27623047 -4.7578125 13.76953125 C-5.37269531 14.87361328 -5.37269531 14.87361328 -6 16 C-6.6796875 14.35546875 -6.6796875 14.35546875 -7 12 C-5.8203125 9.23828125 -5.8203125 9.23828125 -4.125 6.3125 C-3.57070313 5.33925781 -3.01640625 4.36601562 -2.4453125 3.36328125 C-1 1 -1 1 0 0 Z " fill="#2363B3" transform="translate(410,426)"/>
<path d="M0 0 C-2.119212 1.36405618 -4.24448118 2.71631775 -6.375 4.0625 C-6.97828125 4.45244141 -7.5815625 4.84238281 -8.203125 5.24414062 C-9.76492557 6.22460432 -11.37992214 7.11916075 -13 8 C-13.66 7.67 -14.32 7.34 -15 7 C-11.06592484 2.59383582 -6.13951022 -2.08689492 0 0 Z " fill="#2566B6" transform="translate(400,178)"/>
<path d="M0 0 C2.0622048 -0.054348 4.12482816 -0.09294961 6.1875 -0.125 C7.33605469 -0.14820313 8.48460937 -0.17140625 9.66796875 -0.1953125 C12.91740372 -0.00484152 15.08660521 0.60639873 18 2 C18 2.33 18 2.66 18 3 C11.59646678 3.2361959 6.15370839 2.823321 0 1 C0 0.67 0 0.34 0 0 Z " fill="#1E60B5" transform="translate(474,736)"/>
<path d="M0 0 C5.96652354 1.57013777 10.82909025 4.75029782 16 8 C14.3203125 8.671875 14.3203125 8.671875 12 9 C9.4921875 7.890625 9.4921875 7.890625 6.875 6.25 C6.00617187 5.71890625 5.13734375 5.1878125 4.2421875 4.640625 C2 3 2 3 0 0 Z " fill="#2163B9" transform="translate(703,598)"/>
<path d="M0 0 C0.66 0.33 1.32 0.66 2 1 C-1.29650658 4.69208738 -4.57427631 6.86616894 -9 9 C-11.21875 8.60546875 -11.21875 8.60546875 -13 8 C-10.880788 6.63594382 -8.75551882 5.28368225 -6.625 3.9375 C-6.02171875 3.54755859 -5.4184375 3.15761719 -4.796875 2.75585938 C-3.23507443 1.77539568 -1.62007786 0.88083925 0 0 Z " fill="#2464B6" transform="translate(799,738)"/>
<path d="M0 0 C3.69876091 1.37287342 6.9514476 3.06355453 10.3125 5.125 C11.19550781 5.66382813 12.07851562 6.20265625 12.98828125 6.7578125 C13.65214844 7.16773438 14.31601563 7.57765625 15 8 C13.32421875 8.671875 13.32421875 8.671875 11 9 C8.45703125 7.890625 8.45703125 7.890625 5.8125 6.25 C4.93207031 5.71890625 4.05164063 5.1878125 3.14453125 4.640625 C1 3 1 3 0 0 Z " fill="#2464B6" transform="translate(225,738)"/>
<path d="M0 0 C4.57676297 2.28838148 8.34224191 5.60370842 11 10 C10.67 10.99 10.34 11.98 10 13 C8.32722165 11.21371169 6.66175557 9.4214925 5 7.625 C4.28457031 6.86316406 4.28457031 6.86316406 3.5546875 6.0859375 C0 2.2265625 0 2.2265625 0 0 Z " fill="#1E60B4" transform="translate(335,654)"/>
<path d="M0 0 C3.54243452 1.36591169 6.92627929 2.90931484 10.3125 4.625 C11.63701172 5.29402344 11.63701172 5.29402344 12.98828125 5.9765625 C13.65214844 6.31429687 14.31601562 6.65203125 15 7 C13.02 7.99 13.02 7.99 11 9 C10.67 8.34 10.34 7.68 10 7 C8.3523962 6.28752268 6.68236471 5.62599617 5 5 C2.75 4.0625 2.75 4.0625 1 3 C0.67 2.01 0.34 1.02 0 0 Z " fill="#2262B6" transform="translate(454,611)"/>
<path d="M0 0 C3.66579598 0.58496744 6.50499144 1.57826707 9.75 3.375 C10.52859375 3.79523438 11.3071875 4.21546875 12.109375 4.6484375 C14 6 14 6 15 9 C11.32305352 7.62859834 8.04681411 5.96304199 4.6875 3.9375 C3.80449219 3.41027344 2.92148437 2.88304687 2.01171875 2.33984375 C1.34785156 1.89769531 0.68398438 1.45554688 0 1 C0 0.67 0 0.34 0 0 Z " fill="#2465B8" transform="translate(708,224)"/>
<path d="M0 0 C-3.79817765 3.22269618 -7.57391854 5.74520378 -12 8 C-12.66 7.67 -13.32 7.34 -14 7 C-9.82547171 2.51624739 -6.36062509 -0.54519644 0 0 Z " fill="#2566B7" transform="translate(456,145)"/>
<path d="M0 0 C4.32464532 1.5725983 8.12178595 3.5388257 12 6 C12.33 6.99 12.66 7.98 13 9 C8.33138019 7.39516194 3.90741833 5.02509806 0 2 C0 1.34 0 0.68 0 0 Z " fill="#2364B8" transform="translate(385,699)"/>
<path d="M0 0 C4.21814817 3.9700218 7.61227103 8.30840284 11 13 C8.17288273 12.63722831 7.10634802 12.10850956 5.078125 10.0390625 C4.47484375 9.24242187 3.8715625 8.44578125 3.25 7.625 C2.63640625 6.83351563 2.0228125 6.04203125 1.390625 5.2265625 C0 3 0 3 0 0 Z " fill="#2363B5" transform="translate(414,574)"/>
<path d="M0 0 C5.41490891 0.43319271 8.75792422 1.56593865 13 5 C13.33 5.99 13.66 6.98 14 8 C9.02790438 6.23570801 4.56561939 3.6060834 0 1 C0 0.67 0 0.34 0 0 Z " fill="#2466B9" transform="translate(823,291)"/>
<path d="M0 0 C-1.78524649 1.19713017 -3.5784028 2.38247279 -5.375 3.5625 C-6.87160156 4.55443359 -6.87160156 4.55443359 -8.3984375 5.56640625 C-9.25695312 6.03949219 -10.11546875 6.51257813 -11 7 C-11.66 6.67 -12.32 6.34 -13 6 C-5.74729569 -1.78994167 -5.74729569 -1.78994167 0 0 Z " fill="#2667B7" transform="translate(336,215)"/>
<path d="M0 0 C8.57142857 -0.14285714 8.57142857 -0.14285714 12 1 C12 1.66 12 2.32 12 3 C12.99 3.33 13.98 3.66 15 4 C9.72684667 3.5547115 4.98229776 2.91626837 0 1 C0 0.67 0 0.34 0 0 Z " fill="#2263B5" transform="translate(453,731)"/>
<path d="M0 0 C4.61513112 1.31860889 8.09897612 3.21355437 12 6 C10.02 6.99 10.02 6.99 8 8 C8 7.34 8 6.68 8 6 C6.8553125 5.5978125 6.8553125 5.5978125 5.6875 5.1875 C3.12043161 4.05321397 1.76505092 3.13664059 0 1 C0 0.67 0 0.34 0 0 Z " fill="#2364B8" transform="translate(674,582)"/>
<path d="M0 0 C3.63559661 3.43361902 6.36113346 6.7973607 9 11 C5.54804233 9.5741914 3.8985744 7.90253666 1.75 4.875 C0.96882812 3.78832031 0.96882812 3.78832031 0.171875 2.6796875 C-0.21484375 2.12539063 -0.6015625 1.57109375 -1 1 C-0.67 0.67 -0.34 0.34 0 0 Z " fill="#2465B8" transform="translate(696,337)"/>
<path d="M0 0 C1.41750563 0.11509661 2.83401169 0.24253658 4.25 0.375 C5.03890625 0.44460938 5.8278125 0.51421875 6.640625 0.5859375 C9.085877 1.01507113 10.84836903 1.78600638 13 3 C8.98195309 3.84098656 5.98196457 4.05404945 2 3 C2 2.34 2 1.68 2 1 C1.34 0.67 0.68 0.34 0 0 Z " fill="#2F72C3" transform="translate(534,366)"/>
<path d="M0 0 C2.53435666 2.2037884 3.53691481 3.66578661 4 7 C4.03888349 9.33300933 4.0448635 11.66709801 4 14 C1.01520806 9.52281208 0 5.36175907 0 0 Z " fill="#1E5DB1" transform="translate(285,555)"/>
<path d="M0 0 C0.33 0.99 0.66 1.98 1 3 C-0.21484375 4.82421875 -0.21484375 4.82421875 -1.9375 6.6875 C-2.50339844 7.31011719 -3.06929688 7.93273437 -3.65234375 8.57421875 C-4.09707031 9.04472656 -4.54179687 9.51523437 -5 10 C-5.99 9.67 -6.98 9.34 -8 9 C-5.36 6.03 -2.72 3.06 0 0 Z " fill="#2163B7" transform="translate(345,329)"/>
<path d="M0 0 C3.94876098 0.56410871 6.75634176 1.65735794 10 4 C10.33 4.99 10.66 5.98 11 7 C7.2089881 5.55049545 3.6125362 3.84827434 0 2 C0 1.34 0 0.68 0 0 Z " fill="#2767BA" transform="translate(603,163)"/>
<path d="M0 0 C6.91428571 0.94285714 6.91428571 0.94285714 10 3 C10.33 3.99 10.66 4.98 11 6 C6.95743617 4.77782954 3.50711041 3.37245704 0 1 C0 0.67 0 0.34 0 0 Z " fill="#2467BA" transform="translate(402,710)"/>
<path d="M0 0 C0.33 1.32 0.66 2.64 1 4 C-1.31 5.98 -3.62 7.96 -6 10 C-6 6.41087588 -5.33563446 5.89142971 -3 3.3125 C-2.443125 2.68988281 -1.88625 2.06726563 -1.3125 1.42578125 C-0.879375 0.95527344 -0.44625 0.48476563 0 0 Z " fill="#2A6BBC" transform="translate(701,649)"/>
<path d="M0 0 C3 1 3 1 4.6875 3.0625 C6.43156702 6.96588809 6.21611119 9.74981335 6 14 C5.67 14 5.34 14 5 14 C4.731875 12.948125 4.46375 11.89625 4.1875 10.8125 C3.12838692 7.41218959 1.87464985 4.9823975 0 2 C0 1.34 0 0.68 0 0 Z " fill="#2D6FBF" transform="translate(717,367)"/>
<path d="M0 0 C0.66 0.33 1.32 0.66 2 1 C-0.37409996 3.62400522 -2.81364829 5.44568209 -6 7 C-8.16015625 6.578125 -8.16015625 6.578125 -10 6 C-8.3811004 4.96951963 -6.75467511 3.95085322 -5.125 2.9375 C-4.22007812 2.36902344 -3.31515625 1.80054688 -2.3828125 1.21484375 C-1.20332031 0.61349609 -1.20332031 0.61349609 0 0 Z " fill="#2262B3" transform="translate(641,830)"/>
<path d="M0 0 C3.59391114 1.33488128 6.75490696 2.96022723 10 5 C8.02 5.99 8.02 5.99 6 7 C6 6.34 6 5.68 6 5 C5.195625 4.731875 4.39125 4.46375 3.5625 4.1875 C2.716875 3.795625 1.87125 3.40375 1 3 C0.67 2.01 0.34 1.02 0 0 Z " fill="#2464B5" transform="translate(193,719)"/>
<path d="M0 0 C0 0.33 0 0.66 0 1 C-1.98 1 -3.96 1 -6 1 C-6 1.66 -6 2.32 -6 3 C-8.97 2.505 -8.97 2.505 -12 2 C-12.33 2.66 -12.66 3.32 -13 4 C-14.32 3.34 -15.64 2.68 -17 2 C-11.19233704 0.4943096 -6.0018137 -0.21824777 0 0 Z " fill="#3577C6" transform="translate(506,366)"/>
<path d="M0 0 C0.66 0.33 1.32 0.66 2 1 C-0.48952921 3.66735273 -2.63408134 5.55746343 -6 7 C-6.66 6.34 -7.32 5.68 -8 5 C-6.71475739 4.13619741 -5.42157581 3.28419631 -4.125 2.4375 C-3.04605469 1.72400391 -3.04605469 1.72400391 -1.9453125 0.99609375 C-1.30335938 0.66738281 -0.66140625 0.33867187 0 0 Z " fill="#2E6FBE" transform="translate(420,163)"/>
<path d="M0 0 C3.17538332 0.34021964 4.02276865 1.02466604 6.25 3.4375 C8 6 8 6 8 8 C4.63820226 6.55922954 2.40843732 4.75249979 0 2 C0 1.34 0 0.68 0 0 Z " fill="#2C6DBF" transform="translate(688,330)"/>
<path d="M0 0 C4.7517398 0.43197635 6.92000054 1.32769295 10 5 C9.01 5.495 9.01 5.495 8 6 C6.0546875 5.0390625 6.0546875 5.0390625 3.875 3.625 C3.15054688 3.16351563 2.42609375 2.70203125 1.6796875 2.2265625 C1.12539063 1.82179687 0.57109375 1.41703125 0 1 C0 0.67 0 0.34 0 0 Z " fill="#2364B7" transform="translate(732,238)"/>
<path d="M0 0 C-1.45264038 0.8638129 -2.9123163 1.71580454 -4.375 2.5625 C-5.59316406 3.27599609 -5.59316406 3.27599609 -6.8359375 4.00390625 C-7.55007813 4.33261719 -8.26421875 4.66132812 -9 5 C-9.66 4.67 -10.32 4.34 -11 4 C-7.51147246 0.16261971 -5.09041622 -1.48780432 0 0 Z " fill="#2465B5" transform="translate(498,122)"/>
<path d="M0 0 C4.7517398 0.43197635 6.92000054 1.32769295 10 5 C5.75354935 5 3.61475228 3.18249194 0 1 C0 0.67 0 0.34 0 0 Z " fill="#2E6DBD" transform="translate(352,814)"/>
<path d="M0 0 C-1 3 -1 3 -3.3125 4.75 C-6.32190521 6.14972335 -6.98041673 5.95287489 -10 5 C-8.71186658 4.16121545 -7.41936744 3.32913217 -6.125 2.5 C-5.40570312 2.0359375 -4.68640625 1.571875 -3.9453125 1.09375 C-2 0 -2 0 0 0 Z " fill="#2262B5" transform="translate(698,798)"/>
<path d="M0 0 C0.66 0.33 1.32 0.66 2 1 C-1.07999946 4.67230705 -3.2482602 5.56802365 -8 6 C-5.63404067 3.38499232 -3.13950774 1.61000397 0 0 Z " fill="#2060B3" transform="translate(708,791)"/>
<path d="M0 0 C0.66 0.33 1.32 0.66 2 1 C0.06745228 3.0245738 -1.63158688 4.42105792 -4 6 C-6.1875 5.625 -6.1875 5.625 -8 5 C-6.71475739 4.13619741 -5.42157581 3.28419631 -4.125 2.4375 C-3.04605469 1.72400391 -3.04605469 1.72400391 -1.9453125 0.99609375 C-1.30335938 0.66738281 -0.66140625 0.33867188 0 0 Z " fill="#1E5EB2" transform="translate(720,784)"/>
<path d="M0 0 C-2.90092502 1.93395001 -3.89674737 2.30131941 -7.1875 2.625 C-8.445625 2.74875 -9.70375 2.8725 -11 3 C-11.33 2.34 -11.66 1.68 -12 1 C-8.0186217 -0.3271261 -4.14954773 -0.06915913 0 0 Z " fill="#2768B8" transform="translate(584,731)"/>
<path d="M0 0 C-1.38009621 3.33523252 -2.84950652 5.18607951 -6 7 C-6.99 6.67 -7.98 6.34 -9 6 C-7.8803014 4.99406757 -6.7540588 3.9954151 -5.625 3 C-4.68527344 2.1646875 -4.68527344 2.1646875 -3.7265625 1.3125 C-2 0 -2 0 0 0 Z " fill="#2161B4" transform="translate(601,598)"/>
<path d="M0 0 C-0.99 0.33 -1.98 0.66 -3 1 C-5.38216583 1.92962569 -7.71255736 2.85627868 -10 4 C-10 3.34 -10 2.68 -10 2 C-10.66 1.67 -11.32 1.34 -12 1 C-7.53763531 -0.80619523 -4.68965706 -1.11658501 0 0 Z " fill="#3075C6" transform="translate(639,563)"/>
<path d="M0 0 C0.33 0.66 0.66 1.32 1 2 C0.34 2 -0.32 2 -1 2 C-1 2.66 -1 3.32 -1 4 C-2.96147874 5.38938077 -4.96166576 6.7260411 -7 8 C-6.4376049 4.73810844 -5.5859495 3.08865152 -3 1 C-2.01 0.67 -1.02 0.34 0 0 Z " fill="#2163B5" transform="translate(434,399)"/>
<path d="M0 0 C3.99500618 1.3697164 6.80009492 3.25722422 10 6 C6.38238619 5.67112602 4.44334967 5.37334709 1.625 3 C0 1 0 1 0 0 Z " fill="#2464B6" transform="translate(451,871)"/>
<path d="M0 0 C3.59391114 1.33488128 6.75490696 2.96022723 10 5 C8.3125 5.6875 8.3125 5.6875 6 6 C3.3125 4.75 3.3125 4.75 1 3 C0.67 2.01 0.34 1.02 0 0 Z " fill="#205FB1" transform="translate(303,784)"/>
<path d="M0 0 C3.99500618 1.3697164 6.80009492 3.25722422 10 6 C6.38238619 5.67112602 4.44334967 5.37334709 1.625 3 C0 1 0 1 0 0 Z " fill="#2161B4" transform="translate(274,767)"/>
<path d="M0 0 C-2.3129482 2.3129482 -3.47904875 2.49580975 -6.625 3.125 C-7.44226563 3.29257812 -8.25953125 3.46015625 -9.1015625 3.6328125 C-10.04128906 3.81457031 -10.04128906 3.81457031 -11 4 C-10.34 3.67 -9.68 3.34 -9 3 C-9 2.34 -9 1.68 -9 1 C-5.8035914 -0.06546953 -3.34252724 -0.07427838 0 0 Z " fill="#1F5FB3" transform="translate(599,726)"/>
<path d="M0 0 C1.27875 0.103125 2.5575 0.20625 3.875 0.3125 C4.95394531 0.39951172 4.95394531 0.39951172 6.0546875 0.48828125 C8 1 8 1 10 4 C6.44219804 3.39009109 3.3171411 2.4216319 0 1 C0 0.67 0 0.34 0 0 Z " fill="#2262B6" transform="translate(435,725)"/>
<path d="M0 0 C3.31562557 0.55260426 6.15062207 1.16825705 9 3 C9.33 3.99 9.66 4.98 10 6 C6.40992874 4.66654496 3.20429093 3.1056769 0 1 C0 0.67 0 0.34 0 0 Z " fill="#2C6DBF" transform="translate(629,285)"/>
<path d="M0 0 C4.95 1.98 4.95 1.98 10 4 C10 4.33 10 4.66 10 5 C2.25 4.125 2.25 4.125 0 3 C0 2.01 0 1.02 0 0 Z " fill="#2665B5" transform="translate(490,893)"/>
<path d="M0 0 C0.66 0.33 1.32 0.66 2 1 C0.06745228 3.0245738 -1.63158688 4.42105792 -4 6 C-6.1875 5.625 -6.1875 5.625 -8 5 C-6.71475739 4.13619741 -5.42157581 3.28419631 -4.125 2.4375 C-3.04605469 1.72400391 -3.04605469 1.72400391 -1.9453125 0.99609375 C-1.30335938 0.66738281 -0.66140625 0.33867188 0 0 Z " fill="#2262B2" transform="translate(816,728)"/>
<path d="M0 0 C2.97 1.65 5.94 3.3 9 5 C5 6 5 6 2.25 4.75 C1.5075 4.1725 0.765 3.595 0 3 C0 2.01 0 1.02 0 0 Z " fill="#1F62B7" transform="translate(688,589)"/>
<path d="M0 0 C0.66 0.33 1.32 0.66 2 1 C0.06745228 3.0245738 -1.63158688 4.42105792 -4 6 C-6.1875 5.625 -6.1875 5.625 -8 5 C-6.71475739 4.13619741 -5.42157581 3.28419631 -4.125 2.4375 C-3.04605469 1.72400391 -3.04605469 1.72400391 -1.9453125 0.99609375 C-1.30335938 0.66738281 -0.66140625 0.33867187 0 0 Z " fill="#2160B5" transform="translate(396,288)"/>
<path d="M0 0 C0.66 0.33 1.32 0.66 2 1 C0.625 3.5 0.625 3.5 -1 6 C-1.66 6 -2.32 6 -3 6 C-3 5.34 -3 4.68 -3 4 C-3.66 3.67 -4.32 3.34 -5 3 C-2.625 1.4375 -2.625 1.4375 0 0 Z " fill="#2B70C1" transform="translate(441,151)"/>
<path d="M0 0 C5.75 0.75 5.75 0.75 8 3 C8 3.66 8 4.32 8 5 C4.62496331 3.8141763 2.35277269 2.72426311 0 0 Z " fill="#2D6EBE" transform="translate(418,853)"/>
<path d="M0 0 C0.33 0.66 0.66 1.32 1 2 C-3.01804691 2.84098656 -6.01803543 3.05404945 -10 2 C-10 1.67 -10 1.34 -10 1 C-6.59437148 0.22157062 -3.49234244 -0.09978121 0 0 Z " fill="#3072C2" transform="translate(573,733)"/>
<path d="M0 0 C2.64 0.33 5.28 0.66 8 1 C8 1.33 8 1.66 8 2 C3.9472484 2.98248524 0.16138263 3.08159574 -4 3 C-2.68 2.67 -1.36 2.34 0 2 C0 1.34 0 0.68 0 0 Z " fill="#397ECC" transform="translate(535,627)"/>
<path d="M0 0 C3.0625 1.25 3.0625 1.25 6 3 C6.33 3.99 6.66 4.98 7 6 C3.54074837 4.7508258 0.85306797 3.32472205 -2 1 C-1.34 0.67 -0.68 0.34 0 0 Z " fill="#296CC0" transform="translate(697,594)"/>
<path d="M0 0 C2.25 0.25 2.25 0.25 4 1 C2.02 2.32 0.04 3.64 -2 5 C-2.66 4.67 -3.32 4.34 -4 4 C-2.25 1.9375 -2.25 1.9375 0 0 Z " fill="#2265B9" transform="translate(712,387)"/>
<path d="M0 0 C2.79872437 2.52788007 4.45773019 4.20411134 5 8 C2 7 2 7 0 4 C0 2.68 0 1.36 0 0 Z " fill="#2366B8" transform="translate(713,359)"/>
<path d="M0 0 C0.99 0.33 1.98 0.66 3 1 C1.35 3.64 -0.3 6.28 -2 9 C-3 5 -3 5 -1.5625 2.25 C-1.046875 1.5075 -0.53125 0.765 0 0 Z " fill="#2566BA" transform="translate(320,360)"/>
<path d="M0 0 C-3.28463659 2.18975773 -6.20696275 2.99806563 -10 4 C-10 3.34 -10 2.68 -10 2 C-6.5980513 -0.09350689 -3.94727588 -0.17942163 0 0 Z " fill="#2B6EC0" transform="translate(431,274)"/>
<path d="M0 0 C-3.44450737 2.29633824 -5.93812283 2.54016485 -10 3 C-9.34 2.67 -8.68 2.34 -8 2 C-8 1.34 -8 0.68 -8 0 C-5.13822943 -1.43088528 -3.06624227 -0.59991697 0 0 Z " fill="#3576C7" transform="translate(459,265)"/>
<path d="M0 0 C-5.14285714 4.42857143 -5.14285714 4.42857143 -9 5 C-7.35234966 0.05704899 -4.76872479 -0.25776891 0 0 Z " fill="#2465B7" transform="translate(289,242)"/>
<path d="M0 0 C-5.14285714 4.42857143 -5.14285714 4.42857143 -9 5 C-7.35234966 0.05704899 -4.76872479 -0.25776891 0 0 Z " fill="#2364B4" transform="translate(484,129)"/>
<path d="M0 0 C2.25 0.25 2.25 0.25 4 1 C2.02 2.32 0.04 3.64 -2 5 C-2.66 4.67 -3.32 4.34 -4 4 C-2.25 1.9375 -2.25 1.9375 0 0 Z " fill="#2263B7" transform="translate(643,427)"/>
<path d="M0 0 C2.25 0.25 2.25 0.25 4 1 C2.02 2.32 0.04 3.64 -2 5 C-2.66 4.67 -3.32 4.34 -4 4 C-2.25 1.9375 -2.25 1.9375 0 0 Z " fill="#2062B6" transform="translate(653,421)"/>
<path d="M0 0 C0.66 0.33 1.32 0.66 2 1 C0.25 3.0625 0.25 3.0625 -2 5 C-4.25 4.75 -4.25 4.75 -6 4 C-4.02 2.68 -2.04 1.36 0 0 Z " fill="#2E70C0" transform="translate(684,403)"/>
<path d="M0 0 C1.8125 0.1875 1.8125 0.1875 4 1 C5.75 3.5625 5.75 3.5625 7 6 C4.50638429 4.79618552 2.31856917 3.54571278 0 2 C0 1.34 0 0.68 0 0 Z " fill="#2264B8" transform="translate(593,391)"/>
<path d="M0 0 C3 1.8125 3 1.8125 6 4 C6 4.99 6 5.98 6 7 C3 5.1875 3 5.1875 0 3 C0 2.01 0 1.02 0 0 Z " fill="#1B5CB1" transform="translate(683,324)"/>
<path d="M0 0 C-1.15173355 2.46800047 -2.04783565 4.04783565 -4 6 C-4.99 5.67 -5.98 5.34 -7 5 C-2.25 0 -2.25 0 0 0 Z " fill="#1F61B6" transform="translate(361,315)"/>
<path d="M0 0 C2.88437779 1.29299694 4.87219421 2.65941363 7 5 C6.67 5.66 6.34 6.32 6 7 C1.125 3.375 1.125 3.375 0 0 Z " fill="#2161B5" transform="translate(664,307)"/>
<path d="M0 0 C-1.13474948 3.40424844 -1.96811304 4.21653709 -5 6 C-5.99 5.67 -6.98 5.34 -8 5 C-2.25 0 -2.25 0 0 0 Z " fill="#2062B5" transform="translate(381,299)"/>
<path d="M0 0 C2.25 0.25 2.25 0.25 4 1 C2.02 2.32 0.04 3.64 -2 5 C-2.66 4.67 -3.32 4.34 -4 4 C-2.25 1.9375 -2.25 1.9375 0 0 Z " fill="#2464B5" transform="translate(200,291)"/>
<path d="M0 0 C6.625 0.75 6.625 0.75 10 3 C3.47692308 3.36923077 3.47692308 3.36923077 1.0625 1.5 C0.5365625 0.7575 0.5365625 0.7575 0 0 Z " fill="#1F5EB2" transform="translate(581,265)"/>
<path d="M0 0 C2.25 0.25 2.25 0.25 4 1 C2.02 2.32 0.04 3.64 -2 5 C-2.66 4.67 -3.32 4.34 -4 4 C-2.25 1.9375 -2.25 1.9375 0 0 Z " fill="#2264B7" transform="translate(260,256)"/>
<path d="M0 0 C2.875 0.25 2.875 0.25 6 1 C7.375 3.0625 7.375 3.0625 8 5 C4.62496331 3.8141763 2.35277269 2.72426311 0 0 Z " fill="#2365B9" transform="translate(585,153)"/>
<path d="M0 0 C0.99 0.33 1.98 0.66 3 1 C1.68 1.33 0.36 1.66 -1 2 C-0.67 1.34 -0.34 0.68 0 0 Z " fill="#326EB8" transform="translate(482,893)"/>
<path d="M0 0 C1.65 0 3.3 0 5 0 C5 0.33 5 0.66 5 1 C3.35 1 1.7 1 0 1 C0 0.67 0 0.34 0 0 Z " fill="#3073C5" transform="translate(499,736)"/>
<path d="M0 0 C1.32 0.33 2.64 0.66 4 1 C3.01 1.33 2.02 1.66 1 2 C0.67 1.34 0.34 0.68 0 0 Z " fill="#3276C8" transform="translate(583,269)"/>
<path d="M0 0 C0.66 0 1.32 0 2 0 C1.67 0.99 1.34 1.98 1 3 C0.67 2.01 0.34 1.02 0 0 Z " fill="#357ACD" transform="translate(720,613)"/>
<path d="M0 0 C0.66 0 1.32 0 2 0 C1.67 0.66 1.34 1.32 1 2 C0.67 1.34 0.34 0.68 0 0 Z " fill="#306DB9" transform="translate(233,746)"/>
<path d="M0 0 C3 1 3 1 3 1 Z " fill="#3176C8" transform="translate(536,736)"/>
<path d="M0 0 C3 1 3 1 3 1 Z " fill="#2F74C7" transform="translate(576,267)"/>
<path d="M0 0 C2 1 2 1 2 1 Z " fill="#326BB5" transform="translate(507,902)"/>
<path d="M0 0 C2 1 2 1 2 1 Z " fill="#306DB7" transform="translate(465,883)"/>
<path d="M0 0 C2 1 2 1 2 1 Z " fill="#306CBB" transform="translate(401,845)"/>
<path d="M0 0 C2 1 2 1 2 1 Z " fill="#3270BF" transform="translate(224,741)"/>
<path d="M0 0 C2 1 2 1 2 1 Z " fill="#3277C8" transform="translate(529,736)"/>
<path d="M0 0 C2 1 2 1 2 1 Z " fill="#3174C4" transform="translate(604,720)"/>
<path d="" fill="#3376CA" transform="translate(0,0)"/>
<path d="" fill="#316FB8" transform="translate(0,0)"/>
<path d="" fill="#2E71C4" transform="translate(0,0)"/>
<path d="M0 0 C2 1 2 1 2 1 Z " fill="#3177C7" transform="translate(481,368)"/>
<path d="" fill="#3076C6" transform="translate(0,0)"/>
<path d="M0 0 C2 1 2 1 2 1 Z " fill="#3275C7" transform="translate(605,276)"/>
<path d="M0 0 C2 1 2 1 2 1 Z " fill="#3376C8" transform="translate(587,270)"/>
<path d="M0 0 C2 1 2 1 2 1 Z " fill="#3577CA" transform="translate(481,262)"/>
<path d="M0 0 C2 1 2 1 2 1 Z " fill="#3276CA" transform="translate(545,261)"/>
<path d="M0 0 C2 1 2 1 2 1 Z " fill="#3176CA" transform="translate(489,261)"/>
<path d="M0 0 C2 1 2 1 2 1 Z " fill="#3374BF" transform="translate(353,200)"/>
<path d="" fill="#1E2022" transform="translate(0,0)"/>
<path d="" fill="#2F6AB4" transform="translate(0,0)"/>
<path d="" fill="#326AB3" transform="translate(0,0)"/>
<path d="" fill="#2F6AB6" transform="translate(0,0)"/>
<path d="" fill="#336DB6" transform="translate(0,0)"/>
<path d="" fill="#336DB9" transform="translate(0,0)"/>
<path d="" fill="#336EBA" transform="translate(0,0)"/>
<path d="" fill="#316BB4" transform="translate(0,0)"/>
<path d="" fill="#316CB8" transform="translate(0,0)"/>
<path d="" fill="#306BB9" transform="translate(0,0)"/>
<path d="" fill="#326FBB" transform="translate(0,0)"/>
<path d="" fill="#346FBB" transform="translate(0,0)"/>
<path d="" fill="#326EBC" transform="translate(0,0)"/>
<path d="" fill="#3271BD" transform="translate(0,0)"/>
<path d="" fill="#3370BD" transform="translate(0,0)"/>
<path d="" fill="#2F6FBC" transform="translate(0,0)"/>
<path d="" fill="#316DB9" transform="translate(0,0)"/>
<path d="" fill="#316FBC" transform="translate(0,0)"/>
<path d="" fill="#316EBB" transform="translate(0,0)"/>
<path d="" fill="#316EBC" transform="translate(0,0)"/>
<path d="" fill="#306BBA" transform="translate(0,0)"/>
<path d="" fill="#316DBB" transform="translate(0,0)"/>
<path d="" fill="#316EBD" transform="translate(0,0)"/>
<path d="" fill="#3170BF" transform="translate(0,0)"/>
<path d="" fill="#316FBD" transform="translate(0,0)"/>
<path d="" fill="#2F6DBC" transform="translate(0,0)"/>
<path d="" fill="#316EBC" transform="translate(0,0)"/>
<path d="" fill="#2D6BB7" transform="translate(0,0)"/>
<path d="" fill="#306EBB" transform="translate(0,0)"/>
<path d="" fill="#2F6EBD" transform="translate(0,0)"/>
<path d="" fill="#316DB7" transform="translate(0,0)"/>
<path d="" fill="#2E6CB7" transform="translate(0,0)"/>
<path d="" fill="#2E6CB8" transform="translate(0,0)"/>
<path d="" fill="#306DBA" transform="translate(0,0)"/>
<path d="" fill="#2D6CBC" transform="translate(0,0)"/>
<path d="" fill="#316DBB" transform="translate(0,0)"/>
<path d="" fill="#306FBA" transform="translate(0,0)"/>
<path d="" fill="#2F6CB7" transform="translate(0,0)"/>
<path d="" fill="#3270BE" transform="translate(0,0)"/>
<path d="" fill="#316DBC" transform="translate(0,0)"/>
<path d="" fill="#3574BF" transform="translate(0,0)"/>
<path d="" fill="#316FBF" transform="translate(0,0)"/>
<path d="" fill="#3070B9" transform="translate(0,0)"/>
<path d="" fill="#336FBB" transform="translate(0,0)"/>
<path d="" fill="#306EBB" transform="translate(0,0)"/>
<path d="" fill="#2E75C8" transform="translate(0,0)"/>
<path d="" fill="#2A6EBF" transform="translate(0,0)"/>
<path d="" fill="#3370BD" transform="translate(0,0)"/>
<path d="" fill="#3174C6" transform="translate(0,0)"/>
<path d="" fill="#3175CA" transform="translate(0,0)"/>
<path d="" fill="#3074C6" transform="translate(0,0)"/>
<path d="" fill="#3177C7" transform="translate(0,0)"/>
<path d="" fill="#3176C6" transform="translate(0,0)"/>
<path d="" fill="#2E6BBA" transform="translate(0,0)"/>
<path d="" fill="#326FBA" transform="translate(0,0)"/>
<path d="" fill="#306DB9" transform="translate(0,0)"/>
<path d="" fill="#326FBC" transform="translate(0,0)"/>
<path d="" fill="#3276C8" transform="translate(0,0)"/>
<path d="" fill="#2F74C6" transform="translate(0,0)"/>
<path d="" fill="#3277C7" transform="translate(0,0)"/>
<path d="" fill="#3173C6" transform="translate(0,0)"/>
<path d="" fill="#3176C9" transform="translate(0,0)"/>
<path d="" fill="#3270BA" transform="translate(0,0)"/>
<path d="" fill="#3174C7" transform="translate(0,0)"/>
<path d="" fill="#336DB6" transform="translate(0,0)"/>
<path d="" fill="#3376C8" transform="translate(0,0)"/>
<path d="" fill="#3276C8" transform="translate(0,0)"/>
<path d="" fill="#2D74C7" transform="translate(0,0)"/>
<path d="" fill="#3074C6" transform="translate(0,0)"/>
<path d="" fill="#3173C7" transform="translate(0,0)"/>
<path d="" fill="#3073C7" transform="translate(0,0)"/>
<path d="" fill="#2F70BF" transform="translate(0,0)"/>
<path d="" fill="#3478CB" transform="translate(0,0)"/>
<path d="" fill="#3476C9" transform="translate(0,0)"/>
<path d="" fill="#3176C9" transform="translate(0,0)"/>
<path d="" fill="#3178CB" transform="translate(0,0)"/>
<path d="" fill="#2F74CA" transform="translate(0,0)"/>
<path d="" fill="#3074C7" transform="translate(0,0)"/>
<path d="" fill="#3174C9" transform="translate(0,0)"/>
<path d="" fill="#3077CC" transform="translate(0,0)"/>
<path d="" fill="#3276C9" transform="translate(0,0)"/>
<path d="" fill="#367ACC" transform="translate(0,0)"/>
<path d="" fill="#3176CA" transform="translate(0,0)"/>
<path d="" fill="#3376CA" transform="translate(0,0)"/>
<path d="" fill="#2C70C7" transform="translate(0,0)"/>
<path d="" fill="#2F72C5" transform="translate(0,0)"/>
<path d="" fill="#2F6FBE" transform="translate(0,0)"/>
<path d="" fill="#3077C9" transform="translate(0,0)"/>
<path d="" fill="#3178CB" transform="translate(0,0)"/>
<path d="" fill="#3276C9" transform="translate(0,0)"/>
<path d="" fill="#3277CA" transform="translate(0,0)"/>
<path d="" fill="#3175C8" transform="translate(0,0)"/>
<path d="" fill="#3375C9" transform="translate(0,0)"/>
<path d="" fill="#3175C8" transform="translate(0,0)"/>
<path d="" fill="#3276C9" transform="translate(0,0)"/>
<path d="" fill="#3073C5" transform="translate(0,0)"/>
<path d="" fill="#2F6FBB" transform="translate(0,0)"/>
<path d="" fill="#2E73C4" transform="translate(0,0)"/>
<path d="" fill="#3477CA" transform="translate(0,0)"/>
<path d="" fill="#3271C0" transform="translate(0,0)"/>
<path d="" fill="#3172C0" transform="translate(0,0)"/>
<path d="" fill="#3175C9" transform="translate(0,0)"/>
<path d="" fill="#2F75C9" transform="translate(0,0)"/>
<path d="" fill="#3176C9" transform="translate(0,0)"/>
<path d="" fill="#2F73C6" transform="translate(0,0)"/>
<path d="" fill="#3478C8" transform="translate(0,0)"/>
<path d="" fill="#3378C9" transform="translate(0,0)"/>
<path d="" fill="#3171BE" transform="translate(0,0)"/>
<path d="" fill="#2F74C9" transform="translate(0,0)"/>
<path d="" fill="#3075C9" transform="translate(0,0)"/>
<path d="" fill="#3074C8" transform="translate(0,0)"/>
<path d="" fill="#3377C7" transform="translate(0,0)"/>
<path d="" fill="#3177CA" transform="translate(0,0)"/>
<path d="" fill="#3377CA" transform="translate(0,0)"/>
<path d="" fill="#2F76C7" transform="translate(0,0)"/>
<path d="" fill="#2E74C3" transform="translate(0,0)"/>
<path d="" fill="#3376C8" transform="translate(0,0)"/>
<path d="" fill="#3276C7" transform="translate(0,0)"/>
<path d="" fill="#3278C8" transform="translate(0,0)"/>
<path d="" fill="#3378CA" transform="translate(0,0)"/>
<path d="" fill="#3377C8" transform="translate(0,0)"/>
<path d="" fill="#3275C7" transform="translate(0,0)"/>
<path d="" fill="#357ACD" transform="translate(0,0)"/>
<path d="" fill="#3375CA" transform="translate(0,0)"/>
<path d="" fill="#2F72C5" transform="translate(0,0)"/>
<path d="" fill="#3477CA" transform="translate(0,0)"/>
<path d="" fill="#346EB6" transform="translate(0,0)"/>
<path d="" fill="#3471B8" transform="translate(0,0)"/>
<path d="" fill="#3376C8" transform="translate(0,0)"/>
<path d="" fill="#3874BC" transform="translate(0,0)"/>
<path d="" fill="#316EB7" transform="translate(0,0)"/>
<path d="" fill="#3278CA" transform="translate(0,0)"/>
<path d="" fill="#3475CA" transform="translate(0,0)"/>
<path d="" fill="#3377CA" transform="translate(0,0)"/>
<path d="" fill="#3377CB" transform="translate(0,0)"/>
<path d="" fill="#3074C8" transform="translate(0,0)"/>
<path d="" fill="#3678CB" transform="translate(0,0)"/>
<path d="" fill="#3478C9" transform="translate(0,0)"/>
<path d="" fill="#3474BE" transform="translate(0,0)"/>
<path d="" fill="#2F6DBC" transform="translate(0,0)"/>
<path d="" fill="#3270BC" transform="translate(0,0)"/>
<path d="" fill="#3174C8" transform="translate(0,0)"/>
<path d="" fill="#3173C8" transform="translate(0,0)"/>
<path d="" fill="#3173C8" transform="translate(0,0)"/>
<path d="" fill="#3278CA" transform="translate(0,0)"/>
<path d="" fill="#3477CB" transform="translate(0,0)"/>
<path d="" fill="#3478CB" transform="translate(0,0)"/>
<path d="" fill="#3376C9" transform="translate(0,0)"/>
<path d="" fill="#3278C8" transform="translate(0,0)"/>
<path d="" fill="#3374BE" transform="translate(0,0)"/>
<path d="" fill="#3473BD" transform="translate(0,0)"/>
<path d="" fill="#3172BF" transform="translate(0,0)"/>
<path d="" fill="#3370C0" transform="translate(0,0)"/>
<path d="" fill="#316DBD" transform="translate(0,0)"/>
<path d="" fill="#2D6DB8" transform="translate(0,0)"/>
<path d="" fill="#2D6EBC" transform="translate(0,0)"/>
<path d="" fill="#3170BE" transform="translate(0,0)"/>
<path d="" fill="#3370BC" transform="translate(0,0)"/>
<path d="" fill="#2D70BF" transform="translate(0,0)"/>
<path d="" fill="#2F6FBB" transform="translate(0,0)"/>
<path d="" fill="#3271BF" transform="translate(0,0)"/>
<path d="" fill="#316FBD" transform="translate(0,0)"/>
<path d="" fill="#2D6CBB" transform="translate(0,0)"/>
<path d="" fill="#316EBE" transform="translate(0,0)"/>
<path d="" fill="#306CB9" transform="translate(0,0)"/>
<path d="" fill="#2869B5" transform="translate(0,0)"/>
<path d="" fill="#2F6DBA" transform="translate(0,0)"/>
<path d="" fill="#3270BC" transform="translate(0,0)"/>
<path d="" fill="#326FBD" transform="translate(0,0)"/>
<path d="" fill="#306DBA" transform="translate(0,0)"/>
<path d="" fill="#3470BA" transform="translate(0,0)"/>
<path d="" fill="#2F6FBD" transform="translate(0,0)"/>
<path d="" fill="#3070BC" transform="translate(0,0)"/>
<path d="" fill="#316CB5" transform="translate(0,0)"/>
<path d="" fill="#3375C2" transform="translate(0,0)"/>
<path d="" fill="#336DB9" transform="translate(0,0)"/>
<path d="" fill="#326CB5" transform="translate(0,0)"/>
<path d="" fill="#3472BE" transform="translate(0,0)"/>
<path d="" fill="#306FBB" transform="translate(0,0)"/>
<path d="" fill="#306DB7" transform="translate(0,0)"/>
</svg>
